<svg width="72" height="60" viewBox="0 0 72 60" fill="none" xmlns="http://www.w3.org/2000/svg">
<rect x="12.3491" y="0.401998" width="61.5" height="43.5" rx="1.75" transform="rotate(16 12.3491 0.401998)" fill="white" stroke="#F5F5F5" stroke-width="0.5"/>
<mask id="mask0_627_2303" style="mask-type:luminance" maskUnits="userSpaceOnUse" x="0" y="0" width="72" height="60">
<rect x="12.3491" y="0.401998" width="61.5" height="43.5" rx="1.75" transform="rotate(16 12.3491 0.401998)" fill="white" stroke="white" stroke-width="0.5"/>
</mask>
<g mask="url(#mask0_627_2303)">
<path fill-rule="evenodd" clip-rule="evenodd" d="M33.2979 54.973L24.7839 52.5317L30.4435 32.7944L2.06288 24.6564L4.48849 16.1973L32.8691 24.3353L38.529 4.59674L47.043 7.0381L41.3831 26.7767L69.7627 34.9144L67.3371 43.3735L38.9575 35.2358L33.2979 54.973Z" fill="#FF2B37"/>
<path fill-rule="evenodd" clip-rule="evenodd" d="M55.4854 22.581L51.9181 22.1684L52.7266 19.3487L55.9705 20.8891L56.3731 17.3428L59.2111 18.1566L57.6733 21.3774L61.2407 21.79L60.4321 24.6097L57.1882 23.0692L56.7855 26.6157L53.9475 25.8019L55.4854 22.581Z" fill="#FD0D1B"/>
<path fill-rule="evenodd" clip-rule="evenodd" d="M21.4292 12.8154L17.862 12.4028L18.6705 9.58306L21.9143 11.1235L22.317 7.5772L25.155 8.39099L23.6172 11.6118L27.1845 12.0244L26.376 14.8441L23.132 13.3036L22.7294 16.8501L19.8914 16.0363L21.4292 12.8154Z" fill="#FD0D1B"/>
<path fill-rule="evenodd" clip-rule="evenodd" d="M14.1524 38.1923L10.5851 37.7797L11.3936 34.96L14.6375 36.5005L15.0401 32.9542L17.8781 33.7679L16.3403 36.9888L19.9077 37.4014L19.0991 40.2211L15.8552 38.6806L15.4525 42.227L12.6145 41.4133L14.1524 38.1923Z" fill="#FD0D1B"/>
<path fill-rule="evenodd" clip-rule="evenodd" d="M48.2085 47.9579L44.6412 47.5453L45.4498 44.7256L48.6936 46.2661L49.0963 42.7198L51.9343 43.5336L50.3965 46.7544L53.9638 47.167L53.1553 49.9867L49.9113 48.4462L49.5087 51.9927L46.6707 51.1789L48.2085 47.9579Z" fill="#FD0D1B"/>
</g>
</svg>
