<svg width="75" height="63" viewBox="0 0 75 63" fill="none" xmlns="http://www.w3.org/2000/svg">
<rect x="12.6978" width="64.7819" height="46.0672" rx="2" transform="rotate(16 12.6978 0)" fill="white"/>
<mask id="mask0_627_2345" style="mask-type:luminance" maskUnits="userSpaceOnUse" x="0" y="0" width="75" height="62">
<rect x="12.6978" width="64.7819" height="46.0672" rx="2" transform="rotate(16 12.6978 0)" fill="white"/>
</mask>
<g mask="url(#mask0_627_2345)">
<path fill-rule="evenodd" clip-rule="evenodd" d="M4.23254 29.5217L66.5049 47.378L74.9701 17.8563L12.6978 0L4.23254 29.5217Z" fill="#E54252"/>
<path fill-rule="evenodd" clip-rule="evenodd" d="M-0.000187314 44.2826L62.2722 62.1389L66.5048 47.3781L4.23242 29.5217L-0.000187314 44.2826Z" fill="#5CBE6B"/>
<path fill-rule="evenodd" clip-rule="evenodd" d="M12.6978 0L21.5938 2.5509L19.6893 9.19285L17.5715 10.982L18.4194 13.6215L17.1497 18.0493L15.032 19.8384L15.8798 22.4779L14.6102 26.9057L12.4924 28.6949L13.3403 31.3344L12.0703 35.7635L9.95287 37.5523L10.8006 40.1913L8.89598 46.8335L-7.47135e-05 44.2826L12.6978 0Z" fill="white"/>
<path fill-rule="evenodd" clip-rule="evenodd" d="M9.94533 4.00264L5.7102 7.5806L7.40577 12.8592L3.17063 16.4371L4.8662 21.7157L0.631066 25.2936L2.32664 30.5722L-1.9085 34.1502L-0.212931 39.4287L4.0222 35.8508L2.32664 30.5722L6.56177 26.9942L4.8662 21.7157L9.10134 18.1377L7.40577 12.8592L11.6409 9.28121L9.94533 4.00264Z" fill="#E54252"/>
<path fill-rule="evenodd" clip-rule="evenodd" d="M12.9109 4.85307L17.146 1.27511L18.8416 6.55367L14.6065 10.1316L12.9109 4.85307ZM12.0669 18.9881L10.3713 13.7096L14.6065 10.1316L16.302 15.4102L12.0669 18.9881ZM9.52734 27.8447L7.83177 22.5661L12.0669 18.9881L13.7625 24.2667L9.52734 27.8447ZM6.9879 36.7011L11.2229 33.1232L9.52734 27.8447L5.29221 31.4226L6.98771 36.701L2.7527 40.2789L4.44827 45.5574L8.6834 41.9795L6.9879 36.7011Z" fill="#E54252"/>
</g>
</svg>
