<svg width="539" height="512" viewBox="0 0 539 512" fill="none" xmlns="http://www.w3.org/2000/svg">
<path d="M22.1065 67.1055C22.1065 67.1055 16.8188 54.7525 14.6213 48.9534C12.4237 43.1544 -3.78285 32.5857 0.818176 26.2376C5.4192 19.8895 13.5912 13.9875 13.5912 13.9875C13.5912 13.9875 13.9345 10.6591 18.5699 8.77183C23.2396 6.88456 24.9221 1.94336 29.6604 0.948258C34.3988 -0.0468456 51.6011 0.639432 51.6011 0.639432C51.6011 0.639432 66.2626 -0.287043 83.7396 0.0904101C101.217 0.467863 144.823 7.67379 158.352 11.3797C171.88 15.0856 180.979 8.60027 189.872 10.5905C198.765 12.5807 209.65 24.2817 209.65 24.2817C209.65 24.2817 267.746 46.5515 295.421 57.4633C323.096 68.4094 352.316 90.6449 374.222 104.748C396.129 118.885 423.563 152.376 443.409 159.444C463.256 166.513 465.041 173.89 464.801 174.508C464.56 175.126 456.423 173.993 465.899 187.342C475.376 200.69 497.283 229.239 509.575 254.082C521.867 278.925 529.284 307.166 530.314 330.225C531.31 353.284 519.91 379.191 521.215 398.612C522.52 418.034 528.219 435.912 535.842 448.196C543.464 460.48 551.259 482.99 544.289 498.294C537.318 513.598 537.833 490.402 533.541 478.735C529.284 467.069 498.69 432.034 498.69 432.034C498.69 432.034 472.011 436.941 462.878 435.603C453.745 434.264 465.213 423.97 478.089 419.304C490.965 414.637 498.381 406.505 501.197 393.362C504.012 380.22 498.278 354.244 483.376 334.411C468.509 314.612 407.872 286.852 407.872 286.852C407.872 286.852 416.078 309.636 418.928 325.901C421.778 342.2 446.809 437.799 453.745 459.485C460.646 481.172 475.445 514.799 467.994 511.814C460.543 508.829 408.867 469.505 400.661 450.358C392.455 431.211 379.785 419.921 378.789 411.274C377.759 402.627 361.312 395.387 360.007 386.774C358.702 378.161 356.162 370.166 352.865 363.2C349.569 356.269 341.74 350.573 340.367 344.98C338.994 339.386 341.5 331.391 333.088 320.651C324.675 309.911 312.04 298.93 312.211 293.818C312.383 288.705 314.924 275.563 312.417 267.053C309.911 258.543 303.902 254.837 303.902 254.837L248.278 226.048C248.278 226.048 246.527 252.332 245.119 271.685C243.711 291.038 216.002 352.254 212.774 364.23C209.547 376.205 205.117 395.215 207.418 408.563C209.718 421.911 215.865 434.333 211.744 435.26C207.624 436.186 191.314 428.225 186.164 409.73C181.014 391.235 170.095 360.867 174.146 340.69C178.198 320.514 177.443 296.837 181.838 288.053C186.233 279.268 183.863 265.337 187.194 258.44C190.525 251.543 178.953 242.587 182.147 237.508C185.34 232.43 187.194 220.695 189.495 211.807C191.761 202.92 204.774 190.876 204.774 190.876C204.774 190.876 183.52 166.787 170.61 152.204C157.699 137.621 121.544 108.179 100.152 100.321C78.7609 92.4635 70.3486 85.3605 54.245 83.3703C38.1414 81.3801 27.3599 73.5908 22.1408 67.1055H22.1065Z" fill="#021B3E"/>
</svg>
