<svg width="335" height="217" viewBox="0 0 335 217" fill="none" xmlns="http://www.w3.org/2000/svg">
<path fill-rule="evenodd" clip-rule="evenodd" d="M0.121553 182.598C4.48513 182.598 8.0225 186.876 8.0225 192.154C8.0225 197.432 4.48513 201.71 0.121553 201.71C0.080963 201.71 0.0404448 201.71 0 201.709L0 217L335 217V201.709C334.959 201.71 334.92 201.71 334.878 201.71C330.515 201.71 326.978 197.432 326.978 192.154C326.978 186.876 330.515 182.598 334.878 182.598C334.92 182.598 334.959 182.598 335 182.599V167.012C334.959 167.013 334.92 167.014 334.878 167.014C330.515 167.014 326.978 162.735 326.978 157.457C326.978 152.18 330.515 147.901 334.878 147.901H334.898L334.937 147.901L334.959 147.902L335 147.902V134.669C323.051 134.669 313.364 122.953 313.364 108.5C313.364 94.0472 323.051 82.3306 335 82.3306V69.3918C334.959 69.3927 334.92 69.393 334.878 69.393C330.515 69.393 326.978 65.1144 326.978 59.8367C326.978 54.559 330.515 50.2805 334.878 50.2805C334.92 50.2805 334.959 50.2808 335 50.2817V34.6953C334.978 34.6956 334.959 34.6959 334.937 34.6962C334.917 34.6965 334.898 34.6965 334.878 34.6965C330.515 34.6965 326.978 30.4179 326.978 25.1402C326.978 19.8626 330.515 15.584 334.878 15.584C334.92 15.584 334.959 15.5843 335 15.5852V0L0 0L0 15.5852C0.0404448 15.5843 0.080963 15.584 0.121553 15.584C4.48513 15.584 8.0225 19.8626 8.0225 25.1402C8.0225 30.4179 4.48513 34.6965 0.121553 34.6965C0.080963 34.6965 0.0404448 34.6962 0 34.6953L0 50.2817C0.0404448 50.2808 0.080963 50.2805 0.121553 50.2805C4.48513 50.2805 8.0225 54.559 8.0225 59.8367C8.0225 65.1144 4.48513 69.393 0.121553 69.393C0.080963 69.393 0.0404448 69.3927 0 69.3918L0 82.3306C11.9495 82.3306 21.6364 94.0472 21.6364 108.5C21.6364 122.953 11.9495 134.669 0 134.669L0 147.902C0.0404448 147.901 0.080963 147.901 0.121553 147.901C4.48513 147.901 8.0225 152.18 8.0225 157.457C8.0225 162.735 4.48513 167.014 0.121553 167.014C0.080963 167.014 0.0404448 167.013 0 167.012L0 182.599C0.0404448 182.598 0.080963 182.598 0.121553 182.598Z" fill="white"/>
</svg>
