<svg width="324" height="187" viewBox="0 0 324 187" fill="none" xmlns="http://www.w3.org/2000/svg">
<path d="M302.759 95.4788C302.759 95.4788 308.706 92.1307 311.382 90.4709C314.059 88.8112 323.862 89.5553 323.964 85.5742C324.066 81.593 322.59 76.6888 322.59 76.6888C322.59 76.6888 323.478 75.2405 322.19 73.0477C320.888 70.8442 321.734 68.3319 320.129 66.467C318.523 64.6021 311.369 59.5653 311.369 59.5653C311.369 59.5653 305.738 54.6629 298.568 49.4167C291.398 44.1705 271.575 33.6068 264.971 30.9225C258.367 28.2382 256.697 22.8123 252.493 20.8679C248.29 18.9236 240.286 20.28 240.286 20.28C240.286 20.28 209.965 11.3152 195.428 7.16711C180.881 3.03284 162.225 2.97381 149.032 1.89438C135.827 0.828781 114.419 5.85993 104.227 2.58019C94.0359 -0.699548 91.0383 1.72397 90.9447 2.04728C90.8511 2.37061 94.4848 4.42758 86.5404 6.88309C78.596 9.33859 60.9436 14.0847 48.315 20.306C35.6865 26.5274 23.9773 35.6247 16.4447 44.6052C8.92607 53.5964 5.53098 67.5648 -0.989835 74.9937C-7.51064 82.4227 -15.3286 87.8714 -22.1964 90.4706C-29.0642 93.0699 -39.1573 99.7397 -41.0675 108.064C-42.9778 116.389 -36.0265 106.876 -30.6935 103.497C-25.3744 100.107 -2.21439 95.4289 -2.21439 95.4289C-2.21439 95.4289 7.03854 105.648 11.1377 107.93C15.2368 110.211 13.7855 102.518 10.0292 96.6587C6.27294 90.7996 5.78966 85.2293 8.7095 79.0599C11.6293 72.8905 21.9606 64.1868 34.096 60.7917C46.2071 57.3999 79.2473 64.9356 79.2473 64.9356C79.2473 64.9356 68.9033 71.5888 62.7332 77.2674C56.5525 82.9599 16.9452 113.779 7.45279 120.382C-2.02578 126.995 -18.3771 135.985 -14.4486 137.083C-10.5201 138.18 22.4722 138.284 31.6937 133.098C40.9152 127.912 49.5129 127.273 52.5836 124.093C55.6681 120.924 64.5405 123.085 67.7253 120.015C70.9101 116.945 74.4031 114.505 77.8833 112.715C81.353 110.938 86.2705 111.059 88.5511 109.227C90.8316 107.396 92.2876 103.398 98.9975 101.665C105.707 99.9325 114.196 99.4076 115.705 97.2928C117.213 95.178 120.244 89.0934 123.882 86.436C127.52 83.7785 131.089 84.1401 131.089 84.1401L162.424 89.7122C162.424 89.7122 155.018 100.853 149.613 109.092C144.208 117.331 136.498 150.576 134.105 156.402C131.711 162.228 127.632 171.262 122.583 175.934C117.535 180.607 111.221 183.717 112.598 185.364C113.975 187.01 123.014 188.837 130.801 182.97C138.588 177.102 152.367 168.229 156.959 158.841C161.552 149.453 169.164 140.139 170.101 135.239C171.039 130.339 176.295 125.453 177.079 121.643C177.864 117.833 185.298 117.795 185.576 114.761C185.855 111.727 188.729 106.422 190.543 102.127C192.371 97.8432 190.837 88.9666 190.837 88.9666C190.837 88.9666 206.849 85.8179 216.56 83.9248C226.272 82.0318 249.95 81.3273 261.009 84.7661C272.068 88.2048 277.655 87.9389 284.768 92.1106C291.882 96.2822 298.637 96.4714 302.745 95.4682L302.759 95.4788Z" fill="#1A4C77"/>
</svg>
