<svg width="355" height="386" viewBox="0 0 355 386" fill="none" xmlns="http://www.w3.org/2000/svg">
<path d="M120.378 1.64275C103.954 -1.30561 88.3238 5.84967 79.7539 2.78875C71.1839 -0.272167 49.8208 -1.49139 33.6712 11.2637C17.5216 24.0189 6.08802 38.2523 4.81232 51.7339C3.52456 65.2376 -2.22876 74.9027 1.14309 82.9667C4.53712 91.0426 7.56987 94.5025 7.56987 94.5025C7.56987 94.5025 -0.795299 106.217 9.35922 118.406C19.5359 130.607 36.7933 138.572 36.7933 138.572C36.7933 138.572 67.8457 139.53 70.197 139.807C72.5362 140.105 109.533 152.164 118.998 155.167C128.462 158.17 141.84 163.649 141.84 163.649C141.84 163.649 144.398 203.669 171.537 226.171C198.677 248.673 233.253 259.528 236.251 256.082C239.228 252.624 207.502 230.465 199.373 214.874C191.244 199.283 195.726 191.106 195.726 191.106L270.873 242.885C270.873 242.885 276.918 267.845 269.964 279.926C263.021 291.986 262.076 304.069 262.076 304.069C262.076 304.069 222.544 282.938 218.296 287.885C214.049 292.831 250.17 317.902 250.17 317.902L255.268 330.98L266.356 330.104C266.356 330.104 285.355 361.057 296.357 372.272C307.392 383.477 315.021 386.629 315.81 384.705C316.599 382.782 282.94 316.868 282.94 316.868C282.94 316.868 312.767 295.263 326.588 282.244C340.408 269.224 356.011 243.114 354.712 225.647C353.391 208.169 332.616 147.321 328.844 115.708C325.071 84.0952 317.021 75.4344 324.749 67.4761C332.477 59.5179 347.17 70.4482 349.1 65.2149C351.03 59.9817 338.893 40.0835 309.021 30.7285C279.183 21.3636 261.74 35.5953 261.74 35.5953C261.74 35.5953 200.816 25.2822 170.049 15.9854C139.283 6.68853 120.39 1.62067 120.39 1.62067L120.378 1.64275Z" fill="#1A4C77"/>
</svg>
