<svg width="252" height="283" viewBox="0 0 252 283" fill="none" xmlns="http://www.w3.org/2000/svg">
<path d="M160.385 72.6445C160.385 72.6445 150.752 74.6682 144.472 76.2702C138.182 77.8859 130.559 82.4838 130.559 82.4838L116.351 83.9303L124.143 90.0283C124.143 90.0283 154.727 93.3459 162.711 94.0561C170.694 94.7663 179.199 97.3965 179.199 97.3965L185.841 105.619C185.841 105.619 192.731 120.572 193.354 125.574C193.976 130.575 191.514 138.212 191.514 138.212L180.74 130.781C180.74 130.781 178.697 141.746 181.509 150.997C174.656 157.198 157.161 164.123 154.101 166.754C151.042 169.386 142.243 173.553 135.749 173.497C129.255 173.441 125.193 173.487 125.193 173.487C125.193 173.487 129.514 157.054 133.984 147.476C138.455 137.898 148.54 121.173 148.54 121.173C148.54 121.173 134.199 133.078 121.28 145.096C108.362 157.114 96.5828 171.514 95.1947 173.941C93.8067 176.368 68.0113 182.335 56.482 184.877C44.9389 187.408 37.0123 191.768 28.2828 196.501C19.5534 201.234 1.30337 206.567 0.601953 210.021C-0.110254 213.489 0.998108 217.87 1.75374 219.462C2.50937 221.054 27.5376 236.614 38.6632 242.318C49.7995 248.008 68.7404 255.291 73.4141 254.434C78.1015 253.588 97.9317 252.004 97.9317 252.004C97.9317 252.004 109.588 266.663 122.43 270.174C135.272 273.685 163.438 282.65 167.877 282.121C172.327 281.578 154.222 271.947 150.664 268.139C147.095 264.346 146.056 253.481 142.939 251.042C139.822 248.603 139.235 246.142 139.235 246.142C139.235 246.142 161.821 241.69 170.033 235.061C178.255 228.419 185.481 223.021 195.273 213.094C205.052 203.155 213.07 194.841 218.457 183.468C223.843 172.094 228.032 164.808 228.032 164.808C228.032 164.808 251.139 150.711 251.238 149.277C251.351 147.853 234.151 147.981 232.537 146.206C230.909 144.421 224.033 136.527 224.033 136.527C224.033 136.527 222.644 127.39 221.367 123.878C220.09 120.366 217.051 113.962 217.051 113.962C217.051 113.962 219.714 103.482 218.79 102.759C217.866 102.036 212.77 106.587 212.77 106.587C212.77 106.587 208.579 90.7432 188.326 70.3585C168.074 49.9738 150.625 31.8047 144.706 22.6586C138.787 13.5124 128.802 -1.35057 126.793 0.591189C124.771 2.52216 136.147 31.0385 143.263 43.145C150.379 55.2516 160.41 72.6415 160.41 72.6415L160.385 72.6445Z" fill="#021B3E"/>
</svg>
