<svg width="742" height="415" viewBox="0 0 742 415" fill="none" xmlns="http://www.w3.org/2000/svg">
<path d="M80.1447 302.404C80.1447 302.404 59.3195 282.481 64.8104 247.047C70.3014 211.612 83.6091 158.334 82.0997 140.781C80.5904 123.228 74.3586 112.114 74.3586 112.114C74.3586 112.114 20.6933 94.6447 7.37378 64.6291C-5.94577 34.6134 12.0671 0.0607758 12.0671 0.0607758C12.0671 0.0607758 13.1499 25.3228 52.0863 35.8999C91.0226 46.4769 111.243 61.5022 116.429 83.2015C135.097 66.1501 148.589 67.1258 185.744 75.6508C222.9 84.1758 255.8 71.0814 255.8 71.0814C255.8 71.0814 259.92 94.6175 232.157 116.808C204.394 138.998 167.987 147.004 156.505 145.193C145.023 143.382 123.063 141.789 123.063 141.789C123.063 141.789 138.499 166.158 154.186 176.985C169.546 165.493 177.655 160.778 177.655 160.778C177.655 160.778 190.451 184.484 190.365 199.004C225.844 217.096 288.179 225.467 317.58 220.834C346.982 216.2 428.662 197.937 458.627 172.01C488.591 146.082 561.064 134.928 594.122 133.428C627.166 131.966 687.106 119.838 707.034 125.186C726.975 130.495 741.678 141.267 741.066 149.957C740.454 158.647 722.838 187.358 722.838 187.358C722.838 187.358 660.213 236.081 629.413 259.998C598.614 283.914 550.38 348.189 531.569 353.607C512.759 359.026 505.674 363.33 505.674 363.33C505.674 363.33 545.168 374.767 560.942 371.075C576.716 367.382 609.535 346.654 628.06 345.107C629.192 344.998 630.325 344.889 631.418 344.766C644.407 343.067 653.907 356.823 648.117 368.55C640.585 383.833 631.639 398.684 625.099 399.124C611.471 400.065 549.199 404.258 521.324 401.28C493.449 398.303 447.316 398.762 447.316 398.762C447.316 398.762 420.141 407.447 372.332 412.71C324.485 417.958 239.441 415.628 174.862 384.801C110.297 353.936 114.967 346.212 114.967 346.212C114.967 346.212 61.04 338.741 33.8824 365.829C6.72485 392.918 -6.80893 392.888 5.13086 361.787C17.0707 330.686 80.1588 302.366 80.1588 302.366L80.1447 302.404Z" fill="#021B3E"/>
</svg>
