<svg width="299" height="168" viewBox="0 0 299 168" fill="none" xmlns="http://www.w3.org/2000/svg">
<path d="M75.3377 103.713C80.6517 103.713 84.9733 99.3917 84.9733 94.0777C84.9733 88.7666 80.6517 84.4421 75.3377 84.4421C70.0265 84.4421 65.7049 88.7638 65.7049 94.0777C65.7021 99.3917 70.0237 103.713 75.3377 103.713Z" fill="#E04E39"/>
<path d="M13.7699 155.229C8.42801 149.851 3.79889 143.768 0 137.149V166.743H19.3523C22.1644 166.743 24.6215 166.489 26.7656 166.011C22.5977 163.187 18.701 159.995 15.0894 156.509C14.6505 156.082 14.2032 155.665 13.7699 155.229Z" fill="white"/>
<path d="M235.816 133.99C236.739 130.286 237.538 126.535 238.206 122.736C236.859 122.551 235.47 122.453 234.033 122.453C231.137 122.453 228.409 122.867 225.845 123.695C223.279 124.522 221.037 125.802 219.114 127.541C217.191 129.277 215.693 131.51 214.616 134.241C213.54 136.97 213.004 140.257 213.004 144.103V145.283C213.004 150.7 213.904 155.044 215.704 158.309C217.501 161.577 219.995 163.945 223.179 165.412C223.539 165.58 223.908 165.734 224.283 165.882C226.133 162.058 227.838 158.153 229.396 154.172C231.95 147.634 234.097 140.897 235.816 133.99Z" fill="white"/>
<path d="M55.6164 140.925C50.5541 138.787 45.9165 135.84 41.8437 132.265V166.743H54.5598L68.3856 144.422C64.7852 143.927 61.2994 143.066 57.9785 141.856C57.1846 141.562 56.3963 141.255 55.6164 140.925Z" fill="white"/>
<path d="M193.486 149.062C194.859 146.122 196.128 143.122 197.282 140.067C198.093 137.923 198.853 135.751 199.552 133.554C200.62 130.197 201.562 126.786 202.362 123.317H177.024V166.743H183.485C186.137 162.807 188.575 158.715 190.794 154.488C191.734 152.705 192.631 150.896 193.486 149.062Z" fill="white"/>
<path d="M35.2328 94.6395V115.792H49.0055V72.3689H35.4201L26.5448 89.046C26.3743 90.7009 26.2876 92.3809 26.2876 94.0805C26.2876 98.813 26.9753 103.383 28.2304 107.716L35.2328 94.6395Z" fill="white"/>
<path d="M13.7699 94.6395L20.7807 107.727H26.3854C25.1722 103.381 24.5097 98.8074 24.5097 94.0805C24.5097 93.4767 24.5349 92.8757 24.5544 92.2774L13.9572 72.3689H0V115.792H13.7699V94.6395Z" fill="white"/>
<path d="M125.5 102.237C127.538 101.944 129.333 101.463 130.862 100.781C133.548 99.5818 135.536 97.8654 136.819 95.6319C138.099 93.3985 138.742 90.7317 138.742 87.6288C138.742 84.3611 138.099 81.602 136.819 79.349C135.536 77.0959 133.551 75.3684 130.862 74.1692C128.357 73.051 125.159 72.4612 121.291 72.3857C124.413 78.9716 126.166 86.3234 126.166 94.0805C126.166 96.8563 125.931 99.579 125.5 102.237Z" fill="white"/>
<path d="M115.292 102.578H120.441C121.57 102.578 122.638 102.534 123.658 102.45C124.128 99.7271 124.388 96.9345 124.388 94.0805C124.388 92.8169 124.324 91.5674 124.229 90.3291C124.066 88.1823 123.773 86.0689 123.342 84.006C122.484 79.9164 121.115 76.0168 119.306 72.3689H101.522V115.792H115.292V102.578Z" fill="white"/>
<path d="M161.376 82.6028H175.289V72.3662H159.408C160.269 75.7039 160.912 79.1254 161.376 82.6028Z" fill="white"/>
<path d="M173.427 98.1114V89.116H162.005C162.097 90.7596 162.156 92.4117 162.156 94.0777C162.156 95.4307 162.114 96.7724 162.053 98.1086H173.427V98.1114Z" fill="white"/>
<path d="M159.408 115.792H175.289V105.558H161.376C160.912 109.033 160.269 112.454 159.408 115.792Z" fill="white"/>
<path d="M159.584 105.555C159.917 103.104 160.16 100.624 160.277 98.1114C160.342 96.7752 160.381 95.4306 160.381 94.0805C160.381 92.4144 160.319 90.7624 160.224 89.1187C160.099 86.9243 159.875 84.7551 159.584 82.6055C159.112 79.1253 158.444 75.7066 157.56 72.3689H142.412V115.792H157.56C158.441 112.457 159.112 109.038 159.584 105.555Z" fill="white"/>
<path d="M33.4353 142.457C30.5002 139.997 25.804 138.764 19.3523 138.764H13.7699V133.554H33.8071V123.331C33.8043 123.328 33.8015 123.323 33.7987 123.32H0V133.467C3.69267 140.5 8.34135 146.952 13.7699 152.654C15.0306 153.977 16.3221 155.268 17.6639 156.506C21.1972 159.771 25.0073 162.734 29.055 165.37C30.7909 164.764 32.2612 163.967 33.4353 162.958C36.3704 160.437 37.8408 156.92 37.8408 152.411C37.8408 148.238 36.3704 144.92 33.4353 142.457Z" fill="white"/>
<path d="M41.8465 129.869C45.8663 133.632 50.5149 136.726 55.6193 138.977V123.32H41.8465V129.869Z" fill="white"/>
<path d="M58.9457 140.304C64.0752 142.13 69.5904 143.131 75.3377 143.131C77.655 143.131 79.9333 142.957 82.1668 142.644V123.32H69.5122L58.9457 140.304Z" fill="white"/>
<path d="M68.394 144.422V166.743H82.1668V144.436C79.9305 144.738 77.6551 144.909 75.3377 144.909C72.9812 144.909 70.6667 144.732 68.394 144.422Z" fill="white"/>
<path d="M87.0167 138.518H96.0681C97.6558 137.775 99.2017 136.956 100.692 136.053C102.455 134.982 104.141 133.794 105.754 132.517C109.106 129.858 112.111 126.783 114.671 123.351C112.245 122.755 109.408 122.451 106.126 122.451C99.881 122.451 95.1652 123.765 91.9841 126.389C88.7946 129.017 87.1425 133.059 87.0167 138.518Z" fill="white"/>
<path d="M118.096 144.101C120.203 143.399 121.839 142.25 122.996 140.657C124.153 139.066 124.735 137.151 124.735 134.918C124.735 130.742 123.161 127.619 120.019 125.551C118.998 124.88 117.808 124.329 116.474 123.876C114.093 127.152 111.334 130.135 108.256 132.757C108.846 132.933 109.304 133.196 109.628 133.551C110.269 134.255 110.59 135.144 110.59 136.218C110.59 137.375 110.187 138.328 109.38 139.072C108.575 139.815 107.177 140.187 105.192 140.187H101.966V148.934H105.192C107.012 148.934 108.418 149.099 109.41 149.431C110.403 149.761 111.074 150.259 111.426 150.919C111.775 151.581 111.951 152.367 111.951 153.275C111.951 154.723 111.476 155.799 110.526 156.501C109.575 157.205 108.147 157.555 106.246 157.555C104.468 157.555 103.115 157.233 102.184 156.593C101.253 155.953 100.613 155.095 100.261 154.019C99.9089 152.942 99.7133 151.807 99.6741 150.605H86.399C86.4828 154.038 87.2152 157.035 88.6017 159.601C89.9882 162.167 92.1378 164.141 95.0534 165.524C97.969 166.911 101.701 167.604 106.252 167.604C110.677 167.604 114.355 167.067 117.293 165.991C120.228 164.918 122.442 163.386 123.929 161.401C125.417 159.416 126.163 157.102 126.163 154.455C126.163 151.643 125.481 149.367 124.117 147.631C122.747 145.901 120.74 144.721 118.096 144.101Z" fill="white"/>
<path d="M130.476 123.32V158.748C137.124 153.074 142.888 146.401 147.531 138.954H144.246V123.323H130.476V123.32Z" fill="white"/>
<path d="M157.024 123.474C155.064 128.902 152.585 134.085 149.633 138.951C144.528 147.371 138.038 154.857 130.473 161.094V166.743H144.246V150.18H157.024V166.743H170.796V123.32H157.077C157.06 123.37 157.043 123.423 157.024 123.474Z" fill="white"/>
<path d="M208.039 149.062V140.067H199.183C198.046 143.119 196.799 146.119 195.446 149.062H208.039Z" fill="white"/>
<path d="M185.612 166.743H209.901V156.509H191.739C189.85 160.017 187.801 163.431 185.612 166.743Z" fill="white"/>
<path d="M201.422 133.556H209.901V123.32H204.179C203.396 126.786 202.476 130.199 201.422 133.556Z" fill="white"/>
<path d="M238.064 155.05C236.988 155.897 235.646 156.322 234.03 156.322C233.08 156.322 232.18 156.126 231.33 155.732C231.148 155.648 230.975 155.548 230.804 155.441C229.323 159.184 227.71 162.863 225.971 166.466C228.434 167.224 231.117 167.61 234.03 167.61C236.758 167.61 239.302 167.311 241.661 166.71C244.018 166.111 246.087 165.15 247.864 163.825C249.642 162.503 251.059 160.753 252.113 158.583C253.17 156.411 253.777 153.756 253.944 150.611H240.049C239.8 152.724 239.137 154.203 238.064 155.05Z" fill="white"/>
<path d="M247.708 126.331C245.91 124.986 243.842 124.005 241.505 123.384C240.999 123.25 240.479 123.136 239.959 123.029C239.269 126.974 238.433 130.867 237.471 134.714C237.617 134.803 237.768 134.882 237.91 134.985C239.048 135.812 239.761 137.302 240.049 139.452H253.944C253.777 136.352 253.148 133.724 252.052 131.575C250.956 129.422 249.508 127.672 247.708 126.331Z" fill="white"/>
<path d="M283.433 123.32H279.435C278.625 129.014 277.588 134.635 276.319 140.173C275.606 143.29 274.815 146.376 273.959 149.437C272.998 152.886 271.952 156.299 270.817 159.673H282.066L284.299 166.743H299L283.433 123.32Z" fill="white"/>
<path d="M269.601 123.32L254.031 166.743H266.384C271.659 152.92 275.474 138.384 277.641 123.32H269.601Z" fill="white"/>
<path d="M75.3182 116.659C87.7883 116.659 97.8991 106.548 97.8991 94.0777C97.8991 81.6076 87.7911 71.4968 75.3182 71.4968C62.8453 71.4968 52.7373 81.6076 52.7373 94.0777C52.7401 106.551 62.8481 116.659 75.3182 116.659ZM75.3377 84.4449C80.6517 84.4449 84.9733 88.7666 84.9733 94.0805C84.9733 99.3917 80.6517 103.716 75.3377 103.716C70.0266 103.716 65.7049 99.3945 65.7049 94.0805C65.7021 88.7666 70.0238 84.4449 75.3377 84.4449Z" fill="white"/>
<path d="M1.17126 11.7658V2.66406H2.78419L5.68297 8.05911L8.58176 2.66406H10.1416V11.7658H8.58176V5.39513L6.17496 9.88168H5.13509L2.72828 5.39513V11.7658H1.17126Z" fill="#C39367"/>
<path d="M15.9307 11.9083C15.3744 11.9083 14.8489 11.8216 14.3513 11.6483C13.8537 11.475 13.4093 11.2038 13.0179 10.8349C12.6266 10.4659 12.3219 9.99066 12.1011 9.40363C11.8802 8.8194 11.7684 8.10939 11.7684 7.27637V7.01639C11.7684 6.21972 11.8802 5.53765 12.1011 4.9674C12.3219 4.39994 12.6266 3.93312 13.0179 3.56972C13.4065 3.20632 13.851 2.93797 14.3513 2.77025C14.8489 2.60253 15.3772 2.51587 15.9307 2.51587C16.4842 2.51587 17.0125 2.59973 17.5101 2.77025C18.0077 2.93797 18.4521 3.20632 18.8435 3.56972C19.232 3.93312 19.5395 4.39994 19.7603 4.9674C19.9812 5.53486 20.093 6.21692 20.093 7.01639V7.27637C20.093 8.10939 19.9812 8.81661 19.7603 9.40363C19.5395 9.98786 19.232 10.4659 18.8435 10.8349C18.4521 11.2038 18.0104 11.475 17.5101 11.6483C17.0125 11.8216 16.4842 11.9083 15.9307 11.9083ZM15.9307 10.5302C16.364 10.5302 16.7721 10.4267 17.1523 10.2171C17.5324 10.0102 17.8455 9.6692 18.0887 9.19678C18.3319 8.72436 18.4521 8.08422 18.4521 7.27916V7.01919C18.4521 6.25606 18.3319 5.64667 18.0887 5.19103C17.8455 4.73538 17.5324 4.40553 17.1523 4.20147C16.7693 3.99741 16.364 3.89678 15.9307 3.89678C15.4974 3.89678 15.0865 3.99741 14.7007 4.20147C14.315 4.40553 14.0019 4.73538 13.7643 5.19103C13.5267 5.64667 13.4065 6.25606 13.4065 7.01919V7.27916C13.4065 8.08422 13.5267 8.72436 13.7643 9.19678C14.0019 9.6692 14.315 10.0102 14.7007 10.2171C15.0865 10.4267 15.4974 10.5302 15.9307 10.5302Z" fill="#C39367"/>
<path d="M21.692 11.7657V2.66398H23.2518V9.29457L27.7243 2.66398H29.2338V11.7657H27.674V5.13508L23.2014 11.7657H21.692ZM25.4629 2.07975C24.9262 2.07975 24.4845 1.99868 24.1379 1.83935C23.7913 1.68001 23.5341 1.4452 23.372 1.13771C23.207 0.830224 23.126 0.450053 23.126 0H24.5572C24.5572 0.399736 24.6327 0.679273 24.7836 0.8442C24.9346 1.00913 25.1638 1.09019 25.4657 1.09019C25.7676 1.09019 25.9968 1.00913 26.1478 0.8442C26.2987 0.679273 26.3742 0.396941 26.3742 0H27.8054C27.8054 0.450053 27.7215 0.830224 27.5594 1.13771C27.3945 1.4452 27.1401 1.68001 26.7935 1.83935C26.4441 1.99868 26.0024 2.07975 25.4629 2.07975Z" fill="#C39367"/>
<path d="M34.8273 11.7658V2.66406H41.0023V4.01702H36.3872V6.09677H38.2712C39.4928 6.09677 40.3957 6.35394 40.9771 6.87108C41.5586 7.38822 41.8493 8.07308 41.8493 8.93126C41.8493 9.78943 41.5586 10.4771 40.9771 10.9914C40.3957 11.5086 39.4956 11.7658 38.2712 11.7658H34.8273ZM36.3872 10.4128H38.1426C38.9673 10.4128 39.5291 10.287 39.8338 10.0354C40.1385 9.78384 40.2895 9.41206 40.2895 8.91728C40.2895 8.43089 40.1385 8.0647 39.8338 7.81871C39.5291 7.57272 38.9673 7.44692 38.1426 7.44692H36.3872V10.4128Z" fill="#C39367"/>
<path d="M43.2777 11.7658V2.66406H44.8375V9.29466L49.3101 2.66406H50.8196V11.7658H49.2598V5.13516L44.7872 11.7658H43.2777Z" fill="#C39367"/>
<path d="M55.9155 11.9084C55.1608 11.9084 54.5178 11.7882 53.9839 11.545C53.45 11.3018 53.0419 10.9664 52.7539 10.5359C52.4688 10.1082 52.3067 9.60503 52.2731 9.03478H53.9112C53.9448 9.32829 54.0454 9.58826 54.2103 9.81468C54.3753 10.0411 54.6017 10.2144 54.8868 10.3402C55.1719 10.466 55.5158 10.5275 55.9155 10.5275C56.6004 10.5275 57.1063 10.4073 57.4306 10.1641C57.7548 9.92091 57.917 9.57428 57.917 9.12423C57.917 8.83072 57.8471 8.57914 57.7101 8.36949C57.5704 8.16263 57.3579 7.9977 57.0672 7.88309C56.7765 7.76568 56.3935 7.70698 55.9155 7.70698H54.8113V6.45745H55.9155C56.469 6.45745 56.8883 6.34285 57.1706 6.11363C57.453 5.88441 57.5927 5.56854 57.5927 5.1716C57.5927 4.78025 57.4613 4.47275 57.1958 4.24074C56.9302 4.01152 56.5053 3.89691 55.9155 3.89691C55.5325 3.89691 55.2139 3.94722 54.9539 4.04506C54.6939 4.1457 54.4955 4.29105 54.3613 4.48673C54.2271 4.6824 54.1432 4.91722 54.1069 5.19675H52.4688C52.5303 4.3833 52.8406 3.73198 53.4053 3.24559C53.9671 2.7592 54.8057 2.5188 55.9155 2.5188C57.0253 2.5188 57.8555 2.74801 58.4062 3.20925C58.9569 3.66769 59.2308 4.30224 59.2308 5.1073C59.2308 5.58531 59.0966 5.98504 58.8283 6.3093C58.5599 6.63356 58.1993 6.87117 57.7493 7.01932C58.3027 7.14791 58.7444 7.3967 59.0687 7.76009C59.3929 8.12349 59.5551 8.60149 59.5551 9.19131C59.5551 9.71964 59.4181 10.1893 59.1469 10.603C58.873 11.0139 58.4677 11.3354 57.931 11.5646C57.3943 11.7938 56.7206 11.9084 55.9155 11.9084Z" fill="#C39367"/>
<path d="M61.0897 11.7658V2.66406H62.6495V6.40985H67.069V2.66406H68.6288V11.7658H67.069V7.76H62.6495V11.7658H61.0897Z" fill="#C39367"/>
<path d="M70.6666 11.7658V2.66406H76.7773V4.01702H72.2264V6.40985H76.3859V7.7628H72.2264V10.4156H76.7773V11.7685H70.6666V11.7658Z" fill="#C39367"/>
<path d="M81.8453 11.9083C81.0989 11.9083 80.428 11.749 79.8298 11.4331C79.2316 11.1172 78.7564 10.6196 78.407 9.93757C78.0548 9.2583 77.8814 8.37217 77.8814 7.27918V7.01922C77.8814 6.23092 77.9849 5.55165 78.1945 4.98419C78.4014 4.41674 78.6865 3.94991 79.0471 3.58652C79.4077 3.22312 79.827 2.95476 80.3078 2.78145C80.7886 2.60814 81.303 2.52148 81.8481 2.52148C82.3512 2.52148 82.818 2.58578 83.2513 2.70877C83.6846 2.83456 84.0648 3.02185 84.3946 3.27344C84.7245 3.52502 84.9872 3.8381 85.1885 4.20988C85.387 4.58166 85.51 5.02053 85.5519 5.5237H83.9138C83.802 4.96183 83.5616 4.54812 83.1926 4.28815C82.8236 4.02818 82.3764 3.8968 81.8481 3.8968C81.4679 3.8968 81.0989 3.99464 80.7439 4.19031C80.3889 4.38599 80.0954 4.70746 79.8661 5.1603C79.6369 5.61036 79.5223 6.23092 79.5223 7.01922V7.27918C79.5223 7.90255 79.5922 8.42528 79.732 8.84738C79.8689 9.26669 80.0534 9.59933 80.2854 9.84253C80.5147 10.0857 80.7662 10.2618 81.0402 10.3681C81.3141 10.4771 81.5853 10.5302 81.8536 10.5302C82.477 10.5302 82.9606 10.3848 83.3044 10.0941C83.6455 9.80339 83.8523 9.40645 83.9222 8.90329H85.5603C85.5072 9.43999 85.3814 9.90123 85.1773 10.2814C84.9733 10.6644 84.7049 10.9719 84.3723 11.2123C84.0396 11.4499 83.6594 11.626 83.2345 11.7378C82.7985 11.8524 82.34 11.9083 81.8453 11.9083Z" fill="#C39367"/>
<path d="M3.70659 34.056L0.195618 24.9543H1.85886L4.52563 32.0937L7.08617 24.9543H8.64599L5.2664 34.056H3.70659Z" fill="#C39367"/>
<path d="M9.97656 34.056V24.9543H11.5364V34.056H9.97656Z" fill="#C39367"/>
<path d="M17.2585 34.056V24.9543H18.8714L21.7702 30.3494L24.669 24.9543H26.2288V34.056H24.669V27.6854L22.2622 32.172H21.2223L18.8155 27.6854V34.056H17.2585Z" fill="#C39367"/>
<path d="M28.2722 34.056V24.9543H34.3828V26.3073H29.832V28.7001H33.9915V30.0531H29.832V32.7059H34.3828V34.0588H28.2722V34.056Z" fill="#C39367"/>
<path d="M35.501 34.056L38.752 29.3235L35.6324 24.9543H37.3236L39.9904 28.7644H40.7703V24.9543H42.3301V28.7644H43.11L45.8271 24.9543H47.4652L44.3455 29.2704L47.5965 34.056H45.8271L43.11 29.986H42.3301V34.056H40.7703V29.986H39.9904L37.2481 34.056H35.501Z" fill="#C39367"/>
<path d="M48.4966 35.7471V32.7058H49.4722C49.6371 32.3843 49.7685 31.9985 49.8691 31.5485C49.9698 31.0984 50.048 30.6092 50.104 30.0781C50.1599 29.5498 50.199 29.0131 50.2214 28.4736C50.2437 27.9313 50.2549 27.4086 50.2549 26.9082V24.957H56.4159V32.7058H57.4697V35.7471H56.0385V34.0559H49.9278V35.7471H48.4966ZM51.0572 32.703H54.8533V26.3044H51.7588V27.1626C51.7588 28.4121 51.6973 29.4827 51.5771 30.3744C51.4569 31.2689 51.2836 32.0461 51.0572 32.703Z" fill="#C39367"/>
<path d="M60.2847 34.1986C60.1896 34.1986 60.0974 34.1958 60.0051 34.193C59.9129 34.1874 59.8346 34.1818 59.7647 34.1734V32.7813C59.8346 32.7897 59.9157 32.7981 60.0051 32.8065C60.0974 32.8149 60.1896 32.8205 60.2847 32.8205C60.5195 32.8205 60.7123 32.7953 60.8633 32.7422C61.0142 32.6891 61.1456 32.5969 61.2546 32.4627C61.3637 32.3285 61.4643 32.1384 61.5593 31.898L57.8136 24.9543H59.6333L62.3756 30.2208L64.651 24.9543H66.2639L63.066 32.1328C62.9011 32.4962 62.7334 32.8121 62.5601 33.0749C62.3868 33.3404 62.1967 33.5529 61.987 33.7178C61.7802 33.8827 61.537 34.0029 61.2658 34.0812C60.9947 34.1595 60.6676 34.1986 60.2847 34.1986Z" fill="#C39367"/>
<path d="M67.5359 34.056V24.9543H69.0957V28.7001H73.5152V24.9543H75.075V34.056H73.5152V30.0503H69.0957V34.056H67.5359Z" fill="#C39367"/>
<path d="M76.3524 34.056L79.7991 24.9543H81.3589L84.8055 34.056H83.1423L82.3764 32.0014H78.6837L77.9178 34.056H76.3524ZM79.1869 30.6485H81.8648L80.537 26.9027L79.1869 30.6485Z" fill="#C39367"/>
<path d="M86.0746 34.056V24.9543H89.3899C90.2034 24.9543 90.8771 25.0745 91.4054 25.3122C91.9337 25.5498 92.3251 25.8852 92.5822 26.3185C92.8366 26.7518 92.9652 27.2633 92.9652 27.8531C92.9652 28.443 92.8366 28.9545 92.5822 29.3878C92.3251 29.8211 91.9337 30.1565 91.4054 30.3969C90.8771 30.6345 90.2034 30.7547 89.3899 30.7547H87.6344V34.056H86.0746ZM87.6344 29.4018H89.2585C90.0832 29.4018 90.6451 29.2732 90.9497 29.0188C91.2516 28.7644 91.4054 28.3759 91.4054 27.8559C91.4054 27.3444 91.2544 26.9586 90.9497 26.6986C90.6451 26.4387 90.0832 26.3073 89.2585 26.3073H87.6344V29.4018Z" fill="#C39367"/>
<path d="M98.3043 34.1986C97.748 34.1986 97.2225 34.1119 96.7249 33.9386C96.2273 33.7653 95.7829 33.4941 95.3915 33.1251C95.0002 32.7562 94.6955 32.2809 94.4747 31.6939C94.2538 31.1097 94.142 30.3997 94.142 29.5666V29.3067C94.142 28.51 94.2538 27.8279 94.4747 27.2577C94.6955 26.6902 95.0002 26.2234 95.3915 25.86C95.7801 25.4966 96.2246 25.2283 96.7249 25.0605C97.2225 24.8928 97.7508 24.8062 98.3043 24.8062C98.8578 24.8062 99.3861 24.89 99.8837 25.0605C100.381 25.231 100.826 25.4966 101.217 25.86C101.606 26.2234 101.913 26.6902 102.134 27.2577C102.355 27.8251 102.467 28.5072 102.467 29.3067V29.5666C102.467 30.3997 102.355 31.1069 102.134 31.6939C101.913 32.2781 101.606 32.7562 101.217 33.1251C100.826 33.4941 100.384 33.7653 99.8837 33.9386C99.3861 34.1119 98.8606 34.1986 98.3043 34.1986ZM98.3043 32.8204C98.7376 32.8204 99.1457 32.717 99.5259 32.5074C99.906 32.3005 100.219 31.9595 100.462 31.4871C100.706 31.0146 100.826 30.3745 100.826 29.5694V29.3095C100.826 28.5463 100.706 27.937 100.462 27.4813C100.219 27.0257 99.906 26.6958 99.5259 26.4946C99.1429 26.2905 98.7376 26.1899 98.3043 26.1899C97.871 26.1899 97.4601 26.2905 97.0743 26.4946C96.6886 26.6986 96.3755 27.0285 96.1379 27.4813C95.9003 27.937 95.7801 28.5463 95.7801 29.3095V29.5694C95.7801 30.3745 95.9003 31.0146 96.1379 31.4871C96.3755 31.9595 96.6886 32.3005 97.0743 32.5074C97.4629 32.717 97.871 32.8204 98.3043 32.8204Z" fill="#C39367"/>
<path d="M103.166 35.7471V32.7058H104.141C104.306 32.3843 104.437 31.9985 104.538 31.5485C104.639 31.0984 104.717 30.6092 104.773 30.0781C104.829 29.5498 104.868 29.0131 104.89 28.4736C104.913 27.9313 104.924 27.4086 104.924 26.9082V24.957H111.088V32.7058H112.141V35.7471H110.71V34.0559H104.6V35.7471H103.166ZM105.729 32.703H109.525V26.3044H106.43V27.1626C106.43 28.4121 106.369 29.4827 106.249 30.3744C106.126 31.2689 105.952 32.0461 105.729 32.703Z" fill="#C39367"/>
<path d="M113.508 34.056V24.9543H115.068V28.7001H119.488V24.9543H121.047V34.056H119.488V30.0503H115.068V34.056H113.508Z" fill="#C39367"/>
<path d="M123.082 34.056V24.9543H124.642V28.387H126.138C127.359 28.387 128.262 28.6442 128.844 29.1614C129.425 29.6785 129.716 30.3634 129.716 31.2215C129.716 32.0797 129.425 32.7674 128.844 33.2817C128.262 33.7989 127.362 34.056 126.138 34.056H123.082ZM124.642 32.7031H126.006C126.831 32.7031 127.393 32.5773 127.698 32.3257C128.002 32.0741 128.153 31.7051 128.153 31.2215C128.153 30.7379 128.002 30.369 127.698 30.1174C127.393 29.8658 126.831 29.74 126.006 29.74H124.642V32.7031ZM130.884 34.056V24.9543H132.444V34.056H130.884Z" fill="#C39367"/>
<path d="M134.485 34.0559V24.9543H136.045V31.5849L140.517 24.9543H142.027V34.0559H140.467V27.4254L135.994 34.0559H134.485ZM138.256 24.37C137.719 24.37 137.277 24.289 136.931 24.1296C136.584 23.9703 136.327 23.7355 136.165 23.428C136 23.1205 135.919 22.7403 135.919 22.2903H137.35C137.35 22.69 137.425 22.9696 137.576 23.1345C137.727 23.2994 137.957 23.3805 138.258 23.3805C138.563 23.3805 138.79 23.2994 138.94 23.1345C139.091 22.9696 139.167 22.6872 139.167 22.2903H140.598C140.598 22.7403 140.514 23.1205 140.352 23.428C140.187 23.7355 139.933 23.9703 139.586 24.1296C139.234 24.289 138.792 24.37 138.256 24.37Z" fill="#C39367"/>
<path d="M1.17126 50.775V41.6733H7.34622V43.0263H2.73108V45.106H4.61515C5.83672 45.106 6.73962 45.3632 7.32105 45.8804C7.90249 46.3975 8.19321 47.0824 8.19321 47.9405C8.19321 48.7987 7.90249 49.4864 7.32105 50.0007C6.73962 50.5179 5.83952 50.775 4.61515 50.775H1.17126ZM2.73108 49.4221H4.48656C5.31119 49.4221 5.87306 49.2963 6.17775 49.0447C6.48245 48.7931 6.6334 48.4213 6.6334 47.9266C6.6334 47.4402 6.48245 47.074 6.17775 46.828C5.87306 46.582 5.31119 46.4562 4.48656 46.4562H2.73108V49.4221Z" fill="#C39367"/>
<path d="M8.76342 50.775L12.2101 41.6733H13.7699L17.2166 50.775H15.5533L14.7874 48.7204H11.0947L10.3288 50.775H8.76342ZM11.5979 47.3675H14.2759L12.9481 43.6217L11.5979 47.3675Z" fill="#C39367"/>
<path d="M18.536 50.9176C18.4661 50.9176 18.3906 50.9148 18.3095 50.912C18.2257 50.9064 18.1502 50.898 18.0831 50.8785V49.3969C18.1083 49.4053 18.1726 49.4109 18.2788 49.4109C18.4689 49.4109 18.6394 49.3746 18.7847 49.2991C18.9329 49.2264 19.0559 49.0838 19.1565 48.877C19.2572 48.6701 19.3382 48.3654 19.4025 47.9657C19.4668 47.566 19.5143 47.046 19.5395 46.4003C19.5646 45.7546 19.5786 44.9579 19.5786 44.0131V41.6733H25.9464V50.775H24.3866V43.0263H21.0825V44.2758C21.0825 45.4107 21.049 46.3695 20.9791 47.1494C20.9092 47.9294 20.8086 48.5695 20.6744 49.0671C20.5402 49.5646 20.3697 49.9504 20.1684 50.2188C19.9644 50.4871 19.7268 50.6716 19.4528 50.7722C19.1789 50.8673 18.8714 50.9176 18.536 50.9176Z" fill="#C39367"/>
<path d="M30.3073 50.775V43.0263H27.2519V41.6733H34.9224V43.0263H31.8671V50.775H30.3073Z" fill="#C39367"/>
<path d="M36.225 50.775V41.6733H37.7848V48.3039L42.2574 41.6733H43.7669V50.775H42.2071V44.1444L37.7345 50.775H36.225Z" fill="#C39367"/>
<path d="M45.7991 50.7748V41.6731H47.3589V48.3037L51.8315 41.6731H53.341V50.7748H51.7812V44.1442L47.3086 50.7748H45.7991ZM49.57 41.0861C49.0333 41.0861 48.5917 41.005 48.245 40.8457C47.8984 40.6864 47.6412 40.4516 47.4791 40.1441C47.3142 39.8366 47.2331 39.4564 47.2331 39.0063H48.6643C48.6643 39.4061 48.7398 39.6856 48.8908 39.8506C49.0417 40.0155 49.2709 40.0965 49.5728 40.0965C49.8747 40.0965 50.1039 40.0155 50.2549 39.8506C50.4058 39.6856 50.4813 39.4033 50.4813 39.0063H51.9125C51.9125 39.4564 51.8287 39.8366 51.6666 40.1441C51.5016 40.4516 51.2472 40.6864 50.9006 40.8457C50.5484 41.0078 50.1067 41.0861 49.57 41.0861Z" fill="#C39367"/>
<path d="M58.9261 50.9176C58.1798 50.9176 57.5089 50.7582 56.9107 50.4424C56.3125 50.1265 55.8372 49.6289 55.4878 48.9468C55.1356 48.2676 54.9623 47.3815 54.9623 46.2885V46.0285C54.9623 45.2402 55.0657 44.5609 55.2754 43.9935C55.4822 43.426 55.7674 42.9592 56.128 42.5958C56.4886 42.2324 56.9079 41.964 57.3887 41.7907C57.8695 41.6174 58.3838 41.5308 58.9289 41.5308C59.4321 41.5308 59.8989 41.5951 60.3322 41.7181C60.7655 41.8438 61.1456 42.0311 61.4755 42.2827C61.8053 42.5343 62.0681 42.8474 62.2694 43.2192C62.4678 43.5909 62.5908 44.0298 62.6328 44.533H60.9947C60.8829 43.9711 60.6425 43.5574 60.2735 43.2974C59.9045 43.0375 59.4572 42.9061 58.9289 42.9061C58.5487 42.9061 58.1798 43.0039 57.8247 43.1996C57.4697 43.3953 57.1762 43.7167 56.947 44.1696C56.7178 44.6196 56.6032 45.2402 56.6032 46.0285V46.2885C56.6032 46.9118 56.6731 47.4346 56.8128 47.8567C56.9498 48.276 57.1343 48.6086 57.3663 48.8518C57.5955 49.095 57.8471 49.2711 58.1211 49.3773C58.395 49.4864 58.6662 49.5395 58.9345 49.5395C59.5579 49.5395 60.0415 49.3941 60.3853 49.1034C60.7263 48.8127 60.9332 48.4157 61.0031 47.9126H62.6411C62.588 48.4493 62.4622 48.9105 62.2582 49.2907C62.0541 49.6736 61.7858 49.9811 61.4531 50.2215C61.1205 50.4591 60.7403 50.6352 60.3154 50.7471C59.8793 50.8617 59.4209 50.9176 58.9261 50.9176Z" fill="#C39367"/>
<path d="M64.1227 50.775V41.6733H65.6825V45.4834H66.5938L69.8979 41.6733H71.6674L67.8321 46.0033L71.7987 50.775H69.9007L66.5966 46.705H65.6853V50.775H64.1227Z" fill="#C39367"/>
<path d="M73.1238 50.775V41.6733H74.6836V48.3039L79.1562 41.6733H80.6657V50.775H79.1058V44.1444L74.6333 50.775H73.1238Z" fill="#C39367"/>
<path d="M82.6978 50.7748V41.6731H84.2576V48.3037L88.7302 41.6731H90.2397V50.7748H88.6799V44.1442L84.2073 50.7748H82.6978ZM86.4687 41.0861C85.932 41.0861 85.4904 41.005 85.1437 40.8457C84.7971 40.6864 84.5399 40.4516 84.3778 40.1441C84.2129 39.8366 84.1318 39.4564 84.1318 39.0063H85.563C85.563 39.4061 85.6385 39.6856 85.7895 39.8506C85.9404 40.0155 86.1696 40.0965 86.4715 40.0965C86.7734 40.0965 87.0026 40.0155 87.1536 39.8506C87.3045 39.6856 87.38 39.4033 87.38 39.0063H88.8112C88.8112 39.4564 88.7274 39.8366 88.5653 40.1441C88.4003 40.4516 88.1459 40.6864 87.7993 40.8457C87.4499 41.0078 87.0082 41.0861 86.4687 41.0861Z" fill="#C39367"/>
<path d="M95.8304 50.775V41.6733H102.005V43.0263H97.3902V45.106H99.2743C100.496 45.106 101.399 45.3632 101.98 45.8804C102.562 46.3975 102.852 47.0824 102.852 47.9405C102.852 48.7987 102.562 49.4864 101.98 50.0007C101.399 50.5179 100.499 50.775 99.2743 50.775H95.8304ZM97.393 49.4221H99.1485C99.9731 49.4221 100.535 49.2963 100.84 49.0447C101.144 48.7931 101.295 48.4213 101.295 47.9266C101.295 47.4402 101.144 47.074 100.84 46.828C100.535 46.582 99.9731 46.4562 99.1485 46.4562H97.393V49.4221Z" fill="#C39367"/>
<path d="M104.284 50.775V41.6733H105.843V48.3039L110.316 41.6733H111.825V50.775H110.266V44.1444L105.793 50.775H104.284Z" fill="#C39367"/>
<path d="M116.921 50.9174C116.167 50.9174 115.524 50.7972 114.99 50.554C114.456 50.3108 114.048 49.9754 113.76 49.5449C113.475 49.1172 113.313 48.6141 113.279 48.0438H114.917C114.951 48.3373 115.051 48.5973 115.216 48.8237C115.381 49.0501 115.608 49.2234 115.893 49.3492C116.178 49.475 116.522 49.5365 116.921 49.5365C117.606 49.5365 118.112 49.4163 118.437 49.1731C118.761 48.9299 118.923 48.5833 118.923 48.1333C118.923 47.8398 118.853 47.5882 118.716 47.3785C118.576 47.1717 118.364 47.0067 118.073 46.8921C117.782 46.7775 117.399 46.716 116.921 46.716H115.817V45.4665H116.921C117.475 45.4665 117.894 45.3519 118.177 45.1227C118.459 44.8934 118.599 44.5776 118.599 44.1806C118.599 43.7893 118.467 43.4818 118.202 43.2498C117.936 43.0206 117.511 42.9059 116.921 42.9059C116.538 42.9059 116.22 42.9563 115.96 43.0541C115.7 43.1547 115.501 43.3001 115.367 43.4958C115.233 43.6914 115.149 43.9262 115.113 44.2058H113.475C113.536 43.3923 113.847 42.741 114.411 42.2546C114.973 41.7682 115.812 41.5278 116.921 41.5278C118.031 41.5278 118.861 41.7571 119.412 42.2183C119.963 42.6767 120.237 43.3113 120.237 44.1163C120.237 44.5943 120.103 44.9941 119.834 45.3183C119.566 45.6426 119.205 45.8802 118.755 46.0284C119.309 46.1569 119.75 46.4057 120.075 46.7691C120.399 47.1325 120.561 47.6105 120.561 48.2004C120.561 48.7287 120.424 49.1983 120.153 49.612C119.879 50.0229 119.474 50.3444 118.937 50.5736C118.4 50.8028 117.726 50.9174 116.921 50.9174Z" fill="#C39367"/>
<path d="M122.096 50.775V41.6733H123.655V45.4191H128.075V41.6733H129.635V50.775H128.075V46.7693H123.655V50.775H122.096Z" fill="#C39367"/>
<path d="M131.67 50.775V41.6733H137.78V43.0263H133.232V45.4191H137.392V46.7721H133.232V49.4221H137.783V50.775H131.67Z" fill="#C39367"/>
<path d="M142.851 50.9176C142.105 50.9176 141.434 50.7582 140.836 50.4424C140.238 50.1265 139.762 49.6289 139.413 48.9468C139.061 48.2676 138.887 47.3815 138.887 46.2885V46.0285C138.887 45.2402 138.991 44.5609 139.2 43.9935C139.407 43.426 139.692 42.9592 140.053 42.5958C140.414 42.2324 140.833 41.964 141.314 41.7907C141.795 41.6174 142.309 41.5308 142.854 41.5308C143.357 41.5308 143.824 41.5951 144.257 41.7181C144.691 41.8438 145.071 42.0311 145.401 42.2827C145.73 42.5343 145.993 42.8474 146.194 43.2192C146.393 43.5909 146.516 44.0298 146.558 44.533H144.92C144.808 43.9711 144.568 43.5574 144.199 43.2974C143.83 43.0375 143.382 42.9061 142.854 42.9061C142.474 42.9061 142.105 43.0039 141.75 43.1996C141.395 43.3953 141.101 43.7167 140.872 44.1696C140.643 44.6196 140.528 45.2402 140.528 46.0285V46.2885C140.528 46.9118 140.598 47.4346 140.738 47.8567C140.875 48.276 141.059 48.6086 141.291 48.8518C141.521 49.095 141.772 49.2711 142.046 49.3773C142.32 49.4864 142.591 49.5395 142.86 49.5395C143.483 49.5395 143.967 49.3941 144.31 49.1034C144.651 48.8127 144.858 48.4157 144.928 47.9126H146.566C146.513 48.4493 146.387 48.9105 146.183 49.2907C145.979 49.6736 145.711 49.9811 145.378 50.2215C145.046 50.4591 144.665 50.6352 144.241 50.7471C143.804 50.8617 143.346 50.9176 142.851 50.9176Z" fill="#C39367"/>
<path d="M147.676 47.809V46.4561H151.707V47.809H147.676Z" fill="#C39367"/>
<path d="M157.359 51.1636V50.2914C156.439 50.2914 155.66 50.1209 155.019 49.7771C154.376 49.436 153.893 48.958 153.563 48.3458C153.233 47.7336 153.068 47.0264 153.068 46.2186V45.9586C153.068 45.1871 153.233 44.5162 153.563 43.9487C153.893 43.3813 154.376 42.9396 155.019 42.6237C155.66 42.3079 156.442 42.1485 157.359 42.1485V41.2764H158.919V42.1541C159.839 42.1541 160.616 42.3135 161.253 42.6293C161.89 42.9452 162.377 43.3869 162.709 43.9543C163.042 44.5218 163.21 45.1927 163.21 45.9642V46.2242C163.21 47.0292 163.042 47.7392 162.709 48.3514C162.377 48.9636 161.89 49.4388 161.253 49.7827C160.616 50.1265 159.839 50.297 158.919 50.297V51.1691H157.359V51.1636ZM154.706 45.9642V46.2242C154.706 46.7972 154.804 47.2808 155 47.6805C155.196 48.0803 155.489 48.385 155.883 48.5974C156.277 48.8099 156.769 48.9161 157.359 48.9161V43.5322C156.769 43.5322 156.277 43.6245 155.883 43.8118C155.489 43.999 155.193 44.2702 155 44.6308C154.804 44.9914 154.706 45.4359 154.706 45.9642ZM161.572 46.2242V45.9642C161.572 45.4359 161.474 44.9914 161.278 44.6308C161.083 44.2702 160.789 43.999 160.395 43.8118C160.001 43.6245 159.509 43.5322 158.919 43.5322V48.9161C159.517 48.9161 160.012 48.8099 160.4 48.5974C160.789 48.385 161.083 48.0803 161.278 47.6805C161.474 47.2808 161.572 46.7944 161.572 46.2242Z" fill="#C39367"/>
<path d="M168.647 50.9176C168.09 50.9176 167.565 50.8309 167.067 50.6576C166.57 50.4843 166.125 50.2131 165.734 49.8441C165.343 49.4752 165.038 48.9999 164.817 48.4129C164.596 47.8287 164.484 47.1187 164.484 46.2856V46.0257C164.484 45.229 164.596 44.5469 164.817 43.9767C165.038 43.4092 165.343 42.9424 165.734 42.579C166.123 42.2156 166.567 41.9472 167.067 41.7795C167.565 41.6118 168.093 41.5251 168.647 41.5251C169.2 41.5251 169.729 41.609 170.226 41.7795C170.724 41.9472 171.168 42.2156 171.56 42.579C171.948 42.9424 172.256 43.4092 172.476 43.9767C172.697 44.5441 172.809 45.2262 172.809 46.0257V46.2856C172.809 47.1187 172.697 47.8259 172.476 48.4129C172.256 48.9971 171.948 49.4752 171.56 49.8441C171.168 50.2131 170.726 50.4843 170.226 50.6576C169.729 50.8309 169.2 50.9176 168.647 50.9176ZM168.647 49.5394C169.08 49.5394 169.488 49.436 169.868 49.2264C170.248 49.0195 170.562 48.6785 170.805 48.2061C171.048 47.7336 171.168 47.0935 171.168 46.2884V46.0285C171.168 45.2653 171.048 44.656 170.805 44.2003C170.562 43.7447 170.248 43.4148 169.868 43.2135C169.485 43.0095 169.08 42.9089 168.647 42.9089C168.213 42.9089 167.803 43.0095 167.417 43.2135C167.031 43.4176 166.718 43.7475 166.48 44.2003C166.243 44.656 166.123 45.2653 166.123 46.0285V46.2884C166.123 47.0935 166.243 47.7336 166.48 48.2061C166.718 48.6785 167.031 49.0195 167.417 49.2264C167.803 49.436 168.213 49.5394 168.647 49.5394Z" fill="#C39367"/>
<path d="M174.411 50.775V41.6733H177.726C178.54 41.6733 179.213 41.7935 179.742 42.0311C180.27 42.2688 180.661 42.6042 180.918 43.0375C181.173 43.4708 181.301 43.9823 181.301 44.5721C181.301 45.1619 181.173 45.6735 180.918 46.1068C180.661 46.5401 180.27 46.8755 179.742 47.1159C179.213 47.3535 178.54 47.4737 177.726 47.4737H175.971V50.7778H174.411V50.775ZM175.971 46.118H177.595C178.419 46.118 178.981 45.9894 179.286 45.735C179.588 45.4806 179.742 45.0921 179.742 44.5721C179.742 44.0606 179.591 43.6748 179.286 43.4149C178.981 43.1549 178.419 43.0235 177.595 43.0235H175.971V46.118Z" fill="#C39367"/>
<path d="M184.228 50.9176C184.133 50.9176 184.041 50.9148 183.948 50.912C183.856 50.9064 183.778 50.9008 183.708 50.8924V49.5003C183.778 49.5087 183.859 49.5171 183.948 49.5255C184.041 49.5339 184.133 49.5395 184.228 49.5395C184.463 49.5395 184.656 49.5143 184.807 49.4612C184.958 49.4081 185.089 49.3159 185.198 49.1817C185.307 49.0475 185.408 48.8574 185.503 48.617L181.757 41.6733H183.577L186.319 46.9398L188.594 41.6733H190.207L187.009 48.8518C186.844 49.2152 186.677 49.5311 186.503 49.7939C186.33 50.0594 186.14 50.2719 185.93 50.4368C185.724 50.6017 185.48 50.7219 185.209 50.8002C184.935 50.8785 184.608 50.9176 184.228 50.9176Z" fill="#C39367"/>
<path d="M191.479 50.775V41.6733H193.092L195.991 47.0684L198.89 41.6733H200.45V50.775H198.89V44.4044L196.483 48.891H195.443L193.036 44.4044V50.775H191.479Z" fill="#C39367"/>
</svg>
