<svg width="110" height="110" viewBox="0 0 110 110" fill="none" xmlns="http://www.w3.org/2000/svg">
<g clip-path="url(#clip0_200_2)">
<path fill-rule="evenodd" clip-rule="evenodd" d="M110 55C110 85.376 85.376 110 55 110C24.624 110 0 85.376 0 55C0 24.624 24.624 1.07288e-05 55 1.07288e-05C85.376 1.07288e-05 110 24.624 110 55ZM31.0357 28.6786V47.3282C33.9039 43.9428 37.2627 42.2386 41.25 42.2386C43.3036 42.2386 45.0957 42.627 46.7455 43.3968C48.3999 44.1621 49.6367 45.1444 50.472 46.3368C51.3119 47.5407 51.8796 48.8588 52.1865 50.3116C52.491 51.7576 52.6433 54.0077 52.6433 57.0597V77H43.6071V59.0402C43.6071 55.4766 43.5704 53.2196 43.2313 52.2602C42.9135 51.3203 42.283 50.515 41.443 49.9758C40.5846 49.4024 39.5163 49.1192 38.2264 49.1192C36.7497 49.1192 35.4252 49.4847 34.2738 50.2111C33.097 50.9421 32.2524 52.034 31.7171 53.4938C31.1726 54.9558 31.0265 57.1145 31.0357 59.9723V77H22.0005V28.6786H31.0357ZM66.3924 28.6786V47.3282C69.2605 43.9428 72.6194 42.2386 76.6067 42.2386C78.6603 42.2386 80.4523 42.627 82.1022 43.3968C83.7566 44.1621 84.9934 45.1444 85.8287 46.3368C86.6686 47.5407 87.2362 48.8588 87.5431 50.3116C87.8477 51.7576 88 54.0077 88 57.0597V77H78.9638V59.0402C78.9638 55.4766 78.9271 53.2196 78.5879 52.2602C78.2701 51.3203 77.6397 50.515 76.7997 49.9758C75.9413 49.4024 74.8729 49.1192 73.5831 49.1192C72.1063 49.1192 70.7819 49.4847 69.6304 50.2111C68.4536 50.9421 67.6091 52.034 67.0738 53.4938C66.5292 54.9558 66.3831 57.1145 66.3924 59.9723V77H57.3571V28.6786H66.3924Z" fill="white"/>
</g>
<defs>
<clipPath id="clip0_200_2">
<rect width="110" height="110" fill="white"/>
</clipPath>
</defs>
</svg>
