<svg width="81" height="17" viewBox="0 0 81 17" fill="none" xmlns="http://www.w3.org/2000/svg">
<path fill-rule="evenodd" clip-rule="evenodd" d="M7.86162 5.32498H4.99216L4.43253 10.7444H7.27797L7.86162 5.32498ZM8.80993 5.32498L8.22628 10.7444H11.6627L11.5901 11.5559H8.15269L7.56903 16.8574H6.62047L7.20412 11.5559H4.33618L3.77706 16.8574H2.82849L3.41189 11.5559H0L0.0723245 10.7444H3.48422L4.06787 5.32498H0.631701L0.704026 4.51268H4.14171L4.60323 0.119141H5.55154L5.08876 4.51268H7.93394L8.39546 0.119141H9.34377L8.88251 4.51268H12.3202L12.2461 5.32498H8.80993Z" fill="#ED5338"/>
<path fill-rule="evenodd" clip-rule="evenodd" d="M17.0248 2.53007V14.468H18.5327C19.3844 14.468 19.894 14.0389 19.894 12.8449V4.15368C19.894 2.95993 19.3844 2.53007 18.5327 2.53007H17.0248ZM14.3516 0.142578H18.5803C21.2553 0.142578 22.5687 1.59881 22.5687 4.27338V12.7252C22.5687 15.399 21.2553 16.8565 18.5803 16.8565H14.3516V0.142578Z" fill="#ED5338"/>
<path fill-rule="evenodd" clip-rule="evenodd" d="M24.2695 0.142578H26.9443V16.8565H24.2695V0.142578Z" fill="#ED5338"/>
<path fill-rule="evenodd" clip-rule="evenodd" d="M31.562 7.1856H35.2336V9.57309H31.562V14.468H36.1816V16.8565H28.8867V0.142578H36.1816V2.53007H31.562V7.1856Z" fill="#ED5338"/>
<path fill-rule="evenodd" clip-rule="evenodd" d="M45.2509 0.142578V2.48239L40.1692 14.468H45.2509V16.8565H37.4219V14.5164L42.5035 2.53007H37.6646V0.142578H45.2509Z" fill="#ED5338"/>
<path fill-rule="evenodd" clip-rule="evenodd" d="M49.7704 16.8565V1.1456H46.293V0.142578H54.3407V1.1456H50.8889V16.8565H49.7704Z" fill="#ED5338"/>
<path fill-rule="evenodd" clip-rule="evenodd" d="M61.5583 7.8782V8.88123H56.9146V15.8532H62.5074V16.8565H55.7969V0.142578H62.5074V1.1456H56.9146V7.8782H61.5583Z" fill="#ED5338"/>
<path fill-rule="evenodd" clip-rule="evenodd" d="M71.6003 4.22541V5.61087H70.5303V4.15439C70.5303 2.3634 69.8243 1.00228 67.9532 1.00228C66.0801 1.00228 65.3763 2.36365 65.3763 4.15439V12.8456C65.3763 14.6359 66.0801 15.9726 67.9532 15.9726C69.8243 15.9726 70.5303 14.6359 70.5303 12.8456V10.8639H71.6003V12.7736C71.6003 15.1857 70.5303 17 67.9287 17C65.3262 17 64.2578 15.1857 64.2578 12.7736L64.2581 4.22541C64.2581 1.81458 65.326 0 67.9287 0C70.5303 0 71.6003 1.81458 71.6003 4.22541Z" fill="#ED5338"/>
<path fill-rule="evenodd" clip-rule="evenodd" d="M74.5396 9.00018V16.8565H73.4219V0.142578H74.5396V7.9979H79.8408V0.142578H80.9841V16.8565H79.8408V9.00018H74.5396Z" fill="#ED5338"/>
</svg>
