<svg width="1080" height="355" viewBox="0 0 1080 355" fill="none" xmlns="http://www.w3.org/2000/svg">
<path fill-rule="evenodd" clip-rule="evenodd" d="M305.181 11.3357C347.389 46.088 333.766 68.7376 314.875 83.9535C324.222 91.7647 329.77 103.394 329.77 115.819V241.946C329.77 256.786 321.855 270.492 309.006 277.924L186.353 348.733C173.504 356.153 157.675 356.153 144.826 348.733L22.1731 277.924C9.32393 270.504 1.4093 256.798 1.4093 241.958V115.831C1.4093 103.012 7.31501 91.0392 17.2055 83.2332C-1.21518 68.0256 -13.7648 45.5437 27.7829 11.3357C65.5902 -19.779 91.2394 21.5622 99.4458 35.247L144.826 9.04411C157.675 1.62399 173.504 1.62399 186.353 9.04411L233.061 36.0094L233.132 35.8921C240.893 22.9256 266.759 -20.285 305.181 11.3357ZM887.097 118.113C882.716 108.694 876.288 100.278 868.005 93.1015C855.432 82.2178 838.374 74.0396 817.294 68.7924C801.357 64.8305 782.968 62.4831 762.621 61.8104C747.685 61.317 733.931 61.8104 723.107 62.5282C722.225 62.5878 721.552 63.3207 721.552 64.1878V94.3273C721.552 95.2841 722.345 96.032 723.287 95.9869C732.959 95.5681 751.692 95.1498 762.053 95.5085C801.088 96.854 830.091 104.822 845.969 118.592C855.731 127.054 860.485 137.893 860.485 151.721C860.485 170.2 855.238 183.267 844.429 191.714C830.271 202.777 808.518 204.601 792.761 204.182C784.897 203.973 777.676 203.196 771.95 202.358L772.742 142.692L773.31 108.471C761.41 109.921 735.606 112.268 711.147 113.254C708.381 113.374 705.57 113.464 702.745 113.538C697.288 98.4835 690.306 86.4932 681.934 77.8071C676.642 72.3204 670.721 68.045 664.338 65.1145C657.356 61.9001 649.791 60.2856 641.852 60.2856C633.899 60.2856 626.334 61.9301 619.397 65.1596C613.013 68.1346 607.168 72.4702 601.98 78.0315C596.897 83.5032 592.397 90.2758 588.51 98.2892C586.432 97.3174 584.473 96.301 582.634 95.2245C582.425 95.1047 582.201 94.9705 581.991 94.8508C581.139 94.3573 580.048 94.701 579.644 95.5982C578.657 97.7957 577.701 100.083 576.789 102.43C574.725 107.738 572.872 113.449 571.212 119.519C570.719 121.357 570.225 123.226 569.762 125.14C569.583 125.887 569.941 126.68 570.629 127.024C572.902 128.19 575.264 129.296 577.731 130.358C577.103 133.138 576.505 136.009 575.966 138.954C575.817 139.717 576.22 140.479 576.938 140.793C585.579 144.605 595.402 147.79 606.39 150.346C607.332 150.57 608.259 149.943 608.423 149.001C608.917 146.025 609.47 143.155 610.053 140.389C629.16 144.516 651.6 146.833 677.255 147.326C677.987 150.795 678.66 154.398 679.288 158.135C680.08 162.934 680.783 167.958 681.381 173.19C682.293 181.129 682.876 188.768 683.25 195.661V195.78C683.227 195.78 683.209 195.777 683.19 195.773C683.178 195.771 683.167 195.768 683.155 195.767L683.13 195.765C647.997 192.551 619.367 167.136 610.741 158.718H608.379C608.372 158.718 608.368 158.718 608.365 158.72C608.361 158.721 608.357 158.725 608.349 158.733L576.624 158.838C576.46 158.823 576.295 158.808 576.131 158.808C574.382 158.808 572.931 160.049 572.588 161.693C571.586 167.18 571.048 176.24 570.809 186.003C570.39 199.069 570.39 214.528 571.018 225.471C571.063 226.219 571.152 227.878 571.242 229.149C571.302 230.076 572.109 230.779 573.021 230.704L603.31 228.492C604.222 228.431 604.91 227.639 604.85 226.727C604.581 222.392 603.968 209.818 604.477 193.014C616.736 205.318 631.103 213.511 647.339 220.209C666.117 227.938 687.615 231.855 711.296 231.855C713.449 231.855 715.617 231.825 717.8 231.766L717.531 222.795C717.65 213.721 717.531 193.194 714.899 169.871C714.436 165.715 713.898 161.663 713.315 157.717C712.776 154.054 712.178 150.481 711.536 147.012C714.286 146.907 717.007 146.788 719.669 146.669C726.082 146.369 732.66 145.981 738.999 145.562L737.893 229.403L739.119 229.717L750.78 232.663L750.793 232.666C751.012 232.72 752.26 233.031 754.338 233.47C760.617 234.8 774.506 237.357 791.041 237.865C792.985 237.925 794.898 237.955 796.797 237.955C807.89 237.955 818.281 236.938 827.729 234.92C842.426 231.795 854.999 226.219 865.09 218.355C874.344 211.149 881.505 202.044 886.394 191.295C891.567 179.918 894.183 166.612 894.183 151.736C894.183 139.522 891.806 128.22 887.097 118.113ZM621.311 108.306C623 105.45 624.794 102.984 626.678 100.951C631.163 96.1216 635.842 93.9686 641.852 93.9686C647.907 93.9686 652.916 96.2559 657.655 101.175C660.63 104.269 663.426 108.321 665.967 113.239C649.253 112.477 634.302 110.832 621.311 108.306ZM1078.76 146.294L1080 176.629C1080.03 177.54 1079.31 178.318 1078.38 178.348C1071.54 178.617 1062.19 178.931 1053.19 179.051C1058.35 205.946 1060.38 228.76 1060.89 235.054C1060.95 235.981 1060.26 236.788 1059.34 236.849L1029.05 238.941C1028.14 239.001 1027.34 238.328 1027.27 237.417C1026.75 230.973 1024.47 206.44 1018.87 179.215C1008.37 179.185 997.414 179.095 986.35 178.931C977.29 178.796 961.817 178.512 945.91 177.989C944.744 201.117 945.551 221.165 945.835 226.907C945.88 227.818 945.177 228.596 944.265 228.656L913.961 230.524C913.034 230.569 912.242 229.867 912.197 228.94C911.883 222.87 910.986 201.536 912.257 176.374C908.908 176.135 905.798 175.881 903.047 175.597C902.12 175.507 901.448 174.685 901.552 173.758L904.916 143.573C905.021 142.662 905.828 142.004 906.74 142.094C909.222 142.347 912.107 142.587 915.321 142.811C917.474 127.323 920.554 114.032 924.516 103.193C932.35 81.7389 944.101 68.5975 959.44 64.0976C974.913 59.5677 990.013 62.0048 1003.11 71.1242C1009.81 75.7889 1016.04 82.2774 1021.65 90.395C1026.33 97.1826 1030.72 105.331 1034.7 114.614C1038.59 123.689 1042.14 134.005 1045.37 145.457C1056.84 145.353 1068.53 145.023 1077.02 144.695C1077.95 144.665 1078.71 145.383 1078.76 146.294ZM956.226 114.63C953.295 122.628 950.918 132.6 949.139 144.396C967.842 144.994 989.43 145.368 1010.23 145.502C1008.16 139.028 1005.97 133.093 1003.66 127.726C995.978 109.846 988.653 102.116 983.854 98.7826C979.099 95.4784 974.644 94.7756 968.918 96.4502C964.628 97.7061 960.008 104.329 956.226 114.63ZM506.357 65.9661C521.621 67.0872 533.775 71.5575 542.521 79.2418C549.383 85.282 553.943 93.0409 556.096 102.31C558.114 111.071 557.86 121.193 555.364 132.405C550.953 152.214 537.468 167.449 515.297 177.675C498.475 185.43 479.257 189.302 462.29 192.72L462.269 192.724L462.163 192.745L461.684 192.841L461.645 192.848L461.635 192.849C454.401 194.306 447.572 195.681 442.025 197.185V227.459C442.025 228.282 441.427 228.969 440.62 229.104L410.256 234.067C409.239 234.232 408.312 233.454 408.312 232.423V81.2305L408.298 70.6158C408.298 69.674 409.06 68.9261 410.002 68.9412L442.01 69.5693V74.772C449.471 72.634 459.233 70.182 469.773 68.3581C483.468 65.9962 495.787 65.1887 506.357 65.9661ZM501.154 147.071C517.524 139.507 521.142 130.895 522.443 125.065C524.745 114.749 524.013 107.842 520.245 104.553C517.24 101.907 511.425 100.143 503.875 99.5896C496.041 99.0065 486.488 99.6792 475.499 101.578C460.743 104.119 447.632 108.156 442.01 110.01V162.515C446.152 161.592 450.517 160.71 455.01 159.802L455.496 159.704C470.685 156.655 487.878 153.201 501.154 147.071Z" fill="#F5F5F5"/>
<path fill-rule="evenodd" clip-rule="evenodd" d="M94.0114 40.9103C102.234 54.1957 68.8312 78.6357 53.2694 89.8117C42.0407 97.8755 40.2181 95.7758 36.5761 91.5803C35.1707 89.961 33.4943 88.03 30.9018 86.2502C11.9422 73.2256 -9.85049 52.462 31.5793 17.7547C64.2694 -9.6196 86.2761 27.7873 92.88 39.0133C93.3288 39.7762 93.7064 40.4179 94.0114 40.9103ZM238.952 40.9103C230.73 54.1957 264.133 78.6357 279.694 89.8117C290.923 97.8755 292.746 95.7758 296.388 91.5803C297.793 89.961 299.469 88.03 302.062 86.2502C321.021 73.2256 342.814 52.462 301.384 17.7547C268.694 -9.6196 246.688 27.7873 240.084 39.0133C239.842 39.4233 239.622 39.7985 239.422 40.1343C239.25 40.4232 239.093 40.6825 238.952 40.9103ZM97.7968 241.307C100.2 237.109 101.506 232.739 102.894 228.094C105.947 217.882 109.397 206.338 125.775 192.347C132.942 186.219 120.395 149.843 106.411 149.843C96.624 149.843 91.311 163.017 87.5269 172.4C85.9045 176.423 84.5631 179.75 83.2706 181.043C82.6765 181.637 81.8268 182.374 80.8202 183.247C74.5282 188.707 62.1061 199.485 67.6706 213.859C74.1253 230.545 92.1263 251.213 97.7968 241.307ZM233.382 241.307C230.979 237.109 229.673 232.739 228.285 228.094C225.232 217.882 221.782 206.338 205.403 192.347C198.237 186.219 210.784 149.843 224.78 149.843C234.573 149.843 239.886 163.033 243.667 172.417C245.284 176.433 246.621 179.752 247.908 181.043C248.502 181.637 249.352 182.374 250.359 183.247C256.651 188.707 269.073 199.485 263.508 213.859C257.054 230.545 239.053 251.213 233.382 241.307ZM165.59 301.414C165.59 301.414 167.798 296.395 180.599 292.305C211.799 282.388 196.187 263.735 189.25 266.896C176.34 272.772 165.602 272.579 165.602 272.579C165.602 272.579 154.852 272.772 141.955 266.896C135.006 263.723 119.393 282.376 150.594 292.305C163.382 296.395 165.59 301.414 165.59 301.414ZM205.86 314.951C205.86 314.951 187.413 321.647 165.587 316.604C143.762 321.635 125.327 314.951 125.327 314.951C157.323 316.628 165.587 305.528 165.587 305.528C165.587 305.528 173.852 316.628 205.86 314.951Z" fill="#212121"/>
<path fill-rule="evenodd" clip-rule="evenodd" d="M794.953 251.052C794.953 251.052 798.58 261.591 806.448 261.591C814.843 261.591 819.45 256.132 821.998 253.113C822.394 252.644 822.74 252.235 823.042 251.913C823.109 251.763 823.178 251.614 823.248 251.467C824.096 249.771 824.836 247.533 825.486 244.772C826.136 242.011 827.832 240.513 830.376 240.296C833.029 240.296 834.311 241.686 834.311 244.447C834.311 245.187 833.986 246.035 833.462 247.01C831.766 248.399 830.376 249.662 829.42 250.835C828.03 253.073 827.291 255.943 827.291 259.353C827.291 260.31 827.615 261.266 828.247 262.006C828.879 262.746 829.745 263.18 830.701 263.18C835.375 263.18 839.219 260.31 842.089 254.553C844.958 248.814 846.456 244.555 846.456 241.668C846.889 239.863 847.412 238.365 848.152 237.192C848.892 236.019 850.282 235.496 852.411 235.496C853.999 235.496 856.887 240.188 861.037 249.446L865.188 258.271C866.993 256.881 869.447 254.553 872.425 251.467C873.598 251.467 874.229 252.315 874.338 254.03C874.338 254.355 873.706 255.094 872.317 256.376C871.767 256.882 871.119 257.471 870.372 258.149C869.23 259.186 867.857 260.432 866.253 261.916C866.578 262.025 867.643 265.742 869.664 273.087C871.685 280.432 872.641 288.083 872.641 296.186C872.641 312.572 869.555 326.089 863.275 336.737C857.103 347.492 849.325 352.798 840.067 352.798C828.048 352.149 822.075 343.739 821.967 327.461C821.967 316.507 824.728 305.643 830.376 294.688C836.025 283.734 845.698 273.087 859.431 262.547C857.302 256.484 853.999 250.096 849.434 243.599C844.435 262.006 837.83 271.264 829.42 271.264C826.551 271.264 824.529 270.091 823.248 267.745C821.967 265.399 821.335 263.053 821.335 260.833C821.335 260.032 821.368 259.248 821.434 258.484C817.725 261.727 812.353 264.893 806.665 264.893C799.362 264.893 794.108 260.981 790.5 254.839C787.25 259.25 777.098 268.068 766.222 268.068C758.38 268.068 751.41 264.984 750.068 256.19C746.738 259.47 740.823 264.262 735.673 264.262C725.026 264.262 721.416 256.592 721.2 245.53C720.564 246.036 719.379 247.664 717.898 249.697L717.885 249.715C714.406 254.493 709.304 261.501 705.878 261.501C702.901 261.501 702.269 258.415 702.269 254.896C702.269 252.135 702.052 244.249 699.508 244.249C698.188 244.24 695.819 248.89 693.329 253.777C690.575 259.182 687.674 264.875 685.883 264.875C683.537 264.875 682.905 262.963 682.905 260.202V258.704C682.905 258.19 682.915 257.694 682.936 257.217C680.449 259.405 676.629 261.682 671.729 261.682C658.952 261.682 656.624 249.771 656.624 249.771C656.624 249.771 649.82 266.59 639.173 266.59C634.671 266.59 632.608 263.248 632.078 259.761C627.229 265.739 619.529 271.573 613.749 271.895C613.749 271.895 615.446 280.828 615.446 286.801C615.446 298.928 613.1 312.77 607.144 312.77H606.928C593.736 312.77 588.196 278.085 588.196 264.676C588.196 219.344 594.151 201.243 607.144 201.243C610.754 201.243 613.749 204.654 613.749 210.826C613.533 228.926 594.801 251.051 594.801 251.051L594.584 261.897C594.584 261.897 595.865 255.725 601.821 255.725C607.776 255.725 612.468 266.373 612.468 266.373C622.729 266 630.954 255.206 633.036 252.224C635.827 245.209 643.446 240.188 650.235 240.188C652.581 240.188 654.711 240.622 656.624 241.885C656.624 241.885 657.689 240.387 658.97 240.387C660.883 240.387 661.316 241.885 661.316 243.148C661.316 243.643 661.242 244.138 661.181 244.549C661.137 244.844 661.099 245.097 661.099 245.277C661.099 252.297 665.358 257.838 671.53 257.838C681.528 257.838 684.09 251.233 684.09 251.233C684.185 251.076 684.28 250.947 684.379 250.844C685.054 249.638 685.973 248.785 687.164 248.273C688.445 248.273 688.662 249.771 688.662 251.467C688.662 253.38 688.229 255.726 688.229 255.726C693.769 243.599 698.028 236.579 701.421 236.579C704.074 236.579 706.203 237.86 707.069 246.27C707.394 249.987 708.026 254.463 708.026 254.463C708.083 254.463 708.851 253.436 709.997 251.9C713.155 247.672 719.192 239.591 721.218 238.492C722.066 238.059 723.131 237.86 723.979 237.86C726.325 237.86 728.454 239.358 728.653 243.617V247.876C728.653 253.416 730.151 260.003 736.521 260.003C741.968 260.003 749.154 252.331 749.871 251.549C750.034 248.374 750.918 242.316 755.575 242.316C757.812 242.316 758.985 244.229 758.985 246.358C758.985 248.271 758.137 250.293 756.441 251.249C756.008 251.466 755.809 252.097 755.809 252.53C755.809 260.2 760.7 263.809 767.521 263.809C773.86 263.809 782.703 260.452 788.869 251.674C785.351 243.89 783.89 233.556 783.89 223.17C783.89 200.179 792.191 176.88 802.731 176.88C808.794 176.88 812.945 184.334 812.945 196.461C812.927 210.068 807.711 229.341 794.953 251.052ZM804.319 183.034C798.039 183.034 790.802 198.356 790.802 223.26C790.802 230.388 791.434 239.971 793.78 246.251C805.059 228.06 808.993 208.787 808.993 196.659C808.993 188.358 807.08 183.034 804.319 183.034ZM609.797 211.782C609.797 226.255 594.801 245.619 594.692 245.619C595.324 229.233 599.583 207.415 606.495 207.415C608.101 207.415 609.797 209.129 609.797 211.782ZM594.891 266.156C596.605 270.09 603.95 272.328 608.732 272.328C610.537 277.543 611.079 284.455 611.06 289.887C611.06 298.604 608.624 305.949 606.386 305.949C602.344 305.949 594.891 282.326 594.891 266.156ZM601.388 259.768C604.365 259.768 606.82 266.048 606.82 266.156C606.82 266.156 599.908 265.939 599.691 262.962C599.691 260.724 600.215 259.984 601.388 259.768ZM650.975 244.014C653.736 244.014 655.126 245.187 655.126 245.187C655.126 245.187 650.65 258.921 642.349 258.921C639.696 258.921 638.631 257.531 638.631 255.726C638.631 251.467 645.128 244.014 650.975 244.014ZM760.375 234.971C762.613 234.971 764.526 233.058 764.526 231.037C764.526 228.908 762.486 226.994 760.375 226.994C758.047 226.994 756.549 228.582 756.549 230.929C756.549 233.383 758.137 234.971 760.375 234.971ZM862.626 317.228C860.803 325.223 857.934 331.81 854.108 337.134C850.282 342.457 845.391 345.129 839.418 345.111C835.7 345.111 832.596 343.306 830.052 339.678C827.507 336.069 826.118 330.637 826.009 323.292C826.009 312.861 829.312 302.539 835.809 292.433C842.305 282.327 850.607 273.592 860.496 266.356C863.799 275.198 865.387 284.871 865.387 295.519C865.387 302.015 864.43 309.252 862.626 317.228Z" fill="#28BA25"/>
</svg>
