<svg width="358" height="114" viewBox="0 0 358 114" fill="none" xmlns="http://www.w3.org/2000/svg">
<path fill-rule="evenodd" clip-rule="evenodd" d="M29.645 44.2159C35.43 42.9521 40.1042 47.1116 41.0494 51.6787C42.2755 57.601 38.2243 62.2205 33.5641 63.2154C27.6363 64.4808 23.0181 60.4079 22.0471 55.735C20.7781 49.6307 24.915 45.2495 29.645 44.2159ZM20.637 104.999C21.2755 102.61 27.9511 92.67 28.6995 90.7041C29.1451 89.5334 28.8915 84.9345 28.902 83.3683L31.7891 83.3306L32.227 84.6141C32.8409 83.383 33.1801 83.2952 33.171 81.4876C33.1644 80.0806 33.1417 78.6948 33.1851 77.2868C34.6787 77.2605 36.8386 77.0012 38.1998 77.4733C38.246 82.4324 37.7255 81.2598 39.0524 84.6205C39.8512 83.1597 38.4163 83.318 42.397 83.3526C42.4898 92.1665 41.3861 88.5432 46.5075 97.4241L53.1874 108.854L53.3258 70.2021L49.229 70.1093C56.8142 60.6716 62.1977 48.1325 65.5287 36.4952L68.9767 23.3747C67.7002 23.0314 64.3904 21.3094 60.824 20.3183C51.4028 17.6988 40.6519 17.9174 31.7388 21.3004C26.147 23.423 21.1662 26.2677 17.4375 29.4586C14.1312 32.2883 14.6432 32.068 11.7571 35.127C2.08052 45.3841 -2.20855 63.0924 1.94897 78.4671C3.54843 84.3807 6.14826 89.4851 9.16941 93.7112C11.9703 97.6287 16.5239 102.387 20.637 104.999Z" fill="#F4826A"/>
<path fill-rule="evenodd" clip-rule="evenodd" d="M85.0622 76.8874C87.736 76.5256 87.3047 79.0845 87.3017 81.2339C87.2987 83.1997 87.4665 86.0419 87.2256 87.8989L84.3451 87.8888C84.1556 85.0088 83.774 78.6557 85.0622 76.8874ZM78.8729 76.7816C80.9924 77.1076 80.5419 79.4801 80.5413 81.4751C80.5408 83.3674 80.7012 86.116 80.4668 87.902L77.5863 87.8877C77.4089 85.1544 77.1589 81.7674 78.1381 79.2972L78.8729 76.7816ZM61.8594 70.1825L69.6361 70.2122L68.0135 71.0956C67.3851 71.6372 67.7756 71.3203 67.6309 71.5556C67.8652 71.53 73.2978 68.3078 76.7054 72.5348C79.3556 75.8225 78.2499 79.2724 76.0069 81.766L76.1061 81.8934C76.6519 81.5206 76.5975 81.4666 77.1787 81.1411C77.0652 86.4632 77.867 84.5814 75.6864 89.4017C74.6292 91.7389 73.6137 93.8756 72.5545 96.1796C71.1168 99.308 67.2395 107.256 66.3435 109.718C68.7099 108.972 72.2021 106.857 74.0578 105.631C76.651 103.918 78.7035 102.09 80.7394 100.241C83.8713 97.3981 89.4777 90.2134 90.7884 86.1396L90.7314 70.2031L84.6036 70.1713C83.314 72.3695 82.2976 75.7697 80.8971 77.9976C79.8535 76.3603 80.1125 76.9796 78.6183 76.1631C78.1068 72.9203 76.4594 71.4196 74.029 70.2102L81.9328 70.1245C79.1292 64.0012 76.6601 49.9514 75.4411 42.1681C74.6291 36.986 74.0139 32.0022 73.4631 26.7219L71.9785 11.1155L71.6307 12.1768C71.6025 12.3526 71.5803 12.9069 71.5648 13.1261C70.5867 26.8202 68.5291 43.442 65.584 56.609C65.0674 58.9164 64.5127 61.4115 63.909 63.6218C63.2816 65.9167 62.5145 68.0337 61.8594 70.1825Z" fill="#606060"/>
<path fill-rule="evenodd" clip-rule="evenodd" d="M60.2869 88.3206C59.0684 88.3483 57.6437 88.5277 56.5064 88.1492C56.4353 85.9521 56.4963 83.6819 56.4908 81.4751C56.4853 79.5133 56.1839 76.3798 58.3473 76.3713C60.6074 76.3617 60.2951 79.3683 60.2951 81.2339C60.2951 83.5928 60.3242 85.9638 60.2869 88.3206ZM53.1875 108.854C53.6979 110.369 54.9103 111.244 55.1377 112.939C57.8296 112.774 61.2675 111.708 63.7777 110.825L66.3438 109.718C67.2398 107.256 71.1171 99.308 72.5548 96.1796C73.614 93.8756 74.6295 91.7389 75.6867 89.4017C77.8673 84.5814 77.0655 86.4632 77.179 81.1411C76.5978 81.4666 76.6522 81.5206 76.1064 81.8934C75.601 82.682 74.7171 82.8842 73.7783 83.4068L73.6931 88.1247C72.5864 88.548 71.116 88.3563 69.9091 88.3272L69.9006 83.3432C68.5374 82.9341 67.521 82.2683 66.8239 81.4893L66.8129 88.3382L63.0103 88.2813C63.0133 85.8539 63.0177 83.5439 63.0158 81.2339C63.0142 78.7882 62.6716 76.7523 64.98 76.3339C65.1192 74.8685 65.7592 72.369 67.2972 71.8797C67.9322 72.1206 67.8067 72.2129 67.6312 71.5556C67.7759 71.3203 67.3854 71.6372 68.0138 71.0955L69.6364 70.2122L61.8597 70.1825L53.326 70.2017L53.1875 108.854Z" fill="#C0C2C1"/>
<path fill-rule="evenodd" clip-rule="evenodd" d="M20.6367 104.999C21.8099 105.669 22.9973 106.517 24.238 107.23C24.1951 106.02 24.2369 104.749 24.8799 104.018C25.3914 103.437 26.6054 102.968 27.6269 103.495C29.5459 104.487 29.0762 107.543 29.0399 109.84L31.6629 110.681C32.0312 110.229 31.7425 110.854 31.9078 110.157L31.9699 107.794C31.9647 106.748 31.9688 105.701 31.9688 104.655C31.9688 101.819 31.5596 94.9637 32.6184 92.7045C33.2326 91.3942 34.4225 89.8214 36.5491 90.4518C41.7043 91.9798 38.1722 106.515 39.489 112.945L41.7638 113.221C41.8353 110.275 40.5256 103.058 44.3148 103.271C46.4252 103.389 46.6289 105.138 46.6182 107.31C46.6081 109.4 46.6652 111.537 46.5809 113.619L47.6982 113.629L47.8237 110.096C48.9777 109.423 49.8188 109.316 50.7985 110.237C50.9804 111.033 50.6508 113.009 51.2781 113.323L55.1373 112.939C54.91 111.244 53.6975 110.369 53.1871 108.854L46.5073 97.4238C41.3859 88.5429 42.4895 92.1662 42.3967 83.3523C38.4161 83.3176 39.8509 83.1594 39.0522 84.6202C37.7252 81.2595 38.2458 82.4321 38.1996 77.473C36.8383 77.0008 34.6785 77.2602 33.1848 77.2865C33.1414 78.6945 33.1642 80.0803 33.1708 81.4872C33.1798 83.2949 32.8406 83.3827 32.2268 84.6138L31.7889 83.3302L28.9018 83.3679C28.8913 84.9342 29.1448 89.5331 28.6993 90.7038C27.9509 92.6696 21.2753 102.609 20.6367 104.999Z" fill="#444444"/>
<path fill-rule="evenodd" clip-rule="evenodd" d="M71.9727 8.68445L71.9792 11.1159L73.4638 26.7223C74.0146 32.0027 74.6299 36.9865 75.4418 42.1685C76.6608 49.9518 79.13 64.0016 81.9335 70.125L74.0297 70.2107C76.4601 71.4201 78.1076 72.9207 78.6191 76.1636C80.1133 76.9801 79.8543 76.3607 80.8978 77.998C82.2983 75.7701 83.3147 72.37 84.6043 70.1717L90.7321 70.2036L94.4029 70.1426L91.1872 65.7804C86.4463 58.4841 81.9979 48.1804 79.2384 39.8052C78.6301 37.9596 75.983 29.6149 76.0217 27.8617C75.3938 26.5762 72.3718 12.3218 72.3808 10.4916C72.3844 9.80215 72.5819 9.17636 72.4434 8.29849L72.1762 7.34952L71.9727 8.68445Z" fill="#C0C2C1"/>
<path fill-rule="evenodd" clip-rule="evenodd" d="M90.7323 70.2031L90.7894 86.1396C93.0121 82.3747 94.6978 75.1201 95.1439 69.9139C95.6847 63.6061 94.8626 57.3119 93.1392 51.7661C90.7232 43.9903 86.784 38.0303 81.6182 32.6154C80.5156 31.46 77.5202 28.7135 76.0219 27.8612C75.9831 29.6145 78.6303 37.9592 79.2386 39.8047C81.9981 48.18 86.4464 58.4836 91.1874 65.78L94.4031 70.1421L90.7323 70.2031Z" fill="#F4826A"/>
<path fill-rule="evenodd" clip-rule="evenodd" d="M29.6442 44.2152C24.9142 45.2488 20.7773 49.63 22.0463 55.7343C23.0174 60.4072 27.6355 64.4801 33.5633 63.2147C38.2236 62.2198 42.2748 57.6003 41.0486 51.678C40.1034 47.1109 35.4293 42.9514 29.6442 44.2152Z" fill="#F8E6A4"/>
<path fill-rule="evenodd" clip-rule="evenodd" d="M71.4082 10.7275L68.9762 23.3748L65.5282 36.4953C62.1972 48.1326 56.8138 60.6717 49.2285 70.1093L53.3254 70.2021L61.8591 70.1829C62.5142 68.0341 63.2813 65.9172 63.9087 63.6222C64.5124 61.4119 65.0671 58.9168 65.5837 56.6094C68.5288 43.4425 70.5864 26.8206 71.5645 13.1266C71.58 12.9074 71.6022 12.3531 71.6305 12.1773L71.9782 11.1159L71.9716 8.68446L71.5569 10.4875C71.5332 10.4517 71.4788 10.666 71.4082 10.7275Z" fill="#444444"/>
<path fill-rule="evenodd" clip-rule="evenodd" d="M31.6641 110.681C31.7176 110.725 31.7926 110.775 31.8354 110.802L39.4902 112.944C38.1734 106.515 41.7055 91.9795 36.5503 90.4515C34.4237 89.8211 33.2338 91.3939 32.6196 92.7042C31.5608 94.9634 31.97 101.818 31.97 104.655C31.97 105.701 31.9659 106.748 31.9711 107.794L31.909 110.157C31.7437 110.853 32.0324 110.229 31.6641 110.681Z" fill="#C0C2C1"/>
<path fill-rule="evenodd" clip-rule="evenodd" d="M72.1062 78.3094C70.5656 80.7395 68.0909 79.9402 68.0026 77.1233C67.927 74.6867 70.2175 72.9329 71.8799 74.7487L71.3835 75.4335C70.3434 75.0026 69.3281 73.6707 69.1361 76.1512C69.0196 77.6529 69.4443 78.6965 70.4221 79.081L71.0369 77.7441C73.5425 77.8645 71.1366 78.0031 72.973 76.5386C74.066 75.6673 74.6047 76.2166 74.4333 74.8072C73.0143 74.7073 73.5279 75.1926 72.8712 76.0655L72.1839 74.9078C72.588 74.5084 73.0058 73.7061 73.8675 73.9338C74.5201 74.1066 75.2376 74.8515 75.3565 75.561C75.6927 77.5626 71.8079 77.6589 73.8024 79.1581C74.817 78.2959 73.5293 77.7658 75.3466 78.0006C75.6509 80.1398 73.1261 80.4417 72.1062 78.3094ZM67.6312 71.5562C67.8067 72.2134 67.9322 72.1212 67.2971 71.8803C67.1213 72.6296 63.169 76.647 66.9115 80.8741C70.535 84.966 73.9062 82.6831 76.0072 81.7665C78.2502 79.273 79.3558 75.823 76.7057 72.5354C73.298 68.3084 67.8655 71.5306 67.6312 71.5562Z" fill="white"/>
<path fill-rule="evenodd" clip-rule="evenodd" d="M41.764 113.221L46.5811 113.619C46.6654 111.537 46.6083 109.4 46.6184 107.31C46.6291 105.137 46.4254 103.389 44.315 103.271C40.5258 103.058 41.8355 110.275 41.764 113.221Z" fill="#C0C2C1"/>
<path fill-rule="evenodd" clip-rule="evenodd" d="M85.0628 76.8879C83.7746 78.6562 84.1562 85.0093 84.3457 87.8893L87.2262 87.8994C87.4671 86.0423 87.2993 83.2002 87.3023 81.2343C87.3053 79.085 87.7366 76.5261 85.0628 76.8879Z" fill="#FDC798"/>
<path fill-rule="evenodd" clip-rule="evenodd" d="M56.9277 79.5441L56.9706 87.8828L59.7512 87.8803C60.0789 86.2757 59.8792 81.6899 59.8707 79.7809C59.8515 75.5415 56.9242 75.9082 56.9277 79.5441Z" fill="#FDC798"/>
<path fill-rule="evenodd" clip-rule="evenodd" d="M78.1374 79.2975C77.1582 81.7678 77.4081 85.1548 77.5855 87.8881L80.4661 87.9023C80.7004 86.1164 80.54 83.3678 80.5406 81.4755C80.5411 79.4805 80.9916 77.108 78.8721 76.782L78.1374 79.2975Z" fill="#FDC798"/>
<path fill-rule="evenodd" clip-rule="evenodd" d="M63.4452 84.614L63.5138 87.8887L66.2677 87.881C66.4925 86.0881 66.3812 84.2492 66.3817 82.4407C66.382 79.7461 65.7058 80.9358 65.1358 78.3134L64.6279 76.7945C63.2985 77.827 63.432 78.0912 63.4416 80.0192C63.4487 81.5507 63.4498 83.0826 63.4452 84.614Z" fill="#FDC798"/>
<path fill-rule="evenodd" clip-rule="evenodd" d="M63.4437 84.614C63.4483 83.0826 63.4473 81.5507 63.4402 80.0192C63.4306 78.0912 63.297 77.827 64.6265 76.7944L65.1344 78.3134C65.7043 80.9358 66.3806 79.7461 66.3802 82.4407C66.3797 84.2492 66.491 86.0881 66.2663 87.881L63.5123 87.8887L63.4437 84.614ZM70.325 83.5779L73.2684 83.5084L73.2681 87.8871L70.323 87.9002L70.325 83.5779ZM76.1056 81.8933L76.0064 81.7658C73.9054 82.6824 70.5342 84.9653 66.9107 80.8734C63.1682 76.6464 67.1205 72.6289 67.2963 71.8796C65.7584 72.3688 65.1184 74.8684 64.9792 76.3338C62.6707 76.7521 63.0133 78.788 63.0149 81.2337C63.0169 83.5438 63.0124 85.8538 63.0094 88.2812L66.8121 88.3381L66.8231 81.4892C67.5202 82.2682 68.5365 82.934 69.8997 83.3431L69.9082 88.3271C71.1152 88.3562 72.5856 88.5479 73.6922 88.1246L73.7774 83.4067C74.7162 82.884 75.6002 82.6819 76.1056 81.8933Z" fill="#796458"/>
<path fill-rule="evenodd" clip-rule="evenodd" d="M24.2385 107.23C24.9763 108.153 27.696 109.333 29.0405 109.84C29.0768 107.543 29.5465 104.487 27.6275 103.495C26.606 102.968 25.392 103.437 24.8805 104.018C24.2375 104.749 24.1957 106.02 24.2385 107.23Z" fill="#C0C2C1"/>
<path fill-rule="evenodd" clip-rule="evenodd" d="M72.1055 78.3091C73.1254 80.4414 75.6502 80.1395 75.3458 78.0003C73.5286 77.7654 74.8162 78.2956 73.8016 79.1578C71.8072 77.6586 75.6919 77.5622 75.3558 75.5606C75.2368 74.8511 74.5193 74.1062 73.8667 73.9334C73.005 73.7057 72.5872 74.508 72.1832 74.9075L72.8704 76.0652C73.5272 75.1923 73.0136 74.707 74.4326 74.8069C74.604 76.2163 74.0653 75.667 72.9723 76.5382C71.1359 78.0028 73.5417 77.8641 71.0361 77.7438L70.4214 79.0806C69.4436 78.6961 69.0189 77.6526 69.1353 76.1509C69.3273 73.6703 70.3426 75.0022 71.3828 75.4332L71.8792 74.7484C70.2168 72.9326 67.9263 74.6863 68.0018 77.123C68.0902 79.9398 70.5648 80.7391 72.1055 78.3091Z" fill="#606060"/>
<path fill-rule="evenodd" clip-rule="evenodd" d="M70.3242 87.9004L73.2693 87.8872L73.2696 83.5086L70.3262 83.5781L70.3242 87.9004Z" fill="#FDC798"/>
<path fill-rule="evenodd" clip-rule="evenodd" d="M56.9262 79.544C56.9227 75.9081 59.85 75.5413 59.8692 79.7808C59.8777 81.6897 60.0774 86.2755 59.7497 87.8801L56.9691 87.8826L56.9262 79.544ZM60.2859 88.321C60.3232 85.9642 60.2941 83.5932 60.2941 81.2343C60.2941 79.3687 60.6064 76.3621 58.3463 76.3717C56.183 76.3802 56.4843 79.5137 56.4898 81.4755C56.4953 83.6823 56.4343 85.9525 56.5054 88.1497C57.6427 88.5281 59.0674 88.3488 60.2859 88.321Z" fill="#796458"/>
<path fill-rule="evenodd" clip-rule="evenodd" d="M47.6992 113.629C48.7801 113.819 50.4446 113.895 51.2791 113.323C50.6518 113.009 50.9814 111.033 50.7995 110.238C49.8198 109.316 48.9787 109.423 47.8247 110.096L47.6992 113.629Z" fill="#C0C2C1"/>
<path fill-rule="evenodd" clip-rule="evenodd" d="M71.4088 10.7275C71.4793 10.666 71.5337 10.4518 71.5574 10.4875L71.9721 8.68452L72.1757 7.34959L71.7968 0.86194C73.2082 0.809495 73.2903 0.933407 74.3753 1.22176C74.8955 1.35936 75.2009 1.45003 75.7536 1.43439C77.1149 1.3951 76.7641 1.35474 76.9757 0.829231C76.6477 0.630653 76.9883 0.719719 76.4249 0.652697C75.4724 0.539808 75.6614 0.800434 74.2267 0.401857C73.0626 0.0777678 72.4575 0.025853 71.2752 0.243098C70.807 1.82088 71.6486 8.02336 71.4088 10.7275Z" fill="#606060"/>
<path fill-rule="evenodd" clip-rule="evenodd" d="M312.257 48.3066C311.972 50.2201 311.486 52.3049 310.427 53.4755C308.798 55.2746 307.839 54.2279 306.243 53.0597C304.512 51.7934 304.174 51.227 304.212 48.3127C304.242 46.0172 304.25 43.7173 304.259 41.4218C304.299 30.5009 314.067 36.1708 312.257 48.3066ZM303.738 35.2457L302.995 32.0974C301.643 32.2723 298.364 33.3589 297.527 33.9857C297.531 35.614 297.545 34.9216 298.255 36.0988C299.749 38.5762 299.209 46.2878 299.192 49.4521C299.161 55.3098 299.138 61.1681 299.097 67.0254L304.103 65.4545L304.123 56.3564C306.081 57.2273 306.597 57.9877 309.139 56.7728C314.719 54.1054 317.264 50.4684 317.276 43.433C317.288 36.3548 311.498 28.2908 305.836 33.4158C304.811 34.3434 305.139 34.5662 303.738 35.2457Z" fill="#6E251C"/>
<path fill-rule="evenodd" clip-rule="evenodd" d="M178.926 34.9421C182.231 35.0454 184.438 39.465 184.72 43.0177C184.931 45.662 184.301 56.5516 179.532 53.3928C176.048 51.0852 176.48 50.5732 176.51 46.1462C176.525 43.9974 176.412 41.4212 176.563 39.3265C176.73 37.0033 177.844 36.3114 178.926 34.9421ZM176.04 34.7507C175.816 33.7464 175.604 32.5818 175.028 31.6721L169.734 33.5437C169.983 35.5983 170.109 34.7361 170.674 35.876C170.702 35.9324 170.928 36.6067 170.964 36.7418C172.101 40.9693 171.386 61.6675 171.386 66.5732L176.362 64.9999L176.398 55.9734C178.415 56.9078 179.075 57.4596 181.477 56.3176C183.453 55.3768 184.438 54.7404 185.751 53.4351C191.179 48.0399 190.743 37.6568 185.347 32.9546C180.534 28.7594 178.414 33.4748 176.04 34.7507Z" fill="#6E251C"/>
<path fill-rule="evenodd" clip-rule="evenodd" d="M352.521 46.5873C352.521 55.6198 347.525 55.1003 344.334 49.3252C341.593 44.3668 342.925 37.0044 346.833 35.1857C349.13 37.6787 352.522 41.617 352.521 46.5873ZM345.198 33.2888C344.73 34.0785 344.387 34.1974 343.728 34.6561C335.551 40.3491 336.997 51.8438 343.018 55.8074C348.139 59.1791 354.424 54.2195 356.258 49.177C357.344 46.1901 357.403 42.3814 356.436 39.2378C355.947 37.6449 355.326 36.5343 354.543 35.406L346.376 26.3828C346.173 25.0904 346.929 24.8726 345.361 23.7997C344.47 24.3158 344.945 24.0381 344.423 24.7325C341.99 27.9729 340.846 28.2374 342.998 31.1905C343.796 32.2851 344.084 32.5259 345.198 33.2888Z" fill="#6E251C"/>
<path fill-rule="evenodd" clip-rule="evenodd" d="M220.93 32.5957L221.814 34.8664C221.85 34.8881 221.94 34.9354 222 34.9758C222 39.8186 220.629 49.1486 222.627 52.6892C223.505 54.2438 225.804 56.8275 228.278 56.6869C229.494 56.6179 230.774 55.7068 231.589 55.1624C232.89 54.2947 233.224 53.5509 234.402 52.9729C234.89 54.399 235.817 55.537 236.517 56.4526C237.569 56.052 240.06 54.6435 240.892 53.8794L240.799 52.0088L239.533 52.014C239.491 52.0113 239.396 52.0069 239.331 51.9887C238.076 47.8872 238.914 36.5969 238.895 31.3907L233.911 32.2026C233.873 38.8446 234.714 48.6591 231.273 52.732C226.053 52.228 226.514 47.0284 226.625 44.139C226.789 39.8579 227.11 35.5871 227.214 31.3605L220.93 32.5957Z" fill="#6E251C"/>
<path fill-rule="evenodd" clip-rule="evenodd" d="M198.513 41.9942C200.07 40.9732 203.643 36.4031 206.557 39.2477C212.248 44.8052 205.492 56.3947 200.198 53.0587C197.625 51.4379 198.521 45.5007 198.513 41.9942ZM190.184 32.3977C191.119 33.9433 192.553 30.4118 192.862 42.7088C192.971 47.0436 192.894 51.4687 192.855 55.8137L197.964 55.9145L197.982 53.5847C201.852 55.1823 203.635 57.5275 208.133 54.6233C210.808 52.8964 213.21 49.6546 213.384 46.1401C213.63 41.1858 211.709 39.0073 208.405 37.3917C201.941 34.231 200.287 36.8294 197.94 37.7702C197.579 37.1442 196.578 32.1428 195.874 30.4687C194.864 30.6989 190.931 31.6196 190.184 32.3977Z" fill="#6E251C"/>
<path fill-rule="evenodd" clip-rule="evenodd" d="M284.234 35.3809C294.469 36.4483 292.401 52.2371 289.332 53.5987C287.871 54.2469 285.064 52.0618 284.573 51.5271C281.239 47.8901 281.325 40.0096 284.234 35.3809ZM286.803 31.8524C281.149 34.2602 277.408 37.5347 277.191 44.5717C276.95 52.3984 282.603 58.3322 286.961 56.9242C290.269 55.8565 292.456 54.9545 293.996 52.79C301.602 42.0999 292.555 29.4028 286.803 31.8524Z" fill="#6E251C"/>
<path fill-rule="evenodd" clip-rule="evenodd" d="M324.923 35.3858C329.12 35.805 331.305 38.426 332.117 42.3712C332.53 44.3775 332.6 46.9259 332.274 49.0132C331.347 54.936 328.221 54.687 325.262 51.5087C321.826 47.8184 322.068 40.0219 324.923 35.3858ZM327.484 31.8662C326.132 32.4432 325.005 32.8569 323.808 33.6244C316.548 38.2818 316.587 48.8681 320.308 53.3163C322.184 55.5583 324.508 57.8578 327.613 56.9129C333.925 54.991 337.32 51.5878 337.499 44.2978C337.713 35.5565 331.248 30.2617 327.484 31.8662Z" fill="#6E251C"/>
<path fill-rule="evenodd" clip-rule="evenodd" d="M255.102 24.5425L258.778 32.0749L260.189 31.2358C260.326 28.116 260.255 27.2911 262.898 25.2597C265.191 23.4965 266.232 22.4458 269.359 23.0817L269.652 23.1416L269.769 23.4168C271.399 27.2518 271.318 28.9651 267.853 31.3603C261.496 35.7537 252.087 37.9761 254.805 48.0406C256.05 52.6486 259.275 55.7192 264.004 56.4845C267.076 56.9814 271.575 56.3763 273.811 53.9907C275.485 52.2052 275.602 48.6358 275.605 46.1439L268.309 45.452C268.677 48.4191 269.448 53.1208 265.974 54.0863C262.121 55.1572 260.118 49.2833 261.434 46.3091C263.158 42.4132 271.128 40.2255 274.163 35.4714C274.984 34.1869 275.415 32.7622 275.444 31.2383C275.494 28.5231 274.264 25.8579 272.617 23.7549C270.309 20.8074 264.847 16.7205 261.018 19.2321C258.822 20.6728 256.611 22.3549 255.102 24.5425Z" fill="#6E251C"/>
<path fill-rule="evenodd" clip-rule="evenodd" d="M157.74 52.733C156.924 51.6491 155.355 50.0537 156.099 47.8344C156.587 46.3769 158.254 44.9522 160.251 45.1705C161.338 48.3574 162.117 52.6273 157.74 52.733ZM153.94 35.1945C154.278 35.7423 154.57 36.0896 154.879 36.6953C156.248 36.324 155.913 36.0881 157.109 35.495C158.172 37.1025 159.286 39.5345 159.491 42.1359C157.477 43.7727 150.324 47.1222 151.523 52.7014C151.901 54.4577 153.681 56.8683 156.544 56.0313C159.552 55.152 160.59 53.6957 162.697 52.6569C163.284 54.3083 164.165 55.6009 164.9 57.0322C166.228 56.573 165.161 57.0256 166.015 56.3227L168.004 54.5942C168.213 54.3846 168.179 54.4228 168.44 54.1743L169.05 53.5922C168.103 51.2088 166.878 49.327 165.958 46.3391C164.597 41.9247 163.772 33.2429 160.173 31.4861C158.451 30.645 157.371 31.8479 156.547 32.5408C155.616 33.325 154.805 34.4064 153.94 35.1945Z" fill="#6E251C"/>
<path fill-rule="evenodd" clip-rule="evenodd" d="M133.218 45.2859L127.696 43.6112C127.592 47.1172 127.071 50.3867 124.579 53.0782L124.393 53.2779L124.122 53.2466C116.038 52.3031 113.509 39.4316 114.244 32.762C115.629 20.1847 120.406 19.5987 128.484 27.7443L132.758 23.7868C131.359 21.3605 128.031 19.2252 125.443 18.4498C122.681 17.6222 118.269 20.1262 115.968 21.5383C112.798 23.4841 110.51 26.2919 109.132 29.7349C108.345 31.7008 107.888 33.7911 107.706 35.898C107.308 40.4919 108.202 45.565 110.298 49.6857C111.774 52.5874 114.45 56.0277 117.996 56.2167C124.748 56.5776 134.065 53.5312 133.218 45.2859Z" fill="#6E251C"/>
<path fill-rule="evenodd" clip-rule="evenodd" d="M138.417 32.0601L134.832 32.2566L134.207 35.7474C137.305 36.5346 134.547 35.0893 138.362 35.0626L138.33 56.5273L143.185 55.6721C144.242 50.1793 143.114 41.0363 143.579 35.0338C147.566 35.0006 149.365 35.0747 150.747 32.1121C150.626 31.8571 150.465 31.4962 150.349 31.3001C150.314 31.2402 150.268 31.1652 150.231 31.1057C150.193 31.0457 150.138 30.9691 150.102 30.9153C150.065 30.8603 149.995 30.7711 149.964 30.7266C149.933 30.6824 149.872 30.6002 149.822 30.5403L148.759 31.3425C147.181 32.4461 145.746 32.0577 143.568 32.0646C143.529 27.6527 145.136 29.6271 143.876 26.3848C142.634 26.8514 141.675 27.7373 140.579 28.5995C139.011 29.8342 138.731 29.5243 138.417 32.0601Z" fill="#6E251C"/>
<path fill-rule="evenodd" clip-rule="evenodd" d="M212.883 31.9813C213.193 35.3854 214.637 27.4871 214.538 42.9948C214.511 47.3362 214.471 51.6761 214.435 56.0176L220.148 54.984L220.323 30.8997L212.883 31.9813Z" fill="#6E251C"/>
<path fill-rule="evenodd" clip-rule="evenodd" d="M233.891 26.3914C231.779 26.1274 229.739 24.6931 227.742 26.1102C226.583 26.9336 225.849 29.3975 225.432 31.2508L228.302 31.2549L229.06 29.7491C231.179 29.8463 233.226 31.521 235.061 30.0021C236.113 29.1324 237.347 26.6928 237.045 24.8019L234.602 24.8046L233.891 26.3914Z" fill="#6E251C"/>
<path d="M267.456 98.1479L265.646 98.1479L268.184 94.3588C266.338 94.128 265.415 93.2178 265.415 91.626C265.415 90.667 265.755 89.9453 266.436 89.4596C267.03 89.0221 267.827 88.8034 268.821 88.8034L272.465 88.8034L272.465 98.1479L270.88 98.1479L270.88 90.2427L268.949 90.2427C267.674 90.2427 267.037 90.7037 267.037 91.626C267.037 92.2825 267.304 92.7195 267.838 92.9382C268.166 93.0722 268.725 93.1387 269.513 93.1387L270.752 93.1387L267.456 98.1479ZM270.88 93.1387L270.771 93.1387L270.88 92.9195L270.88 93.1387ZM257.079 98.1479L255.579 98.1479L255.579 88.8034L257.164 88.8034L257.164 95.725L262.246 88.8034L263.757 88.8034L263.757 98.1479L262.154 98.1479L262.154 91.2046L257.079 98.1479ZM247.492 94.1401L247.492 98.1479L245.907 98.1479L245.907 88.8034L247.492 88.8034L247.492 92.7195L252.027 92.7195L252.027 88.8034L253.612 88.8034L253.612 98.1479L252.027 98.1479L252.027 94.1401L247.492 94.1401ZM243.939 98.1479L242.41 98.1479L242.41 96.8361C241.414 97.8436 240.315 98.3485 239.113 98.3485C237.705 98.3485 236.536 97.8804 235.606 96.9451C234.678 96.0107 234.213 94.8386 234.213 93.4301C234.213 92.0815 234.675 90.9341 235.598 89.9876C236.52 89.0407 237.655 88.5666 239.004 88.5666C240.279 88.5666 241.39 89.0523 242.338 90.0239L242.338 88.8034L243.939 88.8034L243.939 98.1479ZM235.871 93.4301C235.871 94.3654 236.192 95.1691 236.836 95.8439C237.48 96.5177 238.269 96.8543 239.205 96.8543C240.054 96.8543 240.801 96.5122 241.445 95.8253C242.088 95.1394 242.41 94.3714 242.41 93.5207C242.41 92.6228 242.094 91.8271 241.463 91.1351C240.832 90.4432 240.067 90.0966 239.168 90.0966C238.269 90.0966 237.495 90.4276 236.845 91.0898C236.195 91.751 235.871 92.5316 235.871 93.4301ZM226.763 90.2427L226.763 98.1479L225.178 98.1479L225.178 88.8034L232.702 88.8034L232.702 98.1479L231.117 98.1479L231.117 90.2427L226.763 90.2427ZM218.694 98.1479L217.328 98.1479L214.34 91.3175L214.34 98.1479L212.81 98.1479L212.81 88.8034L214.905 88.8034L218.02 96.3447L221.116 88.8034L223.211 88.8034L223.211 98.1479L221.681 98.1479L221.681 91.3175L218.694 98.1479ZM211.371 93.3565C211.371 94.7051 210.897 95.8822 209.95 96.8911C209.003 97.8991 207.856 98.4023 206.508 98.4023C205.16 98.4023 204.012 97.9202 203.066 96.9545C202.119 95.9895 201.645 94.8326 201.645 93.485C201.645 92.1611 202.112 90.9951 203.047 89.9876C203.982 88.9798 205.106 88.4754 206.417 88.4754C207.74 88.4754 208.897 88.9586 209.887 89.9236C210.876 90.8887 211.371 92.0336 211.371 93.3565ZM203.301 93.4754C203.301 94.4011 203.606 95.1933 204.213 95.85C204.82 96.5081 205.585 96.8361 206.508 96.8361C207.419 96.8361 208.181 96.5051 208.793 95.8399C209.407 95.1792 209.714 94.3895 209.714 93.4754C209.714 92.5255 209.407 91.7207 208.793 91.0656C208.181 90.4064 207.406 90.0784 206.471 90.0784C205.561 90.0784 204.804 90.4125 204.203 91.0827C203.603 91.751 203.301 92.5497 203.301 93.4754ZM195.78 98.1479L194.213 98.1479L194.213 88.8034L195.78 88.8034L195.78 93.1936L195.87 93.0838L195.87 93.2109L199.823 88.8034L201.633 88.8034L197.664 93.2295L201.721 98.1479L199.678 98.1479L195.87 93.3394L195.87 93.5207L195.78 93.3751L195.78 98.1479Z" fill="#2B2B2A"/>
<path d="M348.632 82.7727L346.823 82.7727L349.361 78.9836C347.514 78.7528 346.592 77.8426 346.592 76.2511C346.592 75.2917 346.931 74.5701 347.612 74.0842C348.206 73.6474 349.003 73.4282 349.998 73.4282L353.641 73.4282L353.641 82.7727L352.056 82.7727L352.056 74.8675L350.125 74.8675C348.85 74.8675 348.213 75.3285 348.213 76.2511C348.213 76.9073 348.48 77.3443 349.014 77.5629C349.343 77.697 349.901 77.7635 350.69 77.7635L351.929 77.7635L348.632 82.7727ZM352.056 77.7635L351.947 77.7635L352.056 77.5443L352.056 77.7635ZM344.897 82.7727L343.368 82.7727L343.368 81.4609C342.371 82.4682 341.273 82.9733 340.07 82.9733C338.662 82.9733 337.494 82.505 336.564 81.5702C335.636 80.6355 335.17 79.4632 335.17 78.0552C335.17 76.7068 335.632 75.5592 336.555 74.6124C337.478 73.6655 338.613 73.1917 339.961 73.1917C341.236 73.1917 342.347 73.6771 343.295 74.6486L343.295 73.4282L344.897 73.4282L344.897 82.7727ZM336.828 78.0552C336.828 78.9901 337.15 79.7939 337.794 80.4687C338.437 81.1425 339.227 81.479 340.162 81.479C341.012 81.479 341.759 81.1368 342.402 80.4506C343.046 79.7642 343.368 78.9962 343.368 78.1455C343.368 77.2476 343.051 76.4522 342.421 75.7599C341.789 75.068 341.024 74.7217 340.125 74.7217C339.227 74.7217 338.453 75.0524 337.802 75.7146C337.153 76.3757 336.828 77.1562 336.828 78.0552ZM327.521 78.7654L327.521 82.7727L325.936 82.7727L325.936 73.4282L327.521 73.4282L327.521 77.3443L332.056 77.3443L332.056 73.4282L333.641 73.4282L333.641 82.7727L332.056 82.7727L332.056 78.7654L327.521 78.7654ZM317.831 78.7654L317.831 82.7727L316.246 82.7727L316.246 73.4282L317.831 73.4282L317.831 77.3443L322.367 77.3443L322.367 73.4282L323.951 73.4282L323.951 82.7727L322.367 82.7727L322.367 78.7654L317.831 78.7654ZM312.694 79.8941L314.48 79.8941C313.593 81.983 312.1 83.0271 309.999 83.0271C308.663 83.0271 307.525 82.5418 306.583 81.5702C305.642 80.5992 305.173 79.439 305.173 78.0917C305.173 76.7436 305.639 75.583 306.575 74.6124C307.51 73.6403 308.645 73.1549 309.981 73.1549C311.049 73.1549 311.973 73.4312 312.749 73.9839C313.526 74.5363 314.091 75.3169 314.443 76.3247C314.674 76.9798 314.79 77.7635 314.79 78.6746L306.848 78.6746C306.993 79.4885 307.355 80.1617 307.932 80.6954C308.509 81.2307 309.198 81.4977 309.999 81.4977C311.176 81.4977 312.076 80.9629 312.694 79.8941ZM310.036 74.7217C309.259 74.7217 308.594 74.9496 308.04 75.4076C307.489 75.8662 307.103 76.476 306.885 77.2358L313.077 77.2358C312.579 75.5592 311.566 74.7217 310.036 74.7217ZM298.614 78.6565L298.614 81.3889L300.619 81.3889C301.893 81.3889 302.531 80.9514 302.531 80.0771C302.531 79.1292 301.893 78.6565 300.619 78.6565L298.614 78.6565ZM300.445 74.812L298.614 74.812L298.614 77.3816L300.445 77.3816C301.677 77.3816 302.294 76.9133 302.294 75.9781C302.294 75.201 301.677 74.812 300.445 74.812ZM297.084 82.7727L297.084 73.4282L300.546 73.4282C302.695 73.4282 303.77 74.2783 303.77 75.9781C303.77 76.8166 303.381 77.4294 302.604 77.8184L302.604 77.8909C303.053 78.0735 303.429 78.3677 303.733 78.774C304.036 79.1811 304.189 79.6216 304.189 80.0952C304.189 81.0296 303.837 81.7285 303.132 82.1896C302.536 82.5781 301.748 82.7727 300.764 82.7727L297.084 82.7727ZM293.442 82.7727L291.82 82.7727L291.82 74.9224L289.307 74.9224L289.307 73.4282L295.955 73.4282L295.955 74.9224L293.442 74.9224L293.442 82.7727ZM286.957 79.6584L288.706 79.6584C287.904 81.9039 286.393 83.0271 284.17 83.0271C282.774 83.0271 281.62 82.5574 280.709 81.6166C279.799 80.6742 279.343 79.5057 279.343 78.1098C279.343 76.6881 279.807 75.5109 280.736 74.5756C281.666 73.6403 282.835 73.1731 284.244 73.1731C285.324 73.1731 286.25 73.462 287.021 74.038C287.792 74.6154 288.354 75.4202 288.706 76.4522L286.957 76.4522C286.435 75.2856 285.482 74.703 284.098 74.703C283.198 74.703 282.458 75.0397 281.875 75.7146C281.292 76.3882 281 77.1805 281 78.0917C281 79.0259 281.292 79.8221 281.875 80.4773C282.482 81.1692 283.247 81.5158 284.17 81.5158C285.579 81.5158 286.508 80.8965 286.957 79.6584ZM274.27 75.4625L272.369 81.3153L276.171 81.3153L274.27 75.4625ZM269.726 81.3153L270.691 81.3153L273.442 73.4101L275.117 73.4101L277.868 81.3153L278.833 81.3153L278.833 84.7763L277.303 84.7763L277.303 82.7541L271.256 82.7541L271.256 84.7763L269.726 84.7763L269.726 81.3153ZM269.215 77.9818C269.215 79.3302 268.741 80.5075 267.795 81.5158C266.848 82.5237 265.7 83.0271 264.352 83.0271C263.004 83.0271 261.856 82.5448 260.91 81.5798C259.963 80.6143 259.489 79.4572 259.489 78.1098C259.489 76.7859 259.956 75.6198 260.891 74.6124C261.826 73.6051 262.95 73.1 264.261 73.1C265.584 73.1 266.741 73.5834 267.731 74.5484C268.72 75.5135 269.215 76.6584 269.215 77.9818ZM261.146 78.1007C261.146 79.0259 261.45 79.8181 262.057 80.4748C262.664 81.1329 263.429 81.4609 264.352 81.4609C265.263 81.4609 266.025 81.1299 266.638 80.4652C267.251 79.804 267.558 79.0143 267.558 78.1007C267.558 77.1507 267.251 76.3459 266.638 75.6904C266.025 75.0312 265.251 74.703 264.315 74.703C263.405 74.703 262.648 75.0373 262.047 75.708C261.447 76.3757 261.146 77.1745 261.146 78.1007ZM252.949 78.6565L252.949 81.3889L254.954 81.3889C256.229 81.3889 256.865 80.9514 256.865 80.0771C256.865 79.1292 256.229 78.6565 254.954 78.6565L252.949 78.6565ZM254.78 74.812L252.949 74.812L252.949 77.3816L254.78 77.3816C256.013 77.3816 256.629 76.9134 256.629 75.9781C256.629 75.201 256.013 74.812 254.78 74.812ZM251.419 82.7727L251.419 73.4282L254.88 73.4282C257.029 73.4282 258.105 74.2783 258.105 75.9781C258.105 76.8166 257.716 77.4294 256.939 77.8184L256.939 77.891C257.388 78.0735 257.764 78.3677 258.068 78.774C258.372 79.1811 258.524 79.6216 258.524 80.0952C258.524 81.0296 258.171 81.7285 257.467 82.1896C256.871 82.5781 256.083 82.7727 255.098 82.7727L251.419 82.7727ZM242.257 79.9315L243.963 79.9315C243.963 80.4294 244.182 80.8355 244.619 81.151C245.017 81.4428 245.478 81.5884 245.997 81.5884C247.487 81.5884 248.232 81.1087 248.232 80.1491C248.232 79.7244 248.055 79.3599 247.707 79.0566C247.357 78.7528 246.565 78.601 245.336 78.601L245.336 77.3261C246.455 77.3261 247.178 77.1836 247.497 76.8977C247.816 76.6131 247.977 76.2637 247.977 75.8506C247.977 74.9763 247.366 74.5393 246.143 74.5393C244.837 74.5393 244.182 75.0015 244.182 75.9237L242.549 75.9237C242.549 74.9763 242.931 74.2476 243.696 73.7381C244.352 73.3132 245.178 73.1 246.173 73.1C247.096 73.1 247.88 73.3192 248.523 73.7562C249.263 74.2662 249.634 74.9647 249.634 75.8506C249.634 76.7985 249.04 77.4481 247.849 77.8003C249.209 78.2856 249.889 79.0748 249.889 80.1677C249.889 81.0179 249.446 81.7285 248.56 82.2984C247.794 82.7852 246.957 83.0271 246.046 83.0271C245.062 83.0271 244.206 82.7667 243.477 82.2445C242.664 81.6488 242.257 80.8778 242.257 79.9315ZM234.139 82.7727L232.639 82.7727L232.639 73.4282L234.224 73.4282L234.224 80.3498L239.306 73.4282L240.817 73.4282L240.817 82.7727L239.214 82.7727L239.214 75.8294L234.139 82.7727ZM231.218 77.9818C231.218 79.3302 230.745 80.5075 229.798 81.5158C228.851 82.5237 227.703 83.0271 226.355 83.0271C225.007 83.0271 223.859 82.5448 222.912 81.5798C221.966 80.6143 221.492 79.4572 221.492 78.1098C221.492 76.7859 221.959 75.6198 222.894 74.6124C223.829 73.6051 224.952 73.1 226.264 73.1C227.588 73.1 228.744 73.5834 229.734 74.5484C230.723 75.5135 231.218 76.6584 231.218 77.9818ZM223.149 78.1007C223.149 79.0259 223.453 79.8181 224.06 80.4748C224.667 81.1329 225.432 81.4609 226.355 81.4609C227.266 81.4609 228.027 81.1299 228.641 80.4652C229.255 79.804 229.561 79.0143 229.561 78.1007C229.561 77.1507 229.255 76.3459 228.641 75.6904C228.027 75.0312 227.254 74.703 226.319 74.703C225.408 74.703 224.652 75.0373 224.05 75.708C223.45 76.3758 223.149 77.1745 223.149 78.1007ZM215.72 82.9909C214.476 82.9909 213.359 82.505 212.366 81.5345L212.366 86.835L210.763 86.835L210.763 73.4101L212.366 73.4101L212.366 74.6673C213.337 73.6952 214.412 73.2099 215.59 73.2099C217.01 73.2099 218.183 73.6746 219.105 74.6028C220.028 75.532 220.489 76.7068 220.489 78.1274C220.489 79.4632 220.046 80.6078 219.157 81.5612C218.267 82.5146 217.122 82.9909 215.72 82.9909ZM212.293 78.0367C212.293 78.9478 212.608 79.7461 213.24 80.4319C213.871 81.1182 214.636 81.4609 215.535 81.4609C216.446 81.4609 217.223 81.1329 217.867 80.4773C218.511 79.8222 218.832 79.0385 218.832 78.1274C218.832 77.1806 218.513 76.3727 217.875 75.705C217.238 75.0373 216.452 74.703 215.517 74.703C214.655 74.703 213.902 75.0438 213.259 75.7231C212.615 76.4035 212.293 77.1745 212.293 78.0367ZM202.875 74.8675L202.875 82.7727L201.291 82.7727L201.291 73.4282L208.814 73.4282L208.814 82.7727L207.229 82.7727L207.229 74.8675L202.875 74.8675ZM199.506 77.1075L199.506 78.5829L195.134 78.5829L195.134 77.1075L199.506 77.1075ZM193.859 77.9818C193.859 79.3302 193.385 80.5075 192.438 81.5158C191.492 82.5237 190.344 83.0271 188.996 83.0271C187.647 83.0271 186.5 82.5448 185.553 81.5798C184.606 80.6143 184.133 79.4572 184.133 78.1098C184.133 76.7859 184.6 75.6198 185.535 74.6124C186.47 73.6051 187.594 73.1 188.905 73.1C190.228 73.1 191.384 73.5834 192.375 74.5484C193.364 75.5135 193.859 76.6584 193.859 77.9818ZM185.79 78.1007C185.79 79.0259 186.094 79.8181 186.701 80.4748C187.308 81.1329 188.073 81.4609 188.996 81.4609C189.907 81.4609 190.669 81.1299 191.281 80.4652C191.895 79.804 192.202 79.0143 192.202 78.1007C192.202 77.1507 191.895 76.3459 191.281 75.6904C190.669 75.0312 189.895 74.703 188.959 74.703C188.049 74.703 187.292 75.0373 186.691 75.708C186.091 76.3758 185.79 77.1745 185.79 78.1007ZM176.555 78.7654L176.555 82.7727L174.97 82.7727L174.97 73.4282L176.555 73.4282L176.555 77.3443L181.09 77.3443L181.09 73.4282L182.675 73.4282L182.675 82.7727L181.09 82.7727L181.09 78.7654L176.555 78.7654ZM168.486 82.7727L167.12 82.7727L164.132 75.9423L164.132 82.7727L162.603 82.7727L162.603 73.4282L164.698 73.4282L167.812 80.9695L170.908 73.4282L173.004 73.4282L173.004 82.7727L171.473 82.7727L171.473 75.9423L168.486 82.7727ZM160.634 82.7727L159.105 82.7727L159.105 81.4609C158.109 82.4682 157.011 82.9733 155.808 82.9733C154.4 82.9733 153.231 82.505 152.301 81.5702C151.373 80.6355 150.908 79.4632 150.908 78.0552C150.908 76.7068 151.37 75.5592 152.293 74.6124C153.215 73.6655 154.351 73.1918 155.699 73.1918C156.974 73.1918 158.085 73.6771 159.032 74.6486L159.032 73.4282L160.634 73.4282L160.634 82.7727ZM152.566 78.0552C152.566 78.9902 152.887 79.7939 153.531 80.4687C154.175 81.1425 154.965 81.479 155.9 81.479C156.749 81.479 157.496 81.1368 158.14 80.4506C158.783 79.7642 159.105 78.9962 159.105 78.1455C159.105 77.2476 158.789 76.4522 158.158 75.7599C157.527 75.068 156.762 74.7217 155.863 74.7217C154.965 74.7217 154.19 75.0524 153.54 75.7146C152.89 76.3758 152.566 77.1562 152.566 78.0552ZM146.264 75.7503L143.856 82.7727L142.146 82.7727L145.608 73.4282L146.956 73.4282L150.417 82.7727L148.708 82.7727L146.264 75.7503ZM136.445 82.7727L134.879 82.7727L134.879 73.4282L136.445 73.4282L136.445 77.8184L136.536 77.7086L136.536 77.8357L140.489 73.4282L142.299 73.4282L138.33 77.8542L142.387 82.7727L140.343 82.7727L136.536 77.964L136.536 78.1455L136.445 77.9999L136.445 82.7727ZM131.309 79.8942L133.095 79.8942C132.207 81.983 130.715 83.0271 128.614 83.0271C127.278 83.0271 126.139 82.5418 125.198 81.5702C124.257 80.5992 123.787 79.4391 123.787 78.0917C123.787 76.7436 124.254 75.5831 125.189 74.6124C126.124 73.6403 127.259 73.155 128.595 73.155C129.663 73.155 130.587 73.4312 131.364 73.9839C132.141 74.5363 132.705 75.3169 133.058 76.3247C133.288 76.9798 133.404 77.7635 133.404 78.6746L125.463 78.6746C125.608 79.4885 125.969 80.1617 126.546 80.6954C127.124 81.2307 127.813 81.4977 128.614 81.4977C129.791 81.4977 130.69 80.963 131.309 79.8942ZM128.65 74.7217C127.873 74.7217 127.208 74.9496 126.655 75.4076C126.103 75.8663 125.717 76.476 125.499 77.2358L131.692 77.2358C131.194 75.5592 130.18 74.7217 128.65 74.7217ZM117.997 82.9909C116.752 82.9909 115.635 82.505 114.643 81.5345L114.643 86.835L113.039 86.835L113.039 73.4101L114.643 73.4101L114.643 74.6673C115.614 73.6952 116.688 73.2099 117.867 73.2099C119.287 73.2099 120.459 73.6746 121.382 74.6028C122.304 75.532 122.766 76.7068 122.766 78.1274C122.766 79.4632 122.323 80.6078 121.434 81.5612C120.544 82.5146 119.399 82.9909 117.997 82.9909ZM114.57 78.0367C114.57 78.9478 114.885 79.7461 115.516 80.4319C116.148 81.1182 116.913 81.4609 117.812 81.4609C118.722 81.4609 119.5 81.1329 120.144 80.4773C120.787 79.8222 121.109 79.0385 121.109 78.1274C121.109 77.1806 120.79 76.3727 120.152 75.705C119.515 75.0373 118.728 74.703 117.793 74.703C116.932 74.703 116.179 75.0439 115.535 75.7231C114.891 76.4035 114.57 77.1745 114.57 78.0367Z" fill="#2B2B2A"/>
</svg>
