<svg width="153" height="114" viewBox="0 0 153 114" fill="none" xmlns="http://www.w3.org/2000/svg">
<path d="M80.4792 99.633H79.337V92.1004H75.1153V99.633H73.9875V91.1891H80.4792V99.633Z" fill="white"/>
<path d="M89.125 95.6741C89.125 96.5 88.9804 97.2261 88.7057 97.8384C88.4165 98.4507 88.0262 98.9207 87.5057 99.2482C86.9853 99.5757 86.378 99.7323 85.684 99.7323C85.0045 99.7323 84.4118 99.5757 83.8913 99.2482C83.3708 98.9207 82.9659 98.4507 82.6768 97.8527C82.3876 97.2546 82.243 96.5427 82.2286 95.7453V95.133C82.2286 94.3213 82.3731 93.6094 82.6623 92.9828C82.9515 92.3563 83.3563 91.8864 83.8768 91.5589C84.3973 91.2314 85.0045 91.0605 85.6696 91.0605C86.3491 91.0605 86.9563 91.2171 87.4913 91.5446C88.0118 91.8721 88.4165 92.342 88.7057 92.9686C88.9804 93.5951 89.125 94.3071 89.125 95.133V95.6741ZM87.9973 95.133C87.9973 94.1362 87.7949 93.3673 87.3901 92.8262C86.9852 92.2851 86.4069 92.0288 85.684 92.0288C84.9756 92.0288 84.4118 92.2994 83.9925 92.8262C83.5877 93.3673 83.3708 94.1078 83.3563 95.0618V95.6883C83.3563 96.6566 83.5587 97.4255 83.978 97.9809C84.3973 98.5362 84.9611 98.8068 85.684 98.8068C86.4214 98.8068 86.9852 98.5504 87.3756 98.0235C87.7804 97.4967 87.9828 96.7563 87.9973 95.7738V95.133Z" fill="white"/>
<path d="M94.9371 96.3295V99.633H93.8094V91.1891H96.9757C97.9154 91.1891 98.6527 91.4169 99.1877 91.9011C99.7226 92.371 99.9829 92.9975 99.9829 93.7807C99.9829 94.6065 99.7226 95.2331 99.2022 95.6745C98.6817 96.1159 97.9299 96.3437 96.9612 96.3437H94.9371V96.3295ZM94.9371 95.4182H96.9612C97.5684 95.4182 98.0311 95.2758 98.3492 94.991C98.6673 94.7062 98.8262 94.3075 98.8262 93.7807C98.8262 93.2823 98.6673 92.8694 98.3492 92.5703C98.0311 92.2713 97.5829 92.1147 97.019 92.1004H94.9227V95.4182H94.9371Z" fill="white"/>
<path d="M106.272 95.7314H102.542V98.7217H106.865V99.633H101.414V91.1891H106.807V92.1004H102.542V94.8201H106.272V95.7314Z" fill="white"/>
<path d="M109.453 91.1891V98.7217H112.402V91.1891H113.53V98.7217H116.465V91.1891H117.593V99.633H108.311V91.1891H109.453Z" fill="white"/>
<path d="M124.46 95.7314H120.744V98.7217H125.067V99.633H119.617V91.1891H125.01V92.1004H120.744V94.8201H124.46V95.7314Z" fill="white"/>
<path d="M133.063 99.633H131.935V95.7314H127.612V99.633H126.47V91.1891H127.612V94.8201H131.935V91.1891H133.063V99.633Z" fill="white"/>
<path d="M140.479 91.1891H141.607V99.633H140.479V93.1256L136.258 99.633H135.116V91.1891H136.258V97.6965L140.479 91.1891Z" fill="white"/>
<path d="M153 95.6743C153 96.5002 152.855 97.2263 152.581 97.8386C152.292 98.4509 151.901 98.9209 151.381 99.2484C150.86 99.5759 150.253 99.7325 149.559 99.7325C148.908 99.7325 148.33 99.5758 147.81 99.2626C147.289 98.9493 146.884 98.5079 146.595 97.9383C146.306 97.3687 146.132 96.6853 146.104 95.9163H144.875V99.6044H143.747V91.1604H144.875V95.0335H146.104C146.118 94.2361 146.263 93.5383 146.552 92.9403C146.826 92.3422 147.231 91.8724 147.752 91.5449C148.272 91.2173 148.879 91.0465 149.545 91.0465C150.224 91.0465 150.831 91.2031 151.366 91.5306C151.887 91.8581 152.292 92.328 152.581 92.9545C152.855 93.5811 153 94.2931 153 95.1189V95.6743ZM151.872 95.1332C151.872 94.1364 151.67 93.3675 151.265 92.8264C150.86 92.2853 150.282 92.029 149.559 92.029C148.851 92.029 148.287 92.2996 147.867 92.8264C147.463 93.3675 147.246 94.108 147.231 95.062V95.6886C147.231 96.6568 147.434 97.4257 147.853 97.9811C148.272 98.5364 148.836 98.807 149.559 98.807C150.296 98.807 150.86 98.5506 151.251 98.0237C151.655 97.4969 151.858 96.7565 151.872 95.774V95.1332Z" fill="white"/>
<path d="M80.4792 111.935H79.337V104.403H75.1153V111.935H73.9875V103.491H80.4792V111.935Z" fill="white"/>
<path d="M83.6599 108.632V111.935H82.5322V103.491H85.6985C86.6382 103.491 87.3756 103.734 87.9105 104.203C88.4454 104.673 88.7057 105.3 88.7057 106.083C88.7057 106.909 88.4455 107.535 87.925 107.977C87.4045 108.418 86.6527 108.646 85.684 108.646H83.6599V108.632ZM83.6599 107.721H85.684C86.2912 107.721 86.7539 107.578 87.072 107.293C87.3901 107.009 87.549 106.61 87.549 106.083C87.549 105.585 87.3901 105.172 87.072 104.873C86.7539 104.574 86.3057 104.417 85.7418 104.403H83.6454V107.721H83.6599Z" fill="white"/>
<path d="M94.995 108.034H91.2793V111.024H95.5877V111.935H90.1371V103.491H95.5299V104.403H91.2793V107.122H94.995V108.034Z" fill="white"/>
<path d="M101.4 105.756C101.4 105.3 101.226 104.944 100.908 104.688C100.576 104.417 100.113 104.289 99.5058 104.289C98.9997 104.289 98.5805 104.432 98.2479 104.702C97.9154 104.973 97.7419 105.315 97.7419 105.713H96.6142C96.6142 105.258 96.7443 104.859 96.9901 104.503C97.2359 104.147 97.5828 103.876 98.031 103.677C98.4792 103.478 98.9708 103.378 99.5202 103.378C100.474 103.378 101.226 103.592 101.747 104.019C102.282 104.446 102.542 105.03 102.542 105.784C102.542 106.169 102.426 106.525 102.18 106.852C101.935 107.166 101.602 107.422 101.168 107.607C102.181 107.935 102.687 108.604 102.687 109.586C102.687 110.341 102.397 110.953 101.833 111.395C101.255 111.836 100.489 112.064 99.5347 112.064C98.9709 112.064 98.4504 111.964 97.9877 111.765C97.5251 111.566 97.1636 111.281 96.9034 110.911C96.6431 110.54 96.513 110.099 96.513 109.601H97.6407C97.6407 110.042 97.8142 110.412 98.1757 110.711C98.5371 111.01 98.9853 111.153 99.5347 111.153C100.156 111.153 100.648 111.01 101.009 110.725C101.371 110.441 101.559 110.07 101.559 109.601C101.559 108.604 100.937 108.105 99.6937 108.091H98.6383V107.18H99.6937C100.272 107.166 100.706 107.037 100.995 106.795C101.241 106.553 101.4 106.197 101.4 105.756Z" fill="white"/>
<path d="M109.554 103.491H110.682V111.935H109.554V105.428L105.332 111.935H104.19V103.491H105.332V109.999L109.554 103.491Z" fill="white"/>
<path d="M120.585 114H119.458V111.921H113.299V114H112.171V111.01H112.865C113.241 110.597 113.53 110.056 113.747 109.358C113.964 108.674 114.094 107.905 114.152 107.094L114.34 103.477H119.472V111.01H120.585V114ZM114.166 111.024H118.344V104.403H115.438L115.308 106.88C115.25 107.849 115.135 108.674 114.918 109.358C114.715 110.056 114.455 110.611 114.166 111.024Z" fill="white"/>
<path d="M126.788 108.034H123.072V111.024H127.381V111.935H121.944V103.491H127.323V104.403H123.072V107.122H126.788V108.034Z" fill="white"/>
<path d="M135.39 111.935H134.248V108.034H129.925V111.935H128.797V103.491H129.925V107.122H134.248V103.491H135.39V111.935Z" fill="white"/>
<path d="M143.14 104.403H140.393V111.935H139.265V104.403H136.518V103.491H143.14V104.403Z" fill="white"/>
<path d="M148.692 109.728H145.106L144.296 111.935H143.125L146.407 103.491H147.39L150.672 111.935H149.516L148.692 109.728ZM145.439 108.817H148.359L146.899 104.873L145.439 108.817Z" fill="white"/>
<path d="M74.0887 6.37915L75.7514 10.7221L77.3996 6.37915H78.7008V12.0464H77.7032V10.181L77.8044 7.67498L76.0984 12.0464H75.3755L73.684 7.68915L73.7852 10.181V12.0464H72.7876V6.37915H74.0887Z" fill="white"/>
<path d="M83.0671 10.7364H80.8407L80.378 12.0607H79.337L81.5201 6.39343H82.4165L84.5997 12.0607H83.5587L83.0671 10.7364ZM81.1153 9.93902H82.778L81.9394 7.58949L81.1153 9.93902Z" fill="white"/>
<path d="M89.7322 6.37915V12.0464H88.7346V7.17655H86.9707L86.8695 9.36938C86.8262 10.0529 86.7394 10.5798 86.6093 10.9643C86.4792 11.3487 86.2912 11.6192 86.0454 11.7901C85.7996 11.961 85.4671 12.0464 85.0478 12.0464H84.8021V11.2632L84.9611 11.249C85.1924 11.2205 85.3659 11.1493 85.496 11.0069C85.6261 10.8645 85.7129 10.6652 85.7852 10.3804C85.8575 10.0956 85.9008 9.69694 85.9153 9.15584L86.0309 6.37915H89.7322Z" fill="white"/>
<path d="M95.5009 9.35535C95.5009 9.91068 95.3997 10.3948 95.2117 10.822C95.0238 11.2349 94.7347 11.5624 94.3732 11.7902C94.0118 12.0181 93.5925 12.132 93.1299 12.132C92.6672 12.132 92.2479 12.0181 91.8864 11.7902C91.525 11.5624 91.2359 11.2492 91.0334 10.8362C90.831 10.4233 90.7298 9.93912 90.7298 9.39802V9.0848C90.7298 8.52946 90.831 8.04528 91.0334 7.6181C91.2359 7.19092 91.5105 6.86343 91.8719 6.64984C92.2334 6.42201 92.6527 6.30811 93.1154 6.30811C93.578 6.30811 93.9973 6.42199 94.3587 6.63558C94.7202 6.86341 94.9949 7.17665 95.1973 7.5896C95.3997 8.00254 95.5009 8.4867 95.5009 9.04204V9.35535ZM94.5033 9.07054C94.5033 8.44401 94.3876 7.95986 94.1418 7.63235C93.8961 7.29061 93.5636 7.13401 93.1154 7.13401C92.6817 7.13401 92.3491 7.30485 92.1033 7.63235C91.8575 7.95986 91.7274 8.44398 91.7274 9.04204V9.36951C91.7274 9.99605 91.8431 10.4802 92.1033 10.822C92.3491 11.1637 92.6961 11.3346 93.1299 11.3346C93.5781 11.3346 93.9105 11.1637 94.1563 10.8362C94.4021 10.5087 94.5178 10.0103 94.5178 9.38377V9.07054H94.5033Z" fill="white"/>
<path d="M99.8238 9.51183H97.4673V11.2632H100.229V12.0464H96.4697V6.37915H100.2V7.17655H97.4673V8.74293H99.8238V9.51183Z" fill="white"/>
<path d="M106.532 6.37915H107.53V12.0464H106.532V8.01671L104.002 12.0464H102.99V6.37915H104.002V10.4232L106.532 6.37915Z" fill="white"/>
<path d="M115.077 10.2097C115.019 10.822 114.788 11.2919 114.397 11.6337C114.007 11.9754 113.472 12.1463 112.822 12.1463C112.359 12.1463 111.954 12.0324 111.607 11.8188C111.26 11.6052 110.985 11.3061 110.797 10.9074C110.609 10.5087 110.508 10.0531 110.494 9.54052V9.01359C110.494 8.47249 110.595 8.00261 110.783 7.60391C110.971 7.19097 111.246 6.87774 111.607 6.66415C111.969 6.45056 112.388 6.33667 112.85 6.33667C113.487 6.33667 113.993 6.50752 114.383 6.84927C114.773 7.19101 114.99 7.67516 115.063 8.28745H114.065C114.022 7.87451 113.891 7.58973 113.704 7.40462C113.501 7.21951 113.226 7.13407 112.85 7.13407C112.417 7.13407 112.084 7.29064 111.853 7.60391C111.622 7.91717 111.506 8.37288 111.491 8.98517V9.48351C111.491 10.0958 111.607 10.5657 111.824 10.8932C112.041 11.2207 112.373 11.3774 112.807 11.3774C113.197 11.3774 113.501 11.2919 113.689 11.1211C113.891 10.9502 114.007 10.6512 114.065 10.2525H115.077V10.2097Z" fill="white"/>
<path d="M116.928 9.95327V12.0607H115.93V6.39343H118.128C118.764 6.39343 119.284 6.56427 119.66 6.89178C120.036 7.21928 120.224 7.66076 120.224 8.20186C120.224 8.75719 120.036 9.19858 119.66 9.4976C119.284 9.81087 118.778 9.96753 118.099 9.96753H116.928V9.95327ZM116.928 9.15587H118.128C118.489 9.15587 118.749 9.07046 118.937 8.91383C119.125 8.75719 119.212 8.51512 119.212 8.20186C119.212 7.90283 119.111 7.64651 118.923 7.47564C118.735 7.29053 118.475 7.19083 118.142 7.19083H116.913V9.15587H116.928Z" fill="white"/>
<path d="M124.446 9.51183H122.075V11.2632H124.836V12.0464H121.077V6.37915H124.822V7.17655H122.075V8.74293H124.446V9.51183Z" fill="white"/>
<path d="M130.923 13.4419H129.969V12.0464H126.181V13.4419H125.212L125.183 11.2632H125.646C125.877 11.0496 126.065 10.7222 126.195 10.3092C126.325 9.89629 126.426 9.4264 126.455 8.89954L126.6 6.37915H130.229V11.2632H130.966L130.923 13.4419ZM126.773 11.2632H129.246V7.17655H127.569L127.467 8.77135C127.395 9.8393 127.164 10.6652 126.773 11.2632Z" fill="white"/>
<path d="M136.258 12.0464H135.26V9.54033H132.687V12.0464H131.689V6.37915H132.687V8.74293H135.26V6.37915H136.258V12.0464Z" fill="white"/>
<path d="M140.783 9.51183H138.412V11.2632H141.174V12.0464H137.414V6.37915H141.159V7.17655H138.412V8.74293H140.783V9.51183Z" fill="white"/>
<path d="M145.323 9.51183H142.966V11.2632H145.728V12.0464H141.969V6.37915H145.699V7.17655H142.966V8.74293H145.323V9.51183Z" fill="white"/>
<path d="M48.2091 21.6295H47.2115V16.7454H44.6669V21.6295H43.6693V15.948H48.2091V21.6295Z" fill="white"/>
<path d="M50.3779 19.5222V21.6297H49.3803V15.9624H51.5778C52.214 15.9624 52.7345 16.1333 53.1104 16.4608C53.4863 16.7883 53.6742 17.2297 53.6742 17.7708C53.6742 18.3262 53.4863 18.7676 53.1104 19.0667C52.7345 19.3799 52.2285 19.5365 51.549 19.5365H50.3779V19.5222ZM50.3779 18.7248H51.5778C51.9393 18.7248 52.1995 18.6394 52.3875 18.4828C52.5754 18.3262 52.6766 18.0841 52.6766 17.7708C52.6766 17.4576 52.5754 17.2155 52.3875 17.0304C52.1995 16.8452 51.9393 16.7456 51.6068 16.7456H50.3779V18.7248Z" fill="white"/>
<path d="M57.8815 19.0948H55.5248V20.8321H58.2862V21.6295H54.5272V15.948H58.2573V16.7454H55.5248V18.3117H57.8815V19.0948Z" fill="white"/>
<path d="M64.3731 23.0252H63.4189V21.6297H59.6309V23.0252H58.6622L58.6333 20.8466H59.096C59.3273 20.633 59.5153 20.3054 59.6454 19.8925C59.7755 19.4795 59.8767 19.0097 59.9056 18.4828L60.0502 15.9624H63.6791V20.8466H64.4165L64.3731 23.0252ZM60.2237 20.8323H62.696V16.7456H61.0189L60.9177 18.3404C60.8454 19.4084 60.6141 20.2485 60.2237 20.8323Z" fill="white"/>
<path d="M69.6935 21.6295H68.6959V16.7454H66.1658V21.6295H65.1682V15.948H69.6935V21.6295Z" fill="white"/>
<path d="M71.8623 19.5222V21.6297H70.8647V15.9624H73.0767C73.7129 15.9624 74.2334 16.1333 74.6093 16.4608C74.9852 16.7883 75.1731 17.2297 75.1731 17.7708C75.1731 18.3262 74.9852 18.7676 74.6093 19.0667C74.2334 19.3799 73.7274 19.5365 73.0479 19.5365H71.8623V19.5222ZM71.8623 18.7248H73.0623C73.4238 18.7248 73.684 18.6394 73.872 18.4828C74.0599 18.3262 74.1467 18.0841 74.1467 17.7708C74.1467 17.4576 74.0455 17.2155 73.8575 17.0304C73.6696 16.8452 73.4093 16.7456 73.0767 16.7456H71.8478V18.7248H71.8623Z" fill="white"/>
<path d="M79.5394 15.948H80.537V21.6295H79.5394V17.5855L77.0093 21.6295H76.0117V15.948H77.0093V19.9919L79.5394 15.948Z" fill="white"/>
<path d="M86.2767 21.6295H85.2791V19.1091H82.7057V21.6295H81.7081V15.948H82.7057V18.3117H85.2791V15.948H86.2767V21.6295Z" fill="white"/>
<path d="M90.9611 15.948H91.9587V21.6295H90.9611V17.5855L88.431 21.6295H87.4334V15.948H88.431V19.9919L90.9611 15.948Z" fill="white"/>
<path d="M94.4166 15.948L96.0793 20.3052L97.7419 15.948H99.0287V21.6295H98.0311V19.7499L98.1323 17.258L96.4408 21.6295H95.7179L94.0263 17.258L94.1275 19.7499V21.6295H93.1299V15.948H94.4166Z" fill="white"/>
<path d="M103.409 20.3055H101.183L100.72 21.6297H99.6792L101.862 15.9624H102.759L104.942 21.6297H103.901L103.409 20.3055ZM101.458 19.5081H103.12L102.282 17.1585L101.458 19.5081Z" fill="white"/>
<path d="M109.699 16.7454H107.906V21.6295H106.923V16.7454H105.13V15.948H109.699V16.7454Z" fill="white"/>
<path d="M113.79 19.0948H111.434V20.8321H114.195V21.6295H110.422V15.948H114.166V16.7454H111.434V18.3117H113.79V19.0948Z" fill="white"/>
<path d="M119.501 15.948V21.6152H118.504V16.7454H116.74L116.638 18.9382C116.595 19.6217 116.508 20.1486 116.378 20.533C116.248 20.9033 116.06 21.1881 115.814 21.3589C115.568 21.5298 115.236 21.6152 114.817 21.6152H114.571V20.8321L114.73 20.8178C114.961 20.7894 115.135 20.7182 115.265 20.5758C115.395 20.4334 115.482 20.234 115.554 19.9493C115.626 19.6645 115.67 19.2657 115.684 18.7246L115.8 15.948H119.501Z" fill="white"/>
<path d="M121.655 18.1268H122.841C123.26 18.1268 123.636 18.198 123.94 18.3404C124.258 18.4828 124.489 18.6822 124.663 18.9527C124.822 19.209 124.908 19.5223 124.908 19.8641C124.908 20.3909 124.72 20.818 124.359 21.1455C123.998 21.4731 123.491 21.6297 122.87 21.6297H120.672V15.9624H121.67V18.1268H121.655ZM121.655 18.9242V20.8466H122.826C123.159 20.8466 123.434 20.7611 123.622 20.576C123.81 20.3909 123.911 20.1488 123.911 19.8641C123.911 19.5793 123.824 19.3514 123.636 19.1948C123.448 19.0239 123.202 18.9385 122.87 18.9385H121.655V18.9242Z" fill="white"/>
<path d="M130.128 19.7783C130.07 20.3906 129.839 20.8605 129.448 21.2022C129.058 21.544 128.523 21.7148 127.872 21.7148C127.41 21.7148 127.005 21.6009 126.658 21.3873C126.311 21.1737 126.036 20.8747 125.848 20.476C125.66 20.0773 125.559 19.6216 125.559 19.109V18.5822C125.559 18.0411 125.66 17.5712 125.848 17.1725C126.036 16.7595 126.311 16.4462 126.672 16.2326C127.034 16.019 127.453 15.9052 127.916 15.9052C128.552 15.9052 129.058 16.076 129.448 16.4177C129.839 16.7595 130.055 17.2436 130.128 17.8559H129.13C129.087 17.443 128.957 17.1582 128.769 16.9731C128.581 16.788 128.292 16.7026 127.916 16.7026C127.482 16.7026 127.149 16.8592 126.918 17.1725C126.687 17.4857 126.571 17.9414 126.557 18.5537V19.0236C126.557 19.6359 126.672 20.1058 126.889 20.4333C127.106 20.7608 127.438 20.9174 127.872 20.9174C128.263 20.9174 128.566 20.832 128.754 20.6611C128.957 20.4903 129.072 20.1912 129.13 19.7925H130.128V19.7783Z" fill="white"/>
<path d="M135.145 16.7454H133.352V21.6295H132.354V16.7454H130.576V15.948H135.145V16.7454Z" fill="white"/>
<path d="M135.867 21.6297V15.9624H137.834C138.484 15.9624 138.976 16.0906 139.323 16.3469C139.655 16.6032 139.829 16.9877 139.829 17.5003C139.829 17.7566 139.757 17.9986 139.612 18.198C139.467 18.4116 139.265 18.5683 138.99 18.6822C139.294 18.7676 139.54 18.9243 139.713 19.1521C139.887 19.3799 139.973 19.6646 139.973 19.9779C139.973 20.5048 139.8 20.9178 139.453 21.2026C139.106 21.4873 138.614 21.6297 137.964 21.6297H135.867ZM136.879 18.3404H137.863C138.166 18.3404 138.412 18.2692 138.585 18.1268C138.759 17.9844 138.846 17.7851 138.846 17.543C138.846 17.2582 138.759 17.0589 138.6 16.9308C138.441 16.8026 138.181 16.7456 137.848 16.7456H136.879V18.3404ZM136.879 19.0667V20.8466H137.993C138.311 20.8466 138.557 20.7753 138.73 20.6187C138.904 20.4621 138.99 20.2485 138.99 19.9779C138.99 19.3941 138.687 19.0809 138.065 19.0667H136.879Z" fill="white"/>
<path d="M145.54 18.938C145.54 19.4933 145.439 19.9774 145.251 20.4046C145.048 20.8175 144.774 21.1451 144.412 21.373C144.051 21.6008 143.631 21.7147 143.154 21.7147C142.692 21.7147 142.272 21.6008 141.911 21.373C141.549 21.1451 141.26 20.8318 141.072 20.4189C140.87 20.0059 140.769 19.5218 140.769 18.9807V18.6674C140.769 18.1121 140.87 17.6279 141.072 17.2007C141.275 16.7736 141.549 16.4603 141.911 16.2325C142.272 16.0046 142.692 15.8907 143.154 15.8907C143.617 15.8907 144.036 16.0047 144.398 16.2183C144.759 16.4461 145.034 16.7594 145.236 17.1723C145.439 17.5853 145.54 18.0693 145.54 18.6247V18.938ZM144.542 18.6389C144.542 18.0124 144.427 17.5283 144.181 17.1866C143.935 16.8448 143.602 16.6881 143.154 16.6881C142.72 16.6881 142.388 16.8591 142.142 17.1866C141.896 17.5283 141.766 17.9982 141.766 18.6105V18.938C141.766 19.5645 141.896 20.0487 142.142 20.3904C142.388 20.7322 142.735 20.903 143.169 20.903C143.617 20.903 143.949 20.7321 144.195 20.4046C144.441 20.0771 144.557 19.5788 144.557 18.9522V18.6389H144.542Z" fill="white"/>
<path d="M151.887 0L41.9344 0.0142533C41.5006 0.0142533 41.0958 0.284759 40.9368 0.683461L0.0786976 110.198C0.0642397 110.241 0.0498277 110.284 0.0353698 110.327C0.0209119 110.369 0.00642574 110.398 0.00642574 110.44C-0.00803217 110.497 0.00642574 110.54 0.00642574 110.597C0.00642574 110.626 0.00642574 110.668 0.00642574 110.697C0.00642574 110.754 0.0353839 110.825 0.0498418 110.882C0.165505 111.281 0.52696 111.594 0.960697 111.637C1.00407 111.637 1.03292 111.651 1.0763 111.651C1.19196 111.651 1.3221 111.622 1.45222 111.58L123.405 67.8647C123.824 67.7081 124.113 67.3094 124.113 66.868V48.3141L152.364 33.733C152.725 33.5479 152.957 33.1919 152.957 32.7932V1.06795C152.971 0.469899 152.48 0 151.887 0ZM122.465 66.4836L2.16064 109.615L40.3151 29.0341H122.465V66.4836ZM152.147 32.7932C152.147 32.8929 152.089 32.9784 151.988 33.0353L124.099 47.417V28.4787C124.099 27.8949 123.622 27.425 123.029 27.425H39.9536C39.5344 27.425 39.1585 27.6671 38.985 28.0373L4.14137 101.612L41.6886 0.968266C41.732 0.86859 41.8332 0.797401 41.9344 0.797401L151.887 0.783147C152.031 0.783147 152.147 0.897052 152.147 1.03945V32.7932Z" fill="white"/>
<path d="M45.4188 34.559H43.5392V30.1163H41.8766V40.4826H43.5392V36.0399H45.4188V40.4826H47.0959V30.1163H45.4188V34.559ZM115.193 30.1163H113.544V40.4826H115.193V30.1163ZM49.8429 30.1163L48.1658 40.4826H49.6838L49.973 38.603H51.9972L52.2863 40.4826H53.9634L52.2719 30.1163H49.8429ZM50.1754 37.1933L50.9706 31.9532L51.7658 37.1933H50.1754ZM64.1562 34.4024L63.5635 36.6807V30.1163H62.0887V40.4826H63.7803L65.1683 35.7266L65.8478 33.1778V40.4826H67.337V30.1163H65.5153L64.1562 34.4024ZM90.4118 37.8625L90.5853 31.5972H92.0311V40.4826H93.7227V30.1163H89.0383L88.7636 37.9479C88.7347 38.9162 88.4889 39.0159 87.7371 39.0159V40.4968H87.9973C89.66 40.4968 90.354 39.7563 90.4118 37.8625ZM112.59 37.9195V36.5668C112.59 34.915 111.781 34.0037 110.118 34.0037H109.337V30.1021H107.675V40.4683H110.118C111.766 40.4826 112.59 39.5855 112.59 37.9195ZM109.337 35.4988H110.118C110.638 35.4988 110.928 35.7409 110.928 36.4813V38.0334C110.928 38.7738 110.638 39.0159 110.118 39.0159H109.337V35.4988ZM99.9685 37.9195V36.5668C99.9685 34.915 99.1588 34.0037 97.4962 34.0037H96.7155V30.1021H95.0672V40.4683H97.5106C99.1588 40.4826 99.9685 39.5855 99.9685 37.9195ZM96.7155 35.4988H97.4962C98.0166 35.4988 98.3058 35.7409 98.3058 36.4813V38.0334C98.3058 38.7738 98.0166 39.0159 97.4962 39.0159H96.7155V35.4988ZM102.802 36.0399H104.682V40.4826H106.359V30.1163H104.682V34.559H102.802V30.1163H101.154V40.4826H102.802V36.0399ZM60.2092 30.1163H58.5177V39.0017H56.6381V30.1163H54.99V40.4826H59.3129V41.878H60.9177V39.0301H60.1948V30.1163H60.2092ZM85.2214 40.4826H86.8985L85.2069 30.1163H82.778L81.1009 40.4826H82.619L82.9082 38.603H84.9322L85.2214 40.4826ZM83.1105 37.1933L83.9058 31.9532L84.7009 37.1933H83.1105ZM121.034 31.5972V30.1163H116.523V40.4826H121.034V39.0017H118.171V35.9687H120.441V34.4878H118.171V31.5972H121.034ZM71.0527 30.0024C69.4334 30.0024 68.537 30.9564 68.537 32.6082V38.005C68.537 39.671 69.4189 40.6107 71.0527 40.6107C72.6864 40.6107 73.5683 39.6567 73.5683 38.005V32.6082C73.5683 30.9422 72.6864 30.0024 71.0527 30.0024ZM71.9201 38.1046C71.9201 38.8451 71.5876 39.1298 71.0671 39.1298C70.5467 39.1298 70.2141 38.8451 70.2141 38.1046V32.5085C70.2141 31.768 70.5467 31.4833 71.0671 31.4833C71.5876 31.4833 71.9201 31.768 71.9201 32.5085V38.1046ZM76.4599 36.0399H78.3394V40.4826H80.031V30.1163H78.3394V34.559H76.4599V30.1163H74.8117V40.4826H76.4599V36.0399ZM99.6648 44.0424V42.5616H95.154V52.9278H99.6648V51.4469H96.8022V48.4139H99.0721V46.933H96.8022V44.0424H99.6648ZM104.624 52.9278H106.33L104.031 47.1751L106.33 42.5616H104.682L102.513 47.0754V42.5616H100.865V52.9278H102.513V49.7382L103.019 48.7842L104.624 52.9278ZM110.566 52.9278V44.0424H112.301V42.5616H107.183V44.0424H108.918V52.9278H110.566ZM118.243 50.3647V49.0119C118.243 47.3459 117.434 46.4489 115.771 46.4489H114.99V42.5473H113.342V52.9135H115.785C117.434 52.9278 118.243 52.0165 118.243 50.3647ZM114.99 47.9297H115.771C116.291 47.9297 116.581 48.1718 116.581 48.9123V50.4644C116.581 51.2048 116.291 51.4469 115.771 51.4469H114.99V47.9297ZM87.8817 46.4631V45.1104C87.8817 43.4586 87.072 42.5473 85.4094 42.5473H82.966V52.9135H84.6142V49.0119H85.3949C87.072 49.0262 87.8817 48.1291 87.8817 46.4631ZM84.6287 44.0424H85.4094C85.9299 44.0424 86.219 44.2845 86.219 45.0249V46.577C86.219 47.3174 85.9299 47.5595 85.4094 47.5595H84.6287V44.0424ZM76.4454 52.9278H78.0937V44.0424H79.9732V52.9278H81.6647V42.5616H76.4454V52.9278ZM119.198 52.9278H120.846V42.5616H119.198V52.9278ZM91.4094 42.4334C89.7901 42.4334 88.8937 43.3874 88.8937 45.0392V50.4359C88.8937 52.0876 89.7757 53.0417 91.4094 53.0417C93.0287 53.0417 93.9251 52.0876 93.9251 50.4359V45.0392C93.9251 43.3874 93.0287 42.4334 91.4094 42.4334ZM92.2624 50.5356C92.2624 51.276 91.9299 51.5608 91.4094 51.5608C90.889 51.5608 90.5564 51.276 90.5564 50.5356V44.9395C90.5564 44.1991 90.889 43.9142 91.4094 43.9142C91.9299 43.9142 92.2624 44.1991 92.2624 44.9395V50.5356ZM117.679 59.2786L117.072 61.5568V54.9925H115.597V65.3587H117.289L118.677 60.6028L119.357 58.0539V65.3587H120.846V54.9925H119.024L117.679 59.2786ZM93.2167 54.8786C91.5974 54.8786 90.7009 55.8326 90.7009 57.4844V62.8811C90.7009 64.5328 91.5829 65.4869 93.2167 65.4869C94.836 65.4869 95.7323 64.5471 95.7323 62.8811V57.4844C95.7323 55.8326 94.8504 54.8786 93.2167 54.8786ZM94.0841 62.9808C94.0841 63.7212 93.7515 64.006 93.2311 64.006C92.7106 64.006 92.3781 63.7212 92.3781 62.9808V57.3847C92.3781 56.6442 92.7106 56.3594 93.2311 56.3594C93.7515 56.3594 94.0841 56.6442 94.0841 57.3847V62.9808ZM87.2311 54.9925H84.7877V65.3587H86.4503V61.4571H87.2311C88.8793 61.4571 89.6889 60.5601 89.6889 58.8941V57.5413C89.7034 55.9038 88.8793 54.9925 87.2311 54.9925ZM88.0407 59.008C88.0407 59.7484 87.7516 59.9905 87.2311 59.9905H86.4503V56.4734H87.2311C87.7516 56.4734 88.0407 56.7154 88.0407 57.4559V59.008ZM99.3468 54.8786C97.7275 54.8786 96.889 55.8326 96.889 57.4844V62.8811C96.889 64.5328 97.7275 65.4869 99.3468 65.4869C100.966 65.4869 101.819 64.5471 101.819 62.8811V61.4999H100.258V62.9808C100.258 63.7212 99.9251 63.9918 99.4046 63.9918C98.8841 63.9918 98.5516 63.7212 98.5516 62.9808V57.3847C98.5516 56.6442 98.8841 56.3594 99.4046 56.3594C99.9251 56.3594 100.258 56.6442 100.258 57.3847V58.4953H101.819V57.4844C101.805 55.8326 100.966 54.8786 99.3468 54.8786ZM105.39 54.8786C103.771 54.8786 102.918 55.8326 102.918 57.4844V62.8811C102.918 64.5328 103.756 65.4869 105.39 65.4869C107.024 65.4869 107.848 64.5471 107.848 62.8811V61.4999H106.287V62.9808C106.287 63.7212 105.954 63.9918 105.434 63.9918C104.913 63.9918 104.581 63.7212 104.581 62.9808V57.3847C104.581 56.6442 104.913 56.3594 105.434 56.3594C105.954 56.3594 106.287 56.6442 106.287 57.3847V58.4953H107.848V57.4844C107.863 55.8326 107.024 54.8786 105.39 54.8786ZM111.115 59.2786L110.508 61.5568V54.9925H109.034V65.3587H110.74L112.128 60.6028L112.807 58.0539V65.3587H114.296V54.9925H112.475L111.115 59.2786Z" fill="white"/>
</svg>
