<svg width="347" height="200" viewBox="0 0 347 200" fill="none" xmlns="http://www.w3.org/2000/svg">
    <g clip-path="url(#clip0_174_2)">
        <path d="M307.903 133.491L295.772 121.361L283.711 133.491L295.772 158.749L307.903 133.491Z" fill="#80CFD4"/>
        <mask id="mask0_174_2" style="mask-type:luminance" maskUnits="userSpaceOnUse" x="0" y="0" width="347" height="200">
            <path d="M0 0H346.667V200H0V0Z" fill="#80CFD4"/>
        </mask>
        <g mask="url(#mask0_174_2)">
            <path d="M295.772 51.7C291.104 51.7 287.289 55.5146 287.289 60.1826C287.289 64.8506 291.104 68.6653 295.772 68.6653C300.44 68.6653 304.254 64.8506 304.254 60.1826C304.254 55.5146 300.44 51.7 295.772 51.7Z" fill="#80CFD4"/>
            <path d="M295.773 13.8371C293.214 15.1637 259.615 32.8864 259.615 61.1771C259.615 85.3451 279.353 122.118 279.353 122.118L295.678 105.722L312.003 122.118C312.003 122.118 331.739 85.3451 331.739 61.1771C331.835 32.8864 298.331 15.1637 295.773 13.8371ZM306.577 94.7757L295.773 83.9704L284.969 94.7757C284.423 93.3064 277.197 73.7117 277.197 60.8691C277.197 43.6197 294.446 33.9771 295.773 33.2664C297.099 33.9771 314.349 43.5971 314.349 60.8691C314.419 73.6411 307.122 93.2117 306.577 94.7757Z" fill="#80CFD4"/>
            <path d="M331.93 26.2053L319.562 13.8373L331.93 1.56399L344.274 13.8373L331.93 26.2053Z" fill="#80CFD4"/>
            <path d="M215.403 26.5134C215.403 29.072 214.241 30.636 212.204 30.636C210.189 30.636 209.005 29.0014 209.005 26.5134H198.58C198.888 34.1427 203.319 39.332 212.347 39.332C220.663 39.332 225.473 34.048 225.804 26.5134H215.403Z" fill="#80CFD4"/>
            <path d="M193.32 78.1423V42.1517H205.38V58.8557C205.38 59.709 205.31 60.633 205.144 61.509H205.688L218.815 42.1517H230.402V78.1423H218.342V61.2717C218.342 60.4903 218.412 59.709 218.578 58.9503H217.962L204.835 78.1423H193.32Z" fill="#80CFD4"/>
            <path d="M168.369 41.2983C179.884 41.2983 188.343 49.3783 188.343 60.277C188.343 71.0103 179.789 79.0903 168.369 79.0903C157.02 79.0903 148.467 71.0103 148.467 60.277C148.537 49.3063 157.02 41.2037 168.369 41.2983ZM168.369 67.8823C172.8 67.8823 175.667 64.4717 175.667 60.1823C175.667 55.8223 172.705 52.4103 168.369 52.4103C164.009 52.4103 161.072 55.8223 161.072 60.1823C161.048 64.5423 164.081 67.8823 168.369 67.8823Z" fill="#80CFD4"/>
            <path d="M133.991 42.1512C133.991 42.1512 123.874 55.2778 123.495 55.7512C123.258 55.9885 123.02 56.3672 122.95 56.6752H122.404C122.239 56.3672 122.096 55.9645 121.86 55.7512C121.148 54.8992 110.747 42.1512 110.747 42.1512H101.27V78.1418H112.927V63.0498C112.927 62.1965 112.856 61.2725 112.691 60.3952H113.235L122.642 71.1285H123.116L131.74 60.3952H132.286C132.048 61.2485 131.978 62.1018 132.048 63.0498V78.1418H143.706V42.1512H133.991Z" fill="#80CFD4"/>
            <path d="M2.39453 97.9506V98.1159C2.39453 111.717 9.24253 122.521 22.2972 122.521C34.3572 122.521 41.6559 113.115 41.6559 103.708C41.6559 92.8332 34.6652 85.7479 24.0985 85.7479C18.0319 85.7479 11.6585 89.0892 9.3372 94.2306H9.0292C9.19453 93.6852 9.3372 93.2119 9.40786 92.6666C10.0239 84.9666 13.0572 78.7586 19.0519 76.6492C22.8665 75.3226 26.5865 74.7772 29.3825 74.1612C32.4145 73.4506 35.5185 72.7639 37.3905 72.2186L35.3772 66.1532C32.0359 67.0772 28.9319 67.7879 23.7185 68.8066C21.1599 69.1866 18.6719 69.8972 16.2559 70.8212C6.65986 74.7066 2.39453 82.8106 2.39453 97.9506ZM22.2972 116.456C14.2892 116.456 9.6212 109.063 9.6212 100.676C11.5639 95.7706 17.4639 91.8132 22.4399 91.8132C29.7372 91.8132 34.4052 96.3159 34.4052 104.088C34.4052 111.172 29.1212 116.456 22.2972 116.456Z" fill="#80CFD4"/>
            <path d="M53.7634 111.101H53.4554C53.6928 110.39 53.7634 109.631 53.7634 108.85V85.3686H46.6074V121.361H53.0528L73.5714 95.4619H73.9514C73.7141 96.2446 73.6434 97.0259 73.5714 97.7846V121.266H80.7981V85.2739H74.3541C74.3768 85.2979 53.7634 111.101 53.7634 111.101Z" fill="#80CFD4"/>
            <path d="M108.117 102.855V102.69C112.382 101.221 114.419 98.4245 114.419 94.2072C114.419 88.2125 109.514 84.3272 100.89 84.3272C95.6779 84.2552 90.5592 85.8898 86.3419 88.9938L89.2085 94.1352C92.2419 91.7192 96.0565 90.4152 99.9419 90.3205C104.681 90.3205 107.239 92.2632 107.239 95.4632C107.239 98.3298 104.989 100.367 101.411 100.367H95.7245V105.959H101.79C106.221 105.959 108.473 107.429 108.473 110.461C108.473 113.967 104.894 116.361 99.5392 116.361C95.4872 116.195 91.6019 114.891 88.4272 112.403L85.5605 117.617C88.6645 120.483 94.1139 122.521 100.322 122.521C108.946 122.521 115.557 118.019 115.557 111.338C115.581 106.907 112.855 103.401 108.117 102.855Z" fill="#80CFD4"/>
            <path d="M147.07 100.059H127.783V85.2979H120.557V121.289H127.783V105.651H147.07V121.289H154.202V85.2979H147.07V100.059Z" fill="#80CFD4"/>
            <path d="M176.759 84.3501C166.191 84.3501 159.273 92.6661 159.273 103.637C159.273 114.441 166.192 122.521 178.796 122.521C184.861 122.521 190.075 120.649 193.795 117.617L190.928 112.403C187.516 114.962 183.299 116.361 178.963 116.361C171.12 116.361 167.305 112.095 166.593 105.793H194.103C194.173 105.011 194.268 104.323 194.268 103.542C194.245 92.5954 188.961 84.2794 176.759 84.3501ZM166.736 100.297C167.66 94.7754 171.712 90.4154 177.067 90.4154C183.512 90.4154 186.711 94.7754 187.255 100.297H166.736Z" fill="#80CFD4"/>
            <path d="M218.957 116.219C211.66 116.219 206.281 110.697 206.281 102.927C206.281 96.2452 210.545 90.4158 218.555 90.4158C222.203 90.4158 225.852 91.4345 230.069 94.0652L233.032 88.7812C228.767 85.7478 223.625 84.1132 218.412 84.1838C206.827 84.1838 199.055 92.3585 199.055 103.305C199.055 113.944 206.755 122.427 218.484 122.427C224.241 122.427 229.217 120.792 233.031 117.688L230.164 112.475C226.895 114.987 223.009 116.313 218.957 116.219Z" fill="#80CFD4"/>
            <path d="M227.511 145.315L227.582 144.083H227.511L226.73 145.409L222.607 151.404H221.754V141.287H223.223V147.424L223.151 148.656H223.223L223.934 147.424L228.057 141.357H228.981V151.475H227.511V145.315ZM215.238 146.784H214.385V151.285H212.915V141.168H214.385V145.765L215.167 145.528L218.129 141.263H219.763L216.897 145.315L216.114 146.025L217.134 146.808L220.166 151.404H218.389L215.238 146.784ZM203.818 146.855L201.093 151.357H199.458L202.419 146.76L203.035 146.144L202.111 145.363L199.695 141.24H201.258L203.818 145.599H204.837V141.24H206.234V145.836L207.087 145.599L209.646 141.335H211.21L208.722 145.385L208.011 146.001L208.935 146.784L211.659 151.285H209.954L207.229 146.784H206.21V151.285H204.813V146.547L203.818 146.855ZM194.625 142.353C194.079 142.353 193.534 142.519 193.155 142.897C192.777 143.372 192.445 143.917 192.373 144.533V149.58C192.61 149.745 192.847 149.888 193.155 150.053C193.534 150.124 193.866 150.22 194.245 150.22C195.027 150.22 195.809 149.84 196.259 149.2C196.803 148.276 197.041 147.187 197.041 146.168C197.041 145.623 196.97 145.149 196.875 144.699C196.803 144.32 196.638 143.917 196.495 143.537C196.33 143.229 196.022 142.992 195.714 142.756C195.406 142.424 195.027 142.353 194.625 142.353ZM190.905 141.192H191.923L192.159 142.424H192.231C192.467 141.951 192.847 141.571 193.321 141.335C193.795 141.097 194.339 140.955 194.885 140.955C195.975 140.884 196.994 141.335 197.61 142.187C198.226 142.969 198.463 144.296 198.463 146.073C198.463 146.855 198.391 147.637 198.154 148.395C197.989 149.011 197.681 149.556 197.302 150.101C196.994 150.575 196.519 150.953 195.975 151.191C195.43 151.428 194.814 151.569 194.269 151.569C193.89 151.569 193.558 151.569 193.179 151.499C192.871 151.428 192.634 151.333 192.326 151.191V155.384H190.857L190.905 141.192ZM185.075 142.353C184.459 142.353 183.843 142.519 183.37 142.969C182.825 143.585 182.587 144.296 182.587 145.077H187.185C187.255 144.296 187.113 143.609 186.639 142.969C186.166 142.589 185.621 142.353 185.075 142.353ZM188.25 150.504C187.871 150.812 187.398 151.12 186.853 151.285C186.307 151.452 185.691 151.523 185.075 151.523C184.459 151.523 183.843 151.452 183.298 151.144C182.825 150.907 182.374 150.528 181.971 150.053C181.663 149.508 181.355 148.964 181.261 148.348C181.095 147.637 181.023 146.879 181.023 146.168C180.953 144.769 181.331 143.372 182.114 142.211C182.825 141.287 183.986 140.813 185.146 140.884C185.526 140.884 185.999 140.955 186.378 141.049C187.303 141.287 188.014 141.973 188.322 142.827C188.559 143.443 188.63 144.153 188.63 144.841C188.63 145.315 188.559 145.765 188.559 146.309H182.659C182.659 146.855 182.73 147.328 182.825 147.873C182.895 148.253 183.062 148.727 183.37 149.035C183.606 149.343 183.914 149.58 184.294 149.745C184.767 149.911 185.218 150.053 185.691 149.983C186.071 149.983 186.545 149.911 186.923 149.745C187.231 149.58 187.539 149.437 187.847 149.129L188.25 150.504ZM176.83 149.888V142.589H174.105C174.034 143.135 174.034 143.821 173.939 144.461C173.869 145.172 173.774 145.788 173.702 146.476C173.631 147.092 173.466 147.803 173.323 148.419C173.158 149.035 172.945 149.508 172.778 149.983L176.83 149.888ZM179.721 153.844H178.702L178.465 151.285H171.546L171.309 153.844H170.29V149.888H171.381C171.546 149.651 171.689 149.343 171.759 149.105C171.997 148.561 172.139 148.016 172.234 147.471C172.399 146.617 172.542 145.765 172.613 144.912C172.778 143.893 172.778 142.661 172.85 141.263H178.37V149.959H179.697L179.721 153.844ZM166.334 149.888V142.589H163.538C163.467 143.135 163.467 143.821 163.371 144.461C163.301 145.172 163.206 145.788 163.135 146.476C163.063 147.092 162.898 147.803 162.755 148.419C162.59 149.035 162.377 149.508 162.211 149.983L166.334 149.888ZM169.13 153.844H168.111L167.874 151.285H160.955L160.718 153.844H159.699V149.888H160.79C160.955 149.651 161.097 149.343 161.169 149.105C161.406 148.561 161.547 148.016 161.642 147.471C161.809 146.617 161.95 145.765 162.022 144.912C162.187 143.893 162.187 142.661 162.258 141.263H167.779V149.959H169.106L169.13 153.844ZM152.189 146.239C152.189 146.713 152.259 147.257 152.354 147.708C152.426 148.181 152.591 148.561 152.829 148.94C152.994 149.248 153.302 149.556 153.61 149.793C153.918 150.029 154.391 150.101 154.771 150.101C156.477 150.101 157.33 148.775 157.33 146.215C157.33 145.671 157.259 145.196 157.165 144.747C157.093 144.272 156.927 143.893 156.69 143.515C156.525 143.207 156.217 142.899 155.909 142.661C155.601 142.424 155.126 142.353 154.747 142.353C153.042 142.353 152.189 143.585 152.189 146.239ZM150.719 146.239C150.649 144.841 150.957 143.515 151.738 142.353C152.449 141.429 153.61 140.955 154.771 140.955C155.387 140.955 156.003 141.027 156.549 141.335C157.022 141.571 157.473 141.951 157.781 142.424C158.089 142.969 158.397 143.515 158.562 144.131C158.727 144.841 158.799 145.599 158.799 146.309C158.87 147.708 158.562 149.035 157.781 150.196C157.07 151.12 155.909 151.593 154.747 151.593C154.131 151.593 153.515 151.523 152.97 151.215C152.497 150.977 152.046 150.599 151.738 150.124C151.43 149.58 151.122 149.035 150.957 148.419C150.79 147.708 150.719 147.021 150.719 146.239ZM146.905 142.589H142.782V151.285H141.313V141.168H148.302V151.285H146.834L146.905 142.589ZM130.106 142.353C129.561 142.353 129.015 142.519 128.637 142.897C128.258 143.372 127.926 143.917 127.855 144.533V149.58C128.091 149.745 128.329 149.888 128.637 150.053C129.015 150.124 129.347 150.22 129.726 150.22C130.509 150.22 131.29 149.84 131.741 149.2C132.286 148.276 132.522 147.187 132.522 146.168C132.522 145.623 132.451 145.149 132.357 144.699C132.286 144.32 132.119 143.917 131.978 143.537C131.811 143.229 131.503 142.992 131.195 142.756C130.887 142.424 130.509 142.353 130.106 142.353ZM126.457 141.192H127.475L127.713 142.424H127.783C128.021 141.951 128.399 141.571 128.874 141.335C129.347 141.097 129.893 140.955 130.438 140.955C131.527 140.884 132.546 141.335 133.162 142.187C133.778 142.969 134.015 144.296 134.015 146.073C134.015 146.855 133.945 147.637 133.707 148.395C133.542 149.011 133.234 149.556 132.854 150.101C132.546 150.575 132.073 150.953 131.527 151.191C130.982 151.428 130.366 151.569 129.822 151.569C129.442 151.569 129.11 151.569 128.731 151.499C128.423 151.428 128.186 151.333 127.878 151.191V155.384H126.314V141.168H126.457V141.192ZM124.987 142.589H122.026V151.285H120.557V142.589H117.69V141.192H124.987V142.589ZM114.799 146.855H110.606V151.357H109.137V141.24H110.606V145.433H114.799V141.24H116.269V151.357H114.799V146.855ZM103.285 142.353C102.669 142.353 102.053 142.519 101.578 142.969C101.034 143.585 100.797 144.296 100.797 145.077H105.393C105.465 144.296 105.322 143.609 104.849 142.969C104.374 142.589 103.829 142.353 103.285 142.353ZM106.483 150.504C106.103 150.812 105.63 151.12 105.085 151.285C104.541 151.452 103.925 151.523 103.307 151.523C102.691 151.523 102.075 151.452 101.531 151.144C101.057 150.907 100.607 150.528 100.205 150.053C99.8966 149.508 99.5872 148.964 99.4219 148.348C99.2566 147.637 99.1846 146.879 99.1846 146.168C99.1139 144.769 99.4926 143.372 100.275 142.211C100.986 141.287 102.147 140.813 103.307 140.884C103.687 140.884 104.161 140.955 104.541 141.049C104.919 141.121 105.322 141.357 105.63 141.665C106.009 141.973 106.246 142.448 106.411 142.897C106.649 143.515 106.719 144.225 106.719 144.912C106.719 145.385 106.649 145.836 106.649 146.381H100.749C100.749 146.925 100.821 147.4 100.915 147.945C100.986 148.324 101.151 148.797 101.459 149.105C101.697 149.413 102.005 149.651 102.383 149.816C102.858 149.983 103.307 150.124 103.782 150.053C104.161 150.053 104.635 149.983 105.014 149.816C105.322 149.651 105.725 149.508 105.938 149.2L106.483 150.504ZM98.2379 153.94H97.1472L96.9099 151.285H87.6699V137.14H89.1393V149.816H94.9673V137.14H96.4366V149.816H98.1432L98.2379 153.94Z" fill="#80CFD4"/>
            <path d="M224.81 171.188C225.118 171.188 225.521 171.118 225.829 171.023C226.066 170.951 226.374 170.786 226.54 170.643C226.777 170.478 226.92 170.335 227.014 170.098C227.18 169.932 227.25 169.791 227.322 169.554V167.847C227.156 167.847 226.942 167.776 226.777 167.776H226.232C225.853 167.776 225.45 167.776 225.07 167.847C224.764 167.847 224.36 168.014 224.052 168.084C223.816 168.25 223.508 168.392 223.341 168.63C223.176 168.866 223.033 169.175 223.105 169.483C223.105 169.956 223.27 170.335 223.578 170.643C223.862 171.046 224.337 171.188 224.81 171.188ZM222.085 163.18C222.63 162.872 223.176 162.635 223.792 162.47C224.502 162.303 225.118 162.232 225.805 162.232C226.35 162.232 226.896 162.303 227.441 162.47C227.82 162.635 228.152 162.848 228.365 163.251C228.601 163.559 228.744 163.867 228.838 164.27C228.909 164.648 228.909 165.052 228.909 165.36C228.909 166.142 228.909 166.995 228.838 167.682C228.768 168.463 228.768 169.151 228.768 169.862C228.768 170.335 228.768 170.88 228.838 171.259C228.838 171.639 228.909 172.112 229.076 172.491H227.985L227.606 171.094H227.536C227.369 171.259 227.228 171.472 227.061 171.639C226.896 171.804 226.682 172.018 226.445 172.112C226.209 172.279 225.901 172.42 225.592 172.492C225.213 172.563 224.881 172.658 224.502 172.658C224.124 172.658 223.721 172.587 223.341 172.42C222.962 172.255 222.63 172.112 222.417 171.804C222.18 171.567 221.944 171.259 221.801 170.951C221.636 170.572 221.564 170.17 221.564 169.719C221.564 169.175 221.636 168.7 221.944 168.251C222.18 167.871 222.488 167.539 222.962 167.327C223.436 167.09 223.981 166.947 224.432 166.852C225.048 166.782 225.664 166.687 226.374 166.687H226.92C227.085 166.687 227.298 166.687 227.464 166.758C227.536 166.379 227.536 165.976 227.536 165.668C227.606 165.123 227.464 164.578 227.061 164.104C226.588 163.724 226.042 163.559 225.497 163.63C225.261 163.63 225.024 163.63 224.786 163.702L224.005 163.867C223.768 163.938 223.46 164.032 223.222 164.104C222.986 164.175 222.844 164.27 222.606 164.412L222.085 163.18ZM216.092 166.687C216.328 166.687 216.565 166.615 216.802 166.52C217.038 166.45 217.181 166.284 217.346 166.142C217.513 165.975 217.654 165.834 217.726 165.667C217.797 165.502 217.892 165.288 217.892 165.051C217.962 164.672 217.821 164.199 217.418 163.962C216.944 163.724 216.398 163.583 215.784 163.654H214.764C214.528 163.654 214.29 163.724 214.053 163.724V166.687H216.092ZM214.148 171.118C214.385 171.188 214.622 171.188 214.858 171.188H215.712C216.422 171.259 217.038 171.118 217.654 170.81C218.366 170.264 218.508 169.175 217.892 168.487C217.821 168.416 217.821 168.322 217.726 168.322C217.181 167.943 216.494 167.776 215.854 167.847H214.148V171.118ZM212.68 162.398C213.153 162.327 213.604 162.327 214.077 162.327C214.55 162.256 215.166 162.256 215.854 162.256C216.778 162.184 217.726 162.422 218.578 162.872C219.124 163.346 219.432 164.032 219.432 164.744C219.432 165.218 219.266 165.667 219.053 166.142C218.745 166.615 218.27 166.995 217.726 167.16V167.231C218.342 167.303 218.886 167.611 219.361 168.084C219.669 168.558 219.834 169.103 219.834 169.719C219.905 170.572 219.526 171.496 218.745 171.97C218.034 172.444 216.968 172.682 215.474 172.682C214.93 172.682 214.456 172.682 214.006 172.61C213.532 172.539 213.082 172.539 212.608 172.539L212.68 162.398ZM211.116 163.796H208.082V172.491H206.518V163.796H203.486V162.398H211.021L211.116 163.796ZM203.178 171.899C202.798 172.207 202.325 172.444 201.78 172.61C201.234 172.776 200.69 172.847 200.145 172.847C199.529 172.847 198.913 172.776 198.273 172.468C197.8 172.231 197.349 171.851 197.041 171.378C196.662 170.832 196.425 170.288 196.33 169.672C196.165 168.962 196.093 168.203 196.093 167.492C196.093 165.786 196.473 164.459 197.184 163.607C197.965 162.682 199.126 162.138 200.288 162.208C200.832 162.208 201.306 162.208 201.852 162.374C202.23 162.446 202.633 162.611 203.012 162.848L202.538 164.246C202.23 164.08 201.922 163.938 201.52 163.867C201.14 163.796 200.737 163.702 200.358 163.702C198.581 163.702 197.633 165.028 197.633 167.587C197.633 168.06 197.705 168.606 197.8 169.056C197.87 169.53 198.037 169.908 198.273 170.288C198.51 170.596 198.818 170.904 199.126 171.14C199.505 171.378 199.98 171.448 200.453 171.448C200.833 171.448 201.306 171.378 201.685 171.212C201.993 171.046 202.301 170.904 202.538 170.738L203.178 171.899ZM189.506 166.284C189.814 166.212 190.122 166.212 190.36 166.212C190.597 166.212 190.905 166.142 191.141 166.142C191.686 166.142 192.302 166.212 192.848 166.379C193.226 166.45 193.629 166.687 193.937 166.995C194.245 167.303 194.412 167.611 194.553 168.014C194.72 168.392 194.72 168.795 194.72 169.246C194.72 170.478 194.34 171.354 193.629 171.899C192.705 172.515 191.521 172.823 190.36 172.752C189.506 172.752 188.653 172.682 187.801 172.587V162.47H189.365L189.506 166.284ZM189.506 171.118C189.981 171.188 190.43 171.283 190.905 171.283C191.521 171.354 192.137 171.118 192.681 170.81C193.464 170.027 193.464 168.866 192.681 168.084C192.208 167.706 191.592 167.468 190.976 167.539H190.265C190.028 167.539 189.79 167.611 189.554 167.706V171.118H189.506ZM183.441 163.796H180.645C180.574 164.412 180.574 164.956 180.48 165.572C180.384 166.19 180.408 166.9 180.313 167.516C180.242 168.227 180.148 168.843 180.005 169.387C179.84 169.932 179.697 170.478 179.532 171.023C179.365 171.402 179.152 171.804 178.821 172.112C178.584 172.35 178.205 172.491 177.801 172.491C177.565 172.491 177.422 172.491 177.185 172.42C177.02 172.42 176.878 172.35 176.712 172.255L176.949 170.928C177.114 170.999 177.257 170.999 177.422 170.999C177.73 170.999 177.968 170.832 178.133 170.62C178.441 170.24 178.608 169.767 178.678 169.292C178.844 168.676 178.916 167.824 179.057 166.639C179.224 165.478 179.224 163.986 179.294 162.208H185.052V172.326H183.488L183.441 163.796ZM172.708 163.583C172.092 163.583 171.381 163.748 170.93 164.199C170.385 164.815 170.149 165.526 170.149 166.307H174.888C174.888 165.288 174.721 164.602 174.272 164.199C173.797 163.724 173.252 163.488 172.708 163.583ZM175.977 171.662C175.504 171.97 175.053 172.279 174.508 172.444C173.892 172.61 173.276 172.682 172.637 172.682C171.997 172.682 171.309 172.61 170.693 172.302C169.604 171.756 168.821 170.738 168.585 169.578C168.418 168.866 168.348 168.108 168.348 167.398C168.348 165.691 168.726 164.364 169.438 163.44C170.22 162.516 171.381 162.043 172.541 162.114C173.016 162.114 173.394 162.184 173.869 162.279C174.342 162.351 174.721 162.587 175.029 162.895C175.409 163.203 175.74 163.607 175.882 164.127C176.12 164.744 176.19 165.455 176.19 166.142C176.19 166.615 176.12 167.16 176.025 167.611H169.888C169.888 168.155 169.958 168.63 170.054 169.175C170.22 169.554 170.362 169.956 170.598 170.335C170.836 170.643 171.144 170.88 171.522 171.046C171.997 171.212 172.446 171.283 172.921 171.283C173.394 171.283 173.773 171.212 174.248 171.046C174.626 170.88 174.958 170.738 175.266 170.502L175.977 171.662ZM167.826 163.796H164.794V172.491H163.23V163.796H160.197V162.398H167.732L167.826 163.796ZM154.748 171.259C155.056 171.259 155.364 171.188 155.766 171.094C156.004 171.023 156.24 170.856 156.477 170.715C156.714 170.548 156.856 170.407 156.95 170.17C157.117 170.003 157.188 169.862 157.258 169.624V167.919C157.093 167.919 156.88 167.847 156.714 167.847H156.169C155.79 167.847 155.388 167.847 155.008 167.919C154.7 167.919 154.297 168.084 153.989 168.155C153.753 168.322 153.445 168.463 153.278 168.7C153.113 168.938 152.97 169.246 153.041 169.554C153.041 170.407 153.753 171.188 154.605 171.188C154.677 171.259 154.677 171.259 154.748 171.259ZM151.952 163.18C152.497 162.872 153.041 162.635 153.657 162.47C154.369 162.303 154.985 162.232 155.672 162.232C156.217 162.232 156.761 162.303 157.306 162.47C157.685 162.635 158.017 162.848 158.23 163.251C158.468 163.559 158.609 163.867 158.705 164.27C158.776 164.648 158.776 165.052 158.776 165.36C158.776 166.142 158.776 166.995 158.705 167.682C158.633 168.463 158.633 169.151 158.633 169.862C158.633 170.335 158.633 170.88 158.705 171.259C158.705 171.639 158.776 172.112 158.941 172.491H157.781L157.401 171.094H157.33C157.164 171.259 157.022 171.472 156.856 171.639C156.69 171.804 156.477 171.947 156.24 172.112C156.004 172.279 155.696 172.42 155.388 172.492C155.008 172.563 154.677 172.658 154.297 172.658C153.918 172.658 153.516 172.587 153.136 172.42C152.757 172.255 152.425 172.112 152.212 171.804C151.976 171.567 151.738 171.259 151.596 170.951C151.43 170.572 151.36 170.17 151.36 169.719C151.36 169.175 151.43 168.7 151.738 168.251C151.976 167.871 152.284 167.539 152.757 167.327C153.232 167.09 153.776 166.947 154.226 166.852C154.842 166.782 155.458 166.687 156.169 166.687H156.714C156.88 166.687 157.093 166.687 157.26 166.758C157.33 166.379 157.33 165.976 157.33 165.668C157.401 165.123 157.26 164.578 156.856 164.104C156.382 163.724 155.837 163.559 155.293 163.63C155.056 163.63 154.818 163.63 154.581 163.702L153.8 163.867C153.562 163.938 153.254 164.032 153.018 164.104C152.781 164.175 152.638 164.27 152.402 164.412L151.952 163.18ZM147.686 166.52L147.853 164.578H147.781L147.07 166.142L144.749 170.099H144.204L141.788 166.142L141.172 164.578H141.1L141.266 166.52V172.587H139.797V162.47H141.266L143.92 166.971L144.536 168.132H144.606L145.222 166.9L147.782 162.398H149.345V172.515H147.877L147.686 166.52ZM135.248 166.52L135.318 165.288H135.248L134.465 166.52L130.201 172.515H129.348V162.492H130.912V168.63L130.841 169.862H130.912L131.693 168.63L136.053 162.564H136.906V172.682H135.342L135.248 166.52ZM124.822 168.014H120.462V172.515H118.898V162.398H120.462V166.592H124.822V162.398H126.386V172.515H124.822V168.014ZM114.421 166.52L114.492 165.288H114.421L113.638 166.52L109.278 172.515H108.426V162.492H109.99V168.63L109.918 169.862H109.99L110.772 168.63L115.037 162.564H115.961V172.682H114.397V166.52H114.421ZM101.981 163.654C101.436 163.654 100.892 163.819 100.417 164.199C100.038 164.672 99.7063 165.218 99.6356 165.834V170.81C99.8729 171.046 100.181 171.118 100.417 171.283C100.797 171.354 101.2 171.448 101.578 171.448C102.432 171.448 103.213 171.07 103.688 170.43C104.232 169.506 104.54 168.416 104.469 167.398C104.469 166.852 104.398 166.379 104.304 165.928C104.232 165.55 104.066 165.147 103.829 164.767C103.664 164.459 103.356 164.222 103.048 163.986C102.74 163.654 102.36 163.583 101.981 163.654ZM98.0956 162.398H99.1849L99.4223 163.63H99.4929C99.7303 163.156 100.204 162.776 100.654 162.54C101.128 162.303 101.673 162.16 102.289 162.16C103.378 162.09 104.469 162.54 105.156 163.394C105.772 164.175 106.08 165.502 106.08 167.279C106.08 168.06 106.009 168.748 105.772 169.53C105.606 170.146 105.298 170.762 104.92 171.236C104.54 171.71 104.066 172.088 103.521 172.326C102.976 172.563 102.36 172.704 101.744 172.704C101.365 172.704 100.962 172.704 100.654 172.634C100.346 172.563 100.038 172.468 99.8009 172.326V176.519H98.2369L98.0956 162.398ZM93.5703 163.796H89.3756V172.491H87.8116V162.374H95.1103V172.491H93.5463V163.796H93.5703ZM83.0023 171.118V163.819H80.1356C80.0636 164.436 80.0636 165.052 79.9689 165.691C79.8983 166.402 79.8036 167.018 79.7329 167.706C79.6609 168.416 79.4956 169.032 79.3529 169.648C79.1876 170.194 78.9743 170.738 78.7369 171.212C78.7369 171.118 83.0023 171.118 83.0023 171.118ZM85.8689 175.074H84.8503L84.6129 172.515H77.3863L77.1503 175.074H76.1316V171.118H77.2209C77.3876 170.88 77.5289 170.572 77.5996 170.335C77.8369 169.791 77.9796 169.246 78.0743 168.7C78.3116 167.847 78.3823 166.995 78.4529 166.142C78.6196 165.123 78.6196 163.891 78.6903 162.492H84.4476V171.188H85.8463L85.8689 175.074ZM71.8183 163.583C71.2023 163.583 70.4916 163.748 70.0423 164.199C69.4969 164.815 69.2596 165.526 69.2596 166.307H73.9983C73.9983 165.288 73.8329 164.602 73.4543 164.199C72.9796 163.724 72.4343 163.488 71.8183 163.583ZM75.1596 171.662C74.6863 171.97 74.2356 172.279 73.6903 172.444C73.0743 172.61 72.4583 172.682 71.8183 172.682C71.2023 172.682 70.4916 172.61 69.8756 172.302C69.3303 172.066 68.9516 171.686 68.5489 171.212C68.1703 170.738 67.9329 170.122 67.7676 169.506C67.6009 168.795 67.4596 168.038 67.5303 167.326C67.5303 165.62 67.9089 164.294 68.6196 163.37C69.4023 162.446 70.5636 161.971 71.7236 162.043C72.1983 162.043 72.5769 162.114 73.0503 162.208C73.5249 162.279 73.9036 162.516 74.2116 162.824C74.5903 163.132 74.9223 163.535 75.0649 164.056C75.3023 164.672 75.3729 165.383 75.3729 166.071C75.3729 166.544 75.3023 167.09 75.2063 167.539H69.0703C69.0703 168.084 69.1409 168.558 69.2356 169.103C69.3076 169.483 69.5436 169.886 69.7809 170.264C70.0183 170.572 70.3263 170.81 70.7049 170.975C71.1783 171.14 71.6289 171.283 72.1023 171.212C72.5769 171.212 72.9556 171.14 73.4303 170.975C73.8089 170.81 74.1409 170.667 74.4489 170.43L75.1596 171.662ZM61.6303 163.583C61.0849 163.583 60.4689 163.748 60.0663 164.127C59.6876 164.602 59.3556 165.147 59.2849 165.763V170.738C59.5209 170.975 59.8289 171.046 60.0663 171.212C60.4449 171.283 60.8489 171.378 61.2276 171.378C62.0809 171.378 62.8623 170.999 63.3356 170.359C63.8809 169.435 64.1889 168.346 64.1183 167.326C64.1183 166.782 64.0476 166.307 63.9516 165.858C63.8809 165.478 63.7156 165.075 63.4783 164.696C63.3129 164.388 63.0049 164.151 62.6969 163.915C62.4116 163.654 62.0089 163.583 61.6303 163.583ZM57.7449 162.398H58.8343L59.0716 163.63H59.1423C59.3796 163.156 59.8529 162.776 60.3036 162.54C60.7769 162.303 61.3223 162.16 61.9383 162.16C63.0276 162.09 64.1183 162.54 64.8049 163.394C65.4209 164.175 65.7289 165.502 65.7289 167.279C65.7289 168.06 65.6583 168.843 65.4209 169.6C65.2556 170.216 64.9476 170.832 64.5689 171.307C64.1889 171.78 63.7156 172.16 63.1703 172.396C62.6249 172.634 62.0089 172.776 61.3929 172.776C61.0143 172.776 60.6116 172.776 60.3036 172.704C59.9956 172.634 59.6876 172.539 59.4503 172.396V176.591H57.8863L57.7449 162.398ZM53.2196 163.796H49.0249V172.491H47.4609V162.374H54.7583V172.491H53.1956V163.796H53.2196Z" fill="#80CFD4"/>
            <path d="M228.6 188.366L228.671 187.134H228.6L227.747 188.461L223.245 194.361H222.321V184.244H223.956V190.38L223.885 191.612H223.956L224.737 190.38L229.24 184.314H230.164V194.432H228.529L228.6 188.366ZM220.757 185.641H217.559V194.337H215.924V185.641H212.82V184.244H220.757V185.641ZM212.44 193.65C212.061 193.958 211.516 194.194 211.043 194.361C210.497 194.526 209.881 194.598 209.337 194.598C208.627 194.598 207.939 194.526 207.323 194.218C206.777 193.982 206.304 193.602 205.996 193.129C205.617 192.654 205.38 192.038 205.213 191.422C205.048 190.712 204.977 189.954 204.977 189.244C204.977 187.537 205.356 186.21 206.067 185.357C206.849 184.433 208.081 183.888 209.337 183.96C209.881 183.96 210.427 183.96 210.972 184.125C211.445 184.196 211.825 184.362 212.204 184.598L211.729 185.997C211.421 185.83 211.019 185.689 210.711 185.618C210.332 185.546 209.929 185.452 209.479 185.452C207.536 185.452 206.612 186.778 206.612 189.338C206.612 189.812 206.683 190.357 206.777 190.806C206.849 191.281 207.015 191.66 207.252 192.038C207.488 192.418 207.796 192.654 208.176 192.892C208.649 193.129 209.1 193.2 209.573 193.2C210.048 193.2 210.427 193.129 210.9 192.962C211.208 192.892 211.516 192.654 211.825 192.489L212.44 193.65ZM198.201 193.105C198.509 193.105 198.912 193.034 199.22 192.94C199.527 192.868 199.764 192.702 200.001 192.56C200.239 192.394 200.38 192.252 200.547 192.016C200.712 191.849 200.783 191.708 200.855 191.47V189.764C200.688 189.764 200.475 189.693 200.239 189.693H199.693C199.313 189.693 198.84 189.693 198.461 189.764C198.081 189.764 197.751 189.93 197.371 190.001C197.063 190.072 196.827 190.309 196.66 190.546C196.495 190.784 196.352 191.092 196.423 191.4C196.423 191.873 196.589 192.252 196.897 192.56C197.205 192.962 197.656 193.105 198.201 193.105ZM195.333 185.025C195.879 184.717 196.495 184.481 197.111 184.314C197.821 184.149 198.509 184.078 199.22 184.078C199.764 184.078 200.38 184.149 200.925 184.314C201.305 184.481 201.636 184.694 201.944 185.097C202.181 185.405 202.324 185.713 202.419 186.116C202.489 186.494 202.584 186.826 202.584 187.205C202.584 187.988 202.584 188.84 202.513 189.528C202.443 190.309 202.443 190.997 202.443 191.708C202.443 192.181 202.443 192.632 202.513 193.105C202.584 193.485 202.679 193.958 202.751 194.337H201.517L201.044 192.94H200.973C200.807 193.105 200.736 193.318 200.499 193.485C200.333 193.721 200.12 193.864 199.788 193.958C199.48 194.124 199.243 194.196 198.935 194.337C198.556 194.408 198.153 194.504 197.775 194.504C197.395 194.504 196.921 194.432 196.543 194.266C196.163 194.1 195.831 193.958 195.523 193.721C195.287 193.485 195.049 193.176 194.907 192.868C194.741 192.489 194.671 192.086 194.671 191.636C194.671 191.092 194.741 190.617 195.049 190.168C195.287 189.788 195.665 189.457 196.068 189.244C196.543 189.006 197.087 188.864 197.632 188.769C198.343 188.698 198.959 188.604 199.647 188.604H200.263C200.428 188.604 200.641 188.604 200.807 188.674C200.879 188.296 200.879 187.893 200.879 187.585C200.949 187.04 200.807 186.494 200.404 186.021C199.931 185.641 199.385 185.476 198.769 185.546C198.532 185.546 198.296 185.546 197.988 185.618L197.205 185.784C196.968 185.854 196.661 185.949 196.424 186.021C196.187 186.092 195.949 186.186 195.713 186.329L195.333 185.025ZM190.832 185.641H187.871C187.799 186.257 187.799 186.802 187.704 187.418C187.609 188.034 187.633 188.745 187.539 189.361C187.467 190.072 187.372 190.689 187.231 191.233C187.064 191.778 186.923 192.324 186.685 192.868C186.52 193.248 186.212 193.65 185.904 193.958C185.596 194.194 185.193 194.337 184.813 194.337C184.577 194.337 184.34 194.337 184.103 194.266C183.937 194.194 183.724 194.194 183.629 194.1L183.865 192.773C184.032 192.845 184.245 192.845 184.411 192.845C184.719 192.845 184.956 192.678 185.121 192.465C185.429 192.086 185.596 191.612 185.737 191.138C185.975 190.285 186.045 189.361 186.117 188.485C186.188 187.394 186.283 185.83 186.353 184.054H192.42V194.172H190.784L190.832 185.641ZM175.739 189.314C175.739 189.788 175.809 190.333 175.905 190.784C175.976 191.257 176.141 191.636 176.379 192.016C176.616 192.324 176.852 192.632 177.232 192.868C177.611 193.105 178.013 193.176 178.464 193.176C179.317 193.248 180.099 192.868 180.572 192.157C181.117 191.233 181.355 190.214 181.283 189.196C181.283 188.721 181.212 188.272 181.117 187.798C181.047 187.418 180.88 187.016 180.644 186.708C180.477 186.4 180.169 186.162 179.861 185.997C179.553 185.83 179.151 185.689 178.772 185.76C177.919 185.689 177.065 186.068 176.449 186.684C175.976 187.372 175.739 188.366 175.739 189.314ZM175.596 186.044C175.976 185.5 176.449 185.025 177.065 184.717C177.681 184.409 178.392 184.338 179.08 184.338C180.169 184.268 181.26 184.717 181.947 185.57C182.728 186.661 183.036 187.893 182.965 189.22C182.965 190.997 182.587 192.418 181.804 193.342C181.023 194.266 179.791 194.81 178.535 194.74C177.208 194.81 175.976 194.194 175.193 193.176C174.412 192.157 174.104 190.522 174.104 188.366C174.104 187.348 174.175 186.352 174.269 185.405C174.341 184.693 174.507 184.006 174.744 183.296C174.909 182.822 175.217 182.372 175.525 181.969C175.833 181.661 176.141 181.353 176.616 181.186C176.995 180.95 177.468 180.878 177.943 180.808C178.416 180.737 178.961 180.642 179.412 180.57C180.123 180.5 180.644 180.405 181.047 180.334C181.425 180.262 181.757 180.097 182.065 179.86L182.231 181.329C182.065 181.494 181.923 181.566 181.757 181.637C181.591 181.708 181.377 181.802 181.141 181.874C180.904 181.945 180.667 181.945 180.359 182.04C179.98 182.112 179.577 182.112 179.269 182.112C178.724 182.182 178.251 182.182 177.8 182.348C177.421 182.418 177.019 182.656 176.711 182.893C176.403 183.272 176.095 183.674 175.928 184.125C175.692 184.836 175.62 185.522 175.549 186.233L175.596 186.044ZM164.935 189.314C164.935 189.788 165.005 190.333 165.1 190.784C165.171 191.257 165.337 191.636 165.575 192.016C165.811 192.324 166.048 192.632 166.427 192.868C166.807 193.105 167.28 193.176 167.753 193.176C169.531 193.176 170.479 191.849 170.479 189.29C170.479 188.745 170.408 188.272 170.313 187.821C170.241 187.348 170.076 186.968 169.839 186.589C169.603 186.281 169.365 185.973 168.987 185.736C168.607 185.5 168.133 185.428 167.659 185.428C165.883 185.428 164.935 186.661 164.935 189.314ZM163.228 189.314C163.228 187.608 163.608 186.281 164.389 185.428C165.243 184.504 166.404 183.96 167.659 184.03C168.369 184.03 168.987 184.101 169.603 184.409C170.147 184.646 170.621 185.025 171 185.5C171.379 185.973 171.616 186.589 171.781 187.205C171.948 187.916 172.019 188.674 172.019 189.385C172.019 191.092 171.64 192.418 170.857 193.27C170.005 194.194 168.844 194.74 167.588 194.669C166.877 194.669 166.261 194.598 165.645 194.29C165.1 194.053 164.627 193.673 164.248 193.2C163.868 192.654 163.631 192.11 163.465 191.494C163.3 190.784 163.228 190.001 163.228 189.314ZM149.699 180.121C149.771 180.666 150.007 181.045 150.409 181.448C150.719 181.685 151.192 181.826 151.571 181.826C151.951 181.826 152.424 181.661 152.732 181.448C153.111 181.14 153.348 180.666 153.443 180.216L154.675 180.594C154.604 181.305 154.201 181.922 153.656 182.372C153.04 182.75 152.329 182.988 151.643 182.988C151.263 182.988 150.932 182.988 150.552 182.917C150.173 182.845 149.841 182.68 149.533 182.442C149.225 182.277 148.988 181.969 148.823 181.732C148.585 181.424 148.444 181.021 148.444 180.642L149.699 180.121ZM153.656 188.366L153.727 187.134H153.656L152.803 188.461L148.301 194.456H147.377V184.338H149.012V190.476L148.941 191.708H149.012L149.793 190.476L154.296 184.409H155.22V194.526H153.585L153.656 188.366ZM137.733 189.314C137.733 189.788 137.805 190.333 137.9 190.784C137.971 191.257 138.136 191.636 138.373 192.016C138.611 192.324 138.848 192.632 139.227 192.868C139.605 193.105 140.08 193.176 140.553 193.176C142.331 193.176 143.279 191.849 143.279 189.29C143.279 188.745 143.207 188.272 143.112 187.821C143.041 187.348 142.876 186.968 142.639 186.589C142.401 186.281 142.165 185.973 141.785 185.736C141.407 185.5 140.932 185.428 140.459 185.428C138.587 185.428 137.733 186.661 137.733 189.314ZM136.028 189.314C136.028 187.608 136.407 186.281 137.189 185.428C138.041 184.504 139.203 183.96 140.459 184.03C141.169 184.03 141.785 184.101 142.401 184.409C142.947 184.646 143.42 185.025 143.8 185.5C144.179 185.973 144.416 186.589 144.581 187.205C144.747 187.916 144.889 188.674 144.819 189.385C144.819 191.092 144.439 192.418 143.657 193.27C142.804 194.194 141.643 194.74 140.388 194.669C139.676 194.669 139.06 194.598 138.444 194.29C137.9 194.053 137.425 193.673 137.047 193.2C136.668 192.726 136.431 192.11 136.265 191.494C136.099 190.784 136.028 190.001 136.028 189.314ZM129.655 189.764H128.731V194.266H127.095V184.149H128.731V188.745L129.583 188.509L132.853 184.244H134.629L131.431 188.296L130.579 189.006L131.668 189.788L135.009 194.385H132.995L129.655 189.764ZM124.892 193.65C124.512 193.958 123.968 194.194 123.493 194.361C122.949 194.526 122.333 194.598 121.788 194.598C121.077 194.598 120.389 194.526 119.773 194.218C119.229 193.982 118.755 193.602 118.447 193.129C118.068 192.654 117.831 192.038 117.665 191.422C117.499 190.712 117.428 189.954 117.428 189.244C117.428 187.537 117.807 186.21 118.519 185.357C119.3 184.433 120.532 183.888 121.788 183.96C122.332 183.96 122.877 183.96 123.423 184.125C123.896 184.196 124.276 184.362 124.655 184.598L124.181 185.997C123.873 185.83 123.469 185.689 123.163 185.618C122.783 185.546 122.38 185.452 121.929 185.452C119.987 185.452 119.063 186.778 119.063 189.338C119.063 189.812 119.133 190.357 119.229 190.806C119.3 191.281 119.465 191.66 119.703 192.038C119.94 192.418 120.248 192.654 120.627 192.892C121.101 193.129 121.551 193.2 122.024 193.2C122.499 193.2 122.877 193.129 123.352 192.962C123.66 192.892 123.968 192.654 124.276 192.489L124.892 193.65ZM112.927 192.892V185.665H109.893C109.823 186.281 109.823 186.897 109.728 187.537L109.491 189.552C109.325 190.262 109.253 190.878 109.016 191.494C108.851 192.038 108.709 192.584 108.401 193.057H112.903V192.892H112.927ZM116.031 196.92H114.94L114.632 194.361H107.003L106.695 196.92H105.605V192.962H106.837C107.003 192.726 107.145 192.418 107.311 192.181C107.548 191.636 107.691 191.092 107.856 190.546C108.021 189.693 108.164 188.84 108.329 187.988C108.496 186.756 108.567 185.5 108.567 184.338H114.632V193.034H116.101L116.031 196.92ZM99.7052 193.034C100.013 193.034 100.416 192.962 100.724 192.868C101.032 192.773 101.269 192.632 101.505 192.489C101.743 192.346 101.885 192.181 102.051 191.944C102.216 191.778 102.288 191.636 102.359 191.4V189.693C102.193 189.693 101.98 189.622 101.813 189.622H101.197C100.819 189.622 100.345 189.622 99.9652 189.693C99.5865 189.693 99.2545 189.858 98.8759 189.93C98.5679 190.001 98.3305 190.238 98.1652 190.476C97.9985 190.712 97.8572 191.02 97.9279 191.328C97.9279 191.802 98.0932 192.181 98.4012 192.489C98.7812 192.962 99.2545 193.105 99.7052 193.034ZM96.9092 184.954C97.4545 184.646 98.0705 184.409 98.6865 184.244C99.3972 184.078 100.084 184.006 100.795 184.006C101.34 184.006 101.956 184.078 102.501 184.244C102.88 184.409 103.212 184.622 103.52 185.025C103.757 185.333 103.899 185.641 103.993 186.044C104.065 186.424 104.16 186.756 104.16 187.134C104.16 187.916 104.16 188.769 104.088 189.457C104.017 190.238 104.017 190.925 104.017 191.636C104.017 192.11 104.017 192.654 104.088 193.034C104.16 193.413 104.255 193.888 104.325 194.266H103.093L102.62 192.868H102.453C102.288 193.034 102.216 193.248 101.98 193.413C101.813 193.65 101.6 193.793 101.269 193.888C100.961 194.053 100.724 194.124 100.416 194.266C100.036 194.337 99.6332 194.432 99.2545 194.432C98.8759 194.432 98.4012 194.361 98.0225 194.196C97.6439 194.029 97.3119 193.888 97.0039 193.65C96.7665 193.413 96.5305 193.105 96.3879 192.797C96.2212 192.418 96.1505 192.016 96.1505 191.565C96.1505 191.02 96.2212 190.546 96.5305 190.096C96.7665 189.717 97.1465 189.385 97.5492 189.172C98.0225 188.934 98.5679 188.793 99.1119 188.698C99.8239 188.626 100.44 188.532 101.127 188.532H101.743C101.98 188.532 102.121 188.532 102.359 188.604C102.359 188.224 102.429 187.821 102.429 187.513C102.501 186.969 102.359 186.424 101.956 185.949C101.481 185.57 100.937 185.405 100.321 185.476C100.084 185.476 99.8465 185.476 99.5385 185.546L98.7572 185.713C98.5199 185.784 98.2119 185.878 97.9759 185.949C97.7385 186.021 97.5012 186.116 97.2652 186.258L96.9092 184.954ZM90.1559 185.428C89.5399 185.428 88.9959 185.594 88.5212 185.973C88.0479 186.448 87.8105 186.992 87.6679 187.608V192.654C87.9052 192.892 88.2132 193.034 88.5212 193.129C88.9012 193.2 89.3745 193.294 89.7532 193.294C90.6065 193.294 91.4599 192.986 92.0039 192.276C92.6212 191.352 92.8572 190.262 92.7865 189.244C92.7865 188.698 92.7159 188.224 92.6199 187.774C92.5492 187.394 92.3839 186.992 92.1465 186.613C91.9092 186.305 91.6732 186.068 91.3652 185.83C91.0092 185.5 90.6305 185.428 90.1559 185.428ZM86.1052 184.244H87.1945L87.5025 185.476H87.5732C87.8812 185.002 88.2839 184.622 88.8052 184.385C89.3265 184.149 89.8959 184.006 90.5119 184.006C91.6732 183.936 92.7625 184.385 93.5439 185.238C94.2559 186.021 94.5639 187.348 94.5639 189.125C94.5639 189.906 94.3972 190.688 94.1839 191.446C93.9465 192.062 93.6399 192.678 93.2599 193.153C92.8812 193.626 92.3359 194.005 91.7905 194.242C91.1745 194.55 90.5585 194.621 89.8479 194.621C89.4692 194.621 89.0665 194.621 88.6159 194.55C88.3079 194.48 87.9999 194.385 87.6919 194.242V198.436H86.0572L86.1052 184.244ZM84.5639 185.641H80.2999V194.337H78.6652V184.244H84.5639V185.641ZM73.9025 189.858H69.3052V194.361H67.6705V184.244H69.3052V188.437H73.9025V184.244H75.5372V194.361H73.9025V189.858ZM63.0265 188.366L63.0972 187.134H63.0265L62.1732 188.461L57.6719 194.456H56.7479V184.338H58.3825V190.476L58.3119 191.708H58.3825L59.1652 190.476L63.6665 184.409H64.5905V194.526H62.9559L63.0265 188.366ZM51.9852 189.858H47.3892V194.361H45.7545V184.244H47.3892V188.437H51.9852V184.244H53.6199V194.361H51.9852V189.858ZM41.0145 188.366L41.0865 187.134H41.0145L40.1625 188.461L35.6599 194.456H34.7359V184.338H36.3705V190.476L36.2999 191.708H36.3705L37.1532 190.476L41.6545 184.409H42.5785V194.526H40.9439L41.0145 188.366ZM30.0692 185.641H27.1065L26.9412 187.418C26.8692 188.129 26.8692 188.745 26.7745 189.361C26.6799 189.977 26.6092 190.689 26.4665 191.233C26.3012 191.778 26.1585 192.324 25.9225 192.868C25.7559 193.248 25.4479 193.65 25.1399 193.958C24.8319 194.194 24.4292 194.337 24.0505 194.337C23.8132 194.337 23.5759 194.337 23.3399 194.266C23.1732 194.266 23.0319 194.194 22.8652 194.1L23.1025 192.773C23.2679 192.845 23.4812 192.845 23.6479 192.845C23.9559 192.845 24.1919 192.678 24.3585 192.465C24.6665 192.086 24.8319 191.612 24.9745 191.138C25.2105 190.285 25.2825 189.361 25.3532 188.485C25.4239 187.394 25.5199 185.83 25.5905 184.054H31.6559V194.172H30.0212L30.0692 185.641ZM17.3212 193.105C17.6292 193.105 18.0319 193.034 18.3399 192.94C18.6479 192.868 18.8852 192.702 19.1212 192.56C19.3585 192.394 19.5012 192.252 19.6665 192.016C19.8319 191.849 19.9039 191.708 19.9745 191.47V189.764C19.8092 189.764 19.5959 189.693 19.4292 189.693H18.8132C18.4345 189.693 17.9612 189.693 17.5812 189.764C17.2025 189.764 16.8705 189.93 16.4919 190.001C16.1839 190.072 15.9465 190.309 15.7812 190.546C15.6145 190.784 15.4732 191.092 15.5439 191.4C15.5439 191.873 15.7092 192.252 16.0172 192.56C16.3025 192.962 16.7759 193.105 17.3212 193.105ZM14.3599 185.025C14.9039 184.717 15.5199 184.481 16.1359 184.314C16.8479 184.149 17.5345 184.078 18.2452 184.078C18.7905 184.078 19.4066 184.149 19.9519 184.314C20.3306 184.481 20.6625 184.694 20.9705 185.097C21.2065 185.405 21.3492 185.713 21.4439 186.116C21.5145 186.494 21.6092 186.826 21.6092 187.205C21.6092 187.988 21.6092 188.84 21.5385 189.528C21.4679 190.309 21.4679 190.997 21.4679 191.708C21.4679 192.181 21.4679 192.726 21.5385 193.105C21.6092 193.485 21.7052 193.958 21.7759 194.337H20.5439L20.0692 192.94H19.9985C19.8332 193.105 19.7612 193.318 19.5252 193.485C19.2879 193.721 19.1452 193.864 18.8145 193.958C18.5065 194.124 18.2692 194.196 17.9612 194.337C17.5812 194.408 17.1785 194.504 16.7999 194.504C16.4212 194.504 15.9465 194.432 15.5679 194.266C15.1892 194.1 14.8572 193.958 14.5492 193.721C14.3119 193.485 14.0745 193.176 13.9332 192.868C13.7665 192.489 13.6959 192.086 13.6959 191.636C13.6959 191.092 13.7665 190.617 14.0745 190.168C14.3119 189.788 14.6905 189.457 15.0932 189.244C15.5679 189.006 16.1132 188.864 16.6572 188.769C17.3692 188.698 18.0559 188.604 18.6719 188.604H19.2172C19.4532 188.604 19.5959 188.604 19.8332 188.674C19.8332 188.296 19.9039 187.893 19.9039 187.585C19.9745 187.04 19.8332 186.494 19.4292 186.021C18.9559 185.641 18.4105 185.476 17.7945 185.546C17.5585 185.546 17.3212 185.546 17.0132 185.618L16.2319 185.784C15.9239 185.854 15.6865 185.949 15.4492 186.021C15.2132 186.092 14.9759 186.186 14.7385 186.329L14.3599 185.025ZM5.02386 187.821H4.09987V194.361H2.39453V180.216H4.09987V186.826L4.95321 186.589L9.69187 180.286H11.6345L6.89587 186.353L6.04254 187.064L7.0612 187.845L12.2039 194.456H10.0945C10.1652 194.361 5.02386 187.821 5.02386 187.821Z" fill="#80CFD4"/>
        </g>
    </g>
    <defs>
        <clipPath id="clip0_174_2">
            <rect width="346.667" height="200" fill="#80CFD4"/>
        </clipPath>
    </defs>
</svg>
