<svg width="192" height="39" viewBox="0 0 192 39" fill="none" xmlns="http://www.w3.org/2000/svg">
<mask id="mask0_2001_112" style="mask-type:luminance" maskUnits="userSpaceOnUse" x="0" y="0" width="192" height="39">
<path d="M192 0H0V39H192V0Z" fill="white"/>
</mask>
<g mask="url(#mask0_2001_112)">
<path d="M185.415 7.7041L178.864 15.1258V7.7041H174.123V26.4396H178.864V18.5516L185.876 26.4396H192L183.375 16.623L191.376 7.7041H185.415Z" fill="#80CFD4"/>
<path d="M165.764 14.6916H159.213V7.7041H154.47V26.4396H159.213V19.0525H165.764V26.4396H170.505V7.7041H165.764V14.6916Z" fill="#80CFD4"/>
<path d="M28.1491 17.8537C28.0358 21.3488 27.5904 22.0467 25.6457 22.0467V26.4396H26.3704C31.2165 26.4396 32.3812 23.9088 32.5604 18.2852L32.7581 12.0623H37.3011V26.4396H42.0418V7.7041H28.4785L28.1491 17.8537Z" fill="#80CFD4"/>
<path d="M53.8264 13.3943H50.4033V7.7041H45.6626V26.4396H53.8923C59.0625 26.4396 60.9045 23.0457 60.9045 19.849C60.9045 15.7225 58.3352 13.3916 53.8264 13.3916M53.4654 22.3105H50.4033V17.55H53.4654C55.1124 17.55 56.0979 18.2826 56.0979 19.8463C56.0979 21.5432 55.144 22.3105 53.4654 22.3105Z" fill="#80CFD4"/>
<path d="M76.3441 7.26999V0.314453H71.6034V7.26999C66.1723 7.73618 62.5173 11.6308 62.5173 17.0546C62.5173 22.4784 66.1723 26.4077 71.6034 26.8739V33.9306H76.3441V26.8739C81.7752 26.4423 85.4303 22.513 85.4303 17.0546C85.4303 11.5962 81.7752 7.70154 76.3441 7.26999ZM71.6034 22.3479C68.9709 21.9802 67.3239 19.9849 67.3239 17.0573C67.3239 14.1296 68.9709 12.1317 71.6034 11.7667V22.3505V22.3479ZM76.3441 22.3479V11.764C78.9767 12.129 80.6237 14.127 80.6237 17.0546C80.6237 19.9823 78.9767 21.9802 76.3441 22.3452" fill="#80CFD4"/>
<path d="M103.21 20.6827V14.3931C103.21 9.80048 100.314 6.90479 95.4413 6.90479C90.5689 6.90479 87.7387 9.96831 87.5068 13.1624H92.3134C92.4767 12.4644 93.2014 11.2656 95.4413 11.2656C97.286 11.2656 98.4692 12.1314 98.4692 14.3931H93.7601C89.5464 14.3931 87.043 16.6228 87.043 20.3497C87.043 24.0765 89.7809 26.9056 93.7258 26.9056C96.6193 26.9056 98.2267 25.523 98.9277 24.4761C99.5522 25.7415 100.936 26.4394 102.746 26.4394H104.393V22.1132C103.537 22.1132 103.207 21.7136 103.207 20.6827M98.4665 19.4519C98.4665 21.615 96.9513 22.8458 94.9775 22.8458C93.2647 22.8458 91.9154 22.2144 91.9154 20.3497C91.9154 18.4849 93.3964 18.2212 94.6798 18.2212H98.4665V19.4519Z" fill="#80CFD4"/>
<path d="M123.525 10.3655H118.225V5.0749H130.505V0.314453H113.255V26.4397H123.527C129.222 26.4397 132.482 23.5786 132.482 18.32C132.482 13.3624 129.222 10.3655 123.527 10.3655M123.298 21.7138H118.228V14.9235H123.298C125.93 14.9235 127.414 16.1542 127.414 18.3173C127.414 20.4804 125.933 21.7112 123.298 21.7112" fill="#80CFD4"/>
<path d="M150.62 20.6827V14.3931C150.62 9.80048 147.724 6.90479 142.851 6.90479C137.979 6.90479 135.148 9.96831 134.916 13.1624H139.723C139.886 12.4644 140.611 11.2656 142.851 11.2656C144.696 11.2656 145.879 12.1314 145.879 14.3931H141.17C136.956 14.3931 134.453 16.6228 134.453 20.3497C134.453 24.0765 137.191 26.9056 141.136 26.9056C144.029 26.9056 145.636 25.523 146.337 24.4761C146.962 25.7415 148.345 26.4394 150.156 26.4394H151.803V22.1132C150.946 22.1132 150.617 21.7136 150.617 20.6827M145.876 19.4519C145.876 21.615 144.361 22.8458 142.387 22.8458C140.674 22.8458 139.325 22.2144 139.325 20.3497C139.325 18.4849 140.806 18.2212 142.089 18.2212H145.876V19.4519Z" fill="#80CFD4"/>
<path d="M25.3505 33.6748H0V39H25.3505V33.6748Z" fill="#80CFD4"/>
<path d="M17.2842 3.9C16.5595 1.7209 15.7268 0 12.8729 0C10.019 0 9.13094 1.71291 8.372 3.9L0.527039 26.4395H5.72891L7.53928 21.0824H17.5477L19.2264 26.4395H24.7576L17.2842 3.9ZM9.05452 16.5564L12.6094 5.87397H12.7411L16.0984 16.5564H9.05188H9.05452Z" fill="#80CFD4"/>
</g>
</svg>
