<svg width="1920" height="7207" viewBox="0 0 1920 7207" fill="none" xmlns="http://www.w3.org/2000/svg">
<mask id="mask0_479_2194" style="mask-type:alpha" maskUnits="userSpaceOnUse" x="0" y="0" width="1920" height="7207">
<rect width="1920" height="7207" fill="#D9D9D9"/>
</mask>
<g mask="url(#mask0_479_2194)">
<path d="M-363.466 11229.6C-776.216 11114.7 -1156.25 10849.6 -1456.85 10513.7C-1784.4 10147.4 -2043.94 9706.41 -2138.97 9230.6C-2556.59 7139.95 -1423.63 6976.38 -1543.19 4778.56C-1569.58 4295.23 -1626.17 3816.95 -1680.38 3335.48C-1736.36 2839.34 -1746.59 2330.49 -1557.51 1890.02C-1376.63 1468.72 -1050.89 1150.2 -703.223 887.427C30.024 333.109 989.79 -164.465 1973.21 240.579C2394.39 414.215 2744.41 741.651 2932.99 1183.78C3154.17 1702.43 3158.7 2266.53 3232.3 2805.74C3398.89 4027.7 4066.31 5112.14 4531.51 6250.87C4753.06 6793.29 4934.51 7363.12 4974.71 7937.54C5006.18 8387.36 4952.35 8841.07 4786.95 9236.51C4611.64 9655.66 4308.85 9968.91 3916.94 10159.3C3477.54 10372.8 2981.47 10445.3 2509.54 10572.1C2013.97 10705.2 1559.31 10934.9 1079.02 11106.1C627.114 11267.1 135.265 11368.5 -363.466 11229.6Z" fill="#5FA7B6"/>
<path d="M1698.14 1158.17C2103.88 1291.61 2402.39 1578.47 2551.7 1993.41C2717.59 2454.45 2694.93 2969.18 2740.12 3465.42C2828.43 4437.17 3366.66 5302.29 3737.47 6209.25C3913.65 6639.85 4061.4 7090.84 4103.12 7544.59C4135.81 7899.88 4104.78 8257.49 3989.23 8571.14C3866.82 8903.46 3646.97 9154.66 3360.56 9315.82C3038.64 9496.84 2672.83 9572.94 2319.6 9688.56C1947.97 9810.3 1601.19 10005.5 1223.53 10150.8C872.547 10285.8 490.467 10348.2 86.7283 10278.5C-318.525 10208.4 -694.086 10015.1 -973.063 9701.24C-1269.63 9368.04 -1464.35 8938.19 -1529.89 8463.23C-1756.93 6818.58 -993.323 6613.63 -1091.39 4872.99C-1113.6 4483.39 -1157.91 4097.7 -1199.01 3710.52C-1241.55 3310.02 -1247.97 2901.12 -1102.18 2545.34C-962.536 2203.52 -711.272 1941.04 -439.703 1723.33C132.722 1265 882.978 889.927 1698.14 1158.17Z" fill="#4B879B"/>
<path d="M1423.08 2075.77C1816.92 2166.33 2061.73 2414.46 2170.4 2803.21C2283.03 3205.63 2233.36 3669.99 2247.94 4125.27C2270.8 4843.85 2666.84 5492.6 2943.42 6167.64C3074.06 6486.4 3188.11 6818.39 3231.71 7151.65C3265.78 7412.23 3257.2 7674.08 3191.5 7905.94C3121.84 8151.59 2985.08 8340.91 2804 8472.51C2599.4 8621.17 2363.84 8700.88 2129.49 8805.38C1881.79 8915.87 1643.08 9076.29 1368.03 9196.06C1118.15 9304.85 839.343 9343.53 537.089 9327.65C132.23 9306.46 -231.584 9180.84 -489.285 8889.16C-754.689 8589 -887.309 8173.99 -920.81 7696.19C-1004.19 6509.76 -563.182 6251.39 -639.432 4967.93C-657.458 4672.05 -689.489 4379.13 -717.475 4086.23C-746.405 3781.53 -749.187 3472.43 -646.855 3201.51C-548.45 2939.34 -371.659 2732.72 -176.018 2560.08C235.59 2196.89 785.016 1929.04 1423.08 2075.77Z" fill="#376881"/>
<path d="M1148.01 2993.36C1533.89 3032.14 1723.43 3249.62 1789.1 3613.01C1851.18 3955.65 1778.37 4369.32 1755.77 4784.95C1730.54 5248.1 1967.03 5682.75 2149.37 6125.85C2234.64 6332.95 2314.99 6545.93 2360.29 6758.37C2395.58 6924.41 2409.63 7090.32 2393.77 7240.22C2377.02 7399.22 2322.69 7527.84 2247.45 7628.53C2159.48 7746.33 2054.52 7828.82 1939.39 7921.52C1815.12 8021.43 1684.97 8145.9 1512.36 8240.64C1363.42 8322.37 1184.92 8355.9 987.284 8376.34C578.017 8418.66 230.584 8346.05 -5.50412 8076.74C-239.752 7809.8 -319.217 7412.45 -311.9 6928.81C-300.868 6208.06 -133.208 5888.81 -187.804 5062.36C-201.648 4860.38 -221.398 4659.89 -236.441 4461.27C-251.93 4252.2 -251.07 4043.06 -191.862 3856.84C-134.697 3674.31 -32.5482 3523.55 87.1653 3395.81C338.455 3128.95 694.08 2947.79 1148.01 2993.36Z" fill="#234866"/>
<path d="M1263.42 5444.63C1459.2 4628.88 1563.87 3831.49 872.777 3910.79C-183.764 4032.15 446.502 5482.77 297.009 6161.43C78.3136 7153.16 665.31 7741.83 1437.48 7425.19C2300.53 7071.5 1077.83 6218.14 1263.42 5444.63Z" fill="#0F284B"/>
</g>
</svg>
