<svg width="474" height="505" viewBox="0 0 474 505" fill="none" xmlns="http://www.w3.org/2000/svg">
<path d="M255.117 461.665C236.106 460.004 223.822 450.014 210.291 446.121C196.76 442.229 184.528 449.027 184.528 449.027C184.528 449.027 188.164 441.476 179.802 436.157C171.439 430.837 154.818 429.098 147.546 424.635C140.274 420.172 136.353 408.988 131.912 421.391C127.471 433.795 155.623 448.976 155.623 448.976C155.623 448.976 153.467 452.401 135.002 445.343C132.041 444.201 129.34 442.878 126.925 441.45C114.615 434.236 109.629 419.03 115.082 405.874C117.446 400.191 120.432 393.703 124.042 387.346C131.34 374.475 151.883 357.323 170.997 343.31C170.842 347.695 170.868 351.121 171.257 352.47C172.867 358.127 185.255 349.019 188.424 339.002C189.125 336.771 190.398 333.112 191.93 328.752C213.875 314.169 242.027 284.535 242.027 284.535C242.027 284.535 249.741 281.239 250.78 284.872C251.818 288.505 247.222 301.324 251.948 314.195C256.675 327.066 268.388 343.855 271.011 344.322C273.634 344.789 278.153 323.095 278.075 301.168C277.997 279.241 265.531 257.988 265.531 257.988C265.531 257.988 280.88 229.444 287.502 212.24C294.125 195.035 300.462 172.122 307.422 165.739C314.356 159.355 316.745 152.764 313.784 147.963C318.537 139.867 311.681 135.559 311.681 135.559C311.681 135.559 352.559 95.6233 368.271 83.0639C383.957 70.5044 476.361 0.0259601 474.985 1.07185e-05C473.608 -0.0259386 399.358 47.0721 374.348 66.1189C349.338 85.1398 300.565 124.661 300.565 124.661L293.138 123.182C293.138 123.182 270.206 108.157 249.403 112.828C228.601 117.525 212.629 142.566 204.604 148.093C196.553 153.62 116.9 168.956 71.5555 209.619C26.2106 250.282 -23.6012 352.652 12.2644 424.765C49.4544 499.551 120.614 508.607 141.079 504.014C176.373 496.126 189.566 475.522 193.904 473.809C198.241 472.096 212.836 478.246 230.315 480.297C247.767 482.346 265.141 475.496 274.023 470.28C282.879 465.064 274.179 463.352 255.169 461.691L255.117 461.665Z" fill="#040E31"/>
</svg>
