<svg width="431" height="404" viewBox="0 0 431 404" fill="none" xmlns="http://www.w3.org/2000/svg">
<path d="M413.582 52.9504C413.582 52.9504 417.748 43.2031 419.479 38.6273C421.211 34.0515 433.981 25.7122 430.355 20.7031C426.73 15.6941 420.291 11.037 420.291 11.037C420.291 11.037 420.021 8.41069 416.368 6.92152C412.689 5.43235 411.363 1.53343 407.63 0.748235C403.896 -0.0369641 390.342 0.504552 390.342 0.504552C390.342 0.504552 378.789 -0.226495 365.019 0.0713392C351.248 0.369173 316.889 6.0551 306.229 8.97929C295.57 11.9035 288.4 6.78615 281.393 8.35655C274.386 9.92695 265.81 19.1598 265.81 19.1598C265.81 19.1598 220.033 36.732 198.228 45.3421C176.422 53.9793 153.398 71.5245 136.137 82.6526C118.877 93.8079 97.2601 120.234 81.6226 125.812C65.9851 131.389 64.5782 137.21 64.7676 137.698C64.957 138.185 71.3689 137.292 63.9019 147.824C56.4348 158.357 39.174 180.884 29.4885 200.487C19.803 220.09 13.9592 242.373 13.1476 260.568C12.363 278.763 21.3451 299.205 20.317 314.53C19.289 329.855 14.7979 343.961 8.79184 353.655C2.78574 363.348 -3.35565 381.11 2.13641 393.185C7.62848 405.261 7.22266 386.958 10.6045 377.752C13.9593 368.546 38.0648 340.902 38.0648 340.902C38.0648 340.902 59.0862 344.774 66.2827 343.718C73.4792 342.662 64.443 334.539 54.2975 330.857C44.1521 327.174 38.3083 320.757 36.0898 310.387C33.8714 300.017 38.3895 279.521 50.1311 263.871C61.8457 248.248 109.624 226.344 109.624 226.344C109.624 226.344 103.158 244.322 100.912 257.156C98.6669 270.017 78.9442 345.451 73.4792 362.563C68.0412 379.675 56.3807 406.209 62.2516 403.853C68.1224 401.498 108.839 370.469 115.305 355.36C121.771 340.252 131.755 331.344 132.539 324.521C133.351 317.698 146.31 311.985 147.338 305.189C148.366 298.393 150.368 292.084 152.965 286.588C155.563 281.118 161.731 276.624 162.813 272.211C163.895 267.797 161.92 261.488 168.549 253.014C175.177 244.539 185.133 235.875 184.998 231.84C184.863 227.806 182.861 217.436 184.836 210.721C186.811 204.007 191.545 201.082 191.545 201.082L235.373 178.366C235.373 178.366 236.753 199.106 237.862 214.377C238.972 229.647 260.805 277.951 263.348 287.4C265.891 296.85 269.381 311.85 267.568 322.382C265.756 332.915 260.913 342.716 264.159 343.447C267.406 344.178 280.257 337.896 284.315 323.303C288.373 308.709 296.977 284.747 293.784 268.826C290.592 252.905 291.187 234.223 287.724 227.292C284.261 220.36 286.128 209.368 283.503 203.925C280.879 198.483 289.996 191.416 287.48 187.409C284.964 183.402 283.503 174.142 281.691 167.129C279.905 160.117 269.651 150.613 269.651 150.613C269.651 150.613 286.398 131.606 296.571 120.099C306.743 108.591 335.232 85.3602 352.087 79.1598C368.942 72.9595 375.57 67.3548 388.259 65.7844C400.947 64.214 409.442 58.0678 413.554 52.9504H413.582Z" fill="#1A4C77"/>
</svg>
