<svg width="524" height="512" viewBox="0 0 524 512" fill="none" xmlns="http://www.w3.org/2000/svg">
<path d="M-0.893494 67.1055C-0.893494 67.1055 -6.18124 54.7525 -8.37875 48.9534C-10.5763 43.1544 -26.7829 32.5857 -22.1818 26.2376C-17.5808 19.8895 -9.40882 13.9875 -9.40882 13.9875C-9.40882 13.9875 -9.06547 10.6591 -4.43011 8.77183C0.239586 6.88456 1.92205 1.94336 6.66042 0.948258C11.3988 -0.0468456 28.6011 0.639432 28.6011 0.639432C28.6011 0.639432 43.2626 -0.287043 60.7396 0.0904101C78.2167 0.467863 121.823 7.67379 135.352 11.3797C148.88 15.0856 157.979 8.60027 166.872 10.5905C175.765 12.5807 186.65 24.2817 186.65 24.2817C186.65 24.2817 244.746 46.5515 272.421 57.4633C300.096 68.4094 329.316 90.6449 351.222 104.748C373.129 118.885 400.563 152.376 420.409 159.444C440.256 166.513 442.041 173.89 441.801 174.508C441.56 175.126 433.423 173.993 442.899 187.342C452.376 200.69 474.283 229.239 486.575 254.082C498.867 278.925 506.284 307.166 507.314 330.225C508.31 353.284 496.91 379.191 498.215 398.612C499.52 418.034 505.219 435.912 512.842 448.196C520.464 460.48 528.259 482.99 521.289 498.294C514.318 513.598 514.833 490.402 510.541 478.735C506.284 467.069 475.69 432.034 475.69 432.034C475.69 432.034 449.011 436.941 439.878 435.603C430.745 434.264 442.213 423.97 455.089 419.304C467.965 414.637 475.381 406.505 478.197 393.362C481.012 380.22 475.278 354.244 460.376 334.411C445.509 314.612 384.872 286.852 384.872 286.852C384.872 286.852 393.078 309.636 395.928 325.901C398.778 342.2 423.809 437.799 430.745 459.485C437.646 481.172 452.445 514.799 444.994 511.814C437.543 508.829 385.867 469.505 377.661 450.358C369.455 431.211 356.785 419.921 355.789 411.274C354.759 402.627 338.312 395.387 337.007 386.774C335.702 378.161 333.162 370.166 329.865 363.2C326.569 356.269 318.74 350.573 317.367 344.98C315.994 339.386 318.5 331.391 310.088 320.651C301.675 309.911 289.04 298.93 289.211 293.818C289.383 288.705 291.924 275.563 289.417 267.053C286.911 258.543 280.902 254.837 280.902 254.837L225.278 226.048C225.278 226.048 223.527 252.332 222.119 271.685C220.711 291.038 193.002 352.254 189.774 364.23C186.547 376.205 182.117 395.215 184.418 408.563C186.718 421.911 192.865 434.333 188.744 435.26C184.624 436.186 168.314 428.225 163.164 409.73C158.014 391.235 147.095 360.867 151.146 340.69C155.198 320.514 154.443 296.837 158.838 288.053C163.233 279.268 160.863 265.337 164.194 258.44C167.525 251.543 155.953 242.587 159.147 237.508C162.34 232.43 164.194 220.695 166.495 211.807C168.761 202.92 181.774 190.876 181.774 190.876C181.774 190.876 160.52 166.787 147.61 152.204C134.699 137.621 98.5436 108.179 77.1523 100.321C55.7609 92.4635 47.3486 85.3605 31.245 83.3703C15.1414 81.3801 4.35991 73.5908 -0.859163 67.1055H-0.893494Z" fill="#040E31"/>
</svg>
