<svg width="41" height="76" viewBox="0 0 41 76" xmlns="http://www.w3.org/2000/svg">
<path d="M23.2323 63.5335L17.3925 57.7007L11.5526 63.5335L17.3911 75.7272L23.2323 63.5335Z" fill="#80CFD4"/>
<path d="M17.3924 24.1562C15.1513 24.1562 13.3352 25.9737 13.3352 28.2148C13.3352 30.4559 15.1527 32.272 17.3924 32.272C19.6336 32.272 21.4511 30.4545 21.4511 28.2148C21.4511 25.9737 19.6336 24.1562 17.3924 24.1562Z" fill="#80CFD4"/>
<path d="M22.597 44.8948L17.3927 39.6808L12.1884 44.8948C11.9222 44.1714 8.43504 34.733 8.43504 28.5755C8.43504 20.2689 16.7669 15.6152 17.3927 15.2737C18.0185 15.6152 26.3504 20.2689 26.3504 28.5755C26.3504 34.733 22.8632 44.1714 22.597 44.8948ZM17.3927 5.94409C16.1565 6.57685 0 15.1135 0 28.7553C0 40.4237 9.50962 58.1199 9.50962 58.1199L17.3927 50.223L25.2758 58.1199C25.2758 58.1199 34.784 40.4237 34.784 28.7553C34.784 15.1149 18.6276 6.57685 17.3913 5.94409H17.3927Z" fill="#80CFD4"/>
<path d="M34.7854 11.8885L28.8411 5.94427L34.7854 0L40.7284 5.94288V5.94427L34.7854 11.8885Z" fill="#80CFD4"/>
</svg>
