<svg width="200" height="120" viewBox="0 0 200 120" fill="none" xmlns="http://www.w3.org/2000/svg">
<g clip-path="url(#clip0_2009_24307)">
<path d="M200 0H0V120H200V0Z" fill="#001437"/>
<path d="M46.4001 26L36.3001 39.4H31.2001V26H23.6001L20.6001 31.7H25.2001V59.8H31.2001V44.6H36.3001L46.9001 59.8H53.8001L41.5001 42L53.3001 26H46.4001ZM52.0001 47.6C52.0001 50.3 52.6001 52.6 53.9001 54.6C55.1001 56.5 56.7001 58 58.7001 59C60.7001 60 62.9001 60.5 65.2001 60.5C67.5001 60.5 69.7001 60 71.6001 59C73.7001 58 75.3001 56.5 76.5001 54.6C77.7001 52.6 78.3001 50.3 78.3001 47.7C78.3001 45.1 77.7001 42.7 76.5001 40.8C75.3001 38.9 73.7001 37.5 71.7001 36.6C69.7001 35.6 67.6001 35.2 65.2001 35.2C62.8001 35.2 60.8001 35.7 58.7001 36.6C56.6001 37.6 55.0001 39 53.8001 41C52.6001 42.9 52.0001 45.2 52.0001 47.9V47.6ZM160.4 68.3V57.1C160.8 57.7 161.3 58.3 161.9 58.7C162.7 59.2 163.5 59.7 164.4 59.9C165.4 60.2 166.8 60.3 168.6 60.3C170.4 60.3 170.7 60.2 171.7 59.9C172.8 59.6 173.7 59.2 174.6 58.7C176.3 57.7 177.6 56.2 178.5 54.3C179.5 52.4 179.9 50.1 179.9 47.6C179.9 45.1 179.4 42.9 178.5 41C177.5 39.1 176.2 37.6 174.5 36.6C172.8 35.6 170.8 35 168.6 35C166.4 35 164.5 35.4 163.1 36.1C161.8 36.8 160.7 37.7 159.9 39V35.7H154.5V68.2H160.3L160.4 68.3ZM87.1001 59.8V49.7H96.9001V59.8H102.6V35.8H96.9001V44.9H87.1001V35.8H81.3001V59.8H87.1001ZM113.3 40.3V59.8H119.2V40.3H127.4V35.7H105.3V40.3H113.4H113.3ZM138.3 60.6C138.1 61.1 137.9 61.6 137.5 62.1C137.2 62.5 136.7 62.9 136 63.2C135.3 63.5 134.5 63.7 133.4 63.7C132.3 63.7 131.8 63.7 131.2 63.5L133.2 68.1C133.4 68.1 133.9 68.1 134.8 68.1C136.6 68.1 138.1 67.8 139.2 67.2C140.2 66.6 141 65.8 141.7 64.8C142.4 63.8 143.1 62.3 143.8 60.2L152.6 35.7H146.8C144.7 41.8 142.8 47.6 141.1 53.2C139.5 47.8 137.5 42 135.2 35.7H129.1L138.2 60.6H138.3ZM57.9001 47.5C57.9001 44.9 58.5001 42.9 59.8001 41.6C61.1001 40.3 62.8001 39.6 65.1001 39.6C67.4001 39.6 69.2001 40.3 70.4001 41.6C71.7001 42.9 72.4001 44.9 72.4001 47.5C72.4001 50.1 71.8001 52.2 70.4001 53.5C69.1001 54.9 67.3001 55.5 65.1001 55.5C62.9001 55.5 61.1001 54.8 59.8001 53.5C58.5001 52.1 57.9001 50.1 57.9001 47.5ZM160.3 47.6C160.3 45.3 161 43.4 162.2 42C163.4 40.6 165.1 39.9 167.3 39.9C169.5 39.9 171.2 40.6 172.4 42.1C173.6 43.5 174.2 45.4 174.2 47.7C174.2 50 173.6 51.9 172.4 53.4C171.3 54.9 169.6 55.6 167.3 55.6C165 55.6 163.3 54.9 162.2 53.4C161 51.9 160.4 50.1 160.3 47.7V47.6Z" fill="white"/>
<path d="M28.8003 80.8001C29.7003 80.8001 30.6003 81.0001 31.3003 81.4001C32.0003 81.8001 32.5003 82.4001 32.9003 83.1001C33.3003 83.8001 33.5003 84.7001 33.5003 85.6001C33.5003 86.5001 33.3003 87.4001 32.9003 88.1001C32.5003 88.8001 32.0003 89.4001 31.3003 89.8001C30.6003 90.2001 29.8003 90.4001 28.9003 90.4001C28.0003 90.4001 27.6003 90.3001 27.0003 90.0001C26.4003 89.8001 25.9003 89.3001 25.3003 88.8001L26.2003 87.7001C26.7003 88.2001 27.2003 88.5001 27.6003 88.7001C28.0003 88.9001 28.5003 89.0001 28.9003 89.0001C29.7003 89.0001 30.4003 88.7001 30.9003 88.2001C31.4003 87.6001 31.7003 86.9001 31.8003 86.0001H27.6003V84.7001H31.7003C31.6003 83.9001 31.3003 83.2001 30.7003 82.7001C30.2003 82.2001 29.5003 82.0001 28.7003 82.0001C27.9003 82.0001 27.9003 82.0001 27.5003 82.2001C27.1003 82.3001 26.7003 82.6001 26.2003 83.0001L25.3003 81.9001C25.9003 81.4001 26.4003 81.1001 26.9003 80.9001C27.4003 80.7001 28.0003 80.6001 28.7003 80.6001L28.8003 80.8001Z" fill="white"/>
<path d="M41.0003 90.3H39.4003L37.4003 87.5H36.3003V90.3H34.8003V83.7H36.3003V86.3H37.4003L39.2003 83.7H40.8003L38.6003 86.8L41.1003 90.3H41.0003Z" fill="white"/>
<path d="M44.6002 83.5C45.3002 83.5 45.8002 83.6 46.3002 83.9C46.8002 84.2 47.2002 84.6 47.5002 85.1C47.8002 85.6 47.9002 86.2 47.9002 86.9C47.9002 87.6 47.8002 88.2 47.5002 88.7C47.2002 89.2 46.8002 89.6 46.3002 89.9C45.8002 90.2 45.2002 90.3 44.6002 90.3C44.0002 90.3 43.4002 90.2 42.8002 89.9C42.3002 89.6 41.9002 89.2 41.6002 88.7C41.3002 88.2 41.2002 87.6 41.2002 86.9C41.2002 86.2 41.3002 85.6 41.6002 85.1C41.9002 84.6 42.3002 84.2 42.8002 83.9C43.3002 83.6 43.9002 83.5 44.6002 83.5ZM44.6002 84.7C44.0002 84.7 43.6002 84.9 43.2002 85.3C42.9002 85.7 42.7002 86.3 42.7002 87C42.7002 87.7 42.9002 88.2 43.2002 88.7C43.5002 89.1 44.0002 89.3 44.6002 89.3C45.2002 89.3 45.6002 89.1 46.0002 88.7C46.4002 88.3 46.5002 87.7 46.5002 87C46.5002 86.3 46.3002 85.8 46.0002 85.3C45.7002 84.9 45.2002 84.7 44.6002 84.7Z" fill="white"/>
<path d="M54 85.7001C53.6 85.3001 53.3 85.1001 53.1 85.0001C52.8 84.9001 52.6 84.8001 52.2 84.8001C51.6 84.8001 51.2 85.0001 50.8 85.5001C50.5 85.9001 50.3 86.5001 50.3 87.1001C50.3 87.7001 50.5 88.3001 50.8 88.7001C51.1 89.1001 51.6 89.3001 52.2 89.3001C52.8 89.3001 52.8 89.3001 53.1 89.1001C53.4 88.9001 53.7 88.7001 54.1 88.3001L55.1 89.1001C54.7 89.7001 54.2 90.0001 53.8 90.3001C53.4 90.5001 52.9 90.6001 52.3 90.6001C51.7 90.6001 51.1 90.5001 50.6 90.2001C50.1 89.9001 49.7 89.5001 49.4 89.0001C49.1 88.5001 49 87.8001 49 87.1001C49 86.4001 49.1 85.8001 49.4 85.2001C49.7 84.7001 50.1 84.3001 50.6 84.0001C51.1 83.7001 51.7 83.6001 52.3 83.6001C52.9 83.6001 53.3 83.6001 53.8 83.9001C54.2 84.1001 54.7 84.4001 55.1 84.9001L54.2 85.8001L54 85.7001Z" fill="white"/>
<path d="M60.5 83.7H62.1V90.3H60.7V87.9C60.7 86.7 60.7 85.8 60.7 85.1C60.2 85.9 59.8 86.7 59.4 87.4L57.6 90.3H56V83.7H57.3V86.3C57.3 87.3 57.3 88.1 57.3 88.9C57.9 87.9 58.3 87.1 58.6 86.6L60.4 83.7H60.5Z" fill="white"/>
<path d="M68.5 85.7001C68.1 85.3001 67.8 85.1001 67.6 85.0001C67.3 84.9001 67.1 84.8001 66.7 84.8001C66.1 84.8001 65.7 85.0001 65.3 85.5001C65 85.9001 64.8 86.5001 64.8 87.1001C64.8 87.7001 65 88.3001 65.3 88.7001C65.6 89.1001 66.1 89.3001 66.7 89.3001C67.3 89.3001 67.3 89.3001 67.6 89.1001C67.9 88.9001 68.2 88.7001 68.6 88.3001L69.6 89.1001C69.2 89.7001 68.7 90.0001 68.3 90.3001C67.9 90.5001 67.4 90.6001 66.8 90.6001C66.2 90.6001 65.6 90.5001 65.1 90.2001C64.6 89.9001 64.2 89.5001 63.9 89.0001C63.6 88.5001 63.5 87.8001 63.5 87.1001C63.5 86.4001 63.6 85.8001 63.9 85.2001C64.2 84.7001 64.6 84.3001 65.1 84.0001C65.6 83.7001 66.2 83.6001 66.8 83.6001C67.4 83.6001 67.8 83.6001 68.3 83.9001C68.7 84.1001 69.2 84.4001 69.6 84.9001L68.7 85.8001L68.5 85.7001Z" fill="white"/>
<path d="M75.7999 83.7V84.9H73.5999V90.3H72.0999V84.9H69.8999V83.7H75.6999H75.7999Z" fill="white"/>
<path d="M82.6003 89.2C82.1003 89.7 81.7003 90 81.2003 90.2C80.7003 90.4 80.2003 90.5 79.7003 90.5C79.2003 90.5 78.4003 90.4 77.9003 90.1C77.4003 89.8 77.0003 89.4 76.7003 88.9C76.4003 88.4 76.3003 87.8 76.3003 87.1C76.3003 86.4 76.4003 85.8 76.7003 85.3C77.0003 84.8 77.3003 84.3 77.8003 84C78.3003 83.7 78.9003 83.5 79.5003 83.5C80.5003 83.5 81.2003 83.8 81.8003 84.4C82.3003 85 82.6003 85.8 82.6003 86.8C82.6003 87.8 82.6003 87.2 82.6003 87.4H77.7003C77.7003 88 77.9003 88.5 78.3003 88.8C78.6003 89.2 79.1003 89.3 79.7003 89.3C80.3003 89.3 80.4003 89.3 80.7003 89.1C81.0003 89 81.3003 88.7 81.8003 88.3L82.6003 89.2ZM79.5003 84.7C79.0003 84.7 78.6003 84.8 78.3003 85.1C78.0003 85.4 77.8003 85.8 77.7003 86.3H81.1003C81.1003 85.8 80.9003 85.4 80.6003 85.1C80.3003 84.8 79.9003 84.7 79.4003 84.7H79.5003Z" fill="white"/>
<path d="M89.7999 83.7H91.8999V90.3H90.4999V87.5C90.4999 86.6 90.4999 85.7 90.4999 84.7V85.1C90.2999 85.3 90.1999 85.5 90.0999 85.9C89.9999 86.3 89.7999 86.6 89.6999 87L88.4999 90.3H87.1999L85.9999 87C85.5999 86 85.3999 85.2 85.1999 84.8C85.1999 85.8 85.1999 86.8 85.1999 87.6V90.4H83.8999V83.8H85.9999L86.9999 86.6C87.2999 87.5 87.5999 88.2 87.7999 89C88.0999 88.1 88.3999 87.3 88.5999 86.6L89.6999 83.8L89.7999 83.7Z" fill="white"/>
<path d="M96.3002 83.5C97.2002 83.5 97.9002 83.7 98.4002 84.1C98.9002 84.5 99.1002 85.1 99.1002 85.8V90.3H97.8002V89.5C97.6002 89.8 97.3002 90 96.9002 90.2C96.5002 90.4 96.1002 90.5 95.6002 90.5C95.1002 90.5 94.3002 90.3 93.9002 90C93.5002 89.7 93.2002 89.2 93.2002 88.6C93.2002 88 93.5002 87.4 94.0002 87.1C94.5002 86.8 95.3002 86.5 96.2002 86.3L97.7002 86V85.8C97.7002 85.4 97.6002 85.2 97.3002 85C97.1002 84.8 96.7002 84.7 96.3002 84.7C95.9002 84.7 95.5002 84.7 95.2002 85C94.9002 85.2 94.6002 85.4 94.2002 85.8L93.3002 85C93.7002 84.5 94.2002 84.1 94.6002 83.9C95.1002 83.7 95.6002 83.5 96.2002 83.5H96.3002ZM95.8002 89.4C96.3002 89.4 96.8002 89.3 97.1002 89C97.5002 88.7 97.7002 88.3 97.7002 87.8V87.2L96.6002 87.4C95.9002 87.5 95.5002 87.7 95.1002 87.9C94.8002 88.1 94.6002 88.3 94.6002 88.7C94.6002 89.1 94.7002 89.1 94.9002 89.3C95.1002 89.4 95.4002 89.5 95.8002 89.5V89.4Z" fill="white"/>
<path d="M103.1 92V89.2H103.7C103.9 88.9 104.1 88.6 104.3 88.1C104.4 87.6 104.5 87 104.5 86.2V83.7H109.6V89.1H110.5V91.9H109.1V90.3H104.4V91.9H103L103.1 92ZM108.2 89.2V84.9H105.9V86.3C105.9 87.8 105.6 88.7 105.3 89.2H108.3H108.2Z" fill="white"/>
<path d="M112.2 90.4C111.9 90.4 111.6 90.4 111.3 90.4V89.2C111.7 89.2 111.9 89.2 111.9 89.2C112.2 89.2 112.3 89.2 112.5 89C112.6 88.9 112.7 88.6 112.8 88.3C112.8 88 112.8 87.5 112.8 86.8V83.7H118V90.3H116.5V84.9H114.1V86.8C114.1 87.7 114.1 88.4 113.9 88.9C113.8 89.4 113.6 89.8 113.3 90C113 90.2 112.6 90.4 112.1 90.4H112.2Z" fill="white"/>
<path d="M125.1 83.7001V90.3001H123.7V88.1001H122.6L120.8 90.3001H119.1L121.1 88.0001C120.6 87.9001 120.2 87.6001 119.8 87.2001C119.5 86.8001 119.4 86.4001 119.4 85.8001C119.4 85.2001 119.6 84.6001 120.1 84.2001C120.6 83.8001 121.2 83.6001 121.9 83.6001H125.1V83.7001ZM123.7 86.9001V84.8001H122C121.6 84.8001 121.3 84.8001 121.1 85.1001C120.9 85.3001 120.8 85.5001 120.8 85.8001C120.8 86.1001 120.9 86.4001 121.1 86.6001C121.3 86.8001 121.6 86.9001 122 86.9001H123.7Z" fill="white"/>
<path d="M133.1 83.9C134 83.9 134.7 84.2 135.3 84.8C135.8 85.4 136.1 86.2 136.1 87.2C136.1 88.2 136 88.5 135.7 89C135.4 89.5 135 89.9 134.5 90.2C134 90.5 133.4 90.6 132.8 90.6C131.7 90.6 130.9 90.2 130.3 89.5C129.7 88.8 129.4 87.7 129.4 86.3C129.4 84.9 129.5 84.3 129.8 83.5C130 82.8 130.4 82.2 131 81.8C131.6 81.4 132.4 81.1 133.4 81L135.6 80.8V82.2C135.7 82.2 133.5 82.4 133.5 82.4C132.8 82.4 132.3 82.6 131.9 82.8C131.5 83 131.2 83.3 131 83.7C130.8 84.1 130.7 84.6 130.6 85.3C130.8 84.9 131.1 84.5 131.6 84.3C132 84 132.5 83.9 133.1 83.9ZM132.7 89.3C133.3 89.3 133.7 89.1 134 88.7C134.3 88.3 134.5 87.8 134.5 87.1C134.5 86.4 134.3 86 134 85.6C133.7 85.2 133.2 85 132.7 85C132.2 85 131.7 85.2 131.3 85.6C130.9 86 130.8 86.5 130.8 87.1C130.8 87.7 131 88.3 131.3 88.7C131.6 89.1 132.1 89.3 132.7 89.3Z" fill="white"/>
<path d="M141.8 83.7H143.4V90.3H142V87.9C142 86.7 142 85.8 142 85.1C141.5 85.9 141.1 86.7 140.7 87.4L138.9 90.3H137.3V83.7H138.6V86.3C138.6 87.3 138.6 88.1 138.6 88.9C139.2 87.9 139.6 87.1 139.9 86.6L141.7 83.7H141.8Z" fill="white"/>
<path d="M149.1 86.9C150 87.2 150.4 87.7 150.4 88.4C150.4 89.1 150.3 89.2 150 89.5C149.8 89.8 149.4 90.1 149 90.3C148.6 90.5 148 90.6 147.4 90.6C146.8 90.6 146.3 90.6 145.8 90.3C145.3 90.1 144.8 89.8 144.3 89.4L145.1 88.5C145.8 89.1 146.6 89.4 147.4 89.4C148.2 89.4 148.2 89.4 148.5 89.1C148.8 88.9 148.9 88.7 148.9 88.4C148.9 88.1 148.8 87.9 148.6 87.8C148.4 87.7 148 87.6 147.5 87.6H146.3V86.5H147.5C148.3 86.5 148.7 86.2 148.7 85.6C148.7 85 148.6 85.1 148.4 85C148.2 84.8 147.9 84.7 147.4 84.7C146.9 84.7 146.7 84.7 146.3 84.9C146 85 145.6 85.3 145.2 85.5L144.5 84.6C145 84.2 145.5 84 145.9 83.8C146.4 83.6 146.9 83.5 147.4 83.5C147.9 83.5 148.3 83.5 148.7 83.7C149.1 83.8 149.5 84 149.7 84.3C150 84.6 150.1 84.9 150.1 85.4C150.1 85.9 150.1 86.1 149.8 86.3C149.6 86.6 149.3 86.8 149 86.9H149.1Z" fill="white"/>
<path d="M157.5 83.7V90.3H156V87.5H153.2V90.3H151.7V83.7H153.2V86.3H156V83.7H157.5Z" fill="white"/>
<path d="M165.1 89.2C164.6 89.7 164.2 90 163.7 90.2C163.2 90.4 162.7 90.5 162.2 90.5C161.7 90.5 160.9 90.4 160.4 90.1C159.9 89.8 159.5 89.4 159.2 88.9C158.9 88.4 158.8 87.8 158.8 87.1C158.8 86.4 158.9 85.8 159.2 85.3C159.5 84.8 159.8 84.3 160.3 84C160.8 83.7 161.4 83.5 162 83.5C163 83.5 163.7 83.8 164.3 84.4C164.8 85 165.1 85.8 165.1 86.8C165.1 87.8 165.1 87.2 165.1 87.4H160.2C160.2 88 160.4 88.5 160.8 88.8C161.1 89.2 161.6 89.3 162.2 89.3C162.8 89.3 162.9 89.3 163.2 89.1C163.5 89 163.8 88.7 164.3 88.3L165.1 89.2ZM162 84.7C161.5 84.7 161.1 84.8 160.8 85.1C160.5 85.4 160.3 85.8 160.2 86.3H163.6C163.6 85.8 163.4 85.4 163.1 85.1C162.8 84.8 162.4 84.7 161.9 84.7H162Z" fill="white"/>
<path d="M171.2 85.7001C170.8 85.3001 170.5 85.1001 170.3 85.0001C170 84.9001 169.8 84.8001 169.4 84.8001C168.8 84.8001 168.4 85.0001 168 85.5001C167.7 85.9001 167.5 86.5001 167.5 87.1001C167.5 87.7001 167.7 88.3001 168 88.7001C168.3 89.1001 168.8 89.3001 169.4 89.3001C170 89.3001 170 89.3001 170.3 89.1001C170.6 88.9001 170.9 88.7001 171.3 88.3001L172.3 89.1001C171.9 89.7001 171.4 90.0001 171 90.3001C170.6 90.5001 170.1 90.6001 169.5 90.6001C168.9 90.6001 168.3 90.5001 167.8 90.2001C167.3 89.9001 166.9 89.5001 166.6 89.0001C166.3 88.5001 166.2 87.8001 166.2 87.1001C166.2 86.4001 166.3 85.8001 166.6 85.2001C166.9 84.7001 167.3 84.3001 167.8 84.0001C168.3 83.7001 168.9 83.6001 169.5 83.6001C170.1 83.6001 170.5 83.6001 171 83.9001C171.4 84.1001 171.9 84.4001 172.3 84.9001L171.4 85.8001L171.2 85.7001Z" fill="white"/>
<path d="M176.1 83.5C177 83.5 177.7 83.7 178.2 84.1C178.7 84.5 178.9 85.1 178.9 85.8V90.3H177.6V89.5C177.4 89.8 177.1 90 176.7 90.2C176.3 90.4 175.9 90.5 175.4 90.5C174.9 90.5 174.1 90.3 173.7 90C173.3 89.7 173 89.2 173 88.6C173 88 173.3 87.4 173.8 87.1C174.3 86.8 175.1 86.5 176 86.3L177.5 86V85.8C177.5 85.4 177.4 85.2 177.1 85C176.9 84.8 176.5 84.7 176.1 84.7C175.7 84.7 175.3 84.7 175 85C174.7 85.2 174.4 85.4 174 85.8L173.1 85C173.5 84.5 174 84.1 174.4 83.9C174.9 83.7 175.4 83.5 176 83.5H176.1ZM175.6 89.4C176.1 89.4 176.6 89.3 176.9 89C177.3 88.7 177.5 88.3 177.5 87.8V87.2L176.4 87.4C175.7 87.5 175.3 87.7 174.9 87.9C174.6 88.1 174.4 88.3 174.4 88.7C174.4 89.1 174.5 89.1 174.7 89.3C174.9 89.4 175.2 89.5 175.6 89.5V89.4Z" fill="white"/>
</g>
<defs>
<clipPath id="clip0_2009_24307">
<rect width="200" height="120" fill="white"/>
</clipPath>
</defs>
</svg>
