<svg width="165" height="85" viewBox="0 0 165 85" fill="none" xmlns="http://www.w3.org/2000/svg">
<path d="M147.159 63.5335L141.319 57.7007L135.479 63.5335L141.317 75.7272L147.159 63.5335Z" fill="#ED5338"/>
<path d="M141.319 24.1562C139.077 24.1562 137.261 25.9737 137.261 28.2148C137.261 30.4559 139.079 32.272 141.319 32.272C143.56 32.272 145.377 30.4545 145.377 28.2148C145.377 25.9737 143.56 24.1562 141.319 24.1562Z" fill="#C59368"/>
<path d="M146.523 44.8948L141.319 39.6808L136.115 44.8948C135.848 44.1714 132.361 34.733 132.361 28.5755C132.361 20.2689 140.693 15.6152 141.319 15.2737C141.945 15.6152 150.277 20.2689 150.277 28.5755C150.277 34.733 146.789 44.1714 146.523 44.8948ZM141.319 5.94409C140.083 6.57685 123.926 15.1135 123.926 28.7553C123.926 40.4237 133.436 58.1199 133.436 58.1199L141.319 50.223L149.202 58.1199C149.202 58.1199 158.71 40.4237 158.71 28.7553C158.71 15.1149 142.554 6.57685 141.318 5.94409H141.319Z" fill="#C59368"/>
<path d="M158.712 11.8885L152.767 5.94427L158.712 0L164.655 5.94288V5.94427L158.712 11.8885Z" fill="#C59368"/>
<path d="M102.582 12.0339C102.582 13.2716 102.022 13.9921 101.05 13.9921C100.079 13.9921 99.5198 13.2298 99.5198 12.0339H94.4883C94.6291 15.7204 96.7602 18.2082 101.127 18.2082C105.155 18.2082 107.454 15.6521 107.611 12.0339H102.582Z" fill="white"/>
<path d="M91.9407 36.8834L91.9435 19.5593H97.7568C97.7568 19.5593 97.754 27.0339 97.754 27.6249C97.754 28.2144 97.63 28.8862 97.63 28.8862H97.8809L104.209 19.5593H109.77V36.8834H103.956V28.7426C103.956 28.1614 104.083 27.6095 104.083 27.6095H103.831L97.5032 36.8834H91.9407Z" fill="white"/>
<path d="M79.9476 31.9404C82.0549 31.9404 83.4598 30.3 83.4598 28.2457C83.4598 26.1383 82.0549 24.5007 79.9476 24.5007C77.8932 24.5007 76.4367 26.1397 76.4367 28.2457C76.4367 30.3 77.8932 31.9404 79.9476 31.9404ZM79.9476 19.1167C85.4641 19.1167 89.5784 23.0164 89.5784 28.2457C89.5784 33.4234 85.4655 37.3258 79.9476 37.3258C74.4854 37.3258 70.3696 33.4234 70.3696 28.2457C70.3696 23.0164 74.4854 19.1167 79.9476 19.1167Z" fill="white"/>
<path d="M63.4061 19.5557C63.4061 19.5557 58.5516 25.8665 58.3551 26.1048C58.1154 26.4003 58.0959 26.5592 58.0959 26.5592H57.8436C57.8436 26.5592 57.7962 26.3877 57.5676 26.1048C57.2262 25.6811 52.1961 19.5557 52.1961 19.5557H47.612V36.8784H53.2149V29.6059C53.2149 28.8212 53.0881 28.3445 53.0881 28.3445H53.3404L57.845 33.5195H58.0875L62.2618 28.3445H62.5127C62.5127 28.3445 62.3873 28.8156 62.3873 29.6059V36.8784H67.9916V19.5557H63.4047H63.4061Z" fill="white"/>
<path d="M9.60161 55.3344C5.72696 55.3344 3.5067 51.772 3.5067 47.7078C4.4224 45.3413 7.26985 43.4319 9.66991 43.4319C13.178 43.4319 15.415 45.6145 15.415 49.3469C15.415 52.8131 12.8853 55.3344 9.60161 55.3344ZM0.00278752 46.4382V46.4981C0.00975632 53.0751 3.29624 58.2612 9.59186 58.2612C15.3843 58.2612 18.905 53.7385 18.905 49.1936C18.905 43.9503 15.546 40.5413 10.4407 40.5413C7.50958 40.5413 4.44331 42.1691 3.32551 44.5984L3.16523 44.597C3.22655 44.3448 3.33248 44.0953 3.34921 43.8556C3.62099 40.1231 5.11092 37.1531 7.99879 36.1259C9.81486 35.4792 11.617 35.2186 12.9898 34.9273C14.4589 34.6151 15.9669 34.25 16.8519 33.9865L15.8735 31.0527C14.2637 31.4959 12.7654 31.8179 10.2441 32.3322C9.1793 32.5496 8.01551 32.7364 6.65381 33.3106C2.03628 35.2548 0.0069688 39.1336 0 46.4409L0.00278752 46.4382Z" fill="white"/>
<path d="M24.7684 52.7601C24.7684 52.7601 24.7029 52.7588 24.6095 52.7588C24.6848 52.4842 24.7684 52.0772 24.7684 51.6758V40.3503H21.3133V57.6731H24.413L34.3101 45.22H34.4718C34.3923 45.4918 34.3101 45.9504 34.3101 46.3476V57.6731H37.768V40.3503H34.6683L24.7698 52.7615L24.7684 52.7601Z" fill="white"/>
<path d="M50.917 48.7902V48.7136C52.9617 47.9819 53.9624 46.6327 53.9624 44.6271C53.9624 41.7351 51.6111 39.8745 47.4466 39.8745C45.0535 39.8745 42.5336 40.5393 40.4569 42.1282L41.8186 44.5853C43.3726 43.3644 45.3587 42.7581 46.9838 42.7581C49.2585 42.7581 50.4822 43.7003 50.4822 45.2418C50.4822 46.6299 49.4118 47.6069 47.6779 47.6069H44.9406V50.2996H47.8703C49.9916 50.2996 51.0508 51.0244 51.0508 52.4516C51.0508 54.1477 49.3435 55.3045 46.7567 55.3045C44.9336 55.3045 42.797 54.5199 41.4102 53.4021L40.0443 55.8969C41.551 57.2613 44.1489 58.2593 47.1762 58.2593C51.3379 58.2593 54.5213 56.0753 54.5213 52.8753C54.5213 50.754 53.2293 49.0578 50.9156 48.7888L50.917 48.7902Z" fill="white"/>
<path d="M69.681 47.4548H60.3846V40.3481H56.9294V57.6709H60.3846V50.1461H69.681V57.6709H73.1403V40.3481H69.681V47.4548Z" fill="white"/>
<path d="M79.1572 47.5473C79.5962 44.8644 81.5586 42.7822 84.1371 42.7822C87.2633 42.7822 88.7811 44.8825 89.0543 47.5473H79.1558H79.1572ZM83.9684 39.8762C78.8743 39.8762 75.5474 43.8804 75.5474 49.1585C75.5474 54.3696 78.8924 58.2596 84.9636 58.2596C87.8933 58.2596 90.3867 57.3606 92.1833 55.8972L90.8188 53.4024C89.4877 54.4003 87.4598 55.3299 85.0653 55.3299C81.2743 55.3299 79.4415 53.2686 79.1084 50.2414H79.1196H92.3589C92.3951 49.886 92.416 49.5278 92.416 49.1585C92.416 43.879 89.8654 39.8762 83.9684 39.8762Z" fill="white"/>
<path d="M104.313 55.2614C100.785 55.2614 98.1888 52.6105 98.1888 48.8474C98.1888 45.6335 100.26 42.8349 104.115 42.8349C105.867 42.8349 107.633 43.299 109.661 44.6035C109.661 44.6035 110.542 43.0188 111.066 42.0585C108.99 40.5868 106.593 39.8564 104.023 39.8564C98.4425 39.8564 94.6989 43.7742 94.6989 49.0523C94.6989 54.1952 98.4313 58.2593 104.08 58.2593C106.85 58.2593 109.266 57.4635 111.062 56.0001L109.696 53.5053C108.365 54.5032 106.44 55.26 104.313 55.26V55.2614Z" fill="white"/>
<path d="M46.1514 73.3801H45.6441L45.5103 72.1243H41.0475V65.3118H41.7848V71.4052H44.5862V65.3118H45.3249V71.4052H46.1514V73.3801ZM50.125 71.7355C49.9466 71.8916 49.7236 72.0142 49.4533 72.1048C49.1829 72.1954 48.8971 72.2414 48.5947 72.2414C48.2574 72.2414 47.9633 72.1815 47.7152 72.0616C47.4671 71.9418 47.2623 71.7703 47.102 71.5459C46.9417 71.3216 46.8232 71.0539 46.7466 70.7431C46.6699 70.431 46.6309 70.0811 46.6309 69.6923C46.6309 68.8616 46.7995 68.2289 47.1368 67.794C47.4755 67.3592 47.9577 67.1417 48.5863 67.1417C48.7884 67.1417 48.9891 67.1668 49.1912 67.2142C49.3933 67.263 49.5731 67.355 49.7334 67.4916C49.8937 67.6282 50.0233 67.8205 50.125 68.0714C50.2254 68.3208 50.277 68.6498 50.277 69.0595C50.277 69.2742 50.2588 69.5111 50.224 69.7703H47.3696C47.3696 70.056 47.3961 70.3083 47.4504 70.5299C47.5034 70.7501 47.587 70.9369 47.6985 71.0902C47.8114 71.2421 47.9577 71.3592 48.1389 71.44C48.3201 71.5209 48.5403 71.5613 48.801 71.5613C49.0031 71.5613 49.2038 71.5222 49.4059 71.4442C49.608 71.3661 49.7585 71.2756 49.8602 71.1724L50.1264 71.7369L50.125 71.7355ZM48.5961 67.8233C48.2463 67.8233 47.9661 67.9236 47.7557 68.1243C47.5452 68.325 47.4198 68.6693 47.3779 69.1557H49.5829C49.5829 68.6623 49.4965 68.3167 49.325 68.1187C49.1536 67.9208 48.9097 67.8219 48.5961 67.8219V67.8233ZM54.1168 69.9738H52.107V72.1243H51.3962V67.2574H52.107V69.2923H54.1168V67.2574H54.8276V72.1243H54.1168V69.9738ZM59.0326 67.939H57.6374V72.1243H56.9266V67.939H55.5314V67.2574H59.034V67.939H59.0326ZM59.735 67.2574H60.2242L60.358 67.8414H60.3943C60.5309 67.6142 60.7065 67.44 60.9225 67.3201C61.1385 67.2003 61.3866 67.1403 61.6654 67.1403C62.2577 67.1403 62.6995 67.3313 62.9895 67.7146C63.2794 68.0978 63.4243 68.7236 63.4243 69.5933C63.4243 70.0017 63.3755 70.3696 63.278 70.6986C63.179 71.0261 63.0424 71.3034 62.864 71.5306C62.6856 71.7578 62.471 71.9334 62.2187 72.056C61.9664 72.1787 61.6877 72.2414 61.3783 72.2414C61.1594 72.2414 60.9852 72.2275 60.8584 72.1982C60.7302 72.1689 60.5936 72.1188 60.4444 72.0477V74.0714H59.7336V67.2588L59.735 67.2574ZM61.5316 67.8219C61.2291 67.8219 60.9908 67.9083 60.8152 68.0797C60.641 68.2512 60.5169 68.5132 60.4472 68.863V71.2769C60.5532 71.3675 60.6758 71.4372 60.811 71.486C60.9476 71.5348 61.1288 71.5585 61.3532 71.5585C61.7615 71.5585 62.0863 71.3912 62.326 71.0567C62.5657 70.7222 62.6856 70.2316 62.6856 69.5822C62.6856 69.316 62.6647 69.0735 62.6229 68.8574C62.5811 68.64 62.5156 68.456 62.4236 68.3027C62.3316 68.1508 62.2131 68.0309 62.0682 67.9473C61.9232 67.8623 61.7434 67.8205 61.5302 67.8205L61.5316 67.8219ZM69.5945 67.939H67.6307V72.1243H66.9198V67.2574H70.3067V72.1243H69.5959V67.939H69.5945ZM71.4259 69.6909C71.4259 68.8672 71.5931 68.2358 71.9276 67.7982C72.2621 67.3606 72.7444 67.1417 73.3716 67.1417C73.7033 67.1417 73.9932 67.2017 74.2385 67.3215C74.4838 67.4414 74.6873 67.6128 74.8476 67.8372C75.0078 68.0616 75.1263 68.3306 75.203 68.6456C75.2796 68.9606 75.3186 69.309 75.3186 69.6923C75.3186 70.516 75.1514 71.1473 74.8155 71.585C74.481 72.0226 73.9988 72.2414 73.3716 72.2414C73.0398 72.2414 72.7499 72.1815 72.5046 72.0616C72.2593 71.9418 72.0559 71.7703 71.8956 71.5459C71.7353 71.3216 71.6168 71.0526 71.5402 70.7376C71.4635 70.4226 71.4245 70.0742 71.4245 69.6909H71.4259ZM72.1632 69.6909C72.1632 69.9376 72.1855 70.1745 72.2301 70.4017C72.2747 70.6289 72.3444 70.8268 72.4391 70.9954C72.5339 71.1641 72.658 71.3006 72.8127 71.4038C72.9674 71.5069 73.1541 71.5585 73.373 71.5585C74.1799 71.5655 74.5827 70.9425 74.5827 69.6895C74.5827 69.4372 74.5604 69.1961 74.5158 68.9689C74.4712 68.7417 74.4016 68.5438 74.3068 68.3752C74.212 68.2066 74.088 68.0714 73.9333 67.971C73.7799 67.8707 73.5918 67.8205 73.373 67.8205C72.5674 67.8135 72.1646 68.4365 72.1646 69.6895L72.1632 69.6909ZM80.3153 73.3606H79.8358L79.702 72.1243H76.3584L76.2246 73.3606H75.7437V71.4428H76.2692C76.3166 71.3717 76.3793 71.2435 76.456 71.0581C76.5326 70.8728 76.6093 70.6135 76.6831 70.279C76.757 69.9445 76.8225 69.5292 76.8783 69.033C76.934 68.5369 76.9689 67.9445 76.98 67.256H79.6644V71.4414H80.3139V73.3592L80.3153 73.3606ZM78.955 71.4428V67.939H77.6211C77.61 68.2121 77.5891 68.509 77.5598 68.8296C77.5305 69.1501 77.4901 69.4721 77.4399 69.7926C77.3898 70.1146 77.3257 70.417 77.249 70.7027C77.1723 70.9884 77.0831 71.2351 76.9814 71.4428H78.955ZM85.3914 73.3606H84.9119L84.7781 72.1243H81.4345L81.3007 73.3606H80.8198V71.4428H81.3453C81.3927 71.3717 81.454 71.2435 81.532 71.0581C81.6087 70.8728 81.6853 70.6135 81.7592 70.279C81.8331 69.9445 81.8986 69.5292 81.9543 69.033C82.0101 68.5369 82.0449 67.9445 82.0561 67.256H84.7405V71.4414H85.39V73.3592L85.3914 73.3606ZM84.031 71.4428V67.939H82.6972C82.6861 68.2121 82.6652 68.509 82.6359 68.8296C82.6066 69.1501 82.5662 69.4721 82.516 69.7926C82.4659 70.1146 82.4017 70.417 82.3251 70.7027C82.2484 70.9884 82.1592 71.2351 82.0575 71.4428H84.031ZM89.5169 71.7341C89.3385 71.8902 89.1155 72.0128 88.8451 72.1034C88.5747 72.194 88.289 72.24 87.9865 72.24C87.6479 72.24 87.3552 72.1801 87.1071 72.0602C86.8576 71.9404 86.6541 71.7689 86.4938 71.5445C86.3335 71.3202 86.2151 71.0526 86.1384 70.7418C86.0617 70.4296 86.0227 70.0797 86.0227 69.6909C86.0227 68.8602 86.1914 68.2275 86.5287 67.7926C86.8659 67.3578 87.3496 67.1403 87.9782 67.1403C88.1803 67.1403 88.381 67.1654 88.5831 67.2128C88.7852 67.2616 88.965 67.3536 89.1252 67.4902C89.2855 67.6268 89.4151 67.8191 89.5169 68.07C89.6172 68.3194 89.6674 68.6484 89.6674 69.0581C89.6674 69.2728 89.6493 69.5097 89.6144 69.7689H86.76C86.76 70.0546 86.7865 70.3069 86.8409 70.5285C86.8938 70.7487 86.9775 70.9355 87.089 71.0888C87.2018 71.2407 87.3482 71.3578 87.5294 71.4386C87.7106 71.5195 87.9308 71.5599 88.1914 71.5599C88.3935 71.5599 88.5942 71.5208 88.7963 71.4428C88.9984 71.3647 89.1489 71.2742 89.2507 71.171L89.5169 71.7355V71.7341ZM87.9879 67.8219C87.6381 67.8219 87.3579 67.9222 87.1475 68.1229C86.937 68.3236 86.8116 68.6679 86.7698 69.1543H88.9747C88.9747 68.6609 88.8883 68.3153 88.7169 68.1174C88.5454 67.9194 88.3015 67.8205 87.9879 67.8205V67.8219ZM90.788 67.2574H91.2772L91.411 67.8414H91.4472C91.5838 67.6142 91.7594 67.44 91.9755 67.3201C92.1915 67.2003 92.4396 67.1403 92.7183 67.1403C93.3107 67.1403 93.7525 67.3313 94.0424 67.7146C94.3323 68.0978 94.4773 68.7236 94.4773 69.5933C94.4773 70.0017 94.4285 70.3696 94.3309 70.6986C94.232 71.0261 94.0954 71.3034 93.917 71.5306C93.7386 71.7578 93.5239 71.9334 93.2717 72.056C93.0194 72.1787 92.7392 72.2414 92.4312 72.2414C92.2124 72.2414 92.0382 72.2275 91.9114 72.1982C91.7831 72.1689 91.6465 72.1188 91.4974 72.0477V74.0714H90.7866V67.2588L90.788 67.2574ZM92.5845 67.8219C92.2821 67.8219 92.0438 67.9083 91.8682 68.0797C91.6939 68.2512 91.5699 68.5132 91.5002 68.863V71.2769C91.6061 71.3675 91.7288 71.4372 91.864 71.486C92.0006 71.5348 92.1817 71.5585 92.4061 71.5585C92.8145 71.5585 93.1393 71.3912 93.379 71.0567C93.6187 70.7222 93.7386 70.2316 93.7386 69.5822C93.7386 69.316 93.7177 69.0735 93.6772 68.8574C93.6354 68.64 93.5685 68.456 93.4765 68.3027C93.3846 68.1508 93.2661 68.0309 93.1211 67.9473C92.9762 67.8623 92.7964 67.8205 92.5831 67.8205L92.5845 67.8219ZM96.9944 69.9724L95.6871 72.1229H94.8689L96.2738 69.8944L96.5763 69.6017L96.1233 69.2323L94.9679 67.256H95.7233L96.9512 69.3592H97.4139V67.256H98.1066V69.4553L98.5247 69.3188L99.761 67.2546H100.508L99.2997 69.2309L98.9526 69.5431L99.4056 69.932L100.721 72.1215H99.8767L98.5694 69.932H98.1066V72.1215H97.4139V69.8344L96.9958 69.971L96.9944 69.9724ZM102.525 69.9334H102.116V72.1229H101.406V67.256H102.116V69.4553L102.498 69.3188L103.921 67.2546H104.695L103.316 69.2114L102.943 69.532L103.406 69.9208L104.89 72.1202H104.009L102.525 69.9306V69.9334ZM108.429 69.2421L108.455 68.6386H108.429L108.064 69.2616L106.064 72.1229H105.655V67.256H106.366V70.2247L106.34 70.7989H106.376L106.723 70.1954L108.723 67.256H109.141V72.1229H108.43V69.2421H108.429Z" fill="white"/>
<path d="M24.4994 78.1485H22.4575V82.3338H21.7188V77.4669H25.2395V82.3338H24.4994V78.1485ZM26.6625 77.4669H27.1712L27.3092 78.0509H27.3468C27.489 77.8237 27.6716 77.6495 27.896 77.5297C28.1204 77.4098 28.3782 77.3499 28.6667 77.3499C29.2827 77.3499 29.7413 77.5408 30.0437 77.9241C30.3462 78.3073 30.4967 78.9331 30.4967 79.8028C30.4967 80.2112 30.4451 80.5791 30.3448 80.9081C30.243 81.2356 30.0995 81.5129 29.9155 81.7401C29.7301 81.9673 29.5071 82.1429 29.2451 82.2656C28.9831 82.3882 28.6918 82.4509 28.3712 82.4509C28.1427 82.4509 27.9629 82.437 27.8304 82.4077C27.698 82.3785 27.5545 82.3283 27.4012 82.2572V84.2809H26.6625V77.4683V77.4669ZM28.5287 78.0314C28.2151 78.0314 27.967 78.1178 27.7845 78.2892C27.6033 78.4607 27.475 78.7227 27.4012 79.0725V81.4865C27.5113 81.577 27.6381 81.6467 27.7789 81.6955C27.921 81.7443 28.1092 81.768 28.3434 81.768C28.7684 81.768 29.1057 81.6007 29.3552 81.2663C29.6047 80.9318 29.7301 80.4412 29.7301 79.7917C29.7301 79.5255 29.7092 79.283 29.666 79.0669C29.6228 78.8495 29.5531 78.6655 29.4584 78.5122C29.3622 78.3603 29.2395 78.2405 29.089 78.1568C28.9385 78.0718 28.7517 78.03 28.5301 78.03L28.5287 78.0314ZM35.0348 81.9436C34.8494 82.0997 34.6167 82.2224 34.3365 82.3129C34.0564 82.4035 33.7581 82.4495 33.4445 82.4495C33.0933 82.4495 32.7881 82.3896 32.5302 82.2697C32.2724 82.1499 32.0591 81.9785 31.8933 81.7541C31.726 81.5297 31.6034 81.2621 31.5239 80.9513C31.4431 80.6391 31.404 80.2892 31.404 79.9004C31.404 79.0697 31.5797 78.437 31.9309 78.0021C32.2821 77.5673 32.7839 77.3499 33.4375 77.3499C33.6466 77.3499 33.8557 77.3749 34.0661 77.4223C34.2752 77.4711 34.4634 77.5631 34.6292 77.6997C34.7951 77.8363 34.9303 78.0286 35.0362 78.2795C35.1407 78.529 35.1937 78.8579 35.1937 79.2676C35.1937 79.4823 35.1756 79.7192 35.1379 79.9784H32.172C32.172 80.2642 32.1999 80.5164 32.2556 80.738C32.3114 80.9582 32.3978 81.145 32.5149 81.2983C32.632 81.4502 32.7839 81.5673 32.972 81.6481C33.1602 81.729 33.3888 81.7694 33.6605 81.7694C33.8696 81.7694 34.0787 81.7304 34.2891 81.6523C34.4982 81.5743 34.6557 81.4837 34.7602 81.3805L35.0376 81.945L35.0348 81.9436ZM33.4459 78.0314C33.0821 78.0314 32.7908 78.1317 32.572 78.3324C32.3532 78.5331 32.2222 78.8774 32.179 79.3638H34.4703C34.4703 78.8704 34.3811 78.5248 34.2027 78.3269C34.0243 78.129 33.772 78.03 33.4445 78.03L33.4459 78.0314ZM40.2377 83.5701H39.7387L39.6007 82.3338H36.1261L35.9881 83.5701H35.4892V81.6523H36.0341C36.0829 81.5812 36.1484 81.453 36.2279 81.2676C36.3073 81.0823 36.3867 80.823 36.4634 80.4885C36.5401 80.1541 36.6083 79.7387 36.6669 79.2425C36.7254 78.7464 36.7617 78.154 36.7728 77.4655H39.5631V81.6509H40.2377V83.5687V83.5701ZM38.8244 81.6523V78.1485H37.439C37.4265 78.4216 37.4056 78.7185 37.3735 79.0391C37.3429 79.3596 37.301 79.6816 37.2481 80.0021C37.1965 80.3241 37.1296 80.6265 37.0502 80.9122C36.9707 81.198 36.8773 81.4446 36.7728 81.6523H38.8244ZM43.934 78.1485H41.8921V82.3338H41.1534V77.4669H44.674V82.3338H43.9353V78.1485H43.934ZM46.0957 77.4669H46.6044L46.7424 78.0509H46.78C46.9222 77.8237 47.1048 77.6495 47.3292 77.5297C47.5535 77.4098 47.8114 77.3499 48.0999 77.3499C48.7159 77.3499 49.1745 77.5408 49.4769 77.9241C49.7794 78.3073 49.9299 78.9331 49.9299 79.8028C49.9299 80.2112 49.8783 80.5791 49.778 80.9081C49.6762 81.2356 49.5327 81.5129 49.3487 81.7401C49.1633 81.9673 48.9403 82.1429 48.6783 82.2656C48.4163 82.3882 48.125 82.4509 47.8044 82.4509C47.5758 82.4509 47.3961 82.437 47.2636 82.4077C47.1312 82.3785 46.9891 82.3283 46.8344 82.2572V84.2809H46.0943V77.4683L46.0957 77.4669ZM47.9619 78.0314C47.6469 78.0314 47.4002 78.1178 47.2177 78.2892C47.0365 78.4607 46.9082 78.7227 46.8344 79.0725V81.4865C46.9445 81.577 47.0713 81.6467 47.2121 81.6955C47.3542 81.7443 47.5424 81.768 47.7765 81.768C48.2016 81.768 48.5389 81.6007 48.7884 81.2663C49.0379 80.9318 49.1633 80.4412 49.1633 79.7917C49.1633 79.5255 49.1424 79.283 49.0992 79.0669C49.056 78.8495 48.9863 78.6655 48.8916 78.5122C48.7954 78.3603 48.6727 78.2405 48.5222 78.1568C48.3717 78.0718 48.1849 78.03 47.9633 78.03L47.9619 78.0314ZM53.9774 79.453L54.0053 78.8495H53.9774L53.5983 79.4725L51.5188 82.3338H51.0937V77.4669H51.8324V80.4356L51.8045 81.0098H51.8421L52.2031 80.4063L54.2826 77.4669H54.7161V82.3338H53.9774V79.453ZM58.967 80.1833H56.8792V82.3338H56.1405V77.4669H56.8792V79.5018H58.967V77.4669H59.7057V82.3338H58.967V80.1833ZM64.0125 79.453L64.0403 78.8495H64.0125L63.6334 79.4725L61.5539 82.3338H61.1288V77.4669H61.8689V80.4356L61.841 81.0098H61.8786L62.2396 80.4063L64.3191 77.4669H64.7539V82.3338H64.0152V79.453H64.0125ZM69.9917 79.4432L70.0474 78.5192H70.0014L69.6683 79.269L68.5505 81.1771H68.2927L67.1275 79.269L66.8223 78.5192H66.786L66.8599 79.4335V82.3338H66.1756V77.4669H66.9059L68.1993 79.6481L68.4669 80.2126H68.485L68.7624 79.6286L69.9736 77.4669H70.7123V82.3338H69.9917V79.4432ZM72.0614 77.8279C72.2956 77.6788 72.5688 77.5687 72.8796 77.4962C73.1904 77.4251 73.5151 77.3889 73.8538 77.3889C74.1744 77.3889 74.4322 77.4335 74.6245 77.5255C74.8197 77.6161 74.9674 77.7345 75.0678 77.8809C75.1695 78.0272 75.2378 78.1875 75.2712 78.3631C75.3047 78.5387 75.3228 78.7129 75.3228 78.8885C75.3228 79.2774 75.3131 79.6565 75.2949 80.0272C75.2768 80.3966 75.2671 80.7478 75.2671 81.0781C75.2671 81.3178 75.2768 81.545 75.2949 81.7596C75.3131 81.9743 75.3465 82.1708 75.3967 82.3534H74.8517L74.658 81.6718H74.612C74.5576 81.7624 74.488 81.8516 74.4043 81.9394C74.3221 82.0272 74.2217 82.1053 74.1047 82.1736C73.9876 82.2419 73.8524 82.299 73.6977 82.3436C73.543 82.3882 73.3688 82.4119 73.1709 82.4119C72.9729 82.4119 72.7904 82.3798 72.6203 82.3143C72.4517 82.2488 72.3053 82.1568 72.1813 82.037C72.0586 81.9171 71.9611 81.7722 71.89 81.6035C71.8189 81.4349 71.7841 81.2426 71.7841 81.0293C71.7841 80.7436 71.8398 80.5053 71.9499 80.3143C72.0614 80.1234 72.2161 79.9701 72.4168 79.8572C72.6175 79.7429 72.8573 79.6621 73.1374 79.6133C73.4175 79.5645 73.727 79.5408 74.0657 79.5408C74.1521 79.5408 74.2371 79.5408 74.3193 79.5408C74.4016 79.5408 74.4866 79.5478 74.573 79.5603C74.5911 79.3652 74.6008 79.191 74.6008 79.0349C74.6008 78.6781 74.5326 78.4286 74.3974 78.2851C74.2622 78.1429 74.0155 78.0704 73.6587 78.0704C73.5541 78.0704 73.4412 78.0788 73.3214 78.0941C73.2015 78.1122 73.0789 78.1345 72.952 78.1652C72.8252 78.1945 72.7053 78.2321 72.591 78.2753C72.4768 78.3171 72.3764 78.3659 72.2914 78.4202L72.06 77.8265L72.0614 77.8279ZM73.3729 81.7304C73.5458 81.7304 73.6991 81.7053 73.8343 81.6579C73.9695 81.6091 74.0866 81.5478 74.1855 81.4725C74.2845 81.3973 74.3653 81.315 74.4308 81.2244C74.4949 81.1338 74.5423 81.046 74.5744 80.961V80.1527C74.488 80.1457 74.4002 80.1415 74.311 80.1373C74.2218 80.1345 74.1339 80.1318 74.0475 80.1318C73.8566 80.1318 73.6698 80.1429 73.4886 80.1666C73.3074 80.1889 73.1472 80.2321 73.0078 80.2934C72.8698 80.3547 72.7583 80.4398 72.6747 80.5471C72.591 80.6544 72.5492 80.7882 72.5492 80.9513C72.5492 81.1784 72.6259 81.3652 72.7806 81.5116C72.9339 81.6579 73.1318 81.7304 73.3716 81.7304H73.3729ZM79.6658 78.1485H78.2149V82.3338H77.4762V78.1485H76.0253V77.4669H79.6658V78.1485ZM83.6213 81.945C83.4359 82.1011 83.2045 82.2237 82.923 82.3143C82.6428 82.4049 82.346 82.4509 82.031 82.4509C81.6798 82.4509 81.3745 82.391 81.1167 82.2711C80.8574 82.1513 80.6456 81.9798 80.4783 81.7555C80.3125 81.5311 80.1884 81.2635 80.109 80.9527C80.0295 80.6405 79.9891 80.2906 79.9891 79.9018C79.9891 79.0711 80.1647 78.4384 80.516 78.0035C80.8672 77.5687 81.3689 77.3512 82.0226 77.3512C82.2317 77.3512 82.4408 77.3763 82.6512 77.4237C82.8603 77.4725 83.0484 77.5645 83.2143 77.7011C83.3801 77.8377 83.5153 78.03 83.6213 78.2809C83.7258 78.5303 83.7788 78.8593 83.7788 79.269C83.7788 79.4837 83.7606 79.7206 83.723 79.9798H80.7571C80.7571 80.2655 80.785 80.5178 80.8407 80.7394C80.8965 80.9596 80.9829 81.1464 81.0986 81.2997C81.2156 81.4516 81.3676 81.5687 81.5557 81.6495C81.7439 81.7304 81.9738 81.7708 82.2442 81.7708C82.4533 81.7708 82.6624 81.7318 82.8728 81.6537C83.0833 81.5757 83.2394 81.4851 83.3439 81.3819L83.6213 81.9464V81.945ZM82.0324 78.0328C81.6686 78.0328 81.3773 78.1331 81.1585 78.3338C80.9397 78.5345 80.8087 78.8788 80.7655 79.3652H83.0568C83.0568 78.8718 82.9676 78.5262 82.7892 78.3283C82.6108 78.1303 82.3571 78.0314 82.031 78.0314L82.0324 78.0328ZM87.2255 78.1499H85.8861C85.868 78.423 85.8499 78.7157 85.8304 79.0307C85.8123 79.3457 85.7844 79.6593 85.7467 79.9743C85.7105 80.2892 85.6603 80.5903 85.599 80.8788C85.5377 81.1673 85.4582 81.4224 85.3635 81.6426C85.2687 81.8628 85.1516 82.0398 85.0122 82.1736C84.8743 82.306 84.7084 82.3729 84.5175 82.3729C84.4004 82.3729 84.2986 82.3673 84.2122 82.3534C84.1258 82.3408 84.0492 82.3171 83.9809 82.2851L84.091 81.6328C84.1648 81.6593 84.2457 81.6718 84.3321 81.6718C84.4547 81.6718 84.5662 81.6175 84.6652 81.506C84.7642 81.3959 84.8506 81.1868 84.923 80.8774C84.9969 80.5694 85.0582 80.1429 85.1084 79.5979C85.1572 79.053 85.192 78.3422 85.2102 77.4669H87.9642V82.3338H87.2255V78.1485V78.1499ZM90.1273 81.6537C90.3559 81.6927 90.5747 81.7122 90.7838 81.7122C91.1713 81.7122 91.4584 81.6328 91.6424 81.4739C91.8277 81.315 91.9197 81.0892 91.9197 80.798C91.9197 80.5387 91.8305 80.3241 91.6521 80.1554C91.4737 79.9868 91.1936 79.9018 90.8117 79.9018C90.7071 79.9018 90.5929 79.9046 90.4702 79.9115C90.3476 79.9185 90.2333 79.938 90.1287 79.9701V81.6537H90.1273ZM90.1273 79.3276C90.2751 79.3011 90.4172 79.283 90.5524 79.2746C90.6876 79.2648 90.8173 79.2593 90.9399 79.2593C91.2605 79.2593 91.5309 79.2969 91.7539 79.3708C91.9755 79.446 92.1553 79.5478 92.2946 79.6774C92.434 79.807 92.533 79.9617 92.5957 80.1401C92.657 80.3185 92.6877 80.5081 92.6877 80.7102C92.6877 81.3011 92.519 81.729 92.1845 81.9952C91.8486 82.2614 91.326 82.3938 90.6179 82.3938C90.2235 82.3938 89.8137 82.3743 89.3886 82.3352V77.4683H90.1273V79.3276ZM96.7254 82.0133C96.54 82.1555 96.3212 82.2656 96.0689 82.3394C95.8167 82.4147 95.5518 82.4509 95.2745 82.4509C94.9177 82.4509 94.6166 82.391 94.3699 82.2711C94.1233 82.1513 93.9212 81.9798 93.7651 81.7555C93.6076 81.5311 93.4933 81.2621 93.4236 80.9471C93.3525 80.6321 93.3177 80.2837 93.3177 79.9004C93.3177 79.0767 93.4891 78.4453 93.8347 78.0077C94.1804 77.5701 94.6766 77.3512 95.3233 77.3512C95.6188 77.3512 95.8696 77.3763 96.0759 77.4237C96.2822 77.4725 96.4689 77.5422 96.6348 77.6328L96.423 78.3046C96.2808 78.2209 96.1247 78.154 95.9519 78.1053C95.779 78.0565 95.5951 78.0328 95.3971 78.0328C94.5219 78.0328 94.0842 78.6558 94.0842 79.9018C94.0842 80.1485 94.1079 80.384 94.1539 80.607C94.1999 80.8314 94.2766 81.0279 94.3853 81.2007C94.4926 81.3722 94.6348 81.5102 94.8104 81.6147C94.986 81.7178 95.2034 81.7694 95.4613 81.7694C95.6829 81.7694 95.8822 81.7345 96.0564 81.6621C96.232 81.591 96.3756 81.5102 96.4857 81.4182L96.7268 82.0119L96.7254 82.0133ZM100.542 78.1499H99.0906V82.3352H98.3519V78.1499H96.901V77.4683H100.542V78.1499ZM101.272 77.4781C101.488 77.4655 101.714 77.4488 101.951 77.4293C102.188 77.4098 102.482 77.4 102.833 77.4C103.443 77.4 103.881 77.499 104.144 77.6969C104.409 77.8948 104.542 78.1945 104.542 78.5972C104.542 78.8244 104.479 79.046 104.352 79.2635C104.227 79.4809 104.018 79.6412 103.729 79.7443V79.7833C104.093 79.8544 104.348 79.9882 104.496 80.1819C104.643 80.377 104.717 80.6363 104.717 80.9596C104.717 81.4656 104.544 81.8321 104.2 82.0593C103.856 82.2865 103.337 82.3994 102.647 82.3994C102.388 82.3994 102.149 82.391 101.927 82.3743C101.705 82.3589 101.486 82.3408 101.27 82.3213V77.4739L101.272 77.4781ZM102.011 81.683C102.128 81.6955 102.243 81.7053 102.358 81.7122C102.472 81.7192 102.606 81.722 102.759 81.722C103.172 81.722 103.478 81.6607 103.677 81.5366C103.878 81.4126 103.979 81.2021 103.979 80.9039C103.979 80.6697 103.894 80.4802 103.725 80.3352C103.555 80.1889 103.255 80.1164 102.823 80.1164H102.011V81.6844V81.683ZM102.916 79.5213C103.028 79.5213 103.135 79.5018 103.24 79.4628C103.344 79.4237 103.438 79.3708 103.521 79.3025C103.604 79.2342 103.672 79.1547 103.725 79.0642C103.776 78.9736 103.803 78.876 103.803 78.7729C103.803 78.5136 103.729 78.3338 103.581 78.2321C103.434 78.1317 103.174 78.0816 102.805 78.0816C102.607 78.0816 102.452 78.0844 102.338 78.0913C102.224 78.0983 102.115 78.1039 102.009 78.1108V79.5227H102.915L102.916 79.5213ZM105.809 77.8279C106.043 77.6788 106.316 77.5687 106.627 77.4962C106.937 77.4251 107.262 77.3889 107.601 77.3889C107.921 77.3889 108.179 77.4335 108.372 77.5255C108.567 77.6161 108.715 77.7345 108.815 77.8809C108.917 78.0272 108.985 78.1875 109.018 78.3631C109.052 78.5387 109.07 78.7129 109.07 78.8885C109.07 79.2774 109.06 79.6565 109.042 80.0272C109.024 80.3966 109.014 80.7478 109.014 81.0781C109.014 81.3178 109.024 81.545 109.042 81.7596C109.06 81.9743 109.094 82.1708 109.144 82.3534H108.599L108.405 81.6718H108.359C108.305 81.7624 108.235 81.8516 108.151 81.9394C108.069 82.0272 107.969 82.1053 107.852 82.1736C107.735 82.2419 107.6 82.299 107.445 82.3436C107.29 82.3882 107.116 82.4119 106.918 82.4119C106.72 82.4119 106.537 82.3798 106.367 82.3143C106.199 82.2488 106.052 82.1568 105.928 82.037C105.806 81.9171 105.708 81.7722 105.637 81.6035C105.566 81.4349 105.531 81.2426 105.531 81.0293C105.531 80.7436 105.587 80.5053 105.697 80.3143C105.809 80.1234 105.963 79.9701 106.164 79.8572C106.365 79.7429 106.604 79.6621 106.885 79.6133C107.165 79.5645 107.474 79.5408 107.813 79.5408C107.899 79.5408 107.984 79.5408 108.066 79.5408C108.149 79.5408 108.234 79.5478 108.32 79.5603C108.338 79.3652 108.348 79.191 108.348 79.0349C108.348 78.6781 108.28 78.4286 108.144 78.2851C108.009 78.1429 107.763 78.0704 107.406 78.0704C107.301 78.0704 107.188 78.0788 107.068 78.0941C106.949 78.1122 106.826 78.1345 106.699 78.1652C106.572 78.1945 106.452 78.2321 106.338 78.2753C106.224 78.3171 106.124 78.3659 106.038 78.4202L105.807 77.8265L105.809 77.8279ZM107.12 81.7304C107.293 81.7304 107.446 81.7053 107.581 81.6579C107.717 81.6091 107.834 81.5478 107.933 81.4725C108.032 81.3973 108.112 81.315 108.178 81.2244C108.242 81.1338 108.289 81.046 108.321 80.961V80.1527C108.235 80.1457 108.147 80.1415 108.058 80.1373C107.969 80.1345 107.881 80.1318 107.795 80.1318C107.604 80.1318 107.417 80.1429 107.236 80.1666C107.055 80.1889 106.894 80.2321 106.755 80.2934C106.617 80.3547 106.505 80.4398 106.422 80.5471C106.338 80.6544 106.296 80.7882 106.296 80.9513C106.296 81.1784 106.373 81.3652 106.528 81.5116C106.681 81.6579 106.879 81.7304 107.119 81.7304H107.12Z" fill="white"/>
</svg>
