<svg width="448" height="146" viewBox="0 0 448 146" fill="none" xmlns="http://www.w3.org/2000/svg">
<path d="M143.263 101.372L143.207 77.8839L131.621 97.2332H127.516L115.989 78.3865V101.373H107.441V62.2266H114.977L129.711 86.5519L144.219 62.2266H151.697L151.811 101.373L143.263 101.372Z" fill="#064694"/>
<path d="M183.525 74.1667C186.039 76.384 187.293 79.7307 187.293 84.204V101.372H179.084V97.6253C177.435 100.42 174.36 101.819 169.861 101.819C167.537 101.819 165.523 101.427 163.816 100.645C162.109 99.8613 160.807 98.7813 159.908 97.4027C159.009 96.0227 158.559 94.4573 158.559 92.704C158.559 89.908 159.617 87.708 161.736 86.1067C163.853 84.5027 167.123 83.7 171.549 83.7H178.523C178.523 81.8 177.941 80.3373 176.779 79.3107C175.616 78.2853 173.872 77.7733 171.549 77.7733C169.936 77.7733 168.352 78.0267 166.797 78.528C165.241 79.0307 163.92 79.712 162.832 80.568L159.684 74.4747C161.332 73.3187 163.309 72.424 165.616 71.7893C167.934 71.1534 170.327 70.8336 172.731 70.8387C177.416 70.8387 181.015 71.948 183.527 74.1667M176.047 94.9133C177.207 94.2226 178.033 93.208 178.523 91.864V88.7907H172.505C168.905 88.7907 167.105 89.9653 167.105 92.312C167.105 93.4293 167.545 94.316 168.428 94.9693C169.308 95.6227 170.517 95.948 172.055 95.948C173.555 95.948 174.885 95.6026 176.048 94.9133M198.035 100.897C195.635 100.281 193.723 99.508 192.297 98.5773L195.223 92.3133C196.572 93.1707 198.203 93.8707 200.116 94.4107C202.027 94.9507 203.901 95.22 205.739 95.22C209.451 95.22 211.307 94.308 211.307 92.4813C211.307 91.6226 210.8 91.008 209.787 90.636C208.773 90.2613 207.219 89.9453 205.12 89.684C202.645 89.3133 200.6 88.8827 198.989 88.3987C197.392 87.9231 195.947 87.0356 194.801 85.8253C193.62 84.5947 193.028 82.844 193.028 80.5693C193.028 78.668 193.581 76.9813 194.688 75.508C195.793 74.036 197.405 72.8907 199.524 72.068C201.641 71.2493 204.145 70.8387 207.031 70.8387C209.169 70.8387 211.296 71.072 213.415 71.5373C215.532 72.004 217.285 72.648 218.673 73.468L215.748 79.6747C213.085 78.184 210.181 77.4347 207.032 77.4347C205.156 77.4347 203.751 77.7 202.813 78.2213C201.876 78.744 201.408 79.4147 201.408 80.2347C201.408 81.1653 201.915 81.8187 202.927 82.1907C203.939 82.564 205.549 82.9187 207.764 83.2533C210.237 83.664 212.261 84.1027 213.836 84.5667C215.407 85.0322 216.825 85.9107 217.941 87.1107C219.101 88.3427 219.685 90.0573 219.685 92.2573C219.685 94.1213 219.123 95.78 217.997 97.2346C216.872 98.688 215.231 99.8147 213.077 100.617C210.921 101.417 208.363 101.82 205.4 101.82C202.889 101.82 200.433 101.512 198.035 100.897ZM238.072 89.5733L233.855 93.712V101.372H225.081V59.8787H233.855V83.3653L246.675 71.2854H257.136L244.54 84.0386L258.261 101.372H247.633L238.072 89.5733Z" fill="#064694"/>
<path d="M299.706 81.1826H308.027V97.0653C305.891 98.6693 303.417 99.8999 300.604 100.759C297.853 101.606 294.992 102.039 292.114 102.044C288.027 102.044 284.354 101.176 281.091 99.4426C277.83 97.7092 275.271 95.3053 273.415 92.2279C271.559 89.1546 270.631 85.6773 270.631 81.7999C270.631 77.9239 271.559 74.4452 273.415 71.3719C275.271 68.2946 277.848 65.8906 281.148 64.1559C284.446 62.4226 288.157 61.5559 292.283 61.5559C295.731 61.5559 298.861 62.1333 301.673 63.2893C304.484 64.4453 306.847 66.1226 308.759 68.3239L302.911 73.6919C300.099 70.7453 296.706 69.2719 292.732 69.2719C290.22 69.2719 287.988 69.7946 286.04 70.8386C284.13 71.845 282.549 73.3786 281.484 75.2572C280.398 77.1586 279.854 79.3373 279.854 81.7999C279.854 84.2226 280.398 86.3839 281.484 88.2866C282.547 90.1632 284.115 91.7035 286.011 92.7319C287.944 93.7946 290.144 94.3253 292.62 94.3253C295.243 94.3253 297.607 93.7679 299.706 92.6492V81.1826ZM328.468 71.9559C330.248 71.2119 332.302 70.8399 334.626 70.8399V78.8906C333.971 78.8345 333.315 78.7976 332.659 78.7799C330.145 78.7799 328.179 79.4799 326.753 80.8732C325.329 82.2732 324.616 84.3719 324.616 87.1666V101.373H315.843V71.2866H324.221V75.2572C325.272 73.8026 326.688 72.7039 328.468 71.9573M345.396 99.8346C342.866 98.5106 340.887 96.6746 339.463 94.3266C338.036 91.9772 337.325 89.3119 337.325 86.3293C337.325 83.3479 338.037 80.6826 339.463 78.3319C340.887 75.9839 342.866 74.1466 345.396 72.8226C347.926 71.5013 350.785 70.8386 353.972 70.8386C357.159 70.8386 360.01 71.5013 362.519 72.8226C365.031 74.1466 366.999 75.9839 368.424 78.3319C369.849 80.6826 370.561 83.3479 370.561 86.3293C370.561 89.3119 369.849 91.9772 368.424 94.3266C366.997 96.6746 365.031 98.5106 362.52 99.8346C360.009 101.159 357.159 101.819 353.972 101.819C350.785 101.819 347.926 101.159 345.396 99.8346ZM359.512 92.3972C360.952 90.8866 361.676 88.8639 361.676 86.3293C361.676 83.7946 360.954 81.7706 359.512 80.2599C358.068 78.7506 356.221 77.9973 353.972 77.9973C351.721 77.9973 349.865 78.7506 348.405 80.2599C346.943 81.7706 346.211 83.7946 346.211 86.3293C346.211 88.8639 346.943 90.8866 348.405 92.3972C349.867 93.9079 351.721 94.6612 353.972 94.6612C356.221 94.6612 358.068 93.9079 359.512 92.3972ZM406.889 71.2866V101.372H398.567V97.7932C397.419 99.087 395.998 100.109 394.405 100.784C392.792 101.476 391.05 101.819 389.175 101.819C385.2 101.819 382.051 100.681 379.728 98.4079C377.403 96.1346 376.241 92.7586 376.241 88.2866V71.2866H385.013V86.9986C385.013 91.8466 387.057 94.2706 391.143 94.2706C393.243 94.2706 394.928 93.5906 396.203 92.2292C397.477 90.8692 398.117 88.8452 398.117 86.1612V71.2866H406.889ZM440.601 72.7679C442.907 74.0546 444.715 75.8639 446.028 78.1919C447.341 80.5226 447.996 83.2359 447.996 86.3293C447.996 89.4253 447.341 92.1359 446.028 94.4666C444.715 96.7972 442.907 98.6039 440.601 99.8906C438.295 101.177 435.739 101.821 432.925 101.821C429.064 101.821 426.027 100.608 423.816 98.1839V112.22H415.043V71.2866H423.421V74.7532C425.597 72.1453 428.765 70.8386 432.925 70.8386C435.739 70.8386 438.296 71.4826 440.601 72.7679ZM436.945 92.3946C438.389 90.8866 439.112 88.8652 439.112 86.3279C439.112 83.7946 438.389 81.7719 436.945 80.2613C435.504 78.7519 433.657 77.9973 431.407 77.9973C429.159 77.9973 427.311 78.7519 425.868 80.2626C424.425 81.7719 423.704 83.7959 423.704 86.3293C423.704 88.8653 424.424 90.8866 425.868 92.3959C427.311 93.9066 429.159 94.6626 431.407 94.6626C433.657 94.6626 435.504 93.9053 436.945 92.3946Z" fill="#231F20"/>
<path d="M0.0240072 112.863L9.89467 120.249V70.004L0.0240072 62.5773V112.863ZM86.3253 0L43.1466 32.508L0 0.00134277V49.8786L9.89333 57.324V26.2187L43.1626 51.2773L76.4466 26.2187V57.3253L86.3253 49.916V0Z" fill="#064694"/>
<path d="M66.5773 64.76V46.5293L43.1453 64.1106L19.7773 46.5293V64.7613L43.1747 82.2413L66.5773 64.76Z" fill="#064694"/>
<path d="M76.4453 70.004V94.356L66.6413 101.743V77.3694L43.1747 94.9694L19.7773 77.4227V127.677L43.1747 145.267L86.3253 112.863V62.5774L76.4453 70.004Z" fill="#064694"/>
</svg>
