<svg width="154" height="85" viewBox="0 0 154 85" fill="none" xmlns="http://www.w3.org/2000/svg">
<g clip-path="url(#clip0_2001_91)">
<path d="M75.0941 0.00292969C58.0803 0.00292969 44.2424 13.8373 44.2424 30.8388C44.2424 47.8403 58.0835 61.6779 75.0941 61.6779C92.1048 61.6779 105.946 47.8435 105.946 30.8388C105.946 13.8341 92.1048 0.00292969 75.0941 0.00292969ZM70.8351 52.747C60.5501 50.7524 52.7573 41.6941 52.7573 30.8388C52.7573 19.9835 60.5501 10.9252 70.8351 8.93061V52.747ZM79.35 52.747V8.93061C89.635 10.9252 97.4278 19.9867 97.4278 30.8388C97.4278 41.6909 89.635 50.7524 79.35 52.747Z" fill="#80CFD4"/>
<path d="M149.735 13.5157C150.872 10.0205 151.46 6.13972 151.46 1.96582H142.942C142.942 11.2918 139.494 22.2682 123.813 23.9409C123.567 18.534 122.1 9.50114 116.368 1.96582H105.185L107.742 4.6454C116.554 13.452 115.276 27.8567 115.266 27.9842L114.784 32.6742H119.503C130.43 32.6742 138.769 29.4689 144.325 23.1667C147.389 34.0953 143.718 43.0102 137.823 47.5601C130.66 53.0913 121.145 52.2501 113.582 45.4253L108.738 52.5019C113.972 56.9307 119.96 59.4095 126.12 59.6899C126.5 59.7058 126.88 59.7154 127.26 59.7154C132.919 59.7154 138.478 57.8132 143.031 54.2989C152.716 46.8209 158.39 31.4061 149.735 13.5157Z" fill="#80CFD4"/>
<path d="M5.84701 75.6651C5.47318 76.2354 5.10255 76.8025 4.73512 77.3729L3.30053 79.565H3.07687V73.8362H0V84.7744H2.63275C2.9906 84.2327 3.35804 83.6751 3.73186 83.1048C4.10569 82.5345 4.51466 81.9164 4.95878 81.2441L6.41574 79.0329H6.62342V84.7712H9.70028V73.833H7.03558C6.61703 74.483 6.22083 75.0916 5.84701 75.6619V75.6651Z" fill="#80CFD4"/>
<path d="M25.8834 81.2443L25.4009 77.5388C25.3147 76.8633 25.2316 76.2293 25.1549 75.6366C25.0782 75.044 24.9984 74.4418 24.9185 73.8364H21.7713C21.5732 74.4036 21.3879 74.9229 21.2218 75.3945C21.0556 75.866 20.8863 76.3408 20.7106 76.8219L19.7041 79.6544H19.506L18.4325 76.8155C18.2535 76.3408 18.0746 75.8597 17.8925 75.3785C17.7104 74.8974 17.5187 74.3813 17.3142 73.8428H14.1223C14.0392 74.4545 13.9625 75.0599 13.8922 75.6557C13.8219 76.2516 13.7453 76.8792 13.6622 77.5388L13.1925 81.2379C13.1094 81.9038 13.036 82.5188 12.9657 83.0923C12.8954 83.6626 12.8251 84.2266 12.7548 84.7842H15.6783C15.7614 84.1342 15.838 83.5129 15.9083 82.9202C15.9786 82.3276 16.0457 81.77 16.1096 81.2475L16.378 79.0618H16.5857L17.4292 81.4323C17.5666 81.8051 17.704 82.1874 17.8414 82.5729C17.9756 82.9585 18.1098 83.3408 18.2439 83.7136C18.3781 84.0896 18.5059 84.4464 18.6274 84.7842H20.7074C20.8607 84.2744 21.0237 83.7327 21.1962 83.1656C21.3687 82.5984 21.5413 82.0185 21.7138 81.4323L22.4199 79.0618H22.6276L22.9024 81.273C22.9631 81.7891 23.0302 82.3403 23.1069 82.9234C23.1804 83.5097 23.257 84.131 23.3337 84.7842H26.3435C26.27 84.217 26.1997 83.6531 26.123 83.0923C26.0495 82.5315 25.9697 81.9198 25.8898 81.2539L25.8834 81.2443Z" fill="#80CFD4"/>
<path d="M33.8711 82.2477H32.4813V80.422H36.7084V78.128H32.4813V76.3565H36.916V73.833H29.3788V84.7712H36.9991V82.2477H33.8679H33.8711Z" fill="#80CFD4"/>
<path d="M46.6738 75.5729V77.9721H43.2647V73.8364H40.0951V84.7746H43.2647V80.5879H46.6738V84.7746H49.8434V73.8364H46.6738V75.5729Z" fill="#80CFD4"/>
<path d="M58.9813 75.6651C58.6075 76.2354 58.2369 76.8025 57.8694 77.3729L56.4348 79.565H56.2112V73.8362H53.1343V84.7744H55.767C56.1249 84.2327 56.4923 83.6751 56.863 83.1048C57.2368 82.5345 57.6458 81.9164 58.0899 81.2441L59.5468 79.0329H59.7545V84.7712H62.8314V73.833H60.1667C59.7481 74.483 59.3519 75.0916 58.9781 75.6619L58.9813 75.6651Z" fill="#80CFD4"/>
<path d="M76.4233 75.6651C76.0495 76.2354 75.6788 76.8025 75.3114 77.3729L73.8768 79.565H73.6531V73.8362H70.5763V84.7744H73.209C73.5669 84.2327 73.9343 83.6751 74.3081 83.1048C74.682 82.5345 75.0909 81.9164 75.5351 81.2441L76.992 79.0329H77.1997V84.7712H80.2766V73.833H77.6119C77.1933 74.483 76.7971 75.0916 76.4233 75.6619V75.6651Z" fill="#80CFD4"/>
<path d="M85.7402 82.0086C85.4941 81.8716 85.2002 81.8047 84.8583 81.8047C84.3407 81.8047 83.9349 81.9544 83.6378 82.2539C83.3406 82.5534 83.1937 82.9294 83.1937 83.385C83.1937 83.6877 83.2608 83.9585 83.395 84.2039C83.526 84.446 83.7177 84.6404 83.9637 84.7838C84.2097 84.9271 84.5037 85.0004 84.8455 85.0004C85.3727 85.0004 85.7817 84.8443 86.0756 84.5321C86.3696 84.2198 86.5166 83.8375 86.5166 83.3882C86.5166 83.0823 86.4495 82.8083 86.3121 82.5726C86.1779 82.3336 85.9862 82.1488 85.7402 82.0118V82.0086Z" fill="#80CFD4"/>
<path d="M102.08 82.1428C101.773 81.6521 101.486 81.1965 101.214 80.7759L99.9743 78.8037L101.109 77.2329C101.524 76.6594 101.933 76.0922 102.342 75.5347C102.748 74.9739 103.163 74.4068 103.582 73.8364H99.9903C99.6771 74.3367 99.4024 74.7732 99.1659 75.1491C98.9295 75.5219 98.6899 75.8947 98.447 76.2707L97.4406 77.851H97.0252V73.8396H93.8717V84.7778H97.0252V80.3076H97.4853L98.5748 82.2639C98.7889 82.6622 99.0094 83.0668 99.2394 83.4778C99.4663 83.8888 99.7059 84.3222 99.9583 84.781H103.735C103.524 84.4369 103.275 84.0354 102.984 83.5766C102.693 83.1178 102.393 82.643 102.086 82.1492L102.08 82.1428Z" fill="#80CFD4"/>
<path d="M115.362 81.0754L114.212 77.3189C114.007 76.6594 113.822 76.0572 113.656 75.5155C113.489 74.9739 113.317 74.4131 113.138 73.8364H109.093C108.924 74.3876 108.754 74.9357 108.585 75.4773C108.416 76.019 108.227 76.6339 108.016 77.3189L106.86 81.0754C106.674 81.6553 106.483 82.2671 106.285 82.9202C106.086 83.5702 105.895 84.1915 105.716 84.7714H108.879C109.016 84.2298 109.16 83.6658 109.307 83.0764C109.336 82.9617 109.361 82.8597 109.39 82.745H112.742C112.771 82.8629 112.796 82.9648 112.828 83.0827C112.969 83.6594 113.106 84.2234 113.24 84.7714H116.509C116.33 84.1883 116.141 83.5766 115.947 82.9393C115.748 82.2989 115.557 81.6776 115.368 81.0754H115.362ZM111.195 76.4714L112.16 80.4063H109.978L110.975 76.4714H111.199H111.195Z" fill="#80CFD4"/>
<path d="M125.73 75.5729V77.9721H122.324V73.8364H119.154V84.7746H122.324V80.5879H125.73V84.7746H128.899V73.8364H125.73V75.5729Z" fill="#80CFD4"/>
<path d="M131.654 76.5734H134.702V84.7746H137.855V76.5734H140.903V73.8364H131.657V76.5734H131.654Z" fill="#80CFD4"/>
<path d="M151.415 81.0754L150.265 77.3189C150.06 76.6594 149.875 76.0572 149.709 75.5155C149.543 74.9739 149.37 74.4131 149.191 73.8364H145.146C144.977 74.3876 144.808 74.9357 144.638 75.4773C144.469 76.019 144.281 76.6339 144.07 77.3189L142.91 81.0754C142.725 81.6553 142.533 82.2671 142.335 82.9202C142.133 83.5702 141.945 84.1915 141.766 84.7714H144.929C145.067 84.2298 145.21 83.6658 145.357 83.0764C145.386 82.9617 145.412 82.8597 145.44 82.745H148.792C148.821 82.8629 148.846 82.9648 148.875 83.0827C149.016 83.6594 149.153 84.2234 149.287 84.7714H152.556C152.377 84.1883 152.188 83.5766 151.993 82.9393C151.795 82.2989 151.604 81.6776 151.412 81.0754H151.415ZM147.249 76.4714L148.214 80.4063H146.031L147.025 76.4714H147.249Z" fill="#80CFD4"/>
<path d="M8.51491 20.4103V10.7657H29.4811V2.24902H0V59.4314H38.8107L38.9513 55.3213C39.3156 44.8387 35.654 35.1209 28.9092 28.6593C23.535 23.5104 16.5506 20.7002 8.51491 20.4071V20.4103ZM8.51491 50.9211V28.9333C14.3076 29.2201 19.2664 31.2178 23.0174 34.8086C27.1519 38.769 29.7175 44.4946 30.3214 50.9211H8.51491Z" fill="#80CFD4"/>
</g>
<defs>
<clipPath id="clip0_2001_91">
<rect width="154" height="85" fill="white"/>
</clipPath>
</defs>
</svg>
