<svg width="1580" height="568" viewBox="0 0 1580 568" fill="none" xmlns="http://www.w3.org/2000/svg">
<path d="M1579.64 0.773926H0.751953V567.704H1579.64V0.773926Z" fill="#FBBA00"/>
<path d="M527.69 239.349H498.734L483.991 308.913C483.464 311.3 483.414 313.563 483.892 315.694C484.342 317.805 485.196 319.667 486.428 321.2C487.683 322.753 489.267 323.983 491.199 324.917C493.135 325.843 495.294 326.294 497.678 326.294H555.643C558.031 326.294 560.391 325.843 562.7 324.917C565.038 323.983 567.121 322.731 569.032 321.2C570.912 319.639 572.546 317.805 573.905 315.694C575.258 313.563 576.188 311.299 576.74 308.913L582.868 279.933C583.422 277.55 583.446 275.287 582.995 273.154C582.544 271.043 581.688 269.183 580.432 267.654C579.2 266.095 577.618 264.865 575.686 263.937C573.752 263.007 571.592 262.554 569.205 262.554H528.621L524.929 279.933H548.109C549.72 279.933 550.973 280.486 551.879 281.617C552.76 282.746 553.01 284.101 552.635 285.736L549.04 303.115C548.639 304.746 547.785 306.101 546.426 307.232C545.072 308.363 543.59 308.914 541.956 308.914H518.778C517.144 308.914 515.888 308.363 515.01 307.232C514.13 306.101 513.878 304.746 514.254 303.115L527.69 239.349ZM648.366 326.294H677.345L687.196 279.933C687.75 277.55 687.774 275.287 687.321 273.154C686.871 271.043 686.013 269.183 684.76 267.654C683.528 266.095 681.946 264.865 680.014 263.937C678.078 263.007 675.917 262.554 673.533 262.554H615.568C613.18 262.554 610.822 263.007 608.513 263.937C606.175 264.865 604.067 266.119 602.181 267.654C600.297 269.209 598.665 271.043 597.31 273.154C595.953 275.287 595.023 277.55 594.471 279.933L588.318 308.913C587.792 311.3 587.742 313.563 588.218 315.694C588.669 317.805 589.525 319.639 590.755 321.2C592.011 322.731 593.593 323.983 595.528 324.917C597.46 325.843 599.618 326.294 602.006 326.294H642.565L646.285 308.913H623.105C621.468 308.913 620.215 308.362 619.335 307.231C618.456 306.1 618.206 304.745 618.581 303.114L622.174 285.735C622.573 284.1 623.429 282.745 624.784 281.616C626.141 280.485 627.623 279.932 629.253 279.932H652.438C654.042 279.932 655.298 280.485 656.206 281.616C657.084 282.745 657.336 284.1 656.957 285.735L648.366 326.294ZM688.952 326.294H717.935L736.344 239.349H707.385L688.952 326.294ZM806.817 262.554H772.055L776.905 239.349H747.947L733.206 308.913C732.677 311.3 732.627 313.563 733.102 315.694C733.556 317.805 734.414 319.667 735.641 321.2C736.894 322.753 738.481 323.983 740.412 324.917C742.348 325.843 744.504 326.294 746.89 326.294H793.254L796.968 308.913H767.989C766.357 308.913 765.103 308.362 764.221 307.231C763.342 306.1 763.088 304.745 763.467 303.114L768.342 279.932H803.129L806.817 262.554ZM868.598 326.294H897.577L906.166 285.735C906.549 284.1 907.428 282.745 908.755 281.616C910.112 280.485 911.624 279.932 913.231 279.932H936.412C938.044 279.932 939.297 280.485 940.176 281.616C941.078 282.745 941.332 284.1 940.925 285.735L932.365 326.294H961.344L971.194 279.933C971.722 277.55 971.773 275.287 971.29 273.154C970.845 271.043 969.991 269.209 968.759 267.654C967.531 266.119 965.949 264.865 964.014 263.937C962.082 263.007 959.916 262.554 957.502 262.554H906.846C904.914 262.554 903.062 262.855 901.221 263.433C899.419 264.011 897.662 264.788 895.951 265.792C894.793 264.788 893.411 264.011 891.779 263.433C890.176 262.855 888.416 262.554 886.58 262.554H835.801C833.415 262.554 831.051 263.007 828.74 263.937C826.409 264.865 824.298 266.119 822.412 267.654C820.526 269.209 818.898 271.043 817.537 273.154C816.18 275.287 815.256 277.55 814.702 279.933L804.86 326.294H833.836L842.407 285.735C842.806 284.1 843.66 282.745 845.013 281.616C846.37 280.485 847.857 279.932 849.484 279.932H872.669C874.275 279.932 875.529 280.485 876.433 281.616C877.311 282.745 877.565 284.1 877.19 285.735L868.598 326.294ZM976.617 308.913C976.093 311.3 976.043 313.563 976.513 315.694C976.971 317.805 977.825 319.667 979.057 321.2C980.31 322.753 981.892 323.983 983.824 324.917C985.756 325.843 987.925 326.294 990.302 326.294H1048.27C1050.65 326.294 1053.01 325.843 1055.33 324.917C1057.66 323.983 1059.75 322.731 1061.66 321.2C1063.53 319.639 1065.17 317.805 1066.53 315.694C1067.88 313.563 1068.82 311.299 1069.37 308.913L1075.49 279.933C1076.04 277.55 1076.07 275.287 1075.62 273.154C1075.17 271.043 1074.31 269.183 1073.06 267.654C1071.83 266.095 1070.25 264.865 1068.31 263.937C1066.38 263.007 1064.21 262.554 1061.84 262.554H1003.87C1001.48 262.554 999.124 263.007 996.813 263.937C994.473 264.865 992.367 266.119 990.481 267.654C988.594 269.209 986.962 271.043 985.606 273.154C984.256 275.287 983.32 277.55 982.77 279.933L976.617 308.913ZM1006.88 303.114L1010.48 285.735C1010.87 284.1 1011.73 282.745 1013.08 281.616C1014.44 280.485 1015.93 279.932 1017.55 279.932H1040.74C1042.34 279.932 1043.6 280.485 1044.51 281.616C1045.38 282.745 1045.64 284.1 1045.26 285.735L1041.66 303.114C1041.26 304.745 1040.41 306.1 1039.05 307.231C1037.69 308.362 1036.22 308.913 1034.59 308.913H1011.4C1009.77 308.913 1008.51 308.362 1007.64 307.231C1006.75 306.101 1006.5 304.745 1006.88 303.114ZM1154.56 262.554H1119.8L1124.64 239.349H1095.69L1080.94 308.913C1080.42 311.3 1080.37 313.563 1080.85 315.694C1081.29 317.805 1082.15 319.667 1083.38 321.2C1084.63 322.753 1086.21 323.983 1088.15 324.917C1090.08 325.843 1092.25 326.294 1094.63 326.294H1140.99L1144.71 308.913H1115.73C1114.1 308.913 1112.84 308.362 1111.96 307.231C1111.09 306.1 1110.83 304.745 1111.2 303.114L1116.08 279.932H1150.86L1154.56 262.554ZM1156.28 308.913C1155.75 311.3 1155.71 313.563 1156.19 315.694C1156.63 317.805 1157.49 319.667 1158.72 321.2C1159.98 322.753 1161.57 323.983 1163.5 324.917C1165.43 325.843 1167.58 326.294 1169.97 326.294H1227.94C1230.32 326.294 1232.69 325.843 1234.99 324.917C1237.33 323.983 1239.42 322.731 1241.32 321.2C1243.21 319.639 1244.84 317.805 1246.2 315.694C1247.55 313.563 1248.48 311.299 1249.03 308.913L1255.17 279.933C1255.72 277.55 1255.74 275.287 1255.29 273.154C1254.84 271.043 1253.99 269.183 1252.73 267.654C1251.5 266.095 1249.91 264.865 1247.97 263.937C1246.04 263.007 1243.89 262.554 1241.5 262.554H1183.54C1181.15 262.554 1178.79 263.007 1176.48 263.937C1174.15 264.865 1172.03 266.119 1170.15 267.654C1168.26 269.209 1166.63 271.043 1165.28 273.154C1163.92 275.287 1162.99 277.55 1162.43 279.933L1156.28 308.913ZM1186.55 303.114L1190.14 285.735C1190.55 284.1 1191.39 282.745 1192.75 281.616C1194.11 280.485 1195.6 279.932 1197.23 279.932H1220.41C1222.01 279.932 1223.27 280.485 1224.17 281.616C1225.05 282.745 1225.31 284.1 1224.93 285.735L1221.34 303.114C1220.94 304.745 1220.08 306.1 1218.73 307.231C1217.37 308.362 1215.89 308.913 1214.25 308.913H1191.07C1189.44 308.913 1188.18 308.362 1187.3 307.231C1186.42 306.101 1186.18 304.745 1186.55 303.114ZM1294.46 285.735C1294.87 284.1 1295.73 282.745 1297.07 281.616C1298.44 280.485 1299.92 279.932 1301.55 279.932H1330.53L1334.22 262.553H1287.87C1285.48 262.553 1283.11 263.006 1280.8 263.936C1278.47 264.864 1276.36 266.118 1274.48 267.653C1272.59 269.208 1270.96 271.042 1269.6 273.153C1268.24 275.286 1267.32 277.549 1266.77 279.932L1256.92 326.293H1285.91L1294.46 285.735ZM1376.31 282.821C1376.47 281.995 1376.87 281.29 1377.52 280.735C1378.17 280.212 1378.93 279.932 1379.78 279.932H1434.83L1438.55 262.553H1363.2C1360.82 262.553 1358.46 263.006 1356.15 263.936C1353.81 264.864 1351.7 266.118 1349.82 267.653C1347.94 269.208 1346.3 271.042 1344.95 273.153C1343.59 275.286 1342.66 277.549 1342.11 279.932L1340.83 285.735C1340.37 288.118 1340.37 290.38 1340.83 292.516C1341.31 294.625 1342.17 296.485 1343.39 298.014C1344.63 299.575 1346.21 300.805 1348.14 301.731C1350.08 302.663 1352.23 303.114 1354.64 303.114H1392.32C1393.15 303.114 1393.77 303.389 1394.15 303.917C1394.55 304.472 1394.65 305.175 1394.5 306.001C1394.35 306.856 1393.95 307.56 1393.29 308.11C1392.64 308.643 1391.89 308.913 1391.03 308.913H1335.96L1332.27 326.294H1407.61C1410 326.294 1412.37 325.843 1414.67 324.917C1417.01 323.983 1419.09 322.731 1421 321.2C1422.89 319.639 1424.51 317.805 1425.87 315.694C1427.23 313.563 1428.15 311.299 1428.71 308.913L1429.99 303.114C1430.44 300.729 1430.44 298.468 1429.99 296.333C1429.51 294.222 1428.66 292.39 1427.43 290.831C1426.2 289.302 1424.62 288.048 1422.68 287.114C1420.74 286.184 1418.58 285.735 1416.17 285.735H1378.51C1377.65 285.735 1377.05 285.458 1376.65 284.932C1376.27 284.378 1376.14 283.675 1376.31 282.821Z" fill="black"/>
<path d="M285.198 431.536C203.979 431.536 137.902 365.454 137.902 284.239C137.902 203.016 203.98 136.942 285.198 136.942C366.414 136.942 432.492 203.016 432.492 284.239C432.492 365.454 366.415 431.536 285.198 431.536Z" fill="#DADADA"/>
<path fill-rule="evenodd" clip-rule="evenodd" d="M285.199 140.896C364.358 140.896 428.549 205.08 428.549 284.24C428.549 363.398 364.359 427.59 285.199 427.59C206.037 427.59 141.846 363.399 141.846 284.24C141.847 205.079 206.037 140.896 285.199 140.896Z" fill="black"/>
<path fill-rule="evenodd" clip-rule="evenodd" d="M285.197 144.937C362.118 144.937 424.492 207.322 424.492 284.24C424.492 361.164 362.117 423.541 285.197 423.541C208.279 423.541 145.896 361.164 145.896 284.24C145.896 207.321 208.279 144.937 285.197 144.937Z" fill="url(#paint0_radial_208_32)"/>
<path d="M384.932 340.249C364.842 376.144 326.62 398.454 285.192 398.454C243.761 398.454 205.543 376.143 185.441 340.231C183.634 337.698 181.105 334.876 176.857 333.168L170.092 339.166C172.464 343.91 174.892 346.936 177.808 351.322L186.389 348.576C187.515 350.199 188.69 351.799 189.893 353.361C191.061 354.89 192.268 356.388 193.51 357.869L188.644 365.418C192.158 369.389 195.909 373.141 199.879 376.641L207.483 371.85C210.42 374.334 213.487 376.69 216.685 378.895L213.936 387.438C218.332 390.368 222.924 393.032 227.677 395.397L233.803 388.768C234.207 388.948 234.596 389.125 235.004 389.323H235.007L235.602 389.583L235.623 389.603L235.721 389.65C238.589 390.939 241.529 392.129 244.513 393.193L244.073 402.187C249.052 403.863 254.17 405.23 259.407 406.289L263.607 398.293C265.699 398.668 267.813 398.99 269.95 399.264C271.671 399.477 273.374 399.66 275.095 399.797L276.991 408.578C279.601 408.732 282.237 408.828 284.888 408.828C287.575 408.828 290.229 408.726 292.872 408.566L294.849 399.791C297.991 399.523 301.106 399.139 304.191 398.639L304.242 398.621L304.328 398.615L304.545 398.58L305.112 398.478L306.188 398.292L310.385 406.288C315.619 405.229 320.729 403.862 325.714 402.186L325.277 393.192C328.927 391.883 332.5 390.403 335.977 388.768L342.103 395.397C346.865 393.032 351.454 390.368 355.85 387.438L353.095 378.866C354.016 378.229 354.929 377.575 355.839 376.909L356.044 376.749L356.377 376.505L356.582 376.357L356.915 376.107C358.782 374.711 360.607 373.255 362.39 371.75L369.958 376.607C373.908 373.111 377.65 369.373 381.154 365.408L376.298 357.871C378.819 354.904 381.196 351.807 383.425 348.584L391.983 351.324C394.896 346.937 396.596 344.013 398.962 339.275L393.05 332.867C389.893 334.388 387.203 336.849 384.932 340.249Z" fill="url(#paint1_linear_208_32)"/>
<path d="M426.747 276.054L426.726 275.781L403.179 274.877C402.98 274.895 402.727 274.918 402.448 274.918C400.846 274.918 398.902 274.455 398.682 272.256C398.245 268.445 397.609 264.723 396.732 260.895H425.02L424.937 260.534C423.344 253.198 422.039 249.513 419.691 243.079C419.346 242.099 417.848 239.958 415.693 239.958C415.61 239.958 415.539 239.958 415.485 239.97L380.123 239.757C379.621 239.716 379.122 239.696 378.646 239.696C376.271 239.696 374.779 240.178 374.208 241.135C373.804 241.819 373.887 242.68 374.455 243.721C378.09 250.426 380.343 255.467 381.963 260.575C384.13 268.743 385.233 277.202 385.233 285.714C385.233 287.337 385.191 289.015 385.105 290.696L385.096 290.899C382.344 343.491 338.463 384.68 285.193 384.68C232.042 384.68 188.167 343.58 185.308 291.117L185.269 290.445C185.195 288.746 185.156 287.187 185.156 285.713C185.156 277.213 186.247 268.772 188.402 260.639C190.034 255.51 192.284 250.457 195.937 243.721C196.502 242.68 196.585 241.819 196.184 241.135C195.61 240.172 194.118 239.696 191.74 239.696C191.268 239.696 190.774 239.716 190.286 239.757L154.925 239.97C154.854 239.958 154.773 239.958 154.699 239.958C152.541 239.958 151.049 242.099 150.704 243.079C148.352 249.507 147.051 253.198 145.449 260.534L145.372 260.895H173.651C172.786 264.729 172.15 268.446 171.701 272.256C171.451 274.836 168.753 274.99 167.172 274.877L143.931 275.773L143.661 275.781L143.637 276.054C143.328 279.923 143.176 281.95 143.176 285.712C143.176 289.542 143.328 292.134 143.634 295.866L143.657 296.139L166.684 296.633L168.179 296.621C170.414 296.621 171.487 296.869 171.752 299.051C172.257 303.266 172.905 307.184 173.646 310.447H145.373L145.441 310.81C146.663 317.527 147.822 321.052 150.134 326.878C151.593 330.747 153.754 331.163 159.098 331.288L169.712 331.64C178.593 332.169 182.796 336.521 185.441 340.23C205.543 376.142 243.761 398.453 285.192 398.453C326.62 398.453 364.841 376.142 384.932 340.248C389.069 334.049 394.58 330.998 401.788 330.922H402.046C403.205 330.922 404.472 330.998 405.815 331.082C407.405 331.182 409.207 331.289 411.159 331.289H411.284C416.64 331.164 418.798 330.748 420.251 326.879C422.57 321.029 423.732 317.504 424.954 310.811L425.022 310.448H396.75C397.493 307.132 398.141 303.196 398.64 299.052C398.902 296.87 399.978 296.622 402.207 296.622L403.708 296.634L426.461 296.146L426.737 296.14L426.758 295.867C427.068 292.068 427.219 289.459 427.219 285.713C427.219 281.915 427.068 279.899 426.747 276.054Z" fill="black"/>
<path d="M232.883 250.253H216.015L207.434 290.784C207.122 292.169 207.092 293.495 207.371 294.731C207.633 295.967 208.129 297.049 208.849 297.94C209.58 298.85 210.508 299.563 211.628 300.098C212.754 300.645 214.015 300.912 215.406 300.912H249.172C250.563 300.912 251.936 300.644 253.289 300.098C254.65 299.563 255.86 298.832 256.975 297.94C258.066 297.032 259.02 295.967 259.81 294.731C260.6 293.495 261.142 292.168 261.466 290.784L265.036 273.901C265.354 272.51 265.372 271.19 265.107 269.948C264.842 268.718 264.349 267.641 263.612 266.743C262.896 265.841 261.98 265.114 260.848 264.573C259.724 264.038 258.464 263.776 257.076 263.776H233.434L231.276 273.901H244.782C245.721 273.901 246.452 274.215 246.978 274.887C247.492 275.535 247.635 276.326 247.415 277.278L245.323 287.401C245.094 288.358 244.594 289.137 243.804 289.809C243.016 290.467 242.151 290.784 241.2 290.784H227.697C226.74 290.784 226.011 290.468 225.503 289.809C224.992 289.137 224.843 288.358 225.063 287.401L232.883 250.253ZM303.191 300.913H320.074L325.079 277.278C325.299 276.327 325.816 275.536 326.586 274.887C327.377 274.215 328.253 273.901 329.19 273.901H342.696C343.647 273.901 344.382 274.215 344.893 274.887C345.416 275.535 345.565 276.326 345.333 277.278L340.346 300.913H357.226L362.962 273.901C363.271 272.51 363.298 271.19 363.022 269.948C362.76 268.718 362.255 267.653 361.542 266.743C360.826 265.852 359.898 265.114 358.778 264.573C357.646 264.038 356.394 263.776 354.988 263.776H325.471C324.351 263.776 323.266 263.956 322.196 264.288C321.15 264.622 320.121 265.079 319.126 265.661C318.448 265.079 317.649 264.622 316.691 264.288C315.758 263.956 314.735 263.776 313.669 263.776H284.088C282.692 263.776 281.318 264.038 279.972 264.573C278.614 265.114 277.38 265.852 276.286 266.743C275.186 267.653 274.238 268.718 273.451 269.948C272.654 271.19 272.117 272.511 271.789 273.901L266.061 300.913H282.944L287.929 277.278C288.163 276.327 288.663 275.536 289.453 274.887C290.244 274.215 291.103 273.901 292.06 273.901H305.566C306.499 273.901 307.224 274.215 307.756 274.887C308.267 275.535 308.419 276.326 308.196 277.278L303.191 300.913Z" fill="url(#paint2_linear_208_32)"/>
<path fill-rule="evenodd" clip-rule="evenodd" d="M378.174 259.878C380.21 267.653 381.298 275.816 381.298 284.239C381.298 285.784 381.259 287.311 381.185 288.833L381.155 289.487C378.424 340.112 336.499 380.335 285.199 380.335C233.82 380.335 191.856 340.005 189.229 289.274L189.214 289.071C189.143 287.471 189.098 285.862 189.098 284.239C189.098 275.798 190.186 267.618 192.231 259.823C194.008 254.188 196.472 249.01 199.457 243.458C201.419 239.79 196.283 239.886 194.312 240.04L160.416 243.06C158.41 242.917 156.98 244.98 156.665 245.884C154.364 252.251 153.155 252.941 151.644 259.925H178.74C177.902 263.599 177.248 267.261 176.793 271.243C176.505 274.163 173.404 274.151 172.174 274.044L150.268 275.524C149.976 279.149 149.475 280.553 149.475 284.239C149.475 287.919 149.621 289.178 149.909 292.78L171.699 294.516C174.648 294.516 176.493 294.213 176.839 297.12C177.291 300.925 177.921 304.956 178.717 308.475H151.631C152.838 314.514 153.976 316.495 156.119 321.957C157.724 325.695 168.823 326.885 174.018 328.342C178.908 329.727 185.292 329.733 189.923 336.871C208.473 370.387 244.189 393.078 285.201 393.078C326.21 393.078 361.923 370.387 380.476 336.871C383.22 332.996 387.366 328.269 395.781 327.783C402.835 326.271 412.533 326.492 414.278 321.166C416.412 315.697 417.562 315.15 418.76 308.475H391.671C392.467 304.955 393.104 300.924 393.552 297.12C393.897 294.214 395.745 294.516 398.688 294.516L420.484 292.78C420.769 289.178 420.921 287.919 420.921 284.239C420.921 280.553 420.769 279.173 420.475 275.548L398.215 274.044C396.985 274.151 393.878 274.163 393.593 271.243C393.144 267.261 392.49 263.598 391.652 259.925H418.739C417.235 252.941 416.031 252.251 413.725 245.884C413.412 244.98 411.983 242.917 409.974 243.06L376.084 240.04C374.113 239.886 368.971 239.79 370.936 243.458C373.929 249.034 376.394 254.218 378.174 259.878Z" fill="url(#paint3_linear_208_32)"/>
<path d="M322.267 180.345C321.994 179.804 321.952 179.232 322.145 178.644L324.032 172.83L331.454 175.244L332.093 173.277L324.671 170.869L326.279 165.918L321.836 164.473L317.294 178.438C317.16 178.84 317.116 179.221 317.157 179.608C317.202 180.018 317.305 180.387 317.478 180.725C317.644 181.053 317.876 181.35 318.185 181.629C318.474 181.891 318.803 182.074 319.202 182.199L328.238 185.137L328.877 183.168L323.565 181.439C322.972 181.235 322.538 180.872 322.267 180.345Z" fill="#EDEDED"/>
<path d="M243.495 183.821C242.948 184.059 242.359 184.077 241.807 183.874C241.243 183.661 240.811 183.251 240.571 182.692L238.092 177.116L245.214 173.94L244.37 172.051L237.242 175.225L235.126 170.469L230.857 172.377L236.837 185.789C236.992 186.156 237.221 186.478 237.518 186.752C237.827 187.031 238.142 187.232 238.487 187.357C239.176 187.625 240.018 187.654 240.761 187.304L249.44 183.439L248.599 181.554L243.495 183.821Z" fill="#EDEDED"/>
<path d="M220.588 177.995L229.157 193.451L233.244 191.187L224.669 175.726L220.588 177.995Z" fill="#EDEDED"/>
<path d="M311.956 167.819C311.73 167.514 311.45 167.272 311.079 167.046C310.737 166.849 310.374 166.724 309.976 166.683L297.061 165.089C296.936 165.077 296.805 165.071 296.677 165.071C296.395 165.071 296.136 165.108 295.886 165.184C295.509 165.297 295.164 165.475 294.858 165.713C294.564 165.94 294.314 166.231 294.109 166.58C293.904 166.92 293.779 167.295 293.732 167.693L292.939 174.148C292.894 174.546 292.927 174.945 293.034 175.332C293.147 175.705 293.325 176.062 293.548 176.342C293.78 176.639 294.066 176.889 294.428 177.104C294.755 177.299 295.127 177.424 295.531 177.465L308.443 179.059C308.865 179.1 309.252 179.088 309.602 178.969C309.989 178.858 310.342 178.678 310.654 178.442C310.951 178.204 311.198 177.919 311.394 177.585C311.596 177.247 311.721 176.878 311.771 176.456L312.564 170.007C312.615 169.583 312.585 169.198 312.475 168.841C312.359 168.448 312.181 168.099 311.956 167.819ZM307.289 174.595C307.212 175.197 306.938 175.695 306.477 176.07C306.067 176.39 305.609 176.547 305.101 176.547L304.845 176.535L299.664 175.887C299.076 175.832 298.556 175.541 298.184 175.055C297.818 174.578 297.667 174.037 297.735 173.444L298.214 169.555C298.288 168.95 298.576 168.438 299.043 168.075C299.43 167.772 299.884 167.618 300.39 167.618L300.678 167.63L305.835 168.267C306.45 168.343 306.961 168.636 307.321 169.105C307.69 169.58 307.841 170.134 307.77 170.734L307.289 174.595Z" fill="#EDEDED"/>
<path d="M369.721 200.497L371.053 198.909L363.782 192.809C363.455 192.536 363.119 192.352 362.751 192.25C362.438 192.154 362.136 192.113 361.83 192.113L361.592 192.119C361.226 192.154 360.852 192.267 360.495 192.439C360.141 192.619 359.835 192.855 359.585 193.166L353.477 200.436L357.056 203.45L362.323 197.173C362.716 196.71 363.224 196.443 363.83 196.394C364.629 196.318 365.031 196.562 365.444 196.912L369.721 200.497Z" fill="#EDEDED"/>
<path d="M281.402 169.013L282.398 177.14L287.044 176.57L285.881 167.154C285.831 166.738 285.706 166.363 285.515 166.035C285.298 165.691 285.036 165.394 284.751 165.168C284.445 164.93 284.1 164.752 283.729 164.639C283.378 164.543 282.971 164.508 282.546 164.563L271.266 165.936C270.951 165.977 270.657 166.067 270.374 166.204C270.08 166.347 269.812 166.518 269.571 166.72L269.092 167.136L268.539 166.833C268.298 166.702 268.01 166.603 267.683 166.53C267.502 166.495 267.315 166.477 267.119 166.477C266.994 166.477 266.872 166.483 266.747 166.5L255.44 167.879C255.039 167.932 254.667 168.057 254.34 168.254C253.975 168.473 253.69 168.723 253.464 169.014C253.223 169.325 253.054 169.657 252.944 170.037C252.828 170.424 252.798 170.803 252.852 171.201L254.008 180.631L258.648 180.059L257.647 171.934C257.57 171.332 257.727 170.762 258.105 170.288C258.471 169.823 258.964 169.544 259.567 169.468L265.039 168.82C265.532 168.82 265.981 168.974 266.373 169.283C266.846 169.652 267.125 170.146 267.205 170.758L268.201 178.885L272.838 178.321L271.848 170.194C271.771 169.6 271.922 169.034 272.291 168.559C272.657 168.088 273.156 167.803 273.765 167.727L279.24 167.073C279.734 167.073 280.182 167.233 280.572 167.542C281.033 167.89 281.324 168.401 281.402 169.013Z" fill="#EDEDED"/>
<path d="M387.409 218.579L377.348 206.155C377.089 205.835 376.792 205.585 376.438 205.401C376.079 205.215 375.719 205.102 375.338 205.061C374.972 205.008 374.604 205.055 374.191 205.168C373.828 205.27 373.475 205.453 373.142 205.715L372.135 206.529C371.82 206.785 371.564 207.093 371.377 207.445C371.199 207.8 371.086 208.17 371.053 208.527C371.008 208.923 371.041 209.293 371.148 209.679C371.255 210.048 371.44 210.409 371.701 210.738L377.018 217.289C377.291 217.639 377.407 218.031 377.363 218.441C377.339 218.828 377.128 219.214 376.778 219.488C376.502 219.72 376.16 219.851 375.806 219.851C375.235 219.814 374.846 219.601 374.57 219.244L367.386 210.375L365.781 211.684L375.842 224.102C376.118 224.446 376.416 224.69 376.743 224.856C377.099 225.042 377.468 225.155 377.852 225.196C378.176 225.243 378.604 225.202 378.981 225.089C379.368 224.987 379.707 224.81 380.037 224.542L381.051 223.728C381.381 223.46 381.621 223.175 381.788 222.837C381.987 222.456 382.1 222.093 382.136 221.724C382.175 221.333 382.142 220.947 382.038 220.583C381.937 220.202 381.756 219.858 381.494 219.536L376.174 212.968C375.895 212.613 375.778 212.232 375.818 211.816C375.871 211.394 376.07 211.037 376.394 210.763C376.704 210.519 377.045 210.4 377.399 210.4C377.979 210.466 378.312 210.656 378.588 210.97L385.802 219.876L387.409 218.579Z" fill="#EDEDED"/>
<path d="M216.961 188.208C216.607 188.036 216.227 187.929 215.85 187.894L215.642 187.888C215.332 187.888 215.03 187.929 214.714 188.025C214.342 188.127 213.998 188.316 213.689 188.578L203.714 196.941C203.396 197.203 203.161 197.502 202.983 197.857C202.807 198.214 202.707 198.576 202.673 198.962C202.634 199.355 202.673 199.718 202.789 200.099C202.905 200.492 203.092 200.841 203.351 201.15L207.533 206.121C207.795 206.441 208.104 206.685 208.454 206.857C208.793 207.031 209.156 207.136 209.578 207.179L209.819 207.191C210.113 207.191 210.414 207.148 210.708 207.06C211.074 206.947 211.425 206.757 211.737 206.496L218.014 201.228L216.68 199.64L213.396 202.4C212.968 202.75 212.492 202.921 211.978 202.921C211.175 202.857 210.676 202.589 210.281 202.132L207.769 199.136C207.373 198.659 207.199 198.095 207.258 197.507C207.291 196.96 207.547 196.448 208.019 196.027L212.022 192.679C212.426 192.335 212.896 192.156 213.416 192.156L213.648 192.168C214.219 192.205 214.745 192.479 215.143 192.959L220.407 199.225L223.986 196.211L217.883 188.953C217.625 188.63 217.324 188.394 216.961 188.208Z" fill="#EDEDED"/>
<path d="M204.049 210.198L199.005 206.114C198.693 205.858 198.342 205.68 197.962 205.573C197.564 205.466 197.174 205.425 196.817 205.471C196.434 205.512 196.062 205.625 195.714 205.805C195.355 205.994 195.054 206.239 194.804 206.553L189.647 212.92L191.261 214.233L193.957 210.893C194.353 210.416 194.864 210.137 195.449 210.079L195.696 210.067C196.207 210.067 196.674 210.239 197.084 210.59L200.104 213.022C200.571 213.395 200.853 213.913 200.916 214.506C200.987 215.09 200.812 215.672 200.422 216.141L197.158 220.172C196.807 220.629 196.293 220.916 195.687 220.992L195.449 221.004C194.926 221.004 194.45 220.832 194.04 220.486L183.643 212.064L180.697 215.695L192.114 224.951C192.447 225.219 192.783 225.39 193.149 225.486C193.544 225.611 193.948 225.634 194.32 225.599C194.686 225.558 195.048 225.451 195.411 225.259C195.744 225.087 196.053 224.831 196.315 224.511L204.501 214.4C204.754 214.089 204.935 213.74 205.039 213.359C205.149 212.978 205.185 212.591 205.143 212.213C205.101 211.832 204.991 211.463 204.81 211.119C204.631 210.769 204.382 210.472 204.049 210.198Z" fill="#EDEDED"/>
<path d="M354.448 187.251C354.487 186.858 354.451 186.474 354.35 186.11C354.24 185.741 354.071 185.409 353.833 185.104C353.58 184.778 353.292 184.528 352.938 184.338L341.555 178.024C341.198 177.829 340.817 177.71 340.422 177.669C340.33 177.657 340.229 177.657 340.128 177.657C339.84 177.657 339.552 177.692 339.276 177.77C338.914 177.881 338.578 178.055 338.271 178.291C337.95 178.535 337.703 178.826 337.503 179.184L334.346 184.879C334.15 185.229 334.031 185.604 333.992 185.996C333.953 186.394 333.986 186.781 334.087 187.142C334.194 187.505 334.37 187.851 334.62 188.183C334.858 188.48 335.157 188.736 335.505 188.927L346.878 195.24C347.252 195.435 347.627 195.56 348.01 195.597L348.284 195.609C348.599 195.609 348.886 195.566 349.139 195.496C349.522 195.383 349.855 195.217 350.167 194.978C350.479 194.739 350.735 194.437 350.938 194.074L354.094 188.381C354.293 188.03 354.406 187.661 354.448 187.251ZM349.368 187.269L347.487 190.664C347.181 191.205 346.734 191.562 346.16 191.728C345.964 191.789 345.753 191.824 345.545 191.824C345.177 191.824 344.814 191.722 344.469 191.539L339.924 189.012C339.38 188.698 339.03 188.252 338.867 187.686C338.7 187.104 338.768 186.54 339.065 186.004L340.949 182.592C341.27 182.039 341.719 181.688 342.286 181.533C342.788 181.396 343.396 181.445 343.94 181.713L348.508 184.244C349.058 184.553 349.412 185.006 349.573 185.582C349.738 186.157 349.665 186.747 349.368 187.269Z" fill="#EDEDED"/>
<defs>
<radialGradient id="paint0_radial_208_32" cx="0" cy="0" r="1" gradientUnits="userSpaceOnUse" gradientTransform="translate(226.916 226.901) scale(139.298 139.298)">
<stop stop-color="#858584"/>
<stop offset="0.0695" stop-color="#767675"/>
<stop offset="0.2253" stop-color="#5A5959"/>
<stop offset="0.3898" stop-color="#414140"/>
<stop offset="0.5645" stop-color="#282827"/>
<stop offset="0.7568" stop-color="#0D0D0C"/>
<stop offset="1"/>
</radialGradient>
<linearGradient id="paint1_linear_208_32" x1="220.43" y1="276.313" x2="381.995" y2="443.618" gradientUnits="userSpaceOnUse">
<stop offset="0.0121" stop-color="#666665"/>
<stop offset="0.0385" stop-color="#888888"/>
<stop offset="0.0815" stop-color="#B6B6B6"/>
<stop offset="0.1136" stop-color="#D0D0D0"/>
<stop offset="0.131" stop-color="#DADADA"/>
<stop offset="0.3351" stop-color="#D8D8D8"/>
<stop offset="0.4555" stop-color="#D2D2D1"/>
<stop offset="0.5539" stop-color="#C7C7C6"/>
<stop offset="0.5939" stop-color="#C0C0C0"/>
<stop offset="0.75" stop-color="#8B8A8A"/>
<stop offset="0.8545" stop-color="#666665"/>
</linearGradient>
<linearGradient id="paint2_linear_208_32" x1="247.679" y1="222.309" x2="316.093" y2="331.794" gradientUnits="userSpaceOnUse">
<stop stop-color="#D0D0D0"/>
<stop offset="0.2485" stop-color="#F6F6F6"/>
<stop offset="0.5366" stop-color="#CDCDCD"/>
<stop offset="0.8482" stop-color="#A2A2A1"/>
<stop offset="1" stop-color="#909090"/>
</linearGradient>
<linearGradient id="paint3_linear_208_32" x1="252.752" y1="191.624" x2="335.547" y2="428.445" gradientUnits="userSpaceOnUse">
<stop stop-color="#BEBEBE"/>
<stop offset="0.0061" stop-color="#C1C1C1"/>
<stop offset="0.0767" stop-color="#DFDFDE"/>
<stop offset="0.1334" stop-color="#F0F0F0"/>
<stop offset="0.1687" stop-color="#F6F6F6"/>
<stop offset="0.7457" stop-color="#BEBEBE"/>
</linearGradient>
</defs>
</svg>
