<svg width="500" height="250" viewBox="0 0 500 250" fill="none" xmlns="http://www.w3.org/2000/svg">
<path d="M129.601 63L88.3008 104.3H129.601V187L170.901 145.8V63H129.601Z" fill="#F26126"/>
<path d="M88.3004 63L46.9004 104.2V187H88.3004L129.6 145.7H88.3004V63Z" fill="#2D3494"/>
<path d="M212.301 166.3H234.001V102.2H267.101V166.3H288.801V83.7H212.301V166.3ZM423.101 114.6H404.601V102.2H445.901V83.7H382.901V166.4C382.901 166.4 413.901 166.4 424.201 166.4C440.701 166.4 453.101 158.1 453.101 140.5C453.101 122.9 440.701 114.6 423.101 114.6ZM421.001 148.8H404.501V132.3H421.001C426.101 132.3 431.301 134.3 431.301 140.5C431.301 146.7 426.101 148.8 421.001 148.8ZM341.901 148.7C327.401 148.7 319.301 138.1 319.301 125C319.301 114.5 325.201 101.2 341.501 101.2C351.701 101.2 358.201 107.4 360.501 110.3L373.701 97.1C365.701 87.6 353.801 81.5 340.401 81.5C316.401 81.5 297.501 99.2 297.501 124.9C297.501 148.9 316.401 168.3 340.401 168.3C354.801 168.3 367.501 161.3 375.401 150.6L362.101 137.3C357.901 144 351.101 148.7 341.901 148.7Z" fill="#2D3494"/>
</svg>
