<?xml version="1.0" encoding="UTF-8"?>
<!DOCTYPE svg PUBLIC "-//W3C//DTD SVG 1.0//EN" "http://www.w3.org/TR/2001/REC-SVG-20010904/DTD/svg10.dtd">
<!-- Creator: CorelDRAW 2021 (64-Bit) -->
<svg xmlns="http://www.w3.org/2000/svg" xml:space="preserve" width="565px" height="152px" version="1.0" style="shape-rendering:geometricPrecision; text-rendering:geometricPrecision; image-rendering:optimizeQuality; fill-rule:evenodd; clip-rule:evenodd"
viewBox="0 0 1015.977 273.181"
 xmlns:xlink="http://www.w3.org/1999/xlink"
 xmlns:xodm="http://www.corel.com/coreldraw/odm/2003">
 <defs>
  <style type="text/css">
   <![CDATA[
    .fil1 {fill:#FEFEFE;fill-rule:nonzero}
    .fil0 {fill:#833CFA;fill-rule:nonzero}
   ]]>
  </style>
 </defs>
 <g id="Слой_x0020_1">
  <metadata id="CorelCorpID_0Corel-Layer"/>
  <g id="_2346870392864">
   <g>
    <g>
     <path class="fil0" d="M0 135.006l108.231 -51.533 0 -83.473 -108.231 52.476 0 82.53z"/>
     <path class="fil0" d="M0 138.175l108.231 51.534 0 83.472 -108.231 -52.476 0 -82.53z"/>
    </g>
    <g>
     <path class="fil0" d="M280.595 135.006l-108.23 -51.533 0 -83.473 108.23 52.476 0 82.53z"/>
     <path class="fil0" d="M280.595 138.175l-108.23 51.534 0 83.472 108.23 -52.476 0 -82.53z"/>
    </g>
   </g>
   <path class="fil1" d="M473.533 125.231l-14.949 0 -47.362 -74.447 0 74.447 -14.802 0 0 -100.645 14.802 0 47.362 74.447 0 -74.447 14.949 0 0 100.645zm76.519 -11.841c10.656,0 19.734,-3.75 27.233,-11.249 7.498,-7.498 11.248,-16.576 11.248,-27.232 0,-10.657 -3.75,-19.735 -11.248,-27.233 -7.499,-7.499 -16.577,-11.249 -27.233,-11.249 -10.657,0 -19.734,3.75 -27.233,11.249 -7.499,7.498 -11.249,16.576 -11.249,27.233 0,10.656 3.75,19.734 11.249,27.232 7.499,7.499 16.576,11.249 27.233,11.249zm0 14.8c-9.769,0 -18.699,-2.392 -26.789,-7.178 -8.092,-4.785 -14.53,-11.223 -19.315,-19.315 -4.786,-8.09 -7.178,-17.02 -7.178,-26.788 0,-9.769 2.392,-18.699 7.178,-26.789 4.785,-8.092 11.223,-14.53 19.315,-19.315 8.09,-4.786 17.02,-7.178 26.789,-7.178 9.768,0 18.698,2.392 26.789,7.178 8.091,4.785 14.529,11.223 19.315,19.315 4.785,8.09 7.179,17.02 7.179,26.789 0,9.768 -2.394,18.698 -7.179,26.788 -4.786,8.092 -11.224,14.53 -19.315,19.315 -8.091,4.786 -17.021,7.178 -26.789,7.178zm121.513 -2.959l-14.8 0 -42.922 -100.645 14.8 0 35.522 83.328 35.669 -83.328 14.801 0 -43.07 100.645zm99.609 -38.481l-15.541 -42.035 -15.393 42.035 30.934 0zm29.009 38.481l-14.948 0 -8.585 -23.681 -41.886 0 -8.732 23.681 -14.8 0 37.001 -100.645 14.8 0 37.15 100.645z"/>
   <path class="fil1" d="M445.262 255.794l-14.801 0 0 -85.843 -34.041 0 0 -14.801 82.884 0 0 14.801 -34.042 0 0 85.843zm127.286 0l-74.004 0 0 -100.644 74.004 0 0 14.801 -59.203 0 0 28.121 50.322 0 0 14.801 -50.322 0 0 28.121 59.203 0 0 14.8zm68.231 2.96c-9.868,0 -18.822,-2.392 -26.864,-7.178 -8.041,-4.786 -14.455,-11.223 -19.24,-19.315 -4.786,-8.091 -7.178,-17.02 -7.178,-26.788 0,-9.671 2.392,-18.551 7.178,-26.642 4.785,-8.091 11.199,-14.529 19.24,-19.315 8.042,-4.786 16.996,-7.178 26.864,-7.178 8.781,0 16.897,1.948 24.346,5.846 7.45,3.897 13.642,9.152 18.576,15.762l-12.878 7.549c-7.893,-9.571 -17.908,-14.357 -30.044,-14.357 -10.657,0 -19.735,3.75 -27.233,11.249 -7.499,7.499 -11.249,16.527 -11.249,27.086 0,10.458 3.75,19.487 11.249,27.084 7.498,7.598 16.576,11.397 27.233,11.397 12.136,0 22.151,-4.786 30.044,-14.357l12.878 7.401c-4.934,6.709 -11.126,12.013 -18.576,15.91 -7.449,3.898 -15.565,5.846 -24.346,5.846zm138.682 -2.96l-14.8 0 0 -42.921 -47.362 0 0 42.921 -14.802 0 0 -100.644 14.802 0 0 42.922 47.362 0 0 -42.922 14.8 0 0 100.644zm106.565 0l-14.8 0 -47.362 -74.446 0 74.446 -14.802 0 0 -100.644 14.802 0 47.362 74.447 0 -74.447 14.8 0 0 100.644zm76.668 -11.84c10.656,0 19.734,-3.75 27.233,-11.249 7.498,-7.499 11.248,-16.576 11.248,-27.232 0,-10.657 -3.75,-19.735 -11.248,-27.234 -7.499,-7.499 -16.577,-11.249 -27.233,-11.249 -10.657,0 -19.734,3.75 -27.233,11.249 -7.499,7.499 -11.249,16.577 -11.249,27.234 0,10.656 3.75,19.733 11.249,27.232 7.499,7.499 16.576,11.249 27.233,11.249zm0 14.8c-9.769,0 -18.699,-2.392 -26.789,-7.178 -8.092,-4.786 -14.53,-11.223 -19.315,-19.315 -4.786,-8.091 -7.178,-17.02 -7.178,-26.788 0,-9.769 2.392,-18.699 7.178,-26.79 4.785,-8.091 11.223,-14.529 19.315,-19.315 8.09,-4.785 17.02,-7.178 26.789,-7.178 9.768,0 18.698,2.393 26.788,7.178 8.092,4.786 14.53,11.224 19.315,19.315 4.786,8.091 7.18,17.021 7.18,26.79 0,9.768 -2.394,18.697 -7.18,26.788 -4.785,8.092 -11.223,14.529 -19.315,19.315 -8.09,4.786 -17.02,7.178 -26.788,7.178z"/>
  </g>
 </g>
</svg>
