<svg width="775" height="804" viewBox="0 0 775 804" fill="none" xmlns="http://www.w3.org/2000/svg">
<path d="M221.046 658.585C249.384 668.231 278.018 665.383 301.165 656.013C329.069 644.72 348.553 623.829 365.021 601.556C382.457 577.985 397.034 552.241 418.264 531.45C428.179 521.736 439.465 513.019 452.707 506.791C465.498 500.781 479.799 497.495 495.077 496.183C524.94 493.612 556.708 497.292 585.922 492.724C614.57 488.244 639.286 475.628 657.939 457.837C697.285 420.294 714.553 361.313 695.581 305.6C668.59 226.356 587.928 157.785 523.012 123.632C491.722 107.164 458.095 95.6964 424.841 92.2281C394.192 89.0286 364.711 92.347 337.969 100.248C277.248 118.19 233.827 159.404 200.046 205.098C168.189 248.187 142.491 296.028 126.967 348.212C111.891 398.942 106.778 454.38 117.36 511.368C122.723 540.245 131.615 569.722 148.699 597.318C164.996 623.63 189.711 647.916 221.046 658.585Z" fill="#285A85"/>
<path d="M658.456 290.753C635.364 222.333 566.211 162.136 508.533 131.912C481.429 117.684 452.34 107.815 423.563 104.778C397.105 101.984 371.596 104.745 348.367 111.444C296.006 126.6 258.031 161.559 228.102 200.553C200.103 237.202 177.909 278.25 162.875 322.622C147.574 367.792 140.347 419.049 150.561 470.149C155.574 495.619 164.217 521.403 179.932 545.172C188.772 558.477 200.057 571.064 213.488 580.836C223.075 587.812 233.652 593.307 245.086 596.757C270.073 604.272 294.896 600.696 315.224 592.039C339.075 581.871 356.065 563.97 370.679 545.04C372.281 542.958 373.862 540.863 375.42 538.754C388.854 520.615 401.136 501.779 417.885 486.365C423.748 480.968 430.118 475.945 437.172 471.691C440.608 469.613 444.201 467.722 447.968 466.059C459.091 461.141 471.48 458.511 484.683 457.513C501.215 456.268 518.404 457.13 535.255 456.88C544.791 456.748 554.211 456.244 563.334 454.833C588.136 450.973 609.553 440.114 625.748 424.718C660.43 391.776 674.932 339.759 658.456 290.753Z" fill="#1E507B"/>
<path d="M621.331 275.905C602.13 218.32 544.51 166.482 494.054 140.192C471.137 128.203 446.603 119.929 422.302 117.323C400.028 114.946 378.509 117.146 358.794 122.643C314.786 135.024 282.179 163.633 256.175 196.004C231.953 226.148 215.536 261.475 198.8 297.026C180.66 335.58 174.067 383.691 183.779 428.925C188.514 450.971 196.8 473.117 211.182 493.022C219.278 504.241 229.473 514.694 241.362 522.55C249.955 528.234 259.261 532.448 269.144 534.924C290.769 540.302 311.785 536.016 329.289 528.054C349.097 519.046 363.572 504.094 376.333 488.505C377.724 486.79 379.097 485.079 380.466 483.35C392.148 468.509 403.026 453.458 417.501 441.262C422.55 436.988 428.018 433.034 434.024 429.698C436.953 428.075 440.002 426.601 443.213 425.302C452.678 421.483 463.146 419.503 474.273 418.818C488.256 417.971 502.77 418.776 517.008 418.613C525.074 418.522 533.036 418.111 540.747 416.912C561.704 413.672 579.823 404.57 593.563 391.588C623.574 363.258 635.304 318.215 621.331 275.905Z" fill="#144671"/>
<path d="M584.224 261.054C569.034 214.257 522.817 170.818 479.592 148.468C460.862 138.72 440.884 132.04 421.041 129.87C402.947 127.892 385.397 129.517 369.22 133.842C333.555 143.368 306.378 165.77 284.248 191.455C263.851 215.14 248.251 242.661 234.731 271.421C218.665 305.595 207.701 348.326 217.011 387.68C221.41 406.297 229.437 424.791 242.435 440.844C249.822 449.969 258.897 458.285 269.245 464.225C276.851 468.608 284.873 471.561 293.204 473.064C311.478 476.312 328.674 471.336 343.351 464.052C359.111 456.233 371.112 444.239 381.994 431.961C383.178 430.63 384.346 429.274 385.519 427.936C395.486 416.432 404.955 405.148 417.135 396.155C421.391 393.018 425.937 390.12 430.904 387.708C433.327 386.54 435.85 385.479 438.476 384.542C446.266 381.826 454.84 380.498 463.881 380.121C475.326 379.678 487.147 380.43 498.767 380.337C505.374 380.292 511.874 379.957 518.161 378.992C535.282 376.38 550.103 369.034 561.374 358.441C586.729 334.748 595.77 296.641 584.224 261.054Z" fill="#0A3C67"/>
<path d="M547.1 246.205C535.819 210.239 501.117 175.163 465.131 156.742C450.577 149.227 435.166 144.149 419.799 142.41C405.895 140.837 392.318 141.905 379.654 145.028C352.339 151.762 330.603 167.89 312.34 186.901C295.797 204.128 282.99 224.762 270.664 245.814C253.864 274.521 241.312 312.974 250.236 346.445C254.293 361.642 262.076 376.462 273.693 388.682C280.371 395.713 288.352 401.877 297.127 405.928C303.77 408.992 310.484 410.701 317.252 411.223C332.172 412.369 345.565 406.701 357.417 400.066C369.161 393.484 378.642 384.375 387.66 375.432C388.632 374.467 389.605 373.502 390.566 372.53C398.785 364.343 406.846 356.826 416.752 351.051C420.194 349.037 423.838 347.208 427.757 345.715C429.68 344.99 431.666 344.335 433.716 343.795C439.844 342.16 446.496 341.482 453.455 341.429C462.353 341.355 471.507 342.086 480.492 342.066C485.629 342.063 490.678 341.809 495.552 341.086C508.827 339.093 520.343 333.515 529.166 325.325C549.875 306.229 556.16 275.093 547.1 246.205Z" fill="#00325D"/>
<path d="M509.986 231.364C502.567 206.23 479.417 179.509 450.662 165.028C440.295 159.754 429.421 156.274 418.537 154.955C408.825 153.789 399.231 154.306 390.08 156.226C371.129 160.193 354.852 170.042 340.413 182.351C327.749 193.152 317.262 206.668 306.588 220.219C288.509 243.198 274.852 277.64 283.461 305.21C287.14 316.998 294.738 328.12 304.95 336.521C310.932 341.436 317.814 345.431 325.018 347.638C330.694 349.368 336.11 349.837 341.32 349.397C352.895 348.402 362.504 342.158 371.493 336.088C379.252 330.838 386.153 324.517 393.324 318.905C394.085 318.306 394.851 317.725 395.616 317.144C402.076 312.267 408.74 308.524 416.372 305.966C419.011 305.082 421.743 304.315 424.624 303.746C426.046 303.466 427.488 303.228 428.976 303.062C433.447 302.527 438.17 302.509 443.059 302.759C449.409 303.083 455.887 303.757 462.26 303.824C465.937 303.868 469.524 303.69 472.98 303.19C482.409 301.818 490.627 297.996 496.991 292.202C513.029 277.718 516.525 253.56 509.986 231.364Z" fill="#1E507B"/>
<path d="M352.889 289.335C368.198 290.436 376.966 280.36 385.556 272.086C389.862 267.941 394.501 263.82 400.67 261.729C406.952 259.603 414.252 260.363 421.501 261.739C429.005 263.168 436.605 265.243 444.016 265.53C452.264 265.852 459.465 263.676 464.804 259.055C476.181 249.19 476.81 232.039 472.869 216.506C469.236 202.232 457.718 183.855 436.191 173.298C406.588 158.776 373.74 170.373 342.521 194.614C322.024 210.513 308.28 242.342 316.687 263.976C321.917 277.445 337.957 288.257 352.889 289.335Z" fill="#285A85"/>
</svg>
