<svg width="471" height="303" viewBox="0 0 471 303" fill="none" xmlns="http://www.w3.org/2000/svg">
<path d="M2.63176 79.0977C7.35629 61.7484 18.3896 45.736 32.4147 33.0405C47.7058 19.2064 66.1513 8.20844 86.0962 4.1063C173.734 -13.9219 180.87 33.5852 273.076 28.0402C293.353 26.8166 313.411 24.327 333.604 21.9365C354.412 19.4681 375.764 18.9165 394.294 26.7459C412.018 34.2358 425.464 47.8295 436.575 62.3567C460.014 92.9955 481.125 133.154 464.363 174.522C457.177 192.239 443.52 207.007 425.011 215.027C403.298 224.434 379.626 224.759 357.014 227.977C305.773 235.262 260.423 263.531 212.746 283.328C190.036 292.756 166.166 300.507 142.069 302.332C123.199 303.761 104.146 301.611 87.5107 294.764C69.8786 287.508 56.6598 274.876 48.5758 258.474C39.5086 240.086 36.3471 219.285 30.9153 199.51C25.2077 178.744 15.4616 159.719 8.16258 139.604C1.29503 120.678 -3.07588 100.061 2.63176 79.0977Z" fill="#5FA7B6"/>
<path d="M425.789 163.199C420.287 180.258 408.32 192.854 390.942 199.22C371.634 206.292 350.027 205.465 329.212 207.48C288.452 211.42 252.276 234.215 214.302 249.994C196.274 257.491 177.383 263.8 158.351 265.66C143.449 267.117 128.433 265.901 115.243 261.127C101.267 256.07 90.6724 246.903 83.8402 234.922C76.1664 221.456 72.8847 206.123 67.9479 191.327C62.7495 175.76 54.4745 161.254 48.2859 145.439C42.5358 130.742 39.827 114.723 42.6561 97.7623C45.4993 80.7384 53.5197 64.931 66.6253 53.148C80.5372 40.6223 98.5301 32.3473 118.447 29.4829C187.412 19.5599 196.196 51.5566 269.222 47.0231C285.567 45.9975 301.742 44.0455 317.981 42.2278C334.778 40.3465 351.936 39.9787 366.902 46.0117C381.281 51.79 392.357 62.2717 401.558 73.6162C420.93 97.5289 436.851 128.924 425.789 163.199Z" fill="#4B879B"/>
<path d="M387.215 151.875C383.509 168.425 373.154 178.759 356.866 183.412C340.005 188.236 320.506 186.263 301.402 186.984C271.252 188.116 244.121 204.892 215.859 216.661C202.512 222.22 188.608 227.086 174.632 228.996C163.705 230.488 152.714 230.191 142.968 227.489C132.642 224.625 124.664 218.931 119.097 211.363C112.81 202.813 109.408 192.946 104.966 183.137C100.27 172.768 93.4803 162.788 88.388 151.274C83.7625 140.814 82.0721 129.123 82.6662 116.434C83.4584 99.4387 88.6426 84.1405 100.822 73.2557C113.354 62.0455 130.739 56.3803 150.783 54.8597C200.553 51.0758 211.502 69.5213 265.346 66.0133C277.758 65.1858 290.044 63.7712 302.329 62.5264C315.109 61.2392 328.08 61.0483 339.474 65.2777C350.501 69.3445 359.214 76.7142 366.506 84.8832C381.847 102.07 393.22 125.063 387.215 151.875Z" fill="#376881"/>
<path d="M348.64 140.552C347.105 156.755 338.024 164.762 322.789 167.605C308.425 170.292 291.047 167.336 273.599 166.487C254.156 165.54 235.973 175.569 217.421 183.327C208.75 186.956 199.831 190.379 190.927 192.331C183.967 193.851 177.008 194.481 170.713 193.851C164.037 193.187 158.626 190.938 154.382 187.804C149.417 184.141 145.931 179.756 142.012 174.946C137.79 169.755 132.535 164.323 128.518 157.102C125.052 150.871 123.602 143.388 122.697 135.099C120.823 117.934 123.786 103.336 135.032 93.3631C146.178 83.4685 162.834 80.0382 183.133 80.2292C213.382 80.5192 226.821 87.4786 261.491 84.9891C269.964 84.3596 278.373 83.4826 286.705 82.8036C295.475 82.1034 304.252 82.0893 312.081 84.5294C319.755 86.8846 326.106 91.1352 331.496 96.1285C342.756 106.61 350.443 121.491 348.64 140.552Z" fill="#234866"/>
<path d="M245.797 145.984C280.078 154.004 313.567 158.206 310.073 129.222C304.727 84.9116 244.001 111.71 215.484 105.599C173.812 96.6593 149.248 121.435 162.722 153.764C177.772 189.898 213.291 138.381 245.797 145.984Z" fill="#0F284B"/>
</svg>
