<svg width="666" height="429" viewBox="0 0 666 429" fill="none" xmlns="http://www.w3.org/2000/svg">
<path d="M4.49007 112.22C11.1701 87.6899 26.7701 65.0499 46.6001 47.0999C68.2201 27.5399 94.3001 11.99 122.5 6.18998C246.41 -19.3 256.5 47.87 386.87 40.03C415.54 38.3 443.9 34.78 472.45 31.4C501.87 27.91 532.06 27.13 558.26 38.2C583.32 48.79 602.33 68.01 618.04 88.55C651.18 131.87 681.03 188.65 657.33 247.14C647.17 272.19 627.86 293.07 601.69 304.41C570.99 317.71 537.52 318.17 505.55 322.72C433.1 333.02 368.98 372.99 301.57 400.98C269.46 414.31 235.71 425.27 201.64 427.85C174.96 429.87 148.02 426.83 124.5 417.15C99.5701 406.89 80.8801 389.03 69.4501 365.84C56.6301 339.84 52.1601 310.43 44.4801 282.47C36.4101 253.11 22.6301 226.21 12.3101 197.77C2.60008 171.01 -3.57993 141.86 4.49007 112.22Z" fill="#5FA7B6"/>
<path d="M602.79 231.13C595.01 255.25 578.09 273.06 553.52 282.06C526.22 292.06 495.67 290.89 466.24 293.74C408.61 299.31 357.46 331.54 303.77 353.85C278.28 364.45 251.57 373.37 224.66 376C203.59 378.06 182.36 376.34 163.71 369.59C143.95 362.44 128.97 349.48 119.31 332.54C108.46 313.5 103.82 291.82 96.8401 270.9C89.4901 248.89 77.79 228.38 69.04 206.02C60.91 185.24 57.0801 162.59 61.0801 138.61C65.1001 114.54 76.44 92.19 94.97 75.53C114.64 57.82 140.08 46.12 168.24 42.07C265.75 28.04 278.17 73.28 381.42 66.87C404.53 65.42 427.4 62.66 450.36 60.09C474.11 57.43 498.37 56.91 519.53 65.44C539.86 73.61 555.52 88.4299 568.53 104.47C595.92 138.28 618.43 182.67 602.79 231.13Z" fill="#4B879B"/>
<path d="M548.25 215.12C543.01 238.52 528.37 253.13 505.34 259.71C481.5 266.53 453.93 263.74 426.92 264.76C384.29 266.36 345.93 290.08 305.97 306.72C287.1 314.58 267.44 321.46 247.68 324.16C232.23 326.27 216.69 325.85 202.91 322.03C188.31 317.98 177.03 309.93 169.16 299.23C160.27 287.14 155.46 273.19 149.18 259.32C142.54 244.66 132.94 230.55 125.74 214.27C119.2 199.48 116.81 182.95 117.65 165.01C118.77 140.98 126.1 119.35 143.32 103.96C161.04 88.11 185.62 80.1 213.96 77.95C284.33 72.6 299.81 98.68 375.94 93.72C393.49 92.55 410.86 90.55 428.23 88.79C446.3 86.97 464.64 86.7 480.75 92.68C496.34 98.43 508.66 108.85 518.97 120.4C540.66 144.7 556.74 177.21 548.25 215.12Z" fill="#376881"/>
<path d="M493.71 199.11C491.54 222.02 478.7 233.34 457.16 237.36C436.85 241.16 412.28 236.98 387.61 235.78C360.12 234.44 334.41 248.62 308.18 259.59C295.92 264.72 283.31 269.56 270.72 272.32C260.88 274.47 251.04 275.36 242.14 274.47C232.7 273.53 225.05 270.35 219.05 265.92C212.03 260.74 207.1 254.54 201.56 247.74C195.59 240.4 188.16 232.72 182.48 222.51C177.58 213.7 175.53 203.12 174.25 191.4C171.6 167.13 175.79 146.49 191.69 132.39C207.45 118.4 231 113.55 259.7 113.82C302.47 114.23 321.47 124.07 370.49 120.55C382.47 119.66 394.36 118.42 406.14 117.46C418.54 116.47 430.95 116.45 442.02 119.9C452.87 123.23 461.85 129.24 469.47 136.3C485.39 151.12 496.26 172.16 493.71 199.11Z" fill="#234866"/>
<path d="M348.3 206.79C396.77 218.13 444.12 224.07 439.18 183.09C431.62 120.44 345.76 158.33 305.44 149.69C246.52 137.05 211.79 172.08 230.84 217.79C252.12 268.88 302.34 196.04 348.3 206.79Z" fill="#0F284B"/>
</svg>
