<svg width="553" height="517" viewBox="0 0 553 517" fill="none" xmlns="http://www.w3.org/2000/svg">
<path d="M58.4093 213.954C57.8345 273.752 80.6661 298.769 153.837 296.231C223.307 293.818 237.021 322.493 259.808 361.327C288.567 410.343 298.384 415.697 374.348 436.45C451.775 457.597 480.875 437.423 492.731 407.182C505.934 373.502 514.335 315.664 461.761 287.465C395.587 251.975 399.871 210.817 384.537 183.643C369.203 156.47 338.57 113.524 296.748 109.398C254.925 105.271 136.721 47.6559 103.93 81.0494C71.1383 114.443 59.1474 138.207 58.4093 213.954Z" stroke="#3C8098" stroke-opacity="0.2" stroke-miterlimit="10"/>
<path d="M118.818 103.105C94.826 132.005 84.9614 151.605 86.6467 210.4C87.7966 250.661 102.739 270.786 145.802 274.271C152.046 274.774 158.844 274.924 166.233 274.728C221.047 273.166 233.94 294.322 253.386 323.304C277.863 359.783 287.798 363.796 347.347 380.491C407.357 397.21 430.978 383.569 441.85 363.625C453.901 341.531 465.53 296.899 427.807 273.618C380.189 244.23 382.453 211.059 366.823 187.053C352.522 165.084 324.303 129.705 286.956 123.151C245.327 115.845 146.383 69.9103 118.818 103.105Z" stroke="#3C8098" stroke-opacity="0.2" stroke-miterlimit="10"/>
<path d="M133.698 125.172C117.986 148.883 110.751 164.978 114.88 206.852C117.663 235.096 130.197 249.668 163.089 252.683C167.899 253.13 173.074 253.322 178.631 253.235C218.789 252.61 230.844 266.149 246.965 285.282C267.133 309.221 277.189 311.989 320.349 324.541C362.921 336.921 381.11 329.65 390.981 320.076C401.904 309.483 416.887 278.231 393.859 259.775C364.935 236.585 365.21 211.27 349.108 190.463C336.07 173.612 310.05 145.488 277.164 136.904C235.694 126.08 155.933 91.6179 133.698 125.172Z" stroke="#3C8098" stroke-opacity="0.2" stroke-miterlimit="10"/>
<path d="M148.573 147.235C140.308 165.022 136.42 178.266 143.104 203.306C147.431 219.488 157.639 228.549 180.361 231.094C183.74 231.478 187.285 231.697 191.018 231.733C216.515 231.965 227.676 237.968 240.534 247.262C256.323 258.664 266.581 260.107 293.335 268.589C318.489 276.566 331.507 275.754 340.092 276.53C350.211 277.451 368.556 260.105 359.897 245.94C349.901 229.588 348.248 211.311 331.38 193.88C319.867 181.981 295.863 160.908 267.352 150.661C226.172 135.863 164.715 112.508 148.573 147.235Z" stroke="#3C8098" stroke-opacity="0.2" stroke-miterlimit="10"/>
<path d="M163.447 169.299C160.262 187.133 161.952 203.602 197.648 209.506C233.345 215.41 261.686 193.7 289.212 232.983C305.346 256.012 354.81 227.991 313.662 197.296C287.622 177.868 173.964 110.408 163.447 169.299Z" stroke="#3C8098" stroke-opacity="0.2" stroke-miterlimit="10"/>
<path d="M203.236 155.863C201.842 155.638 200.449 155.449 199.048 155.271C194.94 154.393 190.517 155.307 186.904 157.478C181.791 160.551 178.698 166.085 177.558 171.824C176.435 177.516 176.921 183.966 179.857 189.068C183.016 194.558 189.148 197.599 195.035 199.26C198.203 200.153 201.538 200.601 204.825 200.299C207.736 200.024 210.511 199.101 213.173 197.927C218.389 195.633 223.395 192.434 229.215 192.019C232.084 191.817 235.048 192.1 237.83 191.24C240.564 190.39 242.687 188.303 243.743 185.658C245.995 180.022 243.175 173.816 239.122 169.799C235.028 165.744 229.613 163.323 224.271 161.37C217.463 158.87 210.409 157.024 203.236 155.863Z" stroke="#3C8098" stroke-opacity="0.2" stroke-miterlimit="10"/>
<path d="M280.553 191.334C278.928 192.636 277.823 196.192 279.095 198.761C281.55 203.723 287.016 208.668 288.351 211.135C289.408 213.085 290.335 215.113 291.11 217.197C291.846 219.169 292.371 221.198 293.03 223.192C293.643 225.035 294.414 226.895 295.716 228.359C297.144 229.962 299.077 230.879 301.184 231.193C303.421 231.529 305.723 231.271 307.933 230.865C309.92 230.498 311.919 229.978 313.689 228.982C322.185 224.191 316.884 212.62 312.609 206.752C307.752 200.093 300.757 195.153 293.242 191.92C289.375 190.248 284.297 188.344 280.553 191.334Z" stroke="#3C8098" stroke-opacity="0.2" stroke-miterlimit="10"/>
<path d="M410.439 317.28C402.356 319.675 397.422 326.93 391.213 332.289C382.891 339.477 377.124 342.595 369.911 343.332C367.955 343.533 365.986 343.546 364.021 343.407C361.649 343.241 359.292 342.906 356.915 342.795C353.138 342.627 349.065 343.163 346.049 345.649C343.187 348.012 342.319 351.717 343.086 355.253C343.918 359.098 346.478 362.141 349.623 364.372C353.164 366.89 357.301 368.529 361.312 370.131C365.728 371.897 370.234 373.436 374.842 374.611C383.335 376.772 392.226 377.635 400.921 376.229C408.66 374.983 416.175 371.987 422.222 366.932C428.487 361.699 432.971 354.394 434.897 346.468C436.811 338.585 436.343 329.489 431.099 322.934C428.715 319.956 425.496 317.757 421.779 316.821C418.054 315.896 414.094 316.196 410.439 317.28Z" stroke="#3C8098" stroke-opacity="0.2" stroke-miterlimit="10"/>
<path d="M295.669 337.842C290.709 352.45 304.609 356.448 319.022 357.42C331.8 358.281 343.395 345.337 327.129 339.225C310.863 333.114 300.046 324.948 295.669 337.842Z" stroke="#3C8098" stroke-opacity="0.2" stroke-miterlimit="10"/>
</svg>
