<svg width="483" height="414" viewBox="0 0 483 414" fill="none" xmlns="http://www.w3.org/2000/svg">
<path d="M2.49993 202.28C7.71993 225.06 21.3599 242.91 37.0799 254.44C56.0299 268.34 77.8999 272.71 99.4499 274.51C122.26 276.42 145.34 275.54 167.86 281.11C178.38 283.71 188.8 287.63 198.37 293.87C207.61 299.9 215.66 308.05 222.8 317.66C236.76 336.44 247.35 359.05 262.37 376.58C277.1 393.77 295.62 405.01 315.09 410.1C356.17 420.83 402.43 408.1 431.65 372.64C473.21 322.2 485.66 240.49 481.71 183.36C479.81 155.82 473.63 128.78 462.29 105.27C451.84 83.6 437.54 65.38 421.32 50.86C384.49 17.89 339.3 5.96002 295.09 2.27002C253.4 -1.20998 211.08 1.35001 170.05 12.45C130.17 23.25 91.2499 42.6 57.7399 73.01C40.7599 88.42 24.8299 106.42 13.5099 129.09C2.71994 150.71 -3.27007 177.09 2.49993 202.28Z" fill="#5FA7B6"/>
<path d="M426.28 341.89C462.25 298.48 473.86 227.85 470.27 177.14C468.6 153.3 463.22 129.93 453.43 109.57C444.43 90.85 432.13 75.04 418.15 62.36C386.6 33.8 347.8 22.92 309.62 19.04C273.79 15.48 237.42 17.58 201.78 25.8C165.5 34.17 128.49 50.4 98.74 78.15C83.88 91.93 70.3 108.25 60.96 128.44C55.75 139.77 52.02 152.43 51.04 165.36C50.34 174.59 51.03 183.87 53.43 192.88C58.69 212.56 71.2501 227.58 85.3401 237.53C101.88 249.2 120.74 253.14 139.31 255.08C141.35 255.29 143.39 255.48 145.43 255.65C162.99 257.13 180.54 257.56 197.65 262.36C203.64 264.04 209.59 266.21 215.31 269.15C218.1 270.58 220.83 272.19 223.48 274.01C231.31 279.38 238.14 286.53 244.22 294.89C251.83 305.36 258.31 317.13 265.39 328.22C269.39 334.5 273.59 340.55 278.27 346.03C291.01 360.92 307.01 370.69 323.88 375.13C359.99 384.65 400.49 372.94 426.28 341.89Z" fill="#5292A4"/>
<path d="M420.91 311.14C451.28 274.76 462.07 215.22 458.83 170.92C457.39 150.78 452.82 131.09 444.58 113.88C437.02 98.11 426.73 84.72 414.99 73.88C388.71 49.73 356.33 39.81 324.16 35.82C294.2 32.1 264 35.69 233.52 39.16C200.47 42.93 165.81 58.29 139.75 83.3C127.05 95.49 115.74 110.08 108.42 127.8C104.29 137.78 101.53 148.84 101.19 159.96C100.94 168 101.96 175.91 104.37 183.49C109.67 200.06 121.14 212.26 133.61 220.62C147.72 230.08 163.59 233.56 179.18 235.64C180.89 235.86 182.59 236.07 184.3 236.27C198.95 237.94 213.41 238.99 227.45 243.6C232.36 245.2 237.23 247.21 241.91 249.83C244.19 251.11 246.42 252.53 248.6 254.13C255.02 258.85 260.63 264.99 265.65 272.1C271.95 281.04 277.37 291.01 283.32 300.4C286.69 305.72 290.23 310.84 294.19 315.47C304.94 328.06 318.42 336.36 332.68 340.16C363.81 348.47 398.54 337.78 420.91 311.14Z" fill="#447D92"/>
<path d="M415.55 280.4C440.4 251.11 450.29 202.59 447.4 164.71C446.19 148.27 442.43 132.26 435.73 118.19C429.62 105.36 421.34 94.37 411.83 85.4C390.87 65.62 364.84 56.76 338.7 52.6C314.6 48.77 289.92 49.7 265.27 52.52C235.98 55.87 203.1 66.12 180.78 88.45C170.22 99.01 161.23 111.93 155.9 127.15C152.87 135.8 151.07 145.24 151.37 154.55C151.58 161.4 152.91 167.94 155.33 174.09C160.67 187.56 171.03 196.94 181.89 203.7C193.55 210.96 206.44 214.01 219.06 216.2C220.43 216.44 221.81 216.66 223.18 216.89C234.91 218.79 246.29 220.45 257.26 224.85C261.09 226.39 264.88 228.22 268.52 230.53C270.29 231.66 272.03 232.9 273.73 234.26C278.73 238.32 283.13 243.47 287.09 249.32C292.08 256.74 296.43 264.9 301.26 272.58C304 276.95 306.89 281.13 310.11 284.91C318.87 295.21 329.83 302.04 341.49 305.18C367.63 312.3 396.65 302.67 415.55 280.4Z" fill="#376881"/>
<path d="M410.18 249.65C429.44 227.4 438.5 189.96 435.97 158.5C434.99 145.75 432.04 133.43 426.89 122.51C422.23 112.63 415.95 104.05 408.68 96.92C393 81.54 373.37 73.72 353.25 69.39C335.02 65.47 316.06 65.43 297.02 65.88C271.06 66.5 240.37 73.94 221.8 93.6C213.37 102.53 206.72 113.78 203.37 126.51C201.44 133.83 200.62 141.66 201.53 149.15C202.22 154.82 203.84 159.98 206.27 164.69C211.63 175.07 220.89 181.64 230.16 186.79C239.35 191.89 249.29 194.45 258.93 196.77C259.97 197.02 261.01 197.27 262.05 197.51C270.86 199.61 279.16 201.88 287.06 206.09C289.81 207.55 292.52 209.22 295.12 211.21C296.39 212.19 297.64 213.24 298.84 214.38C302.44 217.78 305.62 221.92 308.51 226.52C312.21 232.4 315.48 238.78 319.18 244.74C321.29 248.15 323.53 251.4 326.01 254.34C332.78 262.34 341.21 267.7 350.27 270.2C371.45 276.12 394.71 267.52 410.18 249.65Z" fill="#2A526F"/>
<path d="M404.81 218.91C418.46 203.67 426.71 177.33 424.53 152.29C423.78 143.24 421.63 134.59 418.04 126.82C414.83 119.89 410.55 113.73 405.52 108.44C395.11 97.48 381.89 90.71 367.79 86.17C355.42 82.19 342.14 80.77 328.76 79.24C306.08 76.66 277.6 81.72 262.82 98.75C256.5 106.03 252.23 115.64 250.84 125.87C250.03 131.86 250.2 138.07 251.69 143.76C252.87 148.24 254.78 152.03 257.21 155.31C262.62 162.59 270.71 166.41 278.43 169.89C285.1 172.89 292.13 174.88 298.8 177.34C299.51 177.6 300.21 177.87 300.91 178.14C306.8 180.43 312.02 183.32 316.85 187.34C318.52 188.73 320.15 190.23 321.71 191.91C322.48 192.74 323.23 193.6 323.95 194.52C326.14 197.27 328.09 200.4 329.93 203.75C332.32 208.1 334.53 212.68 337.1 216.94C338.58 219.4 340.17 221.71 341.92 223.8C346.7 229.5 352.61 233.39 359.07 235.24C375.27 239.95 392.75 232.36 404.81 218.91Z" fill="#1C3D5D"/>
<path d="M301.85 138.35C307.4 148.97 317.69 150.66 326.71 152.97C331.23 154.13 335.87 155.52 339.79 158.76C343.78 162.06 346.27 167.22 348.33 172.6C350.46 178.17 352.2 184.07 355.05 189.11C358.22 194.72 362.62 198.61 367.88 200.26C379.1 203.77 390.75 197.15 399.45 188.16C407.44 179.89 414.92 164.7 413.1 146.07C410.6 120.45 389.42 103.39 360.51 92.6C341.54 85.51 314.76 89.44 303.84 103.9C297.04 112.9 296.44 127.99 301.85 138.35Z" fill="#0F284B"/>
</svg>
