<svg width="512" height="720" viewBox="0 0 512 720" fill="none" xmlns="http://www.w3.org/2000/svg">
<path d="M272.98 6.62002C181.55 19.12 148.46 59.59 168.72 170.75C187.96 276.29 147.25 303.64 93.0601 347.13C24.6601 402.02 18.68 418.21 4.01001 538.84C-10.94 661.79 26.38 701.71 75.21 713.04C129.59 725.66 219.78 725.54 251.07 638.95C290.45 529.97 354.24 527.29 392.3 497.8C430.35 468.3 489.07 411.92 486 347.13C482.93 282.34 544.45 88.97 486.12 46.38C427.79 3.79002 388.79 -9.21999 272.98 6.62002Z" fill="#80CFD4"/>
<path d="M455.75 74.03C406.25 43.86 374.11 33.2 284.72 48.93C223.5 59.7 196.12 87.02 200.45 153.56C201.07 163.21 202.37 173.62 204.32 184.86C218.98 268.2 189.56 292.63 149.67 328.8C99.4501 374.34 95.5501 390.41 83.3901 485.07C71.3001 580.44 97.4201 613.45 130.3 625.59C166.73 639.04 237.49 646.81 264.59 584C298.8 504.71 349.95 500.74 383.11 471.5C413.45 444.75 461.15 393.74 462.8 335.24C464.62 270.04 512.61 108.69 455.75 74.03Z" fill="#60AEBA"/>
<path d="M425.39 101.69C385.67 83.01 359.48 75.57 296.46 91.24C253.96 101.81 234.52 124.21 237.28 175.11C237.68 182.55 238.54 190.5 239.92 198.97C249.87 260.15 231.89 281.58 206.28 310.48C174.24 346.64 172.27 362.61 162.77 431.31C153.39 499.09 168.58 525.22 185.4 538.15C204.02 552.46 255.09 568.33 278.12 529.05C307.05 479.7 345.77 474.45 373.93 445.2C396.74 421.52 433.85 375.49 439.6 323.35C446.84 257.63 481.6 128.13 425.39 101.69Z" fill="#408D9F"/>
<path d="M395.03 129.34C366.02 120.7 344.93 117.73 308.2 133.55C284.46 143.77 272.91 161.39 274.11 196.66C274.28 201.9 274.73 207.37 275.52 213.07C280.87 252.05 274.2 270.44 262.9 292.15C249.02 318.81 249.12 334.8 242.16 377.54C235.62 417.73 239.77 437.43 240.5 450.7C241.36 466.36 271.95 490.48 291.65 474.09C314.38 455.17 341.91 448.55 364.75 418.9C380.34 398.65 407.14 357.29 416.4 311.47C429.77 245.28 451.67 146.21 395.03 129.34Z" fill="#206C85"/>
<path d="M364.68 157C336.74 156.13 311.97 162.4 310.95 218.22C309.93 274.04 349.42 312.46 295.6 363.28C264.05 393.07 317.91 462.32 355.57 392.62C379.39 348.51 456.95 159.87 364.68 157Z" fill="#004B6A"/>
<path d="M394.1 214.74C394.13 212.57 394.11 210.39 394.06 208.22C394.48 201.76 392.09 195.2 387.97 190.18C382.14 183.06 372.99 179.57 363.97 179.13C355.03 178.69 345.29 180.87 338.16 186.5C330.49 192.55 327.21 202.59 325.99 211.96C325.33 217 325.39 222.19 326.6 227.14C327.67 231.52 329.7 235.55 332.09 239.35C336.77 246.8 342.77 253.72 344.7 262.53C345.65 266.86 345.88 271.45 347.82 275.51C349.73 279.5 353.39 282.27 357.67 283.29C366.78 285.47 375.63 279.77 380.85 272.68C386.12 265.52 388.61 256.7 390.39 248.12C392.69 237.14 393.93 225.95 394.1 214.74Z" fill="#0F284B"/>
<path d="M357.25 340.73C354.9 338.53 349.22 337.65 345.58 340.17C338.55 345.03 332.23 354.48 328.76 357.07C326.02 359.12 323.13 360.99 320.13 362.64C317.29 364.2 314.3 365.46 311.41 366.92C308.74 368.27 306.07 369.86 304.12 372.18C301.99 374.71 301.03 377.87 301.02 381.16C301.01 384.65 301.92 388.11 303.03 391.4C304.03 394.35 305.27 397.29 307.19 399.77C316.4 411.67 332.89 400.99 340.9 393.14C349.98 384.24 355.95 372.45 359.21 360.25C360.88 353.96 362.66 345.78 357.25 340.73Z" fill="#0F284B"/>
<path d="M194.03 567.25C188.57 555.45 176.38 549.54 166.81 541.25C153.98 530.15 147.92 522.05 145.18 511.19C144.44 508.24 143.97 505.24 143.74 502.22C143.46 498.56 143.45 494.89 143.08 491.23C142.49 485.43 140.76 479.32 136.29 475.28C132.04 471.45 126.19 470.94 120.96 472.9C115.28 475.03 111.2 479.62 108.49 484.92C105.44 490.89 103.86 497.58 102.32 504.06C100.62 511.19 99.27 518.42 98.51 525.72C97.12 539.17 97.79 552.94 101.87 565.9C105.51 577.44 111.76 588.24 120.84 596.34C130.23 604.73 142.39 609.95 154.92 611.11C167.39 612.27 181.17 609.52 190.01 600.04C194.03 595.73 196.66 590.33 197.25 584.44C197.85 578.57 196.5 572.59 194.03 567.25Z" fill="#408D9F"/>
<path d="M136.94 396.61C113.53 392.31 110.54 414.43 112.28 436.65C113.83 456.35 136.19 471.15 141.87 444.95C147.55 418.75 157.6 400.41 136.94 396.61Z" fill="#408D9F"/>
</svg>
