<svg width="28" height="18" viewBox="0 0 28 18" fill="none" xmlns="http://www.w3.org/2000/svg">
<path d="M20.4578 8.91127C20.9481 9.15523 21.4229 9.4373 21.8788 9.75208C22.7015 10.3206 23.447 10.9773 24.1225 11.7142C25.0228 12.6966 25.7616 13.7894 26.3424 14.9895C26.7096 15.7483 27.0003 16.5358 27.2304 17.3465C27.2482 17.4088 27.2422 17.4323 27.1679 17.4323C25.614 17.4303 24.0599 17.4301 22.506 17.4329C22.4235 17.4331 22.4092 17.39 22.3897 17.33C22.049 16.2847 21.5606 15.3152 20.8924 14.4409C19.878 13.1139 18.6011 12.151 16.9974 11.646C16.5477 11.5043 16.0872 11.4144 15.62 11.3565C15.5646 11.3497 15.5479 11.3671 15.5527 11.4189C15.5551 11.4453 15.5531 11.472 15.5531 11.4987C15.5531 13.4335 15.5531 15.3685 15.5531 17.3032C15.5531 17.4307 15.5531 17.4303 15.424 17.4307C14.8031 17.4335 14.1825 17.4229 13.5634 17.3736C11.2158 17.1863 9.0018 16.5663 6.98646 15.3152C6.03727 14.7259 5.18213 14.0202 4.41943 13.2025C2.93787 11.6146 1.91595 9.75727 1.21263 7.71418C0.833471 6.61265 0.559912 5.48439 0.370234 4.33498C0.241723 3.55521 0.149872 2.77184 0.0910957 1.98389C0.0552321 1.50335 0.0392928 1.022 0.015583 0.54085C0.0110004 0.448291 0.0283345 0.41777 0.129749 0.41797C1.61071 0.42176 3.09168 0.421161 4.57245 0.418967C4.64975 0.418768 4.67824 0.430138 4.67984 0.518708C4.69219 1.20971 4.73742 1.89872 4.81353 2.58593C4.95061 3.8247 5.19388 5.04014 5.59197 6.22247C5.93825 7.25099 6.39432 8.22625 7.00878 9.12332C7.72406 10.1676 8.59913 11.0429 9.71389 11.6605C10.1146 11.8825 10.5352 12.0577 10.9781 12.1784C11.0659 12.2023 11.0853 12.1855 11.0849 12.0978C11.0823 11.383 11.0835 10.6683 11.0835 9.95356C11.0835 6.8219 11.0835 3.69025 11.0837 0.558604C11.0837 0.395628 11.0679 0.421361 11.2206 0.421161C12.6252 0.420363 14.0297 0.42176 15.4343 0.418568C15.5286 0.418369 15.5553 0.438716 15.5551 0.53706C15.5519 2.70123 15.5527 4.8656 15.5527 7.02976C15.5527 7.15564 15.5523 7.15205 15.6798 7.1327C16.6356 6.98648 17.4604 6.55121 18.2139 5.96813C19.3721 5.07206 20.2508 3.9422 20.941 2.65854C21.3122 1.96814 21.6068 1.24641 21.817 0.49078C21.8316 0.438516 21.8533 0.419167 21.9113 0.419366C23.3291 0.421361 24.7469 0.420962 26.1649 0.421161C26.1842 0.421161 26.2038 0.424752 26.2462 0.428941C25.5036 4.07445 23.5026 6.84345 20.4578 8.91127Z" fill="#FEFEFF"/>
</svg>
