<svg width="32" height="32" viewBox="0 0 32 32" fill="none" xmlns="http://www.w3.org/2000/svg">
<g clip-path="url(#clip0_230_739)">
<path fill-rule="evenodd" clip-rule="evenodd" d="M22.5989 0.286865C23.1511 0.286865 23.5989 0.73458 23.5989 1.28687V3.16115C23.5989 3.71344 23.1511 4.16115 22.5989 4.16115C22.0466 4.16115 21.5989 3.71344 21.5989 3.16115V1.28687C21.5989 0.73458 22.0466 0.286865 22.5989 0.286865ZM13.8417 3.81234C14.1587 3.36008 14.7823 3.25042 15.2345 3.56741L16.7705 4.64398C17.2228 4.96096 17.3324 5.58456 17.0155 6.03682C16.6985 6.48908 16.0749 6.59874 15.6226 6.28175L14.0866 5.20518C13.6344 4.8882 13.5247 4.2646 13.8417 3.81234ZM31.3488 3.81177C31.6661 4.26381 31.5569 4.88748 31.1048 5.20478L29.5711 6.28135C29.1191 6.59865 28.4954 6.48943 28.1781 6.03739C27.8608 5.58535 27.97 4.96168 28.4221 4.64438L29.9558 3.56781C30.4078 3.25051 31.0315 3.35973 31.3488 3.81177ZM22.4876 5.89378C23.2378 5.88573 23.9823 6.02596 24.6782 6.30641C25.3741 6.58686 26.0078 7.00201 26.5428 7.52802C27.0778 8.05403 27.5037 8.68055 27.7959 9.37159C28.0881 10.0626 28.241 10.8046 28.2457 11.5549C28.2458 11.5645 28.2457 11.574 28.2455 11.5836C28.2223 12.6158 27.9229 13.6245 27.3721 14.502C26.9345 15.1992 26.3532 15.7917 25.6697 16.2418V17.9954C25.6697 18.0057 25.6696 18.016 25.6692 18.0263C25.6571 18.4209 25.4917 18.7953 25.2082 19.0701C24.9247 19.3448 24.5455 19.4984 24.1509 19.4983C24.1507 19.4983 24.1505 19.4983 24.1504 19.4983H21.04L21.0361 19.4983C20.6424 19.4967 20.2647 19.3424 19.9826 19.0678C19.7005 18.7932 19.536 18.4198 19.5239 18.0263C19.5237 18.0188 19.5235 18.0113 19.5235 18.0038C19.5234 18.001 19.5234 17.9982 19.5234 17.9954V16.2836C18.8653 15.8511 18.3016 15.2861 17.8695 14.6223C17.3222 13.7814 17.0055 12.8115 16.9512 11.8096L16.9504 11.791C16.9237 11.0411 17.0454 10.2934 17.3086 9.59069C17.5717 8.88802 17.971 8.24424 18.4837 7.69633C18.9963 7.14842 19.6121 6.70716 20.2957 6.3979C20.9793 6.08864 21.7173 5.91746 22.4673 5.8942L22.4876 5.89378ZM22.5192 7.89357C22.036 7.90988 21.5606 8.02081 21.1201 8.22011C20.6764 8.42081 20.2768 8.70716 19.9441 9.06273C19.6115 9.41829 19.3523 9.83607 19.1816 10.2921C19.0119 10.7452 18.9328 11.2271 18.9488 11.7106C18.9856 12.3592 19.1914 12.9868 19.5458 13.5313C19.9019 14.0785 20.3955 14.5224 20.9772 14.8186C21.3124 14.9893 21.5234 15.3336 21.5234 15.7097V17.4983H23.6697V15.6686C23.6697 15.2929 23.8803 14.9489 24.2149 14.778C24.8146 14.4718 25.3202 14.009 25.6782 13.4387C26.0326 12.8739 26.228 12.223 26.2456 11.5531C26.2407 11.0711 26.1416 10.5946 25.9538 10.1506C25.7642 9.70213 25.4878 9.29556 25.1406 8.9542C24.7934 8.61285 24.3822 8.34344 23.9306 8.16144C23.4821 7.98071 23.0026 7.88971 22.5192 7.89357ZM9.56311 9.00028C10.2628 8.98405 10.9587 9.10785 11.6098 9.36439C12.261 9.62094 12.8543 10.0051 13.3549 10.4942C13.8555 10.9833 14.2532 11.5675 14.5248 12.2126C14.7964 12.8576 14.9363 13.5504 14.9363 14.2503C14.9363 14.9502 14.7964 15.643 14.5248 16.288C14.2532 16.9331 13.8555 17.5173 13.3549 18.0064C12.8543 18.4955 12.261 18.8796 11.6098 19.1362C10.9587 19.3927 10.2628 19.5165 9.56311 19.5003C8.1918 19.4685 6.88736 18.9014 5.92874 17.9203C4.97013 16.9392 4.43343 15.622 4.43343 14.2503C4.43343 12.8786 4.97013 11.5614 5.92874 10.5803C6.88736 9.59917 8.1918 9.03208 9.56311 9.00028ZM10.8767 11.2252C10.4735 11.0663 10.0427 10.9897 9.60948 10.9997C8.76043 11.0194 7.95278 11.3705 7.35926 11.978C6.76573 12.5854 6.43343 13.401 6.43343 14.2503C6.43343 15.0996 6.76573 15.9151 7.35926 16.5226C7.95278 17.13 8.76043 17.4812 9.60948 17.5008C10.0427 17.5109 10.4735 17.4342 10.8767 17.2754C11.2799 17.1166 11.6472 16.8787 11.9572 16.5759C12.2671 16.2731 12.5134 15.9113 12.6815 15.512C12.8497 15.1126 12.9363 14.6836 12.9363 14.2503C12.9363 13.817 12.8497 13.388 12.6815 12.9886C12.5134 12.5893 12.2671 12.2275 11.9572 11.9247C11.6472 11.6219 11.2799 11.384 10.8767 11.2252ZM9.59087 21.4823V21.4823C12.9441 21.49 16.1101 23.3381 17.7618 26.2595C18.5454 27.6444 18.9651 29.2053 18.9817 30.7965C18.9874 31.3487 18.5444 31.8011 17.9921 31.8068C17.4399 31.8126 16.9875 31.3695 16.9818 30.8173C16.9687 29.5643 16.6382 28.3351 16.0211 27.2445L16.0209 27.2441C14.7247 24.9511 12.2244 23.49 9.59086 23.4823C8.28306 23.4923 7.0007 23.8449 5.87162 24.5051C4.7419 25.1656 3.80518 26.1108 3.15493 27.2465C2.53822 28.3371 2.20808 29.5664 2.19538 30.8193C2.18979 31.3715 1.73756 31.8147 1.1853 31.8091C0.633046 31.8035 0.18989 31.3513 0.195487 30.799C0.21162 29.207 0.631346 27.6452 1.41539 26.2595L1.41774 26.2554L1.41775 26.2554C2.24186 24.815 3.42956 23.6161 4.86217 22.7785C6.29477 21.9409 7.92211 21.494 9.58156 21.4823L9.59087 21.4823Z" fill="#E04E39"/>
</g>
<defs>
<clipPath id="clip0_230_739">
<rect width="32" height="32" fill="white"/>
</clipPath>
</defs>
</svg>
