<svg width="32" height="32" viewBox="0 0 32 32" fill="none" xmlns="http://www.w3.org/2000/svg">
<path d="M18.25 14.7812C18.6458 14.9375 19.0312 15.1094 19.4062 15.2969C19.7812 15.4844 20.1458 15.6979 20.5 15.9375C20.2708 16.1875 20.0625 16.4479 19.875 16.7188C19.6875 16.9896 19.5156 17.2812 19.3594 17.5938C18.5573 17.0729 17.7031 16.6771 16.7969 16.4062C15.8906 16.1354 14.9583 16 14 16C13.0833 16 12.1979 16.1198 11.3438 16.3594C10.4896 16.599 9.69271 16.9323 8.95312 17.3594C8.21354 17.7865 7.54167 18.3073 6.9375 18.9219C6.33333 19.5365 5.8125 20.2135 5.375 20.9531C4.9375 21.6927 4.59896 22.4896 4.35938 23.3438C4.11979 24.1979 4 25.0833 4 26H2C2 24.75 2.18229 23.5469 2.54688 22.3906C2.91146 21.2344 3.4375 20.1667 4.125 19.1875C4.8125 18.2083 5.625 17.3385 6.5625 16.5781C7.5 15.8177 8.5625 15.2188 9.75 14.7812C8.57292 14.0104 7.65625 13.0417 7 11.875C6.34375 10.7083 6.01042 9.41667 6 8C6 6.89583 6.20833 5.85938 6.625 4.89062C7.04167 3.92188 7.60938 3.07292 8.32812 2.34375C9.04688 1.61458 9.89583 1.04167 10.875 0.625C11.8542 0.208333 12.8958 0 14 0C15.1042 0 16.1406 0.208333 17.1094 0.625C18.0781 1.04167 18.9271 1.60938 19.6562 2.32812C20.3854 3.04688 20.9583 3.89583 21.375 4.875C21.7917 5.85417 22 6.89583 22 8C22 8.6875 21.9167 9.35938 21.75 10.0156C21.5833 10.6719 21.3333 11.2917 21 11.875C20.6667 12.4583 20.276 12.9948 19.8281 13.4844C19.3802 13.974 18.8542 14.4062 18.25 14.7812ZM8 8C8 8.83333 8.15625 9.60938 8.46875 10.3281C8.78125 11.0469 9.20833 11.6823 9.75 12.2344C10.2917 12.7865 10.9271 13.2188 11.6562 13.5312C12.3854 13.8438 13.1667 14 14 14C14.8229 14 15.599 13.8438 16.3281 13.5312C17.0573 13.2188 17.6927 12.7917 18.2344 12.25C18.776 11.7083 19.2083 11.0729 19.5312 10.3438C19.8542 9.61458 20.0104 8.83333 20 8C20 7.17708 19.8438 6.40104 19.5312 5.67188C19.2188 4.94271 18.7917 4.30729 18.25 3.76562C17.7083 3.22396 17.0677 2.79167 16.3281 2.46875C15.5885 2.14583 14.8125 1.98958 14 2C13.1667 2 12.3906 2.15625 11.6719 2.46875C10.9531 2.78125 10.3177 3.20833 9.76562 3.75C9.21354 4.29167 8.78125 4.93229 8.46875 5.67188C8.15625 6.41146 8 7.1875 8 8ZM31 21C31 21.5417 30.9167 22.0677 30.75 22.5781C30.5833 23.0885 30.3333 23.5625 30 24V32L26 30L22 32V24C21.6771 23.5625 21.4323 23.0885 21.2656 22.5781C21.099 22.0677 21.0104 21.5417 21 21C21 20.3125 21.1302 19.6667 21.3906 19.0625C21.651 18.4583 22.0052 17.9323 22.4531 17.4844C22.901 17.0365 23.4323 16.6771 24.0469 16.4062C24.6615 16.1354 25.3125 16 26 16C26.6875 16 27.3333 16.1302 27.9375 16.3906C28.5417 16.651 29.0677 17.0104 29.5156 17.4688C29.9635 17.9271 30.3229 18.4583 30.5938 19.0625C30.8646 19.6667 31 20.3125 31 21ZM26 18C25.5833 18 25.1927 18.0781 24.8281 18.2344C24.4635 18.3906 24.1458 18.6042 23.875 18.875C23.6042 19.1458 23.3906 19.4635 23.2344 19.8281C23.0781 20.1927 23 20.5833 23 21C23 21.4167 23.0781 21.8073 23.2344 22.1719C23.3906 22.5365 23.6042 22.8542 23.875 23.125C24.1458 23.3958 24.4635 23.6094 24.8281 23.7656C25.1927 23.9219 25.5833 24 26 24C26.4167 24 26.8073 23.9219 27.1719 23.7656C27.5365 23.6094 27.8542 23.3958 28.125 23.125C28.3958 22.8542 28.6094 22.5365 28.7656 22.1719C28.9219 21.8073 29 21.4167 29 21C29 20.5833 28.9219 20.1927 28.7656 19.8281C28.6094 19.4635 28.3958 19.1458 28.125 18.875C27.8542 18.6042 27.5365 18.3906 27.1719 18.2344C26.8073 18.0781 26.4167 18 26 18ZM28 28.7656V25.5781C27.375 25.8594 26.7083 26 26 26C25.2917 26 24.625 25.8594 24 25.5781V28.7656C24.3333 28.599 24.6667 28.4375 25 28.2812C25.3333 28.125 25.6667 27.9531 26 27.7656C26.3333 27.9427 26.6667 28.1094 27 28.2656C27.3333 28.4219 27.6667 28.5885 28 28.7656Z" fill="#E04E39"/>
</svg>
