<svg width="32" height="32" viewBox="0 0 32 32" fill="none" xmlns="http://www.w3.org/2000/svg">
<path fill-rule="evenodd" clip-rule="evenodd" d="M16 4.28442C16.5523 4.28442 17 4.73214 17 5.28442V6.57882C17.5952 6.62216 18.169 6.82699 18.6587 7.17334C19.2136 7.56585 19.6332 8.1208 19.8595 8.76171C20.0434 9.28247 19.7703 9.85373 19.2496 10.0376C18.7288 10.2215 18.1576 9.94847 17.9736 9.42771C17.8851 9.17692 17.7209 8.95976 17.5038 8.80618C17.2866 8.65259 17.0272 8.57012 16.7612 8.57014H14.9959C14.74 8.57115 14.4934 8.66638 14.3032 8.83765C14.1128 9.0092 13.9923 9.24498 13.9648 9.49984C13.9374 9.7547 14.005 10.0107 14.1546 10.2189C14.3039 10.4267 14.5247 10.5723 14.7746 10.6277C14.7749 10.6278 14.7752 10.6279 14.7756 10.6279L17.4636 11.2144C18.258 11.3844 18.9613 11.8427 19.4377 12.5009C19.9145 13.1598 20.1301 13.9721 20.0426 14.7807C19.9551 15.5893 19.5708 16.3368 18.9641 16.8784C18.4178 17.3661 17.7261 17.6558 17 17.7054V18.9987C17 19.551 16.5523 19.9987 16 19.9987C15.4477 19.9987 15 19.551 15 18.9987V17.7042C14.4056 17.6604 13.8326 17.4557 13.3436 17.1098C12.7887 16.7173 12.3691 16.1623 12.1428 15.5214C11.9589 15.0007 12.2319 14.4294 12.7527 14.2455C13.2735 14.0616 13.8447 14.3347 14.0286 14.8554C14.1172 15.1062 14.2814 15.3234 14.4985 15.477C14.7157 15.6305 14.9751 15.713 15.2411 15.713H16.7689C17.0871 15.7147 17.3947 15.5984 17.6322 15.3864C17.8696 15.1745 18.0199 14.882 18.0542 14.5656C18.0884 14.2492 18.0041 13.9313 17.8175 13.6735C17.6309 13.4157 17.3553 13.2362 17.044 13.1699L17.0394 13.1689L14.3468 12.5814L14.3444 12.5809C13.6133 12.4195 12.9674 11.9941 12.5305 11.386C12.0935 10.778 11.8962 10.0302 11.9763 9.28578C12.0565 8.54135 12.4084 7.85264 12.9648 7.35156C13.5211 6.85048 14.2427 6.57224 14.9915 6.57014L14.9943 6.57013L15 6.57014V5.28442C15 4.73214 15.4477 4.28442 16 4.28442Z" fill="#E04E39"/>
<path fill-rule="evenodd" clip-rule="evenodd" d="M15.7823 0.144684C17.7964 0.105774 19.7843 0.606698 21.5394 1.59545C23.2946 2.5842 24.7531 4.02474 25.7636 5.76751C26.7738 7.50989 27.2994 9.49087 27.2857 11.5049C27.2767 13.595 26.6851 15.6412 25.5773 17.4137C24.581 19.0078 23.2027 20.3237 21.5714 21.2445V24.0708C21.5714 24.6391 21.3457 25.1841 20.9438 25.586C20.5419 25.9878 19.9969 26.2136 19.4286 26.2136H12.5714C12.0031 26.2136 11.4581 25.9878 11.0562 25.586C10.6543 25.1841 10.4286 24.6391 10.4286 24.0708V21.2428C8.86466 20.3549 7.53272 19.1045 6.54706 17.5931C5.44664 15.9057 4.81794 13.9545 4.72624 11.942C4.63454 9.92961 5.08317 7.92931 6.02556 6.14882C6.96796 4.36832 8.36976 2.87252 10.0854 1.81672C11.8011 0.760917 13.7681 0.183593 15.7823 0.144684ZM20.5578 3.33798C19.1137 2.52445 17.4781 2.1123 15.8209 2.14431C14.1637 2.17632 12.5453 2.65134 11.1336 3.52004C9.722 4.38874 8.56862 5.61945 7.79323 7.08442C7.01784 8.54939 6.64871 10.1952 6.72417 11.851C6.79962 13.5068 7.3169 15.1122 8.22231 16.5006C9.12772 17.889 10.3883 19.0097 11.873 19.7464C12.2133 19.9152 12.4286 20.2623 12.4286 20.6422V24.0708C12.4286 24.1086 12.4436 24.145 12.4704 24.1718C12.4972 24.1986 12.5336 24.2136 12.5714 24.2136H19.4286C19.4665 24.2136 19.5028 24.1986 19.5296 24.1718C19.5564 24.145 19.5714 24.1086 19.5714 24.0708V20.6422C19.5714 20.2613 19.7878 19.9135 20.1295 19.7451C21.6712 18.9856 22.9704 17.8111 23.8813 16.3537C24.7922 14.8963 25.2785 13.2138 25.2857 11.4951L25.2857 11.4924C25.2972 9.83494 24.8648 8.20462 24.0334 6.77069C23.202 5.33676 22.0019 4.15151 20.5578 3.33798ZM10.4286 30.857C10.4286 30.3048 10.8763 29.857 11.4286 29.857H20.5714C21.1237 29.857 21.5714 30.3048 21.5714 30.857C21.5714 31.4093 21.1237 31.857 20.5714 31.857H11.4286C10.8763 31.857 10.4286 31.4093 10.4286 30.857Z" fill="#E04E39"/>
</svg>
