<svg width="275" height="275" viewBox="0 0 275 275" fill="none" xmlns="http://www.w3.org/2000/svg">
<circle cx="137.5" cy="137.5" r="137.5" fill="#80CFD4"/>
<path d="M235.683 139.621L256.552 141.964L254.645 158.957L233.776 156.614L234.177 153.037L251.946 155.031L253.05 145.193L235.282 143.199L235.683 139.621Z" fill="#0F284B"/>
<path d="M232.459 161.942L252.282 168.875L249.756 176.096C249.136 177.87 248.36 179.241 247.428 180.208C246.516 181.181 245.492 181.777 244.356 181.994C243.214 182.23 242.002 182.124 240.718 181.675C239.434 181.226 238.419 180.553 237.673 179.657C236.921 178.779 236.482 177.672 236.356 176.336C236.249 175.006 236.506 173.454 237.126 171.679L238.463 167.856L231.27 165.341L232.459 161.942ZM241.408 168.886L240.17 172.426C239.543 174.219 239.388 175.542 239.704 176.394C240.039 177.253 240.773 177.881 241.906 178.277C243.02 178.666 243.976 178.63 244.773 178.167C245.571 177.704 246.283 176.576 246.91 174.783L248.148 171.243L241.408 168.886Z" fill="#0F284B"/>
<path d="M224.732 182.021L242.491 193.229L240.569 196.274L227.631 188.108L235.062 205.001L233.204 207.944L215.445 196.736L217.367 193.691L230.305 201.857L222.875 184.964L224.732 182.021Z" fill="#0F284B"/>
<path d="M211.468 201.369L226.045 216.485L223.454 218.984L217.457 212.765L210.114 219.845L216.112 226.065L213.52 228.564L198.943 213.447L201.535 210.948L207.949 217.599L215.291 210.519L208.877 203.868L211.468 201.369Z" fill="#0F284B"/>
<path d="M195.808 215.786L195.638 225.757C197.212 225.348 198.601 225.389 199.805 225.879C201.02 226.386 201.998 227.256 202.739 228.491C203.398 229.588 203.723 230.711 203.713 231.86C203.704 233.009 203.337 234.128 202.614 235.215C201.891 236.303 200.784 237.295 199.292 238.191L192.477 242.285L181.663 224.283L184.749 222.429L188.889 229.321L192.67 227.05L192.516 217.764L195.808 215.786ZM199.653 230.345C199.097 229.419 198.356 228.884 197.43 228.741C196.486 228.607 195.226 229.014 193.649 229.962L190.434 231.893L193.957 237.756L197.171 235.825C198.748 234.878 199.7 233.956 200.025 233.061C200.333 232.176 200.209 231.27 199.653 230.345Z" fill="#0F284B"/>
<path d="M171.022 228.497L176.861 245.397L183.525 243.095L184.543 246.044L167.814 251.824L166.795 248.875L173.458 246.573L167.62 229.673L171.022 228.497Z" fill="#0F284B"/>
<path d="M157.775 232.475L160.358 253.316L156.786 253.759L155.811 245.899L151.792 246.397C148.994 246.744 146.856 246.404 145.378 245.378C143.903 244.372 143.044 242.887 142.8 240.922C142.557 238.957 143.026 237.296 144.208 235.941C145.393 234.605 147.385 233.763 150.183 233.416L157.775 232.475ZM154.586 236.015L150.865 236.476C148.979 236.71 147.725 237.157 147.101 237.819C146.478 238.481 146.235 239.367 146.373 240.479C146.511 241.59 146.963 242.391 147.729 242.88C148.495 243.37 149.82 243.498 151.706 243.264L155.428 242.803L154.586 236.015Z" fill="#0F284B"/>
<path d="M124.264 232.862C124.48 232.903 124.695 232.953 124.907 233.013C125.104 233.05 125.279 233.092 125.433 233.141L124.843 236.297C124.69 236.248 124.517 236.195 124.324 236.139C124.111 236.079 123.897 236.028 123.68 235.988C123.15 235.889 122.706 235.867 122.35 235.923C121.974 235.975 121.64 236.126 121.349 236.377C121.035 236.644 120.718 237.032 120.399 237.542L125.951 254.876L121.822 254.105L117.831 240.999L110.439 251.979L106.783 251.296L117.078 236.372C117.605 235.616 118.123 234.97 118.63 234.434C119.133 233.918 119.656 233.517 120.197 233.232C120.739 232.946 121.341 232.774 122.003 232.714C122.645 232.651 123.399 232.701 124.264 232.862Z" fill="#0F284B"/>
<path d="M96.9964 224.992L93.5606 233.115C94.1642 233.023 94.9495 233.04 95.9165 233.167C96.8835 233.294 97.9196 233.591 99.0248 234.058C101.198 234.978 102.583 236.171 103.178 237.639C103.773 239.107 103.6 240.955 102.657 243.184L100.144 249.125L96.8286 247.722L99.2243 242.058C99.7853 240.732 99.8996 239.64 99.5672 238.783C99.2087 237.936 98.3847 237.24 97.0953 236.695C96.1006 236.274 95.1973 236.023 94.3855 235.94C93.5658 235.875 92.8857 235.892 92.3452 235.989L88.8158 244.333L85.5002 242.931L93.6808 223.59L96.9964 224.992Z" fill="#0F284B"/>
<path d="M90.5198 222.067L71.9656 234.714L69.0161 232.649L74.5436 210.886L77.6897 213.088L76.422 217.986L83.4024 222.871L87.5704 220.003L90.5198 222.067ZM80.6549 224.757L75.5917 221.213L73.1448 230.046L80.6549 224.757Z" fill="#0F284B"/>
<path d="M66.3325 201.634C67.4945 202.902 68.2763 204.288 68.6778 205.792C69.0646 207.309 68.9599 208.897 68.3638 210.556C67.7394 212.213 66.4983 213.893 64.6404 215.596L64.1981 216.001C62.8562 217.231 61.544 218.108 60.2612 218.632C58.9638 219.17 57.7284 219.42 56.5551 219.383C55.3683 219.332 54.2558 219.035 53.2178 218.495C52.1662 217.939 51.2147 217.197 50.3635 216.268C49.5798 215.413 48.9607 214.515 48.5063 213.575C48.0371 212.649 47.7596 211.709 47.6737 210.757C47.5879 209.805 47.7066 208.869 48.0298 207.949C48.3531 207.029 48.9085 206.14 49.6962 205.282L52.25 208.069C51.4672 209.139 51.1452 210.194 51.2838 211.233C51.409 212.258 51.8837 213.22 52.708 214.119C53.3025 214.768 54.0463 215.24 54.9395 215.533C55.8179 215.841 56.8229 215.842 57.9544 215.537C59.0725 215.218 60.3024 214.444 61.6442 213.214L62.0866 212.809C63.1483 211.836 63.9322 210.9 64.4386 210.002C64.9301 209.118 65.2067 208.295 65.2682 207.533C65.3163 206.757 65.2267 206.052 64.9995 205.419C64.744 204.785 64.4069 204.24 63.988 203.783C63.0151 202.721 62.0219 202.126 61.0083 201.996C59.9665 201.866 58.9639 202.134 58.0006 202.799L55.4468 200.013C56.4421 199.263 57.4263 198.768 58.3993 198.528C59.3589 198.272 60.3086 198.243 61.2485 198.44C62.16 198.635 63.0427 199.006 63.8965 199.553C64.7503 200.1 65.5623 200.794 66.3325 201.634Z" fill="#0F284B"/>
<path d="M55.1798 187.103L39.7519 196.14L43.3153 202.223L40.6232 203.8L31.6768 188.528L34.3689 186.951L37.9323 193.034L53.3602 183.996L55.1798 187.103Z" fill="#0F284B"/>
<path d="M48.2925 174.171L28.2698 180.503L27.1844 177.07L41.7724 172.457L24.0728 167.231L23.0236 163.913L43.0464 157.581L44.1318 161.013L29.5438 165.626L47.2433 170.853L48.2925 174.171Z" fill="#0F284B"/>
<path d="M42.3059 152.325L21.3884 154.185L20.1394 140.141L23.2471 139.864L24.1773 150.323L29.6756 149.834L28.8252 140.272L31.9329 139.995L32.7833 149.558L38.8792 149.016L37.9491 138.557L41.0568 138.28L42.3059 152.325Z" fill="#0F284B"/>
<path d="M41.7907 124.353L21.2924 119.79L25.0075 103.099L45.5059 107.661L44.7238 111.175L27.2709 107.291L25.12 116.954L42.5729 120.839L41.7907 124.353Z" fill="#0F284B"/>
<path d="M47.4084 102.414L28.4522 93.3771L31.7441 86.4716C32.5531 84.7746 33.4728 83.4959 34.5033 82.6356C35.5157 81.7667 36.5981 81.2857 37.7503 81.1924C38.9112 81.0811 40.1055 81.3181 41.3331 81.9033C42.5607 82.4886 43.4968 83.2671 44.1413 84.2391C44.7944 85.1929 45.1112 86.341 45.0917 87.6832C45.0542 89.0169 44.6309 90.5322 43.8219 92.2293L42.0791 95.8851L48.9575 99.1641L47.4084 102.414ZM39.2628 94.5425L40.8765 91.1575C41.6941 89.4424 41.9917 88.1441 41.7694 87.2626C41.529 86.3726 40.8672 85.6694 39.784 85.153C38.7188 84.6452 37.7648 84.5782 36.922 84.9518C36.0792 85.3255 35.2489 86.3699 34.4313 88.085L32.8177 91.4701L39.2628 94.5425Z" fill="#0F284B"/>
<path d="M57.0004 83.6072L40.5274 70.5826L42.7602 67.7587L54.762 77.248L49.1608 59.6634L51.3192 56.9336L67.7922 69.9581L65.5594 72.7821L53.5577 63.2928L59.1588 80.8774L57.0004 83.6072Z" fill="#0F284B"/>
<path d="M72.1756 65.7102L59.2714 49.1427L62.1116 46.9305L67.4207 53.7469L75.4678 47.4792L70.1587 40.6628L72.9988 38.4507L85.903 55.0182L83.0628 57.2303L77.385 49.9406L69.3379 56.2084L75.0157 63.4981L72.1756 65.7102Z" fill="#0F284B"/>
<path d="M89.3726 52.8843L90.6087 42.9888C88.9999 43.2269 87.623 43.038 86.4782 42.4221C85.325 41.788 84.4458 40.8176 83.8407 39.5109C83.3028 38.3494 83.1002 37.1979 83.2328 36.0565C83.3654 34.9151 83.8495 33.8424 84.6849 32.8384C85.5203 31.8344 86.7275 30.9668 88.3064 30.2356L95.5204 26.8948L104.345 45.9507L101.078 47.4635L97.6998 40.1678L93.698 42.021L92.8571 51.2707L89.3726 52.8843ZM87.1074 37.9981C87.5612 38.9781 88.2409 39.5891 89.1464 39.8309C90.07 40.0644 91.3666 39.7946 93.0363 39.0214L96.4391 37.4455L93.5648 31.2388L90.162 32.8146C88.4923 33.5878 87.4478 34.4021 87.0284 35.2575C86.6272 36.1046 86.6535 37.0181 87.1074 37.9981Z" fill="#0F284B"/>
<path d="M115.534 42.8162L111.583 25.3783L104.707 26.9362L104.018 23.8933L121.28 19.982L121.97 23.0248L115.094 24.5827L119.045 42.0207L115.534 42.8162Z" fill="#0F284B"/>
<path d="M129.068 40.2622L128.744 19.2647L132.343 19.2091L132.465 27.1282L136.515 27.0656C139.335 27.0221 141.424 27.5899 142.782 28.7691C144.14 29.9282 144.834 31.4977 144.865 33.4775C144.896 35.4572 144.25 37.0574 142.929 38.2779C141.607 39.4785 139.537 40.1005 136.717 40.1441L129.068 40.2622ZM132.619 37.087L136.369 37.0291C138.269 36.9997 139.564 36.6897 140.255 36.099C140.946 35.5082 141.283 34.6529 141.265 33.5331C141.248 32.4132 140.885 31.5687 140.176 30.9996C139.467 30.4305 138.163 30.1606 136.263 30.1899L132.514 30.2478L132.619 37.087Z" fill="#0F284B"/>
<path d="M162.013 43.2761C161.802 43.213 161.594 43.1402 161.389 43.0579C161.198 43.0005 161.028 42.9393 160.88 42.8742L161.802 39.7993C161.949 39.8643 162.116 39.9352 162.302 40.0117C162.507 40.0941 162.715 40.1668 162.926 40.2299C163.443 40.3849 163.882 40.4538 164.242 40.4364C164.621 40.4248 164.969 40.3098 165.285 40.0913C165.626 39.8594 165.982 39.5068 166.353 39.0335L162.675 21.2076L166.699 22.4132L169.275 35.8689L177.791 25.7373L181.355 26.8052L169.532 40.5498C168.927 41.2453 168.343 41.8326 167.782 42.3117C167.227 42.7717 166.665 43.1147 166.096 43.341C165.527 43.5672 164.91 43.6746 164.246 43.6633C163.6 43.6578 162.856 43.5287 162.013 43.2761Z" fill="#0F284B"/>
<path d="M188.766 54.1598L193.055 46.4527C192.445 46.4794 191.666 46.3779 190.718 46.148C189.771 45.9181 188.772 45.5115 187.724 44.928C185.662 43.7804 184.413 42.445 183.979 40.9218C183.545 39.3985 183.917 37.5795 185.093 35.4649L188.23 29.8287L191.375 31.5792L188.385 36.9532C187.685 38.2115 187.454 39.2846 187.692 40.1725C187.958 41.0527 188.702 41.8332 189.925 42.5139C190.869 43.039 191.74 43.3864 192.538 43.5559C193.346 43.708 194.024 43.7648 194.572 43.7263L198.978 35.8095L202.123 37.56L191.912 55.9103L188.766 54.1598Z" fill="#0F284B"/>
<path d="M194.921 57.7283L214.745 47.1821L217.452 49.5559L209.582 70.5861L206.695 68.0541L208.489 63.3234L202.084 57.7055L197.628 60.1021L194.921 57.7283ZM205.021 56.1313L209.667 60.2062L213.063 51.6928L205.021 56.1313Z" fill="#0F284B"/>
<path d="M216.637 80.4074C215.615 79.0239 214.983 77.5633 214.743 76.0255C214.518 74.4758 214.789 72.9077 215.557 71.3213C216.353 69.739 217.764 68.1993 219.791 66.7021L220.273 66.3456C221.737 65.2643 223.135 64.5305 224.466 64.1442C225.813 63.746 227.067 63.6272 228.23 63.7877C229.405 63.9642 230.48 64.3761 231.455 65.0233C232.443 65.6865 233.31 66.5248 234.059 67.5383C234.748 68.4714 235.269 69.4292 235.622 70.4118C235.991 71.3826 236.168 72.3459 236.153 73.3018C236.138 74.2577 235.921 75.1762 235.503 76.0571C235.084 76.9381 234.438 77.7634 233.565 78.533L231.319 75.4925C232.21 74.511 232.642 73.4961 232.613 72.4479C232.597 71.4158 232.226 70.409 231.501 69.4277C230.978 68.7199 230.288 68.1728 229.431 67.7865C228.59 67.3884 227.591 67.2811 226.433 67.4646C225.288 67.6643 223.983 68.3048 222.519 69.3861L222.037 69.7426C220.878 70.5981 220 71.4457 219.402 72.2854C218.82 73.1132 218.458 73.9025 218.317 74.6535C218.187 75.4206 218.202 76.1307 218.361 76.7839C218.548 77.4413 218.826 78.0193 219.194 78.518C220.05 79.6763 220.975 80.3731 221.969 80.6084C222.992 80.8478 224.017 80.6873 225.045 80.1268L227.291 83.1673C226.222 83.8075 225.191 84.196 224.198 84.3328C223.217 84.4856 222.269 84.4147 221.356 84.12C220.47 83.8295 219.631 83.3674 218.84 82.7336C218.048 82.0998 217.314 81.3244 216.637 80.4074Z" fill="#0F284B"/>
<path d="M226.302 96.1506L242.609 88.8187L239.718 82.3887L242.564 81.1093L249.822 97.2527L246.976 98.5321L244.085 92.1021L227.778 99.434L226.302 96.1506Z" fill="#0F284B"/>
<path d="M231.77 109.658L252.352 105.487L253.067 109.015L238.072 112.054L255.116 119.13L255.808 122.541L235.226 126.711L234.511 123.183L249.506 120.144L232.461 113.069L231.77 109.658Z" fill="#0F284B"/>
<path d="M137.5 97L144.278 129.363L173 137L144.278 144.637L137.5 177L130.722 144.637L102 137L130.722 129.363L137.5 97Z" fill="#0F284B"/>
</svg>
