<svg width="508" height="660" viewBox="0 0 508 660" fill="none" xmlns="http://www.w3.org/2000/svg">
<path d="M2.24 345.53C10.62 391.49 62.65 407.52 89.91 434.41C98.02 442.41 103.35 452.63 107.08 463.22C120.27 500.68 131.19 523.84 169.06 540.02C225.15 563.99 268.33 606.95 320.48 636.76C418.9 693.08 513.71 637.29 507.66 536.76C503.3 464.31 440.44 432.31 423.18 403.7C403.71 374.91 406.16 338.46 427.24 311.27C446.24 284.75 462.85 256.71 470.86 224.39C487.46 157.39 476.09 86.36 430.01 40.41C378.08 -11.37 269.38 -13.07 213.01 37.48C165.63 79.98 153.7 147.77 105.51 189.28C60 230.99 -10.77 274.16 2.24 345.53Z" fill="#80CFD4"/>
<path d="M208.66 91.96C169.75 126.88 159.16 181.78 120.69 216.85C108.22 228.22 93.8801 240.1 80.3201 252.69C53.1701 277.92 29.9501 306.79 36.1801 345.59C42.2001 383.13 82.7501 396.84 103.89 419.35C110.2 426.02 114.3 434.48 117.18 443.23C127.33 474.05 136.06 493.55 166.9 507.46C212.32 527.94 247.79 563.48 290.6 588.33C370.95 634.88 448.52 591.12 446.26 509.75C445.18 470.86 423.77 445.04 404.17 425.01C394.2 414.82 385.25 406.14 380.16 397.99C364.77 373.38 366.15 343.82 383.12 320.31C398.98 298.35 412.44 274.57 419.33 247.61C433.58 191.79 425.23 132.65 386.46 93.96C343.73 51.41 254.86 50.45 208.66 91.96Z" fill="#69AEB9"/>
<path d="M204.32 146.44C173.89 173.78 165.28 216.53 135.89 244.43C126.33 253.51 115.38 262.99 105 272.97C84.2 292.99 66.36 315.67 70.14 345.67C73.81 374.81 102.78 386.25 117.9 404.31C122.39 409.67 125.27 416.34 127.31 423.26C134.43 447.43 140.95 463.27 164.77 474.92C199.52 491.9 227.29 520.03 260.75 539.91C323.03 576.68 383.38 544.92 384.88 482.74C385.6 452.77 371.15 431.37 355.88 414.53C348.25 406.12 341.23 399.02 337.16 392.29C325.1 372.35 325.65 348.8 339.02 329.36C351.24 311.59 362.05 292.45 367.81 270.85C379.71 226.2 374.38 178.96 342.93 147.53C309.38 114.2 240.34 113.97 204.32 146.44Z" fill="#538C9D"/>
<path d="M199.97 200.92C178.01 220.68 171.39 251.28 151.07 272.01C144.41 278.8 136.87 285.87 129.66 293.24C115.21 308.05 102.75 324.55 104.08 345.75C105.39 366.5 122.82 375.6 131.88 389.27C134.55 393.3 136.22 398.21 137.41 403.3C141.51 420.81 145.81 432.99 162.62 442.38C186.7 455.84 206.72 476.65 230.88 491.49C275.02 518.61 318.29 498.66 323.49 455.74C326.04 434.65 318.52 417.74 307.58 404.06C302.29 397.45 297.2 391.91 294.16 386.59C285.42 371.33 285.15 353.79 294.91 338.4C303.51 324.84 311.65 310.31 316.29 294.08C325.85 260.6 323.61 225.2 299.39 201.09C275.1 176.92 225.82 177.49 199.97 200.92Z" fill="#3C6B82"/>
<path d="M195.63 255.4C182.2 267.64 177.53 286.05 166.26 299.59C162.51 304.1 158.36 308.76 154.33 313.52C146.24 323.12 139.11 333.48 138.03 345.83C136.95 358.22 142.89 364.91 145.88 374.23C146.74 376.92 147.19 380.06 147.53 383.33C148.64 394.16 150.7 402.65 160.48 409.84C173.89 419.7 186.2 433.21 201.02 443.08C227.08 460.44 253.48 452.28 262.1 428.74C266.6 416.46 265.87 404.18 259.28 393.59C256.31 388.81 253.16 384.8 251.15 380.9C245.71 370.33 244.68 358.83 250.8 347.46C255.82 338.14 261.25 328.2 264.77 317.33C271.98 295.02 272.79 271.49 255.85 254.67C240.77 239.69 211.36 241.07 195.63 255.4Z" fill="#264966"/>
<path d="M158.33 377.29C165.77 392.23 182.08 409.56 200.71 401.73C207.64 398.57 212.73 390.83 210.98 383.11C208.1 373.58 203.25 367.03 206.69 356.5C211.19 341.27 226.55 322.67 212.32 308.23C206.34 302.57 196.8 304.52 191.29 309.89C184.51 316.12 182.28 325.56 179 333.8C177.26 338.18 175.11 342.35 171.98 345.91C164.16 353.99 151.51 363.58 158.33 377.29Z" fill="#0F284B"/>
</svg>
