<svg width="638" height="716" viewBox="0 0 638 716" fill="none" xmlns="http://www.w3.org/2000/svg">
<path d="M255.428 57.2426C228.317 69.934 209.653 91.8357 199.465 114.634C187.182 142.117 187.62 170.68 191.19 198.148C194.962 227.224 202.301 255.884 201.412 285.586C201 299.46 198.907 313.566 193.681 327.234C188.627 340.433 180.598 352.714 170.496 364.251C150.754 386.804 125.307 406.173 107.417 429.716C89.8741 452.804 80.8055 479.03 79.6937 504.783C77.3599 559.117 105.799 613.598 158.093 640.601C232.478 679.007 338.148 672.515 408.611 652.131C442.58 642.311 474.766 627.266 501.137 606.715C525.446 587.775 544.394 564.947 558.191 540.715C589.519 485.692 592.245 425.887 584.918 369.536C578.01 316.398 563.369 264.102 538.384 215.729C514.085 168.715 479.34 125.214 432.21 91.4747C408.327 74.3788 381.485 59.2975 350.042 51.2501C320.057 43.5826 285.409 43.2112 255.428 57.2426Z" fill="#285A85"/>
<path d="M195.143 625.569C259.215 658.875 350.786 654.325 413.308 636.127C442.706 627.594 470.513 614.543 493.359 596.784C514.366 580.457 530.837 560.784 542.936 539.854C570.169 492.633 573.307 441.113 567.848 392.261C562.623 346.438 550.166 301.468 530.243 259.065C509.959 215.902 479.637 173.949 436.854 144.199C415.585 129.317 391.481 116.724 363.678 110.485C348.084 107.024 331.225 105.775 314.771 108.042C303.026 109.659 291.593 113.031 280.96 118.471C257.741 130.374 242.329 150.159 233.679 170.489C223.537 194.352 223.7 219.031 226.289 242.806C226.577 245.417 226.891 248.022 227.229 250.622C230.121 273.009 234.325 295.099 232.939 317.818C232.454 325.772 231.345 333.808 229.209 341.765C228.173 345.644 226.895 349.497 225.332 353.307C220.724 364.562 213.618 375.046 204.793 384.917C193.741 397.275 180.755 408.569 168.783 420.43C162.001 427.135 155.561 434.029 149.964 441.369C134.763 461.344 126.854 484.017 125.854 506.34C123.692 554.124 149.298 601.668 195.143 625.569Z" fill="#1E507B"/>
<path d="M232.192 610.535C285.949 638.729 363.413 636.15 418.004 620.122C442.831 612.877 466.249 601.834 485.571 586.867C503.273 573.14 517.257 556.638 527.657 539.009C550.793 499.579 554.464 456.357 550.766 415C547.328 376.483 534.673 339.64 522.091 302.415C508.44 262.053 479.843 222.807 441.486 196.937C422.792 184.33 401.468 174.111 377.304 169.735C363.692 167.261 349.098 166.794 335.083 169.373C324.949 171.232 315.321 174.647 306.482 179.713C287.167 190.826 274.991 208.484 267.894 226.356C259.862 246.579 259.794 267.39 261.402 287.472C261.589 289.672 261.785 291.857 261.997 294.052C263.865 312.846 266.457 331.235 264.479 350.06C263.803 356.64 262.602 363.28 260.586 369.848C259.6 373.049 258.424 376.224 257.01 379.386C252.835 388.7 246.664 397.383 239.118 405.59C229.627 415.894 218.609 425.374 208.459 435.361C202.709 441.018 197.255 446.834 192.528 453.043C179.67 469.905 172.92 489.026 172.016 507.907C170.023 549.129 192.792 589.725 232.192 610.535Z" fill="#144671"/>
<path d="M269.234 595.517C312.622 618.716 376.044 617.988 422.691 604.133C442.948 598.176 461.978 589.142 477.784 576.951C492.197 565.834 503.72 552.497 512.381 538.166C531.483 506.578 535.542 471.592 533.687 437.739C531.97 406.529 524.136 375.88 513.945 345.778C501.835 310.011 480.117 271.613 446.127 249.701C430.051 239.333 411.445 231.568 390.949 229.007C379.3 227.551 366.994 227.848 355.418 230.739C346.898 232.853 339.069 236.286 332.023 240.978C316.6 251.304 307.656 266.81 302.126 282.234C296.187 298.795 295.852 315.758 296.52 332.151C296.589 333.931 296.687 335.718 296.769 337.496C297.56 352.696 298.557 367.393 296.012 382.317C295.119 387.529 293.852 392.768 291.943 397.95C291.006 400.472 289.924 402.985 288.681 405.481C284.948 412.839 279.689 419.74 273.435 426.279C265.493 434.531 256.451 442.183 248.141 450.306C243.41 454.917 238.957 459.665 235.094 464.718C224.565 478.47 218.975 494.038 218.195 509.485C216.344 544.138 236.243 577.871 269.234 595.517Z" fill="#0A3C67"/>
<path d="M306.282 580.484C339.345 598.587 388.671 599.813 427.377 588.144C443.076 583.472 457.704 576.449 469.985 567.05C481.096 558.546 490.142 548.364 497.105 537.335C512.124 513.547 516.611 486.855 516.595 460.494C516.577 436.609 511.504 412.859 505.796 389.142C498.004 356.806 480.396 320.39 450.762 302.452C437.303 294.31 421.42 289.024 404.576 288.27C394.89 287.831 384.865 288.92 375.733 292.084C368.82 294.48 362.797 297.903 357.556 302.218C346.008 311.734 340.284 325.103 336.341 338.102C332.439 350.986 331.92 364.123 331.62 376.82C331.588 378.19 331.556 379.56 331.537 380.927C331.288 392.525 330.689 403.53 327.552 414.559C326.467 418.397 325.109 422.241 323.32 426.034C322.436 427.889 321.459 429.738 320.356 431.549C317.072 436.975 312.747 442.075 307.769 446.937C301.407 453.158 294.302 458.977 287.84 465.22C284.14 468.783 280.676 472.466 277.665 476.365C269.478 487.004 265.045 499.007 264.363 511.026C262.674 539.145 279.728 565.944 306.282 580.484Z" fill="#00325D"/>
<path d="M343.321 565.454C366.091 578.427 401.299 581.639 432.062 572.143C443.19 568.758 453.44 563.729 462.198 557.134C470.008 551.242 476.564 544.219 481.828 536.492C492.737 520.496 497.642 502.114 499.516 483.233C501.156 466.67 499.346 449.659 497.646 432.493C494.747 403.399 480.716 369.107 455.399 355.204C444.577 349.258 431.39 346.508 418.206 347.533C410.487 348.137 402.758 350.028 396.036 353.431C390.746 356.119 386.517 359.535 383.067 363.464C375.414 372.204 372.817 383.366 370.546 393.972C368.592 403.134 368 412.474 366.722 421.49C366.589 422.449 366.44 423.398 366.291 424.348C365.015 432.341 362.807 439.658 359.079 446.792C357.79 449.258 356.353 451.705 354.671 454.112C353.84 455.3 352.965 456.472 352.008 457.622C349.157 461.107 345.765 464.394 342.067 467.603C337.267 471.771 332.13 475.776 327.49 480.145C324.81 482.663 322.348 485.278 320.204 488.033C314.359 495.559 311.085 504.009 310.514 512.598C308.995 534.154 323.221 553.989 343.321 565.454Z" fill="#0F284B"/>
<path d="M416.365 414.772C404.568 424.591 405.232 437.931 404.778 449.849C404.547 455.822 404.06 462.007 401.063 467.791C398.009 473.678 392.221 478.19 386.042 482.223C379.643 486.395 372.726 490.168 367.186 495.098C361.019 500.583 357.337 507.144 356.693 514.175C355.33 529.172 366.767 541.97 380.374 550.433C392.887 558.202 413.927 563.463 436.761 556.15C468.164 546.097 483.801 514.968 489.498 475.855C493.249 450.188 481.092 417.72 460.036 407.954C446.93 401.872 427.874 405.199 416.365 414.772Z" fill="#051E41"/>
</svg>
