<svg width="797" height="763" viewBox="0 0 797 763" fill="none" xmlns="http://www.w3.org/2000/svg">
<path d="M127.591 523.668C147.583 545.948 173.947 557.478 198.718 560.635C228.579 564.442 255.794 555.76 281.055 544.396C307.796 532.374 333.108 517.058 361.796 509.316C375.197 505.697 389.305 503.62 403.901 504.669C417.997 505.688 432.076 509.82 446.042 516.154C473.342 528.527 499.245 547.283 526.956 557.597C554.132 567.71 581.86 568.804 606.833 562.418C659.52 548.934 703.443 505.95 714.164 448.08C729.408 365.765 692.624 266.491 652.728 204.938C633.5 175.263 609.788 148.806 582.486 129.507C557.324 111.717 529.99 100.183 502.803 93.9863C441.07 79.9153 383.034 94.6071 331.212 117.922C282.344 139.908 236.52 169.052 197.444 206.962C159.47 243.823 127.88 289.666 109.218 344.542C99.7618 372.349 93.0905 402.406 94.4835 434.833C95.8183 465.754 105.486 499.028 127.591 523.668Z" fill="#193255"/>
<path d="M689.055 416.963C702.402 345.996 671.556 259.657 636.049 205.072C619.377 179.4 598.839 156.558 575.23 139.826C553.524 124.441 529.927 114.365 506.392 108.839C453.312 96.4301 403.087 108.331 357.903 127.689C315.551 145.947 276.107 170.881 241.282 202.219C205.832 234.121 174.445 275.284 158.344 324.845C150.251 349.509 145.169 376.225 147.241 404.644C148.438 420.572 152.12 437.072 159.05 452.167C163.996 462.942 170.531 472.911 178.814 481.515C196.926 500.298 220.323 509.327 242.287 511.726C268.063 514.531 291.639 507.236 313.649 497.88C316.065 496.848 318.468 495.795 320.859 494.718C341.452 485.474 361.381 475.059 383.53 469.814C391.284 467.977 399.298 466.714 407.531 466.456C411.545 466.326 415.603 466.435 419.702 466.828C431.809 467.983 443.9 471.753 455.902 477.344C470.929 484.349 485.496 493.513 500.314 501.541C508.695 506.094 517.157 510.264 525.802 513.498C549.32 522.27 573.312 523.282 594.969 517.782C641.336 506.028 679.44 467.763 689.055 416.963Z" fill="#233C5F"/>
<path d="M663.947 385.847C675.384 326.232 650.506 252.827 619.37 205.207C605.253 183.537 587.907 164.315 567.99 150.149C549.729 137.175 529.887 128.563 510.004 123.707C465.567 112.967 423.131 121.958 384.611 137.461C348.736 151.895 317.13 174.668 285.136 197.48C250.45 222.224 221.155 260.952 207.487 305.152C200.827 326.695 197.214 350.063 200.015 374.46C201.585 388.206 205.359 402.31 211.883 414.98C216.594 424.143 222.648 432.371 230.055 439.367C246.281 454.641 266.706 461.188 285.867 462.811C307.549 464.649 327.489 458.695 346.247 451.346C348.3 450.53 350.335 449.71 352.375 448.872C369.825 441.647 386.677 433.846 405.269 430.294C411.763 429.038 418.467 428.266 425.337 428.295C428.686 428.314 432.066 428.52 435.502 428.959C445.625 430.261 455.723 433.657 465.761 438.506C478.37 444.61 490.633 452.415 503.129 459.241C510.208 463.109 517.353 466.647 524.664 469.376C544.525 476.807 564.78 477.736 583.116 473.14C623.152 463.122 655.425 429.582 663.947 385.847Z" fill="#2D4669"/>
<path d="M638.856 354.735C648.511 306.491 629.466 245.991 602.709 205.346C591.146 187.679 576.994 172.077 560.751 160.473C545.94 149.893 529.84 142.721 513.616 138.576C477.853 129.429 443.189 135.664 411.32 147.233C381.941 157.906 354.869 174.271 329.003 192.735C298.268 214.674 267.794 246.572 256.652 285.448C251.378 303.835 249.328 323.892 252.806 344.253C254.782 355.825 258.626 367.519 264.743 377.763C269.231 385.307 274.782 391.808 281.312 397.196C295.658 408.972 313.088 413.048 329.453 413.879C347.023 414.773 363.358 410.187 378.857 404.805C380.541 404.224 382.224 403.613 383.901 403.02C398.223 397.866 412.003 392.66 427.025 390.779C432.272 390.126 437.655 389.823 443.167 390.151C445.852 390.318 448.571 390.627 451.32 391.095C459.442 392.54 467.57 395.577 475.638 399.673C485.836 404.888 495.776 411.329 505.955 416.934C511.738 420.129 517.571 423.018 523.526 425.254C539.735 431.354 556.255 432.201 571.268 428.48C604.975 420.227 631.508 391.42 638.856 354.735Z" fill="#375073"/>
<path d="M613.747 323.618C621.511 286.732 608.415 239.161 586.048 205.485C577.034 191.809 566.079 179.838 553.53 170.801C542.174 162.626 529.811 156.912 517.24 153.438C490.123 145.942 463.275 149.369 438.046 157.01C415.188 163.937 393.921 175.664 372.869 187.99C344.169 204.802 314.405 232.193 305.807 265.748C301.907 280.987 301.441 297.72 305.592 314.062C307.974 323.461 311.917 332.743 317.587 340.569C321.881 346.493 326.899 351.269 332.546 355.037C344.996 363.338 359.449 364.949 373.033 364.964C386.495 364.972 399.221 361.668 411.462 358.282C412.782 357.916 414.102 357.551 415.417 357.174C426.591 354.057 437.299 351.447 448.764 351.258C452.751 351.187 456.824 351.375 460.973 351.99C463.004 352.3 465.056 352.7 467.109 353.232C473.253 354.806 479.386 357.47 485.48 360.829C493.276 365.12 500.901 370.237 508.747 374.617C513.228 377.128 517.755 379.378 522.359 381.132C534.911 385.891 547.683 386.663 559.386 383.838C586.791 377.32 607.511 353.244 613.747 323.618Z" fill="#415A7D"/>
<path d="M588.645 292.512C594.476 266.963 587.365 232.331 569.375 205.63C562.916 195.957 555.137 187.601 546.29 181.125C538.391 175.354 529.772 171.11 520.852 168.306C502.384 162.49 483.37 163.114 464.754 166.782C448.424 170.003 432.664 176.657 416.724 183.25C389.712 194.442 360.946 217.793 354.961 246.049C352.401 258.13 353.583 271.547 358.378 283.872C361.189 291.085 365.235 297.937 370.438 303.387C374.541 307.674 379.034 310.734 383.793 312.9C394.374 317.697 405.81 316.954 416.619 316.059C425.955 315.279 435.066 313.144 444.067 311.759C445.023 311.609 445.975 311.477 446.927 311.345C454.948 310.254 462.59 310.25 470.498 311.755C473.232 312.276 475.989 312.944 478.78 313.858C480.158 314.31 481.532 314.808 482.91 315.391C487.071 317.112 491.199 319.408 495.341 322.019C500.719 325.409 506.039 329.168 511.563 332.345C514.748 334.182 517.964 335.783 521.222 337.038C530.117 340.456 539.153 341.145 547.539 339.207C568.613 334.425 583.485 315.069 588.645 292.512Z" fill="#1C3D5D"/>
<path d="M423.276 266.183C436.087 274.635 448.665 270.139 460.205 267.127C465.989 265.62 472.05 264.297 478.454 265.493C484.973 266.713 490.967 270.948 496.615 275.696C502.459 280.614 508.072 286.144 514.394 290.021C521.429 294.338 528.774 295.964 535.691 294.547C550.441 291.513 559.383 276.863 563.548 261.389C567.365 247.163 566.314 225.501 552.708 205.759C534 178.608 499.679 172.645 460.59 178.506C434.935 182.34 407.372 203.371 404.116 226.351C402.085 240.656 410.782 257.935 423.276 266.183Z" fill="#193255"/>
</svg>
