<svg width="488" height="796" viewBox="0 0 488 796" fill="none" xmlns="http://www.w3.org/2000/svg">
<path d="M-176.466 481.613C-178.527 479.088 -180.539 476.496 -182.508 473.83C-206.268 441.63 -220.695 397.063 -222.079 351.572C-223.465 306.095 -211.62 267.245 -189.579 244.986C-150.983 206.003 -87.2279 200.854 -19.0441 231.199C-16.0182 232.55 -12.5959 234.197 -8.97881 235.957C24.7057 252.275 87.414 282.649 203.07 249.111C259.121 232.862 312.405 249.061 349.247 293.574C349.481 293.861 349.715 294.147 349.949 294.434C388.232 341.346 397.789 407.686 373.148 456.178C344.495 512.629 293.827 597.759 245.329 651.908C231.611 667.221 160.866 743.708 115.181 745.314C59.8961 747.255 20.1197 690.527 -14.9812 640.476C-22.1906 630.186 -29.0039 620.477 -35.8616 611.346C-56.5802 582.304 -83.646 561.617 -109.821 541.611C-132.955 523.923 -156.815 505.693 -176.466 481.613ZM349.168 295.059C348.934 294.772 348.706 294.493 348.472 294.206C311.896 250.019 258.999 233.93 203.343 250.062C87.3212 283.705 24.3963 253.225 -9.41689 236.844C-13.0276 235.092 -16.4422 233.438 -19.4554 232.103C-87.244 201.925 -150.579 207.003 -188.874 245.675C-210.725 267.741 -222.464 306.324 -221.08 351.531C-219.698 396.83 -205.342 441.184 -181.7 473.223C-161.102 501.137 -134.722 521.299 -109.206 540.799C-82.971 560.847 -55.8391 581.584 -35.046 610.733C-28.1884 619.863 -21.3688 629.58 -14.1531 639.877C20.7913 689.72 60.4075 746.205 115.149 744.294C160.434 742.705 230.918 666.482 244.589 651.222C293.022 597.137 343.639 512.101 372.257 455.704C396.713 407.57 387.204 341.668 349.168 295.059Z" fill="#174974"/>
<path d="M-135.461 497.301C-137.326 495.016 -139.144 492.678 -140.918 490.267C-161.083 462.852 -173.374 425.047 -174.622 386.57C-175.875 348.135 -165.958 315.195 -147.416 296.192C-116.017 263.985 -64.9261 259.245 -3.53759 282.861C0.279683 284.328 4.51995 286.25 9.42051 288.459C41.3828 302.905 94.8911 327.066 190.528 301.152C238.538 288.097 283.996 302.203 315.265 339.841C348.191 379.508 357.114 436.452 336.899 478.299C318.221 516.968 274.38 596.088 228.567 647.311C216.783 660.502 155.972 726.34 116.283 727.067C94.6008 727.466 73.925 717.93 53.0521 697.92C34.6795 680.31 18.4932 657.043 2.84067 634.541C-3.91635 624.838 -10.2871 615.671 -16.8125 606.979C-34.6074 583.244 -56.9618 565.862 -78.5719 549.061C-98.2919 533.738 -118.618 517.941 -135.461 497.301ZM315.23 341.379C314.983 341.077 314.737 340.775 314.483 340.479C283.48 303.153 238.386 289.176 190.772 302.115C94.7765 328.128 41.0798 303.862 8.99509 289.362C4.10858 287.154 -0.119011 285.247 -3.91589 283.79C-64.9015 260.335 -115.614 264.986 -146.719 296.888C-165.078 315.704 -174.884 348.385 -173.639 386.542C-172.392 424.827 -160.172 462.418 -140.127 489.686C-122.407 513.741 -99.8227 531.309 -77.9813 548.282C-56.3114 565.125 -33.9113 582.546 -16.0342 606.382C-9.51027 615.089 -3.12548 624.257 3.6301 633.974C35.4402 679.676 68.3354 726.945 116.228 726.067C155.511 725.348 216.053 659.781 227.789 646.642C273.529 595.504 317.31 516.485 335.962 477.863C355.884 436.668 347.33 380.714 315.23 341.379Z" fill="#174974"/>
<path d="M-94.0229 513.552C-95.8312 511.336 -97.6042 509.053 -99.3215 506.711C-133.929 459.433 -136.868 380.529 -105.254 347.399C-92.2118 333.709 -74.6628 326.048 -53.1126 324.634C-34.7106 323.428 -12.8223 326.746 11.9626 334.516C16.6812 335.996 22.0053 338.234 28.1606 340.826C55.7206 352.423 101.836 371.827 177.994 353.187C217.956 343.318 255.622 355.342 281.329 386.147C308.347 418.528 316.309 465.531 300.649 500.434C282.045 541.882 246.306 604.09 211.811 642.721C205.628 649.664 189.123 667.509 169.523 683.206C148.244 700.262 130.698 708.876 117.377 708.827C79.5951 708.682 54.106 672.988 29.4704 638.482C20.7493 626.277 11.7445 613.645 2.26053 602.656C-12.3936 585.664 -29.0405 572.208 -45.135 559.192C-62.0118 545.55 -79.3799 531.496 -94.0229 513.552ZM281.325 387.724C281.066 387.407 280.813 387.097 280.553 386.793C255.092 356.29 217.804 344.397 178.223 354.162C101.751 372.877 55.438 353.389 27.7619 341.745C21.627 339.162 16.3233 336.933 11.6533 335.465C-13.0079 327.737 -34.7836 324.43 -53.0561 325.621C-74.3488 327.018 -91.6676 334.581 -104.534 348.076C-135.854 380.902 -132.88 459.184 -98.5214 506.11C-82.9502 527.31 -64.2805 542.406 -44.5212 558.395C-28.3936 571.435 -11.7073 584.923 3.00369 601.985C12.5115 613.019 21.5367 625.66 30.2704 637.881C55.8894 673.766 80.0959 707.667 117.373 707.811C130.452 707.863 147.793 699.314 168.886 682.41C188.425 666.749 204.882 648.956 211.056 642.033C245.486 603.481 281.157 541.38 299.733 500.007C315.095 465.799 307.501 419.799 281.325 387.724Z" fill="#174974"/>
<path d="M-52.8946 529.423C-54.5447 527.401 -56.1597 525.311 -57.7393 523.154C-70.7213 505.301 -78.7256 481.036 -79.7099 456.58C-80.6929 432.252 -74.637 411.124 -63.092 398.605C-40.9685 374.549 -6.49917 378.417 27.4487 386.169C33.2841 387.499 39.8313 390.081 47.4039 393.066C71.6124 402.596 108.199 416.998 165.453 405.228C197.838 398.444 226.949 408.13 247.423 432.506C247.709 432.841 247.987 433.182 248.265 433.523C269.054 458.997 275.547 494.601 264.386 522.553C251.245 555.465 223.942 605.677 195.034 638.122C190.18 643.593 146.755 691.59 118.457 690.586C88.2236 689.521 69.3265 662.774 49.3148 634.472C40.5862 622.131 31.566 609.37 21.3005 598.309C10.1889 586.338 -1.82432 576.393 -13.4363 566.767C-27.6319 555.002 -41.1472 543.818 -52.8946 529.423ZM247.498 434.149C247.22 433.808 246.948 433.475 246.662 433.14C226.435 409.066 197.667 399.5 165.653 406.201C108.107 418.041 71.3502 403.572 47.0333 393.988C39.4952 391.014 32.9811 388.457 27.2224 387.141C-6.43291 379.447 -40.5849 375.604 -62.3639 399.276C-73.725 411.593 -79.6835 432.461 -78.717 456.532C-77.7409 480.788 -69.7948 504.855 -56.9393 522.553C-44.2051 539.976 -28.953 552.608 -12.8098 565.985C-1.17111 575.628 10.8752 585.597 22.0246 597.615C32.3344 608.73 41.3799 621.522 50.1275 633.886C69.9889 661.988 88.7575 688.53 118.487 689.58C146.327 690.559 189.455 642.894 194.278 637.448C223.113 605.089 250.346 555.011 263.452 522.167C274.492 494.558 268.065 459.351 247.498 434.149Z" fill="#174974"/>
<path d="M-11.8167 545.232C-13.2962 543.419 -14.7404 541.539 -16.1494 539.591C-35.7804 512.372 -38.0705 469.582 -20.9452 449.824C-7.08718 433.765 16.7853 429.282 42.9208 437.821C51.9298 437.219 61.8421 441.031 73.3284 445.442C93.0104 453 117.502 462.403 152.933 457.264C177.213 453.739 198.801 461.498 213.706 479.098C229.053 497.255 234.884 523.602 228.147 544.654C220.018 570.042 200.279 608.725 178.272 633.525C164.936 648.641 137.552 673.828 119.544 672.338C96.3624 670.424 83.2527 651.306 68.0738 629.179C59.831 617.165 51.3092 604.745 40.3623 593.957C33.1826 586.883 25.814 580.621 18.6816 574.554C7.70669 565.234 -2.75014 556.342 -11.8167 545.232ZM213.717 480.677C213.464 480.367 213.205 480.049 212.944 479.746C198.268 462.41 177.008 454.784 153.082 458.253C117.39 463.437 92.7622 453.977 72.9783 446.373C61.5672 441.991 51.716 438.207 42.9041 438.828L42.7148 438.802C16.933 430.349 -6.57196 434.713 -20.1798 450.477C-37.0395 469.928 -34.724 512.117 -15.3367 539.005C-5.42139 552.753 6.5993 562.975 19.3334 573.803C26.4798 579.871 33.8611 586.148 41.066 593.253C52.0777 604.105 60.6233 616.57 68.8978 628.623C83.934 650.544 96.9202 669.478 119.63 671.352C137.25 672.809 164.313 647.846 177.529 632.866C199.44 608.17 219.099 569.643 227.204 544.352C233.717 523.974 228.297 498.543 213.717 480.677Z" fill="#174974"/>
<path d="M28.2124 559.677C27.2577 558.507 26.329 557.29 25.4469 556.036C13.5093 539.098 11.5747 513.92 21.2064 501.065C29.0071 490.569 42.5539 486.355 58.3837 489.493C69.074 486.887 79.5101 491.562 91.5841 496.978C104.998 502.992 120.199 509.805 140.448 509.311C161.103 508.809 173.432 517.954 180.137 525.712C189.664 536.769 194.303 552.86 191.909 566.74C188.969 583.841 177.579 610.69 161.508 628.941C153.076 638.585 133.668 656.256 120.609 654.109C102.322 651.091 92.5628 636.223 81.2658 618.995C75.2083 609.753 68.3376 599.278 59.3896 589.594C54.566 584.379 49.486 579.941 44.5621 575.647C38.6598 570.487 33.0175 565.566 28.2124 559.677ZM180.187 527.323C179.921 526.998 179.648 526.679 179.375 526.36C172.81 518.758 160.731 509.809 140.469 510.301C119.992 510.8 104.682 503.933 91.1727 497.881C79.2211 492.52 68.9073 487.901 58.5182 490.48L58.3044 490.487C42.8186 487.391 29.5921 491.46 22.0134 501.659C12.6192 514.204 14.5594 538.835 26.2659 555.458C31.5412 562.95 38.1885 568.754 45.2357 574.891C50.1723 579.2 55.2789 583.655 60.1341 588.909C69.1328 598.654 76.0351 609.169 82.1179 618.441C93.2927 635.472 102.933 650.18 120.78 653.117C133.412 655.2 152.461 637.783 160.773 628.277C176.722 610.162 188.021 583.517 190.939 566.564C193.192 553.366 188.988 538.108 180.187 527.323Z" fill="#174974"/>
<path d="M108.422 626.301C105.387 622.582 102.888 618.207 100.226 613.538C95.2229 604.765 89.5568 594.817 78.4767 585.273C66.9067 575.302 61.2596 564.744 62.5617 555.537C63.4597 549.267 67.5197 544.057 73.7129 541.223C86.7679 535.267 96.7557 542.334 107.327 549.815C113.687 554.319 120.265 558.979 128.054 561.374C149.881 568.098 153.622 581.476 155.638 588.66C159.456 603.097 150.596 619.428 140.744 628.487C133.8 634.877 126.649 637.628 121.628 635.84C115.885 633.801 111.811 630.453 108.422 626.301ZM89.141 594.782C94.2812 601.081 97.823 607.303 101.088 613.028C106.857 623.15 111.421 631.146 121.965 634.893C126.637 636.553 133.403 633.884 140.073 627.744C149.706 618.876 158.391 602.947 154.682 588.911C149.51 570.427 138.07 565.488 127.766 562.319C119.819 559.872 113.181 555.17 106.755 550.618C95.9717 542.987 86.6743 536.402 74.1339 542.118C68.2547 544.799 64.3998 549.739 63.5578 555.667C62.2977 564.53 67.8276 574.77 79.1299 584.507C83.0706 587.913 86.3464 591.357 89.141 594.782Z" fill="#174974"/>
</svg>
