<svg width="443" height="522" viewBox="0 0 443 522" fill="none" xmlns="http://www.w3.org/2000/svg">
<path d="M1.01006 134.73C7.25006 198.15 31.33 233.41 39.73 264.85C52.63 313.13 29.0001 342.09 40.1801 428.74C51.7101 518.12 143.98 533.74 237.17 513.99C330.36 494.24 424.48 439.1 439.7 386.96C460.02 317.35 341.13 354.43 325.48 176.77C312.31 27.34 228.5 -10.55 149.33 2.61001C70.16 15.77 -4.37994 79.97 1.01006 134.73Z" fill="#1E507D"/>
<path d="M31.9301 183.89C28.2701 138.39 89.5 85.62 156.32 74.2C190.28 68.42 225.76 73.52 253.92 96.76C280.78 118.89 301.15 157.5 306.9 218.96C320.51 364.24 415.04 336.99 397.71 394.41C384.46 437.85 307.3 483.03 230.27 499.41C152.59 515.94 76.56 502.89 65.82 430.13C55.37 359.56 73.47 334.44 62.84 293.74C55.82 266.52 36.2701 236.32 31.9301 183.89Z" fill="#1B4873"/>
<path d="M62.8499 233.05C60.8199 196.81 108.85 155.47 163.31 145.79C190.64 140.98 219.8 144.51 243.23 162.76C265.69 180.18 283.21 211.06 288.32 261.16C299.84 374.07 370.21 356.69 355.73 401.86C344.58 436.64 284.24 471.82 223.37 484.83C161.2 498.14 101.41 487.66 91.4699 431.52C81.7499 377.02 94.2099 355.77 85.9699 322.63C80.2499 299.65 65.1699 274.5 62.8499 233.05Z" fill="#184069"/>
<path d="M93.77 282.21C93.44 255.22 128.19 225.33 170.3 217.39C191.01 213.54 213.83 215.51 232.54 228.77C250.6 241.48 265.26 264.62 269.75 303.37C279.07 383.92 325.29 376.38 313.75 409.33C304.62 435.42 261.18 460.64 216.47 470.27C169.81 480.36 126.25 472.45 117.12 432.93C108.12 394.51 115.04 377.09 109.09 351.53C104.72 332.77 94.15 312.67 93.77 282.21Z" fill="#15385F"/>
<path d="M124.7 331.36C126.09 313.61 147.54 295.17 177.3 288.97C191.38 286.09 207.86 286.52 221.86 294.76C235.5 302.79 247.25 318.17 251.18 345.56C258.09 393.76 280.3 396.03 271.77 416.78C264.62 434.18 238.12 449.43 209.58 455.69C178.42 462.56 151.17 457.2 142.77 434.32C134.56 411.95 135.91 398.38 132.22 380.42C129.23 365.87 123.17 350.82 124.7 331.36Z" fill="#123055"/>
<path d="M184.28 360.56C191.73 358.65 201.9 357.47 211.16 360.76C220.42 364.05 228.77 371.81 232.59 387.76C236.4 403.71 235.12 415.61 229.78 424.24C224.44 432.87 215.05 438.23 202.67 441.12C187.02 444.77 175.95 442 168.41 435.72C160.87 429.45 156.86 419.67 155.34 409.31C153.82 398.95 152.36 389 155.62 380.51C158.88 372.02 166.88 365.03 184.28 360.56Z" fill="#0F284B"/>
</svg>
