<svg width="374" height="247" viewBox="0 0 374 247" fill="none" xmlns="http://www.w3.org/2000/svg">
<g opacity="0.1">
<path d="M172.832 406.009C159.432 406.009 146.392 402.329 134.552 395.119C120.312 386.459 107.292 373.069 96.8724 356.399C86.0624 339.089 77.8024 317.879 70.8824 289.639C67.4324 275.569 64.6024 260.999 61.8624 246.919C55.0624 211.999 48.0425 175.889 31.0325 144.209C28.4625 139.419 25.6624 134.579 22.9524 129.899C14.5024 115.289 5.75246 100.179 1.84246 83.0794C-2.44754 64.3394 0.812444 44.8895 11.0124 28.3095C29.5424 -1.80051 63.8325 -15.9505 115.792 -14.9505C137.882 -14.5305 154.632 -10.4805 168.522 -2.21053C186.532 8.51947 198.862 27.5594 207.592 42.9494L209.962 47.1394C218.772 62.6994 227.892 78.7795 237.782 94.0895C260.742 129.619 281.722 143.399 302.012 156.729C324.332 171.389 345.412 185.239 364.822 227.449C372.512 244.179 375.392 264.669 373.152 286.689C371.172 306.119 364.382 323.999 354.032 337.029C339.342 355.529 317.852 363.479 302.962 367.849C295.372 370.079 287.572 371.979 280.032 373.809C267.672 376.819 254.882 379.919 242.702 384.589C237.482 386.589 232.202 388.819 227.102 390.969C213.902 396.539 200.252 402.299 186.002 404.829C181.572 405.629 177.182 406.009 172.832 406.009ZM110.712 -13.9905C61.9425 -13.9905 29.5824 0.0494537 11.8624 28.8395C1.79242 45.1995 -1.41757 64.3795 2.81243 82.8595C6.69243 99.8095 15.4024 114.849 23.8124 129.399C26.5224 134.079 29.3225 138.929 31.9025 143.739C48.9825 175.549 56.0224 211.739 62.8325 246.729C65.5724 260.799 68.4025 275.349 71.8425 289.399C78.7425 317.529 86.9625 338.649 97.7125 355.869C108.042 372.409 120.962 385.689 135.062 394.269C150.542 403.689 168.082 406.999 185.792 403.849C199.942 401.339 213.532 395.599 226.682 390.049C231.792 387.889 237.082 385.659 242.322 383.659C254.562 378.969 267.382 375.849 279.772 372.839C287.302 371.009 295.082 369.119 302.662 366.889C317.422 362.549 338.722 354.679 353.232 336.399C363.462 323.519 370.182 305.819 372.142 286.579C374.372 264.729 371.512 244.429 363.902 227.859C344.612 185.919 323.652 172.139 301.452 157.559C281.082 144.169 260.012 130.329 236.932 94.6295C227.022 79.2995 217.902 63.1995 209.082 47.6295L206.712 43.4395C198.042 28.1595 185.812 9.25945 168.002 -1.35055C154.272 -9.53055 137.672 -13.5305 115.762 -13.9505C114.062 -13.9705 112.372 -13.9905 110.712 -13.9905Z" fill="white"/>
<path d="M181.202 359.43C170.802 359.43 160.652 356.76 151.342 351.53C139.753 345.01 129.052 334.86 120.382 322.17C111.202 308.84 103.992 292.44 97.6925 270.57C94.1325 258.32 91.1925 245.54 88.3625 233.18C82.3325 206.91 76.0925 179.74 63.4125 155.63C61.6225 152.21 59.7125 148.76 57.8525 145.41C51.0525 133.12 44.0125 120.42 41.0525 106.11C37.9125 91.0297 40.6625 75.3597 48.7925 62.0097C63.5025 37.8897 91.3725 25.6597 131.622 25.6597C131.902 25.6597 132.172 25.6597 132.452 25.6597C150.132 25.7397 163.662 28.6497 175.012 34.8297C189.482 42.7797 199.443 56.5497 207.283 68.9797L209.172 71.9797C216.702 83.9197 224.492 96.2696 232.702 108.2C250.932 134.7 267.383 145.91 283.293 156.76C301.443 169.13 318.583 180.82 334.013 214.72C340.143 228.26 342.503 244.64 340.832 262.1C339.342 277.81 334.182 291.78 325.922 302.5C317.092 313.9 304.323 321.99 285.723 327.96C279.372 330 272.812 331.73 266.473 333.41C257.043 335.9 247.302 338.48 237.902 342.13C233.923 343.67 229.883 345.37 225.983 347.02C215.273 351.53 204.202 356.2 192.562 358.36C188.772 359.08 184.972 359.43 181.202 359.43ZM131.632 26.6597C91.7525 26.6597 64.1725 38.7197 49.6625 62.5297C41.6625 75.6697 38.9625 91.0797 42.0425 105.91C44.9725 120.07 51.9725 132.71 58.7425 144.93C60.5925 148.28 62.5125 151.74 64.3125 155.17C77.0525 179.39 83.3025 206.62 89.3525 232.96C92.1825 245.31 95.1225 258.07 98.6725 270.3C104.942 292.07 112.113 308.37 121.233 321.62C129.813 334.18 140.403 344.23 151.853 350.67C164.323 357.68 178.342 360.01 192.392 357.41C203.922 355.27 214.943 350.62 225.603 346.13C229.513 344.48 233.552 342.78 237.552 341.23C247.002 337.56 256.783 334.97 266.233 332.47C272.563 330.8 279.112 329.07 285.432 327.04C303.832 321.13 316.452 313.15 325.152 301.92C333.302 291.35 338.383 277.55 339.863 262.03C341.513 244.74 339.183 228.53 333.133 215.16C317.823 181.51 301.572 170.43 282.762 157.61C266.772 146.71 250.243 135.44 231.913 108.79C223.702 96.8497 215.902 84.4897 208.362 72.5397L206.473 69.5397C198.702 57.2297 188.832 43.5797 174.562 35.7397C163.362 29.6397 149.993 26.7597 132.483 26.6897C132.183 26.6597 131.902 26.6597 131.632 26.6597Z" fill="white"/>
<path d="M189.452 312.87C182.102 312.87 174.872 311.21 168.162 307.93C159.322 303.61 150.942 296.71 143.932 287.95C136.402 278.55 130.242 266.96 124.542 251.5C120.662 240.96 117.452 229.8 114.352 219C109.322 201.49 104.122 183.39 95.8224 167.04C94.8724 165.14 93.8925 163.25 92.9125 161.35C87.6925 151.24 82.2925 140.79 80.2925 129.11C78.3125 117.68 80.5525 105.81 86.6025 95.6897C97.6925 77.2097 118.732 67.3097 149.132 66.2597C161.972 65.8197 172.572 67.6496 181.522 71.8596C192.502 77.0196 200.562 86.4396 206.992 94.9796L211.212 100.59C216.552 107.68 222.072 115.01 227.632 122.28C240.922 139.66 253.302 148.55 264.222 156.4C279.002 167.02 291.772 176.19 303.232 202C307.802 212.29 309.632 224.57 308.532 237.52C307.552 249.28 303.852 259.82 297.832 267.99C291.412 276.71 282.092 283.09 268.502 288.09C263.362 289.98 257.982 291.59 252.772 293.15C246.322 295.08 239.662 297.08 233.112 299.69C230.412 300.76 227.662 301.92 225.002 303.04C216.742 306.52 208.202 310.11 199.142 311.92C195.922 312.55 192.672 312.87 189.452 312.87ZM152.812 67.1897C151.622 67.1897 150.402 67.2097 149.172 67.2497C119.132 68.2797 98.3725 78.0197 87.4625 96.1897C81.5325 106.11 79.3425 117.74 81.2825 128.93C83.2525 140.46 88.6124 150.84 93.8024 160.88C94.7824 162.78 95.7625 164.67 96.7225 166.57C105.062 183.01 110.282 201.16 115.322 218.71C118.422 229.49 121.622 240.64 125.492 251.14C131.152 266.5 137.262 277.99 144.732 287.31C151.652 295.95 159.912 302.77 168.622 307.02C178.082 311.64 188.582 312.98 198.992 310.91C207.952 309.12 216.442 305.55 224.652 302.09C227.322 300.97 230.072 299.81 232.782 298.74C239.372 296.12 246.062 294.12 252.522 292.18C257.952 290.55 263.082 289.01 268.192 287.13C281.592 282.2 290.762 275.92 297.062 267.37C302.972 259.35 306.602 248.99 307.572 237.41C308.652 224.63 306.852 212.52 302.352 202.38C291.002 176.81 278.332 167.72 263.672 157.19C252.692 149.31 240.252 140.37 226.862 122.87C221.302 115.6 215.782 108.27 210.442 101.17L206.222 95.5597C199.862 87.1197 191.902 77.8096 181.122 72.7396C173.152 69.0296 163.862 67.1897 152.812 67.1897Z" fill="white"/>
<path d="M197.192 266.409C193.062 266.409 188.982 265.719 185.002 264.349C178.742 262.179 172.852 258.619 167.492 253.759C161.582 248.389 156.312 241.429 151.382 232.479C145.952 222.619 141.682 211.629 137.542 200.999C134.622 193.489 131.602 185.729 128.202 178.449C123.992 169.429 120.432 161.219 119.512 152.119C118.682 144.239 120.372 136.369 124.392 129.389C131.932 116.399 145.862 108.819 165.782 106.869C174.002 106.069 181.472 106.739 187.982 108.889C195.572 111.389 201.442 116.169 206.652 120.969C211.772 125.679 217.232 130.809 222.542 136.359C230.202 144.389 237.332 149.879 243.622 154.719C254.942 163.439 264.712 170.969 272.462 189.279C275.462 196.369 276.772 204.549 276.252 212.919C275.782 220.699 273.532 227.799 269.762 233.449C265.772 239.439 259.742 244.259 251.322 248.189C247.222 250.109 242.932 251.689 238.392 253.369C235.132 254.569 231.752 255.819 228.352 257.229C227.072 257.759 225.783 258.299 224.482 258.849C218.552 261.349 212.412 263.939 205.752 265.449C202.882 266.079 200.022 266.409 197.192 266.409ZM172.322 107.529C170.232 107.529 168.092 107.639 165.892 107.849C146.302 109.769 132.642 117.179 125.272 129.869C121.362 136.669 119.722 144.319 120.522 151.989C121.432 160.939 124.952 169.069 129.122 177.999C132.532 185.299 135.552 193.079 138.482 200.609C142.602 211.209 146.872 222.169 152.262 231.969C157.142 240.829 162.342 247.709 168.162 252.999C173.412 257.769 179.192 261.269 185.322 263.389C191.842 265.639 198.642 265.999 205.532 264.449C212.102 262.959 218.192 260.389 224.092 257.899C225.392 257.349 226.682 256.809 227.972 256.279C231.392 254.859 234.772 253.609 238.052 252.399C242.572 250.729 246.842 249.159 250.902 247.249C259.142 243.399 265.042 238.689 268.932 232.859C272.602 227.359 274.792 220.429 275.252 212.829C275.762 204.609 274.482 196.589 271.542 189.639C263.893 171.579 254.672 164.469 243.012 155.479C236.692 150.609 229.542 145.099 221.822 137.019C216.542 131.489 211.092 126.379 205.982 121.679C200.853 116.959 195.092 112.259 187.682 109.819C183.042 108.299 177.892 107.529 172.322 107.529Z" fill="white"/>
<path d="M200.482 220.79C191.282 220.79 184.002 217.4 179.012 213.99C170.762 208.36 164.052 199.54 160.592 189.81C156.982 179.67 158.352 168.17 164.152 159.8C168.452 153.61 177.182 146.16 194.352 145.89C216.712 145.55 234.832 157.28 241.682 176.56C244.772 185.26 244.692 192.94 241.432 199.4C237.182 207.82 227.412 214.4 212.372 218.96C208.122 220.25 204.152 220.79 200.482 220.79ZM195.352 146.88C195.022 146.88 194.702 146.88 194.372 146.89C177.622 147.16 169.142 154.37 164.982 160.37C159.362 168.48 158.042 179.63 161.542 189.47C171.872 218.52 197.432 222.45 212.092 217.99C226.852 213.51 236.432 207.1 240.552 198.93C243.682 192.73 243.752 185.31 240.752 176.88C234.142 158.32 216.802 146.88 195.352 146.88Z" fill="white"/>
</g>
</svg>
