<svg width="454" height="667" viewBox="0 0 454 667" fill="none" xmlns="http://www.w3.org/2000/svg">
<path d="M445.3 79.4409C402.783 73.6923 357.656 81.8585 318.961 101.775C302.606 110.194 287.459 121.824 274.11 136.749C237.346 177.857 218.636 219.471 213.317 231.086C202.011 255.8 196.395 282.059 192.496 306.147C188.625 330.028 186.28 352.899 181.876 373.064C177.394 393.621 170.626 410.278 163.852 424.678C157.67 437.84 151.453 449.29 146.587 461.094C142.266 471.577 138.448 482.649 138.812 496.419C139.127 508.465 142.585 522.093 146.831 535.212C149.185 542.477 151.81 549.818 155.027 557.065C158.321 564.494 162.294 571.708 166.82 578.575C171.42 585.552 176.508 592.123 181.841 598.416C186.967 604.476 192.387 610.454 198.043 615.723C203.553 620.856 209.29 625.245 214.927 628.094C221.149 631.227 227.072 632.595 232.827 633.247C246.669 634.819 260.556 633.403 273.924 629.007C287.851 624.434 302.877 617.224 310.834 601.521C318.547 586.301 319.088 565.167 318.826 543.383C318.754 537.583 318.624 531.715 318.548 525.788C318.472 519.685 318.227 513.382 319.177 507.467C321.377 493.758 333.042 485.964 344.939 478.126C398.579 442.802 501.908 403.7 550.552 300.872C574.558 250.134 574.633 197.226 554.604 155.272C533.278 110.586 492.149 85.7735 445.3 79.4409Z" stroke="#174974" stroke-miterlimit="10"/>
<path d="M201.569 315.465C197.728 337.845 196.031 359.475 192.925 378.934C190.217 395.202 186.334 409.298 181.978 421.904C181.196 424.127 180.405 426.285 179.591 428.41C177.694 433.404 175.725 438.168 173.743 442.755C170.666 449.929 167.524 456.661 164.655 463.332C160.26 473.513 155.984 483.668 155.105 495.956C155.014 496.95 154.952 497.957 154.904 498.977C154.422 509.34 156.01 520.808 158.921 532.44C160.694 538.715 162.761 545.114 165.358 551.471C168.015 557.926 171.254 564.239 175.007 570.293C178.3 575.592 181.925 580.667 185.755 585.536C186.341 586.271 186.92 587 187.513 587.728C191.834 593.068 196.448 598.297 201.28 602.896C205.973 607.365 210.875 611.198 215.725 613.779C221 616.564 226.067 617.942 231.012 618.673C241.641 620.441 252.136 619.532 261.81 616.29C263.886 615.584 265.915 614.767 267.905 613.859C278.068 609.297 288.257 602.52 294.798 591.234C295.791 589.563 296.68 587.754 297.485 585.8C303.381 571.567 303.563 551.465 303.701 532.482C303.748 529.523 303.818 526.626 303.921 523.841C304.032 521.446 304.19 519.027 304.412 516.585C304.817 511.242 305.265 505.706 306.715 500.474C309.81 488.621 320.422 481.241 331.119 474.239C365.919 451.522 421.471 428.772 467.479 384.267C488.785 363.659 507.903 338.574 520.963 308.064C540.643 263.217 539.371 217.002 520.539 180.665C500.748 142.305 464.065 121.066 422.872 116.301C385.714 111.984 346.615 119.95 313.106 137.751C311.698 138.504 310.297 139.277 308.897 140.078C296.244 147.378 284.504 156.781 273.981 168.312C243.029 202.386 226.279 237.41 220.308 250.154C210.397 271.632 205.14 294.375 201.569 315.465Z" stroke="#174974" stroke-miterlimit="10"/>
<path d="M210.643 324.784C206.825 345.67 205.79 366.058 203.966 384.812C202.349 399.922 200.038 413.486 197.018 425.874C196.481 428.009 195.921 430.096 195.331 432.155C193.958 436.968 192.464 441.572 190.858 446.004C188.341 452.988 185.505 459.404 182.726 465.613C178.256 475.492 173.521 484.716 171.399 495.535C171.192 496.448 171.007 497.367 170.836 498.301C169.076 507.818 169.047 518.384 170.998 529.711C172.183 535.003 173.692 540.446 175.682 545.913C177.702 551.393 180.215 556.813 183.18 562.039C185.767 566.586 188.659 570.966 191.758 575.183C192.227 575.824 192.696 576.45 193.179 577.076C196.695 581.695 200.496 586.169 204.504 590.098C208.38 593.904 212.448 597.179 216.503 599.5C220.824 601.945 225.042 603.326 229.176 604.136C239.023 606.365 248.564 605.307 256.748 601.567C258.522 600.745 260.221 599.798 261.866 598.733C270.105 593.584 277.56 585.987 282.237 575.208C282.937 573.647 283.568 571.954 284.124 570.122C288.209 556.882 288.018 537.799 288.563 521.624C288.694 518.839 288.881 516.214 289.154 513.819C289.41 511.723 289.784 509.572 290.256 507.404C291.142 502.821 292.283 498.053 294.231 493.488C298.23 483.499 307.775 476.533 317.278 470.374C350.247 449.069 401.542 429.461 443.825 387.187C463.36 367.663 480.658 343.699 491.36 315.272C506.707 276.308 504.096 236.793 486.453 206.067C468.217 174.038 435.976 156.379 400.444 153.19C368.652 150.296 335.582 158.076 307.26 173.762C306.068 174.429 304.876 175.11 303.706 175.811C292.918 182.249 282.897 190.301 273.867 199.902C248.728 226.928 233.943 255.37 227.327 269.248C218.77 287.479 213.864 306.7 210.643 324.784Z" stroke="#174974" stroke-miterlimit="10"/>
<path d="M219.71 334.109C215.914 353.502 215.534 372.642 215.008 390.69C214.48 404.642 213.734 417.668 212.051 429.836C211.758 431.885 211.429 433.899 211.063 435.88C210.214 440.51 209.196 444.97 207.966 449.232C206.015 456.033 203.479 462.141 200.788 467.858C196.243 477.435 191.057 485.735 187.692 495.071C187.369 495.904 187.06 496.736 186.765 497.581C183.736 506.247 182.082 515.917 183.074 526.94C183.67 531.235 184.621 535.749 185.999 540.319C187.367 544.826 189.168 549.352 191.353 553.758C193.24 557.545 195.385 561.245 197.752 564.795C198.104 565.327 198.47 565.858 198.836 566.39C201.548 570.302 204.543 573.999 207.727 577.271C210.778 580.407 214.02 583.133 217.287 585.185C220.668 587.29 224.031 588.681 227.353 589.556C236.41 592.252 245.005 591.024 251.706 586.808C253.179 585.87 254.554 584.786 255.84 583.579C262.147 577.849 266.876 569.425 269.683 559.147C270.097 557.703 270.456 556.112 270.768 554.395C273.035 542.141 272.486 524.09 273.431 510.717C273.654 508.112 273.957 505.759 274.393 503.762C274.801 501.956 275.383 500.095 276.106 498.187C277.472 494.351 279.307 490.364 281.754 486.481C286.649 478.348 295.14 471.796 303.436 466.481C334.575 446.587 381.613 430.122 420.164 390.087C437.92 371.654 453.412 348.796 461.75 322.458C472.763 289.392 468.813 256.563 452.359 231.447C435.672 205.758 407.878 191.672 377.994 190.059C351.562 188.595 324.52 196.175 301.392 209.753C300.409 210.327 299.44 210.915 298.485 211.516C289.555 217.101 281.26 223.781 273.724 231.48C254.405 251.464 241.572 273.325 234.304 288.331C227.156 303.325 222.595 319.031 219.71 334.109Z" stroke="#174974" stroke-miterlimit="10"/>
<path d="M225.51 574.998C233.785 578.169 241.425 576.777 246.643 572.057C253.293 566.046 255.964 554.959 257.121 543.093C258.375 530.226 256.098 503.266 259.632 493.718C263.314 483.776 276.974 470.573 289.609 462.602C318.904 444.12 361.697 430.782 396.524 392.992C412.502 375.65 426.181 353.907 432.154 329.658C438.841 302.482 433.53 276.347 418.273 256.848C403.128 237.492 379.802 226.985 355.566 226.947C333.595 226.912 311.707 234.94 293.287 247.241C258.899 270.205 236.408 307.28 228.784 343.442C222.227 374.547 227.926 405.656 227.092 433.82C226.9 440.358 226.303 446.642 225.074 452.489C223.682 459.099 221.454 464.906 218.851 470.131C213.79 480.294 207.499 488.167 202.689 496.898C198.384 504.719 195.125 513.485 195.158 524.204C195.183 533.373 198.183 544.542 203.747 554.435C209.265 564.231 217.379 571.893 225.51 574.998Z" stroke="#174974" stroke-miterlimit="10"/>
<path d="M355.383 254.529C338.042 252.08 319.556 256.58 304.132 266.656C286.415 278.231 274.011 296.751 263.796 313.4C258.91 321.377 254.483 329.55 252.152 338.522C250.068 346.524 249.672 354.81 249.201 362.809C248.97 366.716 248.722 370.581 248.253 374.377C248.22 374.633 248.271 374.872 248.37 375.059C248.114 379.067 248.07 383.066 248.52 387.033C249.439 395.123 252.955 402.239 256.965 408.913C259.105 412.471 261.295 416.049 263.685 419.457C266.029 422.796 268.677 425.939 271.824 428.385C277.353 432.689 284.051 434.941 290.715 435.468C298.386 436.071 306.074 434.437 313.575 431.77C322.222 428.679 330.866 424.371 339.483 419.328C348.232 414.217 357.034 408.212 365.521 401.164C381.87 387.594 397.604 369.411 404.749 347.002C411.45 325.981 409.415 303.696 399.898 285.981C390.466 268.425 374.423 257.205 355.383 254.529Z" stroke="#174974" stroke-miterlimit="10"/>
<path d="M235.59 493.383C232.389 491.187 229.081 490.311 226.184 490.637C219.723 491.362 213.825 502.058 211.135 509.169C209.091 514.572 207.441 520.328 207.191 526.826C206.978 532.579 207.907 539.204 210.809 545.763C213.416 551.653 217.564 557.664 222.354 561.5C224.949 563.57 227.643 564.886 230.157 565.325C233.106 565.839 235.725 565.311 238.051 564.278C240.411 563.236 242.591 561.712 244.171 559.454C244.965 558.321 245.617 557.002 246.028 555.487C246.452 553.929 246.614 552.168 246.581 550.308C246.518 546.483 245.75 542.329 245.348 538.311C244.913 533.975 244.706 529.687 244.735 525.469C244.758 521.654 245.125 517.969 245.123 514.063C245.126 510.489 244.757 506.597 243.144 502.736C241.515 498.848 238.733 495.539 235.59 493.383Z" stroke="#174974" stroke-miterlimit="10"/>
<path d="M326.659 281.049C320.888 281.897 315.152 283.898 309.88 286.957C303.824 290.463 298.583 295.325 294.081 300.861C289.436 306.565 285.491 312.837 282.078 319.126C278.937 324.93 276.262 330.894 274.092 336.932C271.935 342.926 270.24 348.996 269.056 355.089C267.955 360.769 267.225 366.506 267.221 372.181C267.218 377.693 267.908 383.194 269.639 388.324C271.274 393.161 273.99 397.568 277.463 401C280.928 404.425 285.287 406.741 289.924 407.187C299.83 408.132 309.537 403.297 315.622 399.818C321.658 396.363 327.172 391.59 332.964 386.884C338.914 382.052 344.906 376.808 350.436 370.74C360.557 359.627 369.29 345.395 371.271 329.6C373.072 315.234 368.619 301.295 359.813 291.953C351.252 282.892 339.088 279.22 326.659 281.049Z" stroke="#174974" stroke-miterlimit="10"/>
</svg>
