<svg width="48" height="48" viewBox="0 0 48 48" fill="none" xmlns="http://www.w3.org/2000/svg">
<path fill-rule="evenodd" clip-rule="evenodd" d="M27.1329 21.8475C27.2839 21.8093 27.4418 21.807 27.594 21.8406L34.411 23.3486C34.663 23.4044 34.8837 23.5554 35.0269 23.7701L44.3319 37.7181C44.5515 38.0473 44.5563 38.4751 44.3442 38.8091C44.132 39.1432 43.7428 39.3207 43.3514 39.2619L30.5993 37.3453L17.9889 39.4267C17.9793 39.4282 17.9697 39.4297 17.9601 39.431C17.844 39.447 17.723 39.4426 17.602 39.4151C17.599 39.4144 17.596 39.4137 17.593 39.413L4.29685 36.6542C3.95733 36.5837 3.67853 36.3424 3.56012 36.0165C3.44171 35.6906 3.50059 35.3266 3.71571 35.0546L13.7177 22.4096C13.9539 22.111 14.3393 21.9724 14.7116 22.0522L20.9963 23.3993L27.1329 21.8475ZM19.8151 25.1915L14.9005 24.1381L6.28921 35.025L17.0668 37.2612L19.8151 25.1915ZM19.1294 37.2114L29.371 35.521L26.6398 24.0352L21.854 25.2453L19.1294 37.2114ZM28.72 24.1381L31.4086 35.4445L41.4142 36.9483L33.5863 25.2145L28.72 24.1381Z" fill="#80CFD4"/>
<path fill-rule="evenodd" clip-rule="evenodd" d="M9.5159 8.87982C9.75664 8.62034 10.1166 8.50745 10.4624 8.583L22.5324 11.22C22.8992 11.3001 23.1901 11.5789 23.2859 11.9419C23.3817 12.3048 23.2661 12.6908 22.9866 12.9415L14.5571 20.5004L16.4542 26.858C16.6121 27.3872 16.3111 27.9443 15.7819 28.1022C15.2527 28.2601 14.6957 27.9591 14.5377 27.4299L9.29073 9.8459C9.18952 9.50672 9.27516 9.1393 9.5159 8.87982ZM13.9247 18.3811L20.1967 12.7569L11.6921 10.8988L13.9247 18.3811ZM30.0396 10.5373C30.391 10.3851 30.7985 10.447 31.0889 10.6966L38.6748 17.2176C38.9508 17.4549 39.0761 17.8233 39.002 18.1796C38.9279 18.5359 38.6661 18.8238 38.3184 18.9313L31.0147 21.1896L30.83 25.4384C30.8061 25.9902 30.3393 26.418 29.7876 26.394C29.2358 26.37 28.8079 25.9033 28.8319 25.3515L29.4379 11.4115C29.4546 11.029 29.6882 10.6895 30.0396 10.5373ZM31.107 19.0676L35.9992 17.555L31.3466 13.5556L31.107 19.0676Z" fill="#80CFD4"/>
</svg>
