<svg width="32" height="32" viewBox="0 0 32 32" fill="none" xmlns="http://www.w3.org/2000/svg">
<path fill-rule="evenodd" clip-rule="evenodd" d="M10.7406 2.74069C11.4283 2.05306 12.3609 1.66675 13.3333 1.66675H18.6667C19.6391 1.66675 20.5718 2.05306 21.2594 2.74069C21.947 3.42832 22.3333 4.36095 22.3333 5.33342V8.00008C22.3333 8.55237 21.8856 9.00008 21.3333 9.00008C20.7811 9.00008 20.3333 8.55237 20.3333 8.00008V5.33342C20.3333 4.89139 20.1578 4.46746 19.8452 4.1549C19.5326 3.84234 19.1087 3.66675 18.6667 3.66675H13.3333C12.8913 3.66675 12.4674 3.84234 12.1548 4.1549C11.8423 4.46746 11.6667 4.89139 11.6667 5.33342V8.00008C11.6667 8.55237 11.219 9.00008 10.6667 9.00008C10.1144 9.00008 9.66668 8.55237 9.66668 8.00008V5.33342C9.66668 4.36095 10.053 3.42832 10.7406 2.74069ZM15 16.0001C15 15.4478 15.4477 15.0001 16 15.0001H16.0133C16.5656 15.0001 17.0133 15.4478 17.0133 16.0001C17.0133 16.5524 16.5656 17.0001 16.0133 17.0001H16C15.4477 17.0001 15 16.5524 15 16.0001ZM1.83215 16.7825C2.13644 16.3216 2.75674 16.1946 3.21764 16.4989C7.01044 19.0029 11.4552 20.3378 16 20.3378C20.5448 20.3378 24.9896 19.0029 28.7824 16.4989C29.2433 16.1946 29.8636 16.3216 30.1679 16.7825C30.4722 17.2434 30.3452 17.8637 29.8843 18.1679C25.7646 20.8879 20.9366 22.3378 16 22.3378C11.0634 22.3378 6.23547 20.8879 2.11571 18.1679C1.65481 17.8637 1.52786 17.2434 1.83215 16.7825Z" fill="#E04E39"/>
<path fill-rule="evenodd" clip-rule="evenodd" d="M5.33335 9C4.41288 9 3.66669 9.74619 3.66669 10.6667V24C3.66669 24.9205 4.41288 25.6667 5.33335 25.6667H26.6667C27.5872 25.6667 28.3334 24.9205 28.3334 24V10.6667C28.3334 9.74619 27.5872 9 26.6667 9H5.33335ZM1.66669 10.6667C1.66669 8.64162 3.30831 7 5.33335 7H26.6667C28.6917 7 30.3334 8.64162 30.3334 10.6667V24C30.3334 26.025 28.6917 27.6667 26.6667 27.6667H5.33335C3.30831 27.6667 1.66669 26.025 1.66669 24V10.6667Z" fill="#E04E39"/>
</svg>
