<svg width="28" height="23" viewBox="0 0 28 23" fill="none" xmlns="http://www.w3.org/2000/svg">
<path d="M26.868 0.716309C26.7754 0.716309 26.6695 0.729436 26.5769 0.768818L0.995526 10.4173C0.267656 10.693 0.294124 11.7038 1.02199 11.9532L6.95083 13.9354L10.524 21.0373L10.5372 21.0504C10.6034 21.1817 10.7358 21.2604 10.8813 21.2604C10.9607 21.2604 11.0534 21.2342 11.1328 21.1686L14.481 18.3462L10.7358 15.537L11.0269 19.2388L8.3404 13.7123L22.6331 5.1927L10.7358 15.5238L19.9996 22.4944C20.3039 22.7307 20.6613 22.8357 21.0186 22.8357C21.7464 22.8357 22.4611 22.3631 22.6596 21.5624L27.6621 1.70085C27.7944 1.20202 27.3709 0.716309 26.868 0.716309Z" fill="white"/>
</svg>
