<svg width="28" height="28" viewBox="0 0 28 28" fill="none" xmlns="http://www.w3.org/2000/svg">
<path d="M13.9362 27.5374C11.5533 27.5374 9.21395 26.9063 7.14659 25.7094L1.83675 27.5374L2.92483 21.9228C1.21654 19.5835 0.313431 16.8306 0.313431 13.9254C0.313431 6.41763 6.41757 0.313477 13.9253 0.313477C21.4331 0.313477 27.5373 6.41763 27.5373 13.9254C27.559 21.4223 21.4549 27.5374 13.9362 27.5374ZM7.39685 23.4788L7.81032 23.7399C9.66006 24.9042 11.7818 25.5135 13.9471 25.5135C20.3341 25.5135 25.5352 20.3125 25.5352 13.9254C25.5352 7.53836 20.3341 2.33731 13.9471 2.33731C7.54918 2.32643 2.34814 7.52748 2.34814 13.9145C2.34814 16.5151 3.19685 18.9741 4.80721 21.0415L5.09011 21.4006L4.49167 24.469L7.39685 23.4788Z" fill="white"/>
<path d="M7.07033 8.69169C7.07033 8.69169 7.86463 7.29894 8.51748 7.21189C9.17033 7.13573 10.0082 7.13573 10.2367 7.56008C10.4652 7.98444 11.4771 10.4653 11.4771 10.4653C11.4771 10.4653 11.6512 10.8896 11.3791 11.3031C11.1071 11.7057 10.5087 12.3041 10.5087 12.3041C10.5087 12.3041 10.1714 12.7285 10.5087 13.1855C10.846 13.6425 11.3574 14.4694 12.4237 15.5357C13.49 16.6021 15.5356 17.3637 15.5356 17.3637C15.5356 17.3637 15.8294 17.4073 16.0144 17.2223C16.1993 17.0373 17.2113 15.7751 17.2113 15.7751C17.2113 15.7751 17.5377 15.3617 18.0708 15.601C18.604 15.8513 20.9434 17.0155 20.9434 17.0155C20.9434 17.0155 21.2154 17.1135 21.2154 17.5269C21.2154 17.9404 21.0522 18.9523 20.704 19.2896C20.3667 19.6269 19.3657 20.6824 17.8641 20.6824C16.3626 20.6824 12.7936 19.4637 10.8895 17.5596C8.98536 15.6554 7.29883 13.7295 6.89624 11.9777C6.52629 10.2041 6.5807 9.40983 7.07033 8.69169Z" fill="white"/>
</svg>
