<svg width="25" height="24" viewBox="0 0 25 24" fill="none" xmlns="http://www.w3.org/2000/svg">
<path d="M12.4991 1.75C12.4991 1.75 12.4991 1.75 12.4891 1.75C8.95912 1.75 4.91912 3.82 3.86912 8.44C2.69912 13.6 5.85912 17.97 8.71912 20.72C9.77912 21.74 11.1391 22.25 12.4991 22.25C13.8591 22.25 15.2191 21.74 16.2691 20.72C19.1291 17.97 22.2891 13.61 21.1191 8.45C20.0691 3.83 16.0391 1.75 12.4991 1.75Z" fill="#5FA7B6"/>
<path fill-rule="evenodd" clip-rule="evenodd" d="M12.4996 13.4602C10.7599 13.4602 9.34961 12.0499 9.34961 10.3102C9.34961 8.57046 10.7599 7.16016 12.4996 7.16016C14.2393 7.16016 15.6496 8.57046 15.6496 10.3102C15.6496 12.0499 14.2393 13.4602 12.4996 13.4602Z" fill="white"/>
</svg>
