<svg xmlns="http://www.w3.org/2000/svg" xmlns:xlink="http://www.w3.org/1999/xlink"><defs><style>
    .sprite-symbol-usage {display: none;}
    .sprite-symbol-usage:target {display: inline;}
  </style><symbol viewBox="0 0 24 25" fill="none" id="icon-arrow-right">
<path d="M12 4.5L10.59 5.91L16.17 11.5H4V13.5H16.17L10.59 19.09L12 20.5L20 12.5L12 4.5Z" fill="white" />
</symbol><symbol viewBox="0 0 25 24" fill="none" id="icon-calendar">
<path d="M17.2502 2C17.2502 1.59 16.9102 1.25 16.5002 1.25C16.0902 1.25 15.7502 1.59 15.7502 2V3.5H9.25023V2C9.25023 1.59 8.91023 1.25 8.50023 1.25C8.09023 1.25 7.75023 1.59 7.75023 2V3.56C5.05023 3.81 3.74023 5.42 3.54023 7.81C3.52023 8.1 3.76023 8.34 4.04023 8.34H20.9602C21.2502 8.34 21.4902 8.09 21.4602 7.81C21.2602 5.42 19.9502 3.81 17.2502 3.56V2Z" fill="white" />
<path d="M21.5 10.8398V16.9998C21.5 19.9998 20 21.9998 16.5 21.9998H8.5C5 21.9998 3.5 19.9998 3.5 16.9998V10.8398C3.5 10.2898 3.95 9.83984 4.5 9.83984H20.5C21.05 9.83984 21.5 10.2898 21.5 10.8398Z" fill="#5FA7B6" />
<path d="M8.29 14.7099C8.11 14.5199 8 14.2599 8 13.9999C8 13.7399 8.11 13.4799 8.29 13.2899C8.57 13.0099 9.01 12.9199 9.38 13.0799C9.51 13.1299 9.62 13.1999 9.71 13.2899C9.89 13.4799 10 13.7399 10 13.9999C10 14.2599 9.89 14.5199 9.71 14.7099C9.52 14.8899 9.26 14.9999 9 14.9999C8.74 14.9999 8.48 14.8899 8.29 14.7099Z" fill="white" />
<path d="M11.79 14.7099C11.61 14.5199 11.5 14.2599 11.5 13.9999C11.5 13.7399 11.61 13.4799 11.79 13.2899C11.88 13.1999 11.99 13.1299 12.12 13.0799C12.49 12.9199 12.93 13.0099 13.21 13.2899C13.39 13.4799 13.5 13.7399 13.5 13.9999C13.5 14.2599 13.39 14.5199 13.21 14.7099C13.16 14.7499 13.11 14.7899 13.06 14.8299C13 14.8699 12.94 14.8999 12.88 14.9199C12.82 14.9499 12.76 14.9699 12.7 14.9799C12.63 14.9899 12.57 14.9999 12.5 14.9999C12.24 14.9999 11.98 14.8899 11.79 14.7099Z" fill="white" />
<path d="M15.29 14.71C15.11 14.52 15 14.26 15 14C15 13.74 15.11 13.48 15.29 13.29C15.39 13.2 15.49 13.13 15.62 13.08C15.8 13 16 12.98 16.2 13.02C16.26 13.03 16.32 13.05 16.38 13.08C16.44 13.1 16.5 13.13 16.56 13.17C16.61 13.21 16.66 13.25 16.71 13.29C16.89 13.48 17 13.74 17 14C17 14.26 16.89 14.52 16.71 14.71C16.66 14.75 16.61 14.79 16.56 14.83C16.5 14.87 16.44 14.9 16.38 14.92C16.32 14.95 16.26 14.97 16.2 14.98C16.13 14.99 16.06 15 16 15C15.74 15 15.48 14.89 15.29 14.71Z" fill="white" />
<path d="M8.62 18.42C8.49 18.37 8.39 18.3 8.29 18.21C8.11 18.02 8 17.76 8 17.5C8 17.24 8.11 16.98 8.29 16.79C8.39 16.7 8.49 16.63 8.62 16.58C8.8 16.5 9 16.48 9.2 16.52C9.26 16.53 9.32 16.55 9.38 16.58C9.44 16.6 9.5 16.63 9.56 16.67C9.61 16.71 9.66 16.75 9.71 16.79C9.89 16.98 10 17.24 10 17.5C10 17.76 9.89 18.02 9.71 18.21C9.66 18.25 9.61 18.3 9.56 18.33C9.5 18.37 9.44 18.4 9.38 18.42C9.32 18.45 9.26 18.47 9.2 18.48C9.13 18.49 9.07 18.5 9 18.5C8.87 18.5 8.74 18.47 8.62 18.42Z" fill="white" />
<path d="M11.79 18.2102C11.61 18.0202 11.5 17.7602 11.5 17.5002C11.5 17.2402 11.61 16.9802 11.79 16.7902C12.16 16.4202 12.84 16.4202 13.21 16.7902C13.39 16.9802 13.5 17.2402 13.5 17.5002C13.5 17.7602 13.39 18.0202 13.21 18.2102C13.02 18.3902 12.76 18.5002 12.5 18.5002C12.24 18.5002 11.98 18.3902 11.79 18.2102Z" fill="white" />
<path d="M15.29 18.2102C15.11 18.0202 15 17.7602 15 17.5002C15 17.2402 15.11 16.9802 15.29 16.7902C15.66 16.4202 16.34 16.4202 16.71 16.7902C16.89 16.9802 17 17.2402 17 17.5002C17 17.7602 16.89 18.0202 16.71 18.2102C16.52 18.3902 16.26 18.5002 16 18.5002C15.74 18.5002 15.48 18.3902 15.29 18.2102Z" fill="white" />
</symbol><symbol viewBox="0 0 32 32" fill="none" id="icon-case">
<path fill-rule="evenodd" clip-rule="evenodd" d="M10.7406 2.74069C11.4283 2.05306 12.3609 1.66675 13.3333 1.66675H18.6667C19.6391 1.66675 20.5718 2.05306 21.2594 2.74069C21.947 3.42832 22.3333 4.36095 22.3333 5.33342V8.00008C22.3333 8.55237 21.8856 9.00008 21.3333 9.00008C20.7811 9.00008 20.3333 8.55237 20.3333 8.00008V5.33342C20.3333 4.89139 20.1578 4.46746 19.8452 4.1549C19.5326 3.84234 19.1087 3.66675 18.6667 3.66675H13.3333C12.8913 3.66675 12.4674 3.84234 12.1548 4.1549C11.8423 4.46746 11.6667 4.89139 11.6667 5.33342V8.00008C11.6667 8.55237 11.219 9.00008 10.6667 9.00008C10.1144 9.00008 9.66668 8.55237 9.66668 8.00008V5.33342C9.66668 4.36095 10.053 3.42832 10.7406 2.74069ZM15 16.0001C15 15.4478 15.4477 15.0001 16 15.0001H16.0133C16.5656 15.0001 17.0133 15.4478 17.0133 16.0001C17.0133 16.5524 16.5656 17.0001 16.0133 17.0001H16C15.4477 17.0001 15 16.5524 15 16.0001ZM1.83215 16.7825C2.13644 16.3216 2.75674 16.1946 3.21764 16.4989C7.01044 19.0029 11.4552 20.3378 16 20.3378C20.5448 20.3378 24.9896 19.0029 28.7824 16.4989C29.2433 16.1946 29.8636 16.3216 30.1679 16.7825C30.4722 17.2434 30.3452 17.8637 29.8843 18.1679C25.7646 20.8879 20.9366 22.3378 16 22.3378C11.0634 22.3378 6.23547 20.8879 2.11571 18.1679C1.65481 17.8637 1.52786 17.2434 1.83215 16.7825Z" fill="#E04E39" />
<path fill-rule="evenodd" clip-rule="evenodd" d="M5.33335 9C4.41288 9 3.66669 9.74619 3.66669 10.6667V24C3.66669 24.9205 4.41288 25.6667 5.33335 25.6667H26.6667C27.5872 25.6667 28.3334 24.9205 28.3334 24V10.6667C28.3334 9.74619 27.5872 9 26.6667 9H5.33335ZM1.66669 10.6667C1.66669 8.64162 3.30831 7 5.33335 7H26.6667C28.6917 7 30.3334 8.64162 30.3334 10.6667V24C30.3334 26.025 28.6917 27.6667 26.6667 27.6667H5.33335C3.30831 27.6667 1.66669 26.025 1.66669 24V10.6667Z" fill="#E04E39" />
</symbol><symbol viewBox="0 0 24 24" fill="none" id="icon-cross">
<g clip-path="url(#icon-cross_clip0_435_3684)">
<path d="M23.707 0.293031C23.5195 0.10556 23.2652 0.000244141 23 0.000244141C22.7349 0.000244141 22.4806 0.10556 22.293 0.293031L12 10.586L1.70703 0.293031C1.5195 0.10556 1.26519 0.000244141 1.00003 0.000244141C0.734866 0.000244141 0.480558 0.10556 0.293031 0.293031C0.10556 0.480558 0.000244141 0.734866 0.000244141 1.00003C0.000244141 1.26519 0.10556 1.5195 0.293031 1.70703L10.586 12L0.293031 22.293C0.10556 22.4806 0.000244141 22.7349 0.000244141 23C0.000244141 23.2652 0.10556 23.5195 0.293031 23.707C0.480558 23.8945 0.734866 23.9998 1.00003 23.9998C1.26519 23.9998 1.5195 23.8945 1.70703 23.707L12 13.414L22.293 23.707C22.4806 23.8945 22.7349 23.9998 23 23.9998C23.2652 23.9998 23.5195 23.8945 23.707 23.707C23.8945 23.5195 23.9998 23.2652 23.9998 23C23.9998 22.7349 23.8945 22.4806 23.707 22.293L13.414 12L23.707 1.70703C23.8945 1.5195 23.9998 1.26519 23.9998 1.00003C23.9998 0.734866 23.8945 0.480558 23.707 0.293031Z" fill="white" />
</g>
<defs>

</defs>
</symbol><clipPath id="icon-cross_clip0_435_3684">
<rect width="24" height="24" fill="white" />
</clipPath><symbol viewBox="0 0 32 32" fill="none" id="icon-idea">
<g clip-path="url(#icon-idea_clip0_230_739)">
<path fill-rule="evenodd" clip-rule="evenodd" d="M22.5989 0.286865C23.1511 0.286865 23.5989 0.73458 23.5989 1.28687V3.16115C23.5989 3.71344 23.1511 4.16115 22.5989 4.16115C22.0466 4.16115 21.5989 3.71344 21.5989 3.16115V1.28687C21.5989 0.73458 22.0466 0.286865 22.5989 0.286865ZM13.8417 3.81234C14.1587 3.36008 14.7823 3.25042 15.2345 3.56741L16.7705 4.64398C17.2228 4.96096 17.3324 5.58456 17.0155 6.03682C16.6985 6.48908 16.0749 6.59874 15.6226 6.28175L14.0866 5.20518C13.6344 4.8882 13.5247 4.2646 13.8417 3.81234ZM31.3488 3.81177C31.6661 4.26381 31.5569 4.88748 31.1048 5.20478L29.5711 6.28135C29.1191 6.59865 28.4954 6.48943 28.1781 6.03739C27.8608 5.58535 27.97 4.96168 28.4221 4.64438L29.9558 3.56781C30.4078 3.25051 31.0315 3.35973 31.3488 3.81177ZM22.4876 5.89378C23.2378 5.88573 23.9823 6.02596 24.6782 6.30641C25.3741 6.58686 26.0078 7.00201 26.5428 7.52802C27.0778 8.05403 27.5037 8.68055 27.7959 9.37159C28.0881 10.0626 28.241 10.8046 28.2457 11.5549C28.2458 11.5645 28.2457 11.574 28.2455 11.5836C28.2223 12.6158 27.9229 13.6245 27.3721 14.502C26.9345 15.1992 26.3532 15.7917 25.6697 16.2418V17.9954C25.6697 18.0057 25.6696 18.016 25.6692 18.0263C25.6571 18.4209 25.4917 18.7953 25.2082 19.0701C24.9247 19.3448 24.5455 19.4984 24.1509 19.4983C24.1507 19.4983 24.1505 19.4983 24.1504 19.4983H21.04L21.0361 19.4983C20.6424 19.4967 20.2647 19.3424 19.9826 19.0678C19.7005 18.7932 19.536 18.4198 19.5239 18.0263C19.5237 18.0188 19.5235 18.0113 19.5235 18.0038C19.5234 18.001 19.5234 17.9982 19.5234 17.9954V16.2836C18.8653 15.8511 18.3016 15.2861 17.8695 14.6223C17.3222 13.7814 17.0055 12.8115 16.9512 11.8096L16.9504 11.791C16.9237 11.0411 17.0454 10.2934 17.3086 9.59069C17.5717 8.88802 17.971 8.24424 18.4837 7.69633C18.9963 7.14842 19.6121 6.70716 20.2957 6.3979C20.9793 6.08864 21.7173 5.91746 22.4673 5.8942L22.4876 5.89378ZM22.5192 7.89357C22.036 7.90988 21.5606 8.02081 21.1201 8.22011C20.6764 8.42081 20.2768 8.70716 19.9441 9.06273C19.6115 9.41829 19.3523 9.83607 19.1816 10.2921C19.0119 10.7452 18.9328 11.2271 18.9488 11.7106C18.9856 12.3592 19.1914 12.9868 19.5458 13.5313C19.9019 14.0785 20.3955 14.5224 20.9772 14.8186C21.3124 14.9893 21.5234 15.3336 21.5234 15.7097V17.4983H23.6697V15.6686C23.6697 15.2929 23.8803 14.9489 24.2149 14.778C24.8146 14.4718 25.3202 14.009 25.6782 13.4387C26.0326 12.8739 26.228 12.223 26.2456 11.5531C26.2407 11.0711 26.1416 10.5946 25.9538 10.1506C25.7642 9.70213 25.4878 9.29556 25.1406 8.9542C24.7934 8.61285 24.3822 8.34344 23.9306 8.16144C23.4821 7.98071 23.0026 7.88971 22.5192 7.89357ZM9.56311 9.00028C10.2628 8.98405 10.9587 9.10785 11.6098 9.36439C12.261 9.62094 12.8543 10.0051 13.3549 10.4942C13.8555 10.9833 14.2532 11.5675 14.5248 12.2126C14.7964 12.8576 14.9363 13.5504 14.9363 14.2503C14.9363 14.9502 14.7964 15.643 14.5248 16.288C14.2532 16.9331 13.8555 17.5173 13.3549 18.0064C12.8543 18.4955 12.261 18.8796 11.6098 19.1362C10.9587 19.3927 10.2628 19.5165 9.56311 19.5003C8.1918 19.4685 6.88736 18.9014 5.92874 17.9203C4.97013 16.9392 4.43343 15.622 4.43343 14.2503C4.43343 12.8786 4.97013 11.5614 5.92874 10.5803C6.88736 9.59917 8.1918 9.03208 9.56311 9.00028ZM10.8767 11.2252C10.4735 11.0663 10.0427 10.9897 9.60948 10.9997C8.76043 11.0194 7.95278 11.3705 7.35926 11.978C6.76573 12.5854 6.43343 13.401 6.43343 14.2503C6.43343 15.0996 6.76573 15.9151 7.35926 16.5226C7.95278 17.13 8.76043 17.4812 9.60948 17.5008C10.0427 17.5109 10.4735 17.4342 10.8767 17.2754C11.2799 17.1166 11.6472 16.8787 11.9572 16.5759C12.2671 16.2731 12.5134 15.9113 12.6815 15.512C12.8497 15.1126 12.9363 14.6836 12.9363 14.2503C12.9363 13.817 12.8497 13.388 12.6815 12.9886C12.5134 12.5893 12.2671 12.2275 11.9572 11.9247C11.6472 11.6219 11.2799 11.384 10.8767 11.2252ZM9.59087 21.4823V21.4823C12.9441 21.49 16.1101 23.3381 17.7618 26.2595C18.5454 27.6444 18.9651 29.2053 18.9817 30.7965C18.9874 31.3487 18.5444 31.8011 17.9921 31.8068C17.4399 31.8126 16.9875 31.3695 16.9818 30.8173C16.9687 29.5643 16.6382 28.3351 16.0211 27.2445L16.0209 27.2441C14.7247 24.9511 12.2244 23.49 9.59086 23.4823C8.28306 23.4923 7.0007 23.8449 5.87162 24.5051C4.7419 25.1656 3.80518 26.1108 3.15493 27.2465C2.53822 28.3371 2.20808 29.5664 2.19538 30.8193C2.18979 31.3715 1.73756 31.8147 1.1853 31.8091C0.633046 31.8035 0.18989 31.3513 0.195487 30.799C0.21162 29.207 0.631346 27.6452 1.41539 26.2595L1.41774 26.2554L1.41775 26.2554C2.24186 24.815 3.42956 23.6161 4.86217 22.7785C6.29477 21.9409 7.92211 21.494 9.58156 21.4823L9.59087 21.4823Z" fill="#E04E39" />
</g>
<defs>

</defs>
</symbol><clipPath id="icon-idea_clip0_230_739">
<rect width="32" height="32" fill="white" />
</clipPath><symbol viewBox="0 0 32 32" fill="none" id="icon-leader">
<path d="M18.25 14.7812C18.6458 14.9375 19.0312 15.1094 19.4062 15.2969C19.7812 15.4844 20.1458 15.6979 20.5 15.9375C20.2708 16.1875 20.0625 16.4479 19.875 16.7188C19.6875 16.9896 19.5156 17.2812 19.3594 17.5938C18.5573 17.0729 17.7031 16.6771 16.7969 16.4062C15.8906 16.1354 14.9583 16 14 16C13.0833 16 12.1979 16.1198 11.3438 16.3594C10.4896 16.599 9.69271 16.9323 8.95312 17.3594C8.21354 17.7865 7.54167 18.3073 6.9375 18.9219C6.33333 19.5365 5.8125 20.2135 5.375 20.9531C4.9375 21.6927 4.59896 22.4896 4.35938 23.3438C4.11979 24.1979 4 25.0833 4 26H2C2 24.75 2.18229 23.5469 2.54688 22.3906C2.91146 21.2344 3.4375 20.1667 4.125 19.1875C4.8125 18.2083 5.625 17.3385 6.5625 16.5781C7.5 15.8177 8.5625 15.2188 9.75 14.7812C8.57292 14.0104 7.65625 13.0417 7 11.875C6.34375 10.7083 6.01042 9.41667 6 8C6 6.89583 6.20833 5.85938 6.625 4.89062C7.04167 3.92188 7.60938 3.07292 8.32812 2.34375C9.04688 1.61458 9.89583 1.04167 10.875 0.625C11.8542 0.208333 12.8958 0 14 0C15.1042 0 16.1406 0.208333 17.1094 0.625C18.0781 1.04167 18.9271 1.60938 19.6562 2.32812C20.3854 3.04688 20.9583 3.89583 21.375 4.875C21.7917 5.85417 22 6.89583 22 8C22 8.6875 21.9167 9.35938 21.75 10.0156C21.5833 10.6719 21.3333 11.2917 21 11.875C20.6667 12.4583 20.276 12.9948 19.8281 13.4844C19.3802 13.974 18.8542 14.4062 18.25 14.7812ZM8 8C8 8.83333 8.15625 9.60938 8.46875 10.3281C8.78125 11.0469 9.20833 11.6823 9.75 12.2344C10.2917 12.7865 10.9271 13.2188 11.6562 13.5312C12.3854 13.8438 13.1667 14 14 14C14.8229 14 15.599 13.8438 16.3281 13.5312C17.0573 13.2188 17.6927 12.7917 18.2344 12.25C18.776 11.7083 19.2083 11.0729 19.5312 10.3438C19.8542 9.61458 20.0104 8.83333 20 8C20 7.17708 19.8438 6.40104 19.5312 5.67188C19.2188 4.94271 18.7917 4.30729 18.25 3.76562C17.7083 3.22396 17.0677 2.79167 16.3281 2.46875C15.5885 2.14583 14.8125 1.98958 14 2C13.1667 2 12.3906 2.15625 11.6719 2.46875C10.9531 2.78125 10.3177 3.20833 9.76562 3.75C9.21354 4.29167 8.78125 4.93229 8.46875 5.67188C8.15625 6.41146 8 7.1875 8 8ZM31 21C31 21.5417 30.9167 22.0677 30.75 22.5781C30.5833 23.0885 30.3333 23.5625 30 24V32L26 30L22 32V24C21.6771 23.5625 21.4323 23.0885 21.2656 22.5781C21.099 22.0677 21.0104 21.5417 21 21C21 20.3125 21.1302 19.6667 21.3906 19.0625C21.651 18.4583 22.0052 17.9323 22.4531 17.4844C22.901 17.0365 23.4323 16.6771 24.0469 16.4062C24.6615 16.1354 25.3125 16 26 16C26.6875 16 27.3333 16.1302 27.9375 16.3906C28.5417 16.651 29.0677 17.0104 29.5156 17.4688C29.9635 17.9271 30.3229 18.4583 30.5938 19.0625C30.8646 19.6667 31 20.3125 31 21ZM26 18C25.5833 18 25.1927 18.0781 24.8281 18.2344C24.4635 18.3906 24.1458 18.6042 23.875 18.875C23.6042 19.1458 23.3906 19.4635 23.2344 19.8281C23.0781 20.1927 23 20.5833 23 21C23 21.4167 23.0781 21.8073 23.2344 22.1719C23.3906 22.5365 23.6042 22.8542 23.875 23.125C24.1458 23.3958 24.4635 23.6094 24.8281 23.7656C25.1927 23.9219 25.5833 24 26 24C26.4167 24 26.8073 23.9219 27.1719 23.7656C27.5365 23.6094 27.8542 23.3958 28.125 23.125C28.3958 22.8542 28.6094 22.5365 28.7656 22.1719C28.9219 21.8073 29 21.4167 29 21C29 20.5833 28.9219 20.1927 28.7656 19.8281C28.6094 19.4635 28.3958 19.1458 28.125 18.875C27.8542 18.6042 27.5365 18.3906 27.1719 18.2344C26.8073 18.0781 26.4167 18 26 18ZM28 28.7656V25.5781C27.375 25.8594 26.7083 26 26 26C25.2917 26 24.625 25.8594 24 25.5781V28.7656C24.3333 28.599 24.6667 28.4375 25 28.2812C25.3333 28.125 25.6667 27.9531 26 27.7656C26.3333 27.9427 26.6667 28.1094 27 28.2656C27.3333 28.4219 27.6667 28.5885 28 28.7656Z" fill="#E04E39" />
</symbol><symbol viewBox="0 0 25 24" fill="none" id="icon-location">
<path d="M12.4991 1.75C12.4991 1.75 12.4991 1.75 12.4891 1.75C8.95912 1.75 4.91912 3.82 3.86912 8.44C2.69912 13.6 5.85912 17.97 8.71912 20.72C9.77912 21.74 11.1391 22.25 12.4991 22.25C13.8591 22.25 15.2191 21.74 16.2691 20.72C19.1291 17.97 22.2891 13.61 21.1191 8.45C20.0691 3.83 16.0391 1.75 12.4991 1.75Z" fill="#5FA7B6" />
<path fill-rule="evenodd" clip-rule="evenodd" d="M12.4996 13.4602C10.7599 13.4602 9.34961 12.0499 9.34961 10.3102C9.34961 8.57046 10.7599 7.16016 12.4996 7.16016C14.2393 7.16016 15.6496 8.57046 15.6496 10.3102C15.6496 12.0499 14.2393 13.4602 12.4996 13.4602Z" fill="white" />
</symbol><symbol viewBox="0 0 32 32" fill="none" id="icon-money-lamp">
<path fill-rule="evenodd" clip-rule="evenodd" d="M16 4.28442C16.5523 4.28442 17 4.73214 17 5.28442V6.57882C17.5952 6.62216 18.169 6.82699 18.6587 7.17334C19.2136 7.56585 19.6332 8.1208 19.8595 8.76171C20.0434 9.28247 19.7703 9.85373 19.2496 10.0376C18.7288 10.2215 18.1576 9.94847 17.9736 9.42771C17.8851 9.17692 17.7209 8.95976 17.5038 8.80618C17.2866 8.65259 17.0272 8.57012 16.7612 8.57014H14.9959C14.74 8.57115 14.4934 8.66638 14.3032 8.83765C14.1128 9.0092 13.9923 9.24498 13.9648 9.49984C13.9374 9.7547 14.005 10.0107 14.1546 10.2189C14.3039 10.4267 14.5247 10.5723 14.7746 10.6277C14.7749 10.6278 14.7752 10.6279 14.7756 10.6279L17.4636 11.2144C18.258 11.3844 18.9613 11.8427 19.4377 12.5009C19.9145 13.1598 20.1301 13.9721 20.0426 14.7807C19.9551 15.5893 19.5708 16.3368 18.9641 16.8784C18.4178 17.3661 17.7261 17.6558 17 17.7054V18.9987C17 19.551 16.5523 19.9987 16 19.9987C15.4477 19.9987 15 19.551 15 18.9987V17.7042C14.4056 17.6604 13.8326 17.4557 13.3436 17.1098C12.7887 16.7173 12.3691 16.1623 12.1428 15.5214C11.9589 15.0007 12.2319 14.4294 12.7527 14.2455C13.2735 14.0616 13.8447 14.3347 14.0286 14.8554C14.1172 15.1062 14.2814 15.3234 14.4985 15.477C14.7157 15.6305 14.9751 15.713 15.2411 15.713H16.7689C17.0871 15.7147 17.3947 15.5984 17.6322 15.3864C17.8696 15.1745 18.0199 14.882 18.0542 14.5656C18.0884 14.2492 18.0041 13.9313 17.8175 13.6735C17.6309 13.4157 17.3553 13.2362 17.044 13.1699L17.0394 13.1689L14.3468 12.5814L14.3444 12.5809C13.6133 12.4195 12.9674 11.9941 12.5305 11.386C12.0935 10.778 11.8962 10.0302 11.9763 9.28578C12.0565 8.54135 12.4084 7.85264 12.9648 7.35156C13.5211 6.85048 14.2427 6.57224 14.9915 6.57014L14.9943 6.57013L15 6.57014V5.28442C15 4.73214 15.4477 4.28442 16 4.28442Z" fill="#E04E39" />
<path fill-rule="evenodd" clip-rule="evenodd" d="M15.7823 0.144684C17.7964 0.105774 19.7843 0.606698 21.5394 1.59545C23.2946 2.5842 24.7531 4.02474 25.7636 5.76751C26.7738 7.50989 27.2994 9.49087 27.2857 11.5049C27.2767 13.595 26.6851 15.6412 25.5773 17.4137C24.581 19.0078 23.2027 20.3237 21.5714 21.2445V24.0708C21.5714 24.6391 21.3457 25.1841 20.9438 25.586C20.5419 25.9878 19.9969 26.2136 19.4286 26.2136H12.5714C12.0031 26.2136 11.4581 25.9878 11.0562 25.586C10.6543 25.1841 10.4286 24.6391 10.4286 24.0708V21.2428C8.86466 20.3549 7.53272 19.1045 6.54706 17.5931C5.44664 15.9057 4.81794 13.9545 4.72624 11.942C4.63454 9.92961 5.08317 7.92931 6.02556 6.14882C6.96796 4.36832 8.36976 2.87252 10.0854 1.81672C11.8011 0.760917 13.7681 0.183593 15.7823 0.144684ZM20.5578 3.33798C19.1137 2.52445 17.4781 2.1123 15.8209 2.14431C14.1637 2.17632 12.5453 2.65134 11.1336 3.52004C9.722 4.38874 8.56862 5.61945 7.79323 7.08442C7.01784 8.54939 6.64871 10.1952 6.72417 11.851C6.79962 13.5068 7.3169 15.1122 8.22231 16.5006C9.12772 17.889 10.3883 19.0097 11.873 19.7464C12.2133 19.9152 12.4286 20.2623 12.4286 20.6422V24.0708C12.4286 24.1086 12.4436 24.145 12.4704 24.1718C12.4972 24.1986 12.5336 24.2136 12.5714 24.2136H19.4286C19.4665 24.2136 19.5028 24.1986 19.5296 24.1718C19.5564 24.145 19.5714 24.1086 19.5714 24.0708V20.6422C19.5714 20.2613 19.7878 19.9135 20.1295 19.7451C21.6712 18.9856 22.9704 17.8111 23.8813 16.3537C24.7922 14.8963 25.2785 13.2138 25.2857 11.4951L25.2857 11.4924C25.2972 9.83494 24.8648 8.20462 24.0334 6.77069C23.202 5.33676 22.0019 4.15151 20.5578 3.33798ZM10.4286 30.857C10.4286 30.3048 10.8763 29.857 11.4286 29.857H20.5714C21.1237 29.857 21.5714 30.3048 21.5714 30.857C21.5714 31.4093 21.1237 31.857 20.5714 31.857H11.4286C10.8763 31.857 10.4286 31.4093 10.4286 30.857Z" fill="#E04E39" />
</symbol><symbol viewBox="0 0 48 48" fill="none" id="icon-offlinemap">
<path fill-rule="evenodd" clip-rule="evenodd" d="M27.1329 21.8475C27.2839 21.8093 27.4418 21.807 27.594 21.8406L34.411 23.3486C34.663 23.4044 34.8837 23.5554 35.0269 23.7701L44.3319 37.7181C44.5515 38.0473 44.5563 38.4751 44.3442 38.8091C44.132 39.1432 43.7428 39.3207 43.3514 39.2619L30.5993 37.3453L17.9889 39.4267C17.9793 39.4282 17.9697 39.4297 17.9601 39.431C17.844 39.447 17.723 39.4426 17.602 39.4151C17.599 39.4144 17.596 39.4137 17.593 39.413L4.29685 36.6542C3.95733 36.5837 3.67853 36.3424 3.56012 36.0165C3.44171 35.6906 3.50059 35.3266 3.71571 35.0546L13.7177 22.4096C13.9539 22.111 14.3393 21.9724 14.7116 22.0522L20.9963 23.3993L27.1329 21.8475ZM19.8151 25.1915L14.9005 24.1381L6.28921 35.025L17.0668 37.2612L19.8151 25.1915ZM19.1294 37.2114L29.371 35.521L26.6398 24.0352L21.854 25.2453L19.1294 37.2114ZM28.72 24.1381L31.4086 35.4445L41.4142 36.9483L33.5863 25.2145L28.72 24.1381Z" fill="#80CFD4" />
<path fill-rule="evenodd" clip-rule="evenodd" d="M9.5159 8.87982C9.75664 8.62034 10.1166 8.50745 10.4624 8.583L22.5324 11.22C22.8992 11.3001 23.1901 11.5789 23.2859 11.9419C23.3817 12.3048 23.2661 12.6908 22.9866 12.9415L14.5571 20.5004L16.4542 26.858C16.6121 27.3872 16.3111 27.9443 15.7819 28.1022C15.2527 28.2601 14.6957 27.9591 14.5377 27.4299L9.29073 9.8459C9.18952 9.50672 9.27516 9.1393 9.5159 8.87982ZM13.9247 18.3811L20.1967 12.7569L11.6921 10.8988L13.9247 18.3811ZM30.0396 10.5373C30.391 10.3851 30.7985 10.447 31.0889 10.6966L38.6748 17.2176C38.9508 17.4549 39.0761 17.8233 39.002 18.1796C38.9279 18.5359 38.6661 18.8238 38.3184 18.9313L31.0147 21.1896L30.83 25.4384C30.8061 25.9902 30.3393 26.418 29.7876 26.394C29.2358 26.37 28.8079 25.9033 28.8319 25.3515L29.4379 11.4115C29.4546 11.029 29.6882 10.6895 30.0396 10.5373ZM31.107 19.0676L35.9992 17.555L31.3466 13.5556L31.107 19.0676Z" fill="#80CFD4" />
</symbol><symbol viewBox="0 0 12 13" fill="none" id="icon-play">
<path d="M12 6.5L0.75 12.9952L0.75 0.00480938L12 6.5Z" fill="white" />
</symbol><symbol viewBox="0 0 28 23" fill="none" id="icon-tg">
<path d="M26.868 0.716309C26.7754 0.716309 26.6695 0.729436 26.5769 0.768818L0.995526 10.4173C0.267656 10.693 0.294124 11.7038 1.02199 11.9532L6.95083 13.9354L10.524 21.0373L10.5372 21.0504C10.6034 21.1817 10.7358 21.2604 10.8813 21.2604C10.9607 21.2604 11.0534 21.2342 11.1328 21.1686L14.481 18.3462L10.7358 15.537L11.0269 19.2388L8.3404 13.7123L22.6331 5.1927L10.7358 15.5238L19.9996 22.4944C20.3039 22.7307 20.6613 22.8357 21.0186 22.8357C21.7464 22.8357 22.4611 22.3631 22.6596 21.5624L27.6621 1.70085C27.7944 1.20202 27.3709 0.716309 26.868 0.716309Z" fill="white" />
</symbol><symbol viewBox="0 0 28 18" fill="none" id="icon-vk">
<path d="M20.4578 8.91127C20.9481 9.15523 21.4229 9.4373 21.8788 9.75208C22.7015 10.3206 23.447 10.9773 24.1225 11.7142C25.0228 12.6966 25.7616 13.7894 26.3424 14.9895C26.7096 15.7483 27.0003 16.5358 27.2304 17.3465C27.2482 17.4088 27.2422 17.4323 27.1679 17.4323C25.614 17.4303 24.0599 17.4301 22.506 17.4329C22.4235 17.4331 22.4092 17.39 22.3897 17.33C22.049 16.2847 21.5606 15.3152 20.8924 14.4409C19.878 13.1139 18.6011 12.151 16.9974 11.646C16.5477 11.5043 16.0872 11.4144 15.62 11.3565C15.5646 11.3497 15.5479 11.3671 15.5527 11.4189C15.5551 11.4453 15.5531 11.472 15.5531 11.4987C15.5531 13.4335 15.5531 15.3685 15.5531 17.3032C15.5531 17.4307 15.5531 17.4303 15.424 17.4307C14.8031 17.4335 14.1825 17.4229 13.5634 17.3736C11.2158 17.1863 9.0018 16.5663 6.98646 15.3152C6.03727 14.7259 5.18213 14.0202 4.41943 13.2025C2.93787 11.6146 1.91595 9.75727 1.21263 7.71418C0.833471 6.61265 0.559912 5.48439 0.370234 4.33498C0.241723 3.55521 0.149872 2.77184 0.0910957 1.98389C0.0552321 1.50335 0.0392928 1.022 0.015583 0.54085C0.0110004 0.448291 0.0283345 0.41777 0.129749 0.41797C1.61071 0.42176 3.09168 0.421161 4.57245 0.418967C4.64975 0.418768 4.67824 0.430138 4.67984 0.518708C4.69219 1.20971 4.73742 1.89872 4.81353 2.58593C4.95061 3.8247 5.19388 5.04014 5.59197 6.22247C5.93825 7.25099 6.39432 8.22625 7.00878 9.12332C7.72406 10.1676 8.59913 11.0429 9.71389 11.6605C10.1146 11.8825 10.5352 12.0577 10.9781 12.1784C11.0659 12.2023 11.0853 12.1855 11.0849 12.0978C11.0823 11.383 11.0835 10.6683 11.0835 9.95356C11.0835 6.8219 11.0835 3.69025 11.0837 0.558604C11.0837 0.395628 11.0679 0.421361 11.2206 0.421161C12.6252 0.420363 14.0297 0.42176 15.4343 0.418568C15.5286 0.418369 15.5553 0.438716 15.5551 0.53706C15.5519 2.70123 15.5527 4.8656 15.5527 7.02976C15.5527 7.15564 15.5523 7.15205 15.6798 7.1327C16.6356 6.98648 17.4604 6.55121 18.2139 5.96813C19.3721 5.07206 20.2508 3.9422 20.941 2.65854C21.3122 1.96814 21.6068 1.24641 21.817 0.49078C21.8316 0.438516 21.8533 0.419167 21.9113 0.419366C23.3291 0.421361 24.7469 0.420962 26.1649 0.421161C26.1842 0.421161 26.2038 0.424752 26.2462 0.428941C25.5036 4.07445 23.5026 6.84345 20.4578 8.91127Z" fill="#FEFEFF" />
</symbol><symbol viewBox="0 0 28 28" fill="none" id="icon-whatsapp">
<path d="M13.9362 27.5374C11.5533 27.5374 9.21395 26.9063 7.14659 25.7094L1.83675 27.5374L2.92483 21.9228C1.21654 19.5835 0.313431 16.8306 0.313431 13.9254C0.313431 6.41763 6.41757 0.313477 13.9253 0.313477C21.4331 0.313477 27.5373 6.41763 27.5373 13.9254C27.559 21.4223 21.4549 27.5374 13.9362 27.5374ZM7.39685 23.4788L7.81032 23.7399C9.66006 24.9042 11.7818 25.5135 13.9471 25.5135C20.3341 25.5135 25.5352 20.3125 25.5352 13.9254C25.5352 7.53836 20.3341 2.33731 13.9471 2.33731C7.54918 2.32643 2.34814 7.52748 2.34814 13.9145C2.34814 16.5151 3.19685 18.9741 4.80721 21.0415L5.09011 21.4006L4.49167 24.469L7.39685 23.4788Z" fill="white" />
<path d="M7.07033 8.69169C7.07033 8.69169 7.86463 7.29894 8.51748 7.21189C9.17033 7.13573 10.0082 7.13573 10.2367 7.56008C10.4652 7.98444 11.4771 10.4653 11.4771 10.4653C11.4771 10.4653 11.6512 10.8896 11.3791 11.3031C11.1071 11.7057 10.5087 12.3041 10.5087 12.3041C10.5087 12.3041 10.1714 12.7285 10.5087 13.1855C10.846 13.6425 11.3574 14.4694 12.4237 15.5357C13.49 16.6021 15.5356 17.3637 15.5356 17.3637C15.5356 17.3637 15.8294 17.4073 16.0144 17.2223C16.1993 17.0373 17.2113 15.7751 17.2113 15.7751C17.2113 15.7751 17.5377 15.3617 18.0708 15.601C18.604 15.8513 20.9434 17.0155 20.9434 17.0155C20.9434 17.0155 21.2154 17.1135 21.2154 17.5269C21.2154 17.9404 21.0522 18.9523 20.704 19.2896C20.3667 19.6269 19.3657 20.6824 17.8641 20.6824C16.3626 20.6824 12.7936 19.4637 10.8895 17.5596C8.98536 15.6554 7.29883 13.7295 6.89624 11.9777C6.52629 10.2041 6.5807 9.40983 7.07033 8.69169Z" fill="white" />
</symbol></defs><use id="icon-arrow-right-usage" xlink:href="#icon-arrow-right" class="sprite-symbol-usage" /><use id="icon-calendar-usage" xlink:href="#icon-calendar" class="sprite-symbol-usage" /><use id="icon-case-usage" xlink:href="#icon-case" class="sprite-symbol-usage" /><use id="icon-cross-usage" xlink:href="#icon-cross" class="sprite-symbol-usage" /><use id="icon-idea-usage" xlink:href="#icon-idea" class="sprite-symbol-usage" /><use id="icon-leader-usage" xlink:href="#icon-leader" class="sprite-symbol-usage" /><use id="icon-location-usage" xlink:href="#icon-location" class="sprite-symbol-usage" /><use id="icon-money-lamp-usage" xlink:href="#icon-money-lamp" class="sprite-symbol-usage" /><use id="icon-offlinemap-usage" xlink:href="#icon-offlinemap" class="sprite-symbol-usage" /><use id="icon-play-usage" xlink:href="#icon-play" class="sprite-symbol-usage" /><use id="icon-tg-usage" xlink:href="#icon-tg" class="sprite-symbol-usage" /><use id="icon-vk-usage" xlink:href="#icon-vk" class="sprite-symbol-usage" /><use id="icon-whatsapp-usage" xlink:href="#icon-whatsapp" class="sprite-symbol-usage" /></svg>