<svg width="255" height="255" viewBox="0 0 255 255" fill="none" xmlns="http://www.w3.org/2000/svg">
<g opacity="0.2">
<path d="M0 1.16213C0 1.8022 0.518489 2.33142 1.16213 2.33142C1.8022 2.33142 2.32426 1.82007 2.32426 1.18001V1.16213C2.32426 0.522065 1.80577 0 1.16213 0C0.518489 0 0 0.518489 0 1.16213Z" fill="#80CFD4"/>
<path d="M3.05176e-05 253.748C3.05176e-05 254.388 0.51852 254.918 1.16216 254.918C1.80223 254.918 2.32429 254.406 2.32429 253.766V253.748C2.32429 253.108 1.8058 252.586 1.16216 252.586C0.51852 252.586 3.05176e-05 253.108 3.05176e-05 253.748Z" fill="#80CFD4"/>
<path d="M1.16216 19.488C1.80223 19.488 2.32429 20.0065 2.32429 20.6501V20.6823C2.32429 21.3224 1.8058 21.8266 1.16216 21.8266C0.51852 21.8266 3.05176e-05 21.2902 3.05176e-05 20.6501C3.05176e-05 20.0101 0.51852 19.488 1.16216 19.488ZM1.16216 38.9152C1.80223 38.9152 2.32429 39.4337 2.32429 40.0774V40.1095C2.32429 40.7496 1.8058 41.2538 1.16216 41.2538C0.51852 41.2538 3.05176e-05 40.7174 3.05176e-05 40.0774C3.05176e-05 39.4337 0.51852 38.9152 1.16216 38.9152ZM1.16216 58.3389C1.80223 58.3389 2.32429 58.8574 2.32429 59.5011V59.5332C2.32429 60.1733 1.8058 60.6775 1.16216 60.6775C0.51852 60.6775 3.05176e-05 60.1411 3.05176e-05 59.5011C3.05176e-05 58.8574 0.51852 58.3389 1.16216 58.3389ZM1.16216 77.7626C1.80223 77.7626 2.32429 78.2811 2.32429 78.9247V78.9569C2.32429 79.597 1.8058 80.1012 1.16216 80.1012C0.51852 80.1012 3.05176e-05 79.5648 3.05176e-05 78.9247C3.05176e-05 78.2847 0.51852 77.7626 1.16216 77.7626ZM1.16216 97.1898C1.80223 97.1898 2.32429 97.7083 2.32429 98.352V98.3842C2.32429 99.0242 1.8058 99.5284 1.16216 99.5284C0.522095 99.5284 3.05176e-05 98.992 3.05176e-05 98.352C3.05176e-05 97.7083 0.51852 97.1898 1.16216 97.1898ZM1.16216 116.614C1.80223 116.614 2.32429 117.132 2.32429 117.776V117.808C2.32429 118.448 1.8058 118.952 1.16216 118.952C0.522095 118.952 3.05176e-05 118.416 3.05176e-05 117.776C3.05176e-05 117.132 0.51852 116.614 1.16216 116.614ZM1.16216 136.037C1.80223 136.037 2.32429 136.556 2.32429 137.199V137.232C2.32429 137.872 1.8058 138.376 1.16216 138.376C0.522095 138.376 3.05176e-05 137.839 3.05176e-05 137.199C3.05176e-05 136.559 0.51852 136.037 1.16216 136.037ZM1.16216 155.464C1.80223 155.464 2.32429 155.983 2.32429 156.627V156.659C2.32429 157.299 1.8058 157.803 1.16216 157.803C0.51852 157.803 3.05176e-05 157.267 3.05176e-05 156.627C3.05176e-05 155.983 0.51852 155.464 1.16216 155.464ZM1.16216 174.888C1.80223 174.888 2.32429 175.407 2.32429 176.05V176.082C2.32429 176.723 1.8058 177.227 1.16216 177.227C0.51852 177.227 3.05176e-05 176.69 3.05176e-05 176.05C3.05176e-05 175.41 0.51852 174.888 1.16216 174.888ZM1.16216 194.312C1.80223 194.312 2.32429 194.83 2.32429 195.474V195.506C2.32429 196.146 1.8058 196.65 1.16216 196.65C0.51852 196.65 3.05176e-05 196.114 3.05176e-05 195.474C3.05176e-05 194.834 0.51852 194.312 1.16216 194.312ZM1.16216 213.739C1.80223 213.739 2.32429 214.258 2.32429 214.901V214.933C2.32429 215.573 1.8058 216.078 1.16216 216.078C0.522095 216.078 3.05176e-05 215.541 3.05176e-05 214.901C3.05176e-05 214.261 0.51852 213.739 1.16216 213.739ZM1.16216 233.163C1.80223 233.163 2.32429 233.681 2.32429 234.325V234.357C2.32429 234.997 1.8058 235.501 1.16216 235.501C0.522095 235.501 3.05176e-05 234.965 3.05176e-05 234.325C3.05176e-05 233.685 0.51852 233.163 1.16216 233.163Z" fill="#80CFD4"/>
<path d="M0 1.24073C0 1.88079 0.518489 2.41 1.16213 2.41C1.8022 2.41 2.32426 1.89867 2.32426 1.2586V1.24073C2.32426 0.600663 1.80577 0.078598 1.16213 0.078598C0.518489 0.078598 0 0.600663 0 1.24073Z" fill="#80CFD4"/>
<path d="M0 253.831C0 254.471 0.518489 255 1.16213 255C1.8022 255 2.32426 254.489 2.32426 253.849V253.831C2.32426 253.191 1.80577 252.669 1.16213 252.669C0.518489 252.669 0 253.187 0 253.831Z" fill="#80CFD4"/>
<path d="M252.59 1.16213C252.59 1.8022 253.109 2.33142 253.752 2.33142C254.392 2.33142 254.914 1.82007 254.914 1.18001V1.16213C254.914 0.522065 254.396 0 253.752 0C253.109 0 252.59 0.518489 252.59 1.16213Z" fill="#80CFD4"/>
<path d="M233.163 1.16213C233.163 1.8022 233.681 2.33142 234.325 2.33142C234.965 2.33142 235.487 1.82007 235.487 1.18001V1.16213C235.487 0.522065 234.969 0 234.325 0C233.685 0 233.163 0.518489 233.163 1.16213Z" fill="#80CFD4"/>
<path d="M213.739 1.16213C213.739 1.8022 214.258 2.33142 214.901 2.33142C215.545 2.33142 216.063 1.82007 216.063 1.18001V1.16213C216.063 0.522065 215.545 0 214.901 0C214.258 0 213.739 0.518489 213.739 1.16213Z" fill="#80CFD4"/>
<path d="M194.312 1.16213C194.312 1.8022 194.83 2.33142 195.474 2.33142C196.114 2.33142 196.636 1.82007 196.636 1.18001V1.16213C196.636 0.522065 196.118 0 195.474 0C194.834 0 194.312 0.518489 194.312 1.16213Z" fill="#80CFD4"/>
<path d="M174.888 1.16213C174.888 1.8022 175.407 2.33142 176.05 2.33142C176.69 2.33142 177.212 1.82007 177.212 1.18001V1.16213C177.212 0.522065 176.694 0 176.05 0C175.41 0 174.888 0.518489 174.888 1.16213Z" fill="#80CFD4"/>
<path d="M155.465 1.16213C155.465 1.8022 155.983 2.33142 156.627 2.33142C157.27 2.33142 157.789 1.82007 157.789 1.18001V1.16213C157.789 0.522065 157.27 0 156.627 0C155.983 0 155.465 0.518489 155.465 1.16213Z" fill="#80CFD4"/>
<path d="M136.037 1.16213C136.037 1.8022 136.556 2.33142 137.199 2.33142C137.839 2.33142 138.361 1.82007 138.361 1.18001V1.16213C138.361 0.522065 137.843 0 137.199 0C136.559 0 136.037 0.518489 136.037 1.16213Z" fill="#80CFD4"/>
<path d="M116.614 1.16213C116.614 1.8022 117.132 2.33142 117.776 2.33142C118.416 2.33142 118.938 1.82007 118.938 1.18001V1.16213C118.938 0.522065 118.419 0 117.776 0C117.132 0 116.614 0.518489 116.614 1.16213Z" fill="#80CFD4"/>
<path d="M97.1899 1.16213C97.1899 1.8022 97.7084 2.33142 98.352 2.33142C98.9921 2.33142 99.5142 1.82007 99.5142 1.18001V1.16213C99.5142 0.522065 98.9957 0 98.352 0C97.7084 0 97.1899 0.518489 97.1899 1.16213Z" fill="#80CFD4"/>
<path d="M77.7627 1.16213C77.7627 1.8022 78.2812 2.33142 78.9248 2.33142C79.5649 2.33142 80.087 1.82007 80.087 1.18001V1.16213C80.087 0.522065 79.5685 0 78.9248 0C78.2848 0 77.7627 0.518489 77.7627 1.16213Z" fill="#80CFD4"/>
<path d="M58.339 1.16213C58.339 1.8022 58.8575 2.33142 59.5012 2.33142C60.1412 2.33142 60.6633 1.82007 60.6633 1.18001V1.16213C60.6633 0.522065 60.1448 0 59.5012 0C58.8575 0 58.339 0.518489 58.339 1.16213Z" fill="#80CFD4"/>
<path d="M38.9153 1.16213C38.9153 1.8022 39.4338 2.33142 40.0775 2.33142C40.7211 2.33142 41.2396 1.82007 41.2396 1.18001V1.16213C41.2396 0.522065 40.7211 0 40.0775 0C39.4338 0 38.9153 0.518489 38.9153 1.16213Z" fill="#80CFD4"/>
<path d="M19.488 1.16213C19.488 1.8022 20.0065 2.33142 20.6502 2.33142C21.2902 2.33142 21.8123 1.82007 21.8123 1.18001V1.16213C21.8123 0.522065 21.2938 0 20.6502 0C20.0101 0 19.488 0.518489 19.488 1.16213Z" fill="#80CFD4"/>
<path d="M0.0643311 1.16213C0.0643311 1.8022 0.58282 2.33142 1.22646 2.33142C1.86653 2.33142 2.38859 1.82007 2.38859 1.18001V1.16213C2.38859 0.522065 1.8701 0 1.22646 0C0.58282 0 0.0643311 0.518489 0.0643311 1.16213Z" fill="#80CFD4"/>
<path d="M252.586 253.748C252.586 254.388 253.105 254.918 253.749 254.918C254.389 254.918 254.911 254.406 254.911 253.766V253.748C254.911 253.108 254.392 252.586 253.749 252.586C253.109 252.586 252.586 253.108 252.586 253.748Z" fill="#80CFD4"/>
<path d="M253.749 19.488C254.389 19.488 254.911 20.0065 254.911 20.6501V20.6823C254.911 21.3224 254.392 21.8266 253.749 21.8266C253.109 21.8266 252.586 21.2902 252.586 20.6501C252.59 20.01 253.109 19.488 253.749 19.488ZM253.749 38.9152C254.389 38.9152 254.911 39.4337 254.911 40.0774V40.1095C254.911 40.7496 254.392 41.2538 253.749 41.2538C253.109 41.2538 252.586 40.7174 252.586 40.0774C252.59 39.4337 253.109 38.9152 253.749 38.9152ZM253.749 58.3389C254.389 58.3389 254.911 58.8574 254.911 59.501V59.5332C254.911 60.1733 254.392 60.6775 253.749 60.6775C253.105 60.6775 252.586 60.1411 252.586 59.501C252.59 58.8574 253.109 58.3389 253.749 58.3389ZM253.749 77.7626C254.389 77.7626 254.911 78.2811 254.911 78.9247V78.9569C254.911 79.597 254.392 80.1011 253.749 80.1011C253.105 80.1011 252.586 79.5648 252.586 78.9247C252.59 78.2847 253.109 77.7626 253.749 77.7626ZM253.749 97.1898C254.389 97.1898 254.911 97.7083 254.911 98.352V98.3841C254.911 99.0242 254.392 99.5284 253.749 99.5284C253.105 99.5284 252.586 98.992 252.586 98.352C252.59 97.7083 253.109 97.1898 253.749 97.1898ZM253.749 116.614C254.389 116.614 254.911 117.132 254.911 117.776V117.808C254.911 118.448 254.392 118.952 253.749 118.952C253.109 118.952 252.586 118.416 252.586 117.776C252.59 117.132 253.109 116.614 253.749 116.614ZM253.749 136.037C254.389 136.037 254.911 136.556 254.911 137.199V137.231C254.911 137.872 254.392 138.376 253.749 138.376C253.109 138.376 252.586 137.839 252.586 137.199C252.59 136.559 253.109 136.037 253.749 136.037ZM253.749 155.464C254.389 155.464 254.911 155.983 254.911 156.627V156.659C254.911 157.299 254.392 157.803 253.749 157.803C253.109 157.803 252.586 157.267 252.586 156.627C252.59 155.983 253.109 155.464 253.749 155.464ZM253.749 174.888C254.389 174.888 254.911 175.407 254.911 176.05V176.082C254.911 176.722 254.392 177.227 253.749 177.227C253.105 177.227 252.586 176.69 252.586 176.05C252.586 175.41 253.109 174.888 253.749 174.888ZM253.749 194.312C254.389 194.312 254.911 194.83 254.911 195.474V195.506C254.911 196.146 254.392 196.65 253.749 196.65C253.105 196.65 252.586 196.114 252.586 195.474C252.586 194.834 253.109 194.312 253.749 194.312ZM253.749 213.739C254.389 213.739 254.911 214.258 254.911 214.901V214.933C254.911 215.573 254.392 216.078 253.749 216.078C253.105 216.078 252.586 215.541 252.586 214.901C252.586 214.261 253.109 213.739 253.749 213.739ZM253.749 233.163C254.389 233.163 254.911 233.681 254.911 234.325V234.357C254.911 234.997 254.392 235.501 253.749 235.501C253.105 235.501 252.586 234.965 252.586 234.325C252.586 233.685 253.109 233.163 253.749 233.163Z" fill="#80CFD4"/>
<path d="M252.59 1.24061C252.59 1.88067 253.108 2.40987 253.752 2.40987C254.392 2.40987 254.914 1.89855 254.914 1.25848V1.24061C254.914 0.600541 254.396 0.078476 253.752 0.078476C253.108 0.078476 252.59 0.600541 252.59 1.24061Z" fill="#80CFD4"/>
<path d="M233.163 253.748C233.163 254.388 233.681 254.918 234.325 254.918C234.965 254.918 235.487 254.406 235.487 253.766V253.748C235.487 253.108 234.969 252.586 234.325 252.586C233.685 252.586 233.163 253.108 233.163 253.748Z" fill="#80CFD4"/>
<path d="M234.325 19.488C234.965 19.488 235.487 20.0065 235.487 20.6501V20.6823C235.487 21.3224 234.969 21.8266 234.325 21.8266C233.681 21.8266 233.163 21.2902 233.163 20.6501C233.163 20.01 233.685 19.488 234.325 19.488ZM234.325 38.9152C234.965 38.9152 235.487 39.4337 235.487 40.0774V40.1095C235.487 40.7496 234.969 41.2538 234.325 41.2538C233.681 41.2538 233.163 40.7174 233.163 40.0774C233.163 39.4337 233.685 38.9152 234.325 38.9152ZM234.325 58.3389C234.965 58.3389 235.487 58.8574 235.487 59.501V59.5332C235.487 60.1733 234.969 60.6775 234.325 60.6775C233.681 60.6775 233.163 60.1411 233.163 59.501C233.163 58.8574 233.685 58.3389 234.325 58.3389ZM234.325 77.7626C234.965 77.7626 235.487 78.2811 235.487 78.9247V78.9569C235.487 79.597 234.969 80.1011 234.325 80.1011C233.685 80.1011 233.163 79.5648 233.163 78.9247C233.163 78.2847 233.685 77.7626 234.325 77.7626ZM234.325 97.1898C234.965 97.1898 235.487 97.7083 235.487 98.352V98.3841C235.487 99.0242 234.969 99.5284 234.325 99.5284C233.685 99.5284 233.163 98.992 233.163 98.352C233.163 97.7083 233.685 97.1898 234.325 97.1898ZM234.325 116.614C234.965 116.614 235.487 117.132 235.487 117.776V117.808C235.487 118.448 234.969 118.952 234.325 118.952C233.685 118.952 233.163 118.416 233.163 117.776C233.163 117.132 233.685 116.614 234.325 116.614ZM234.325 136.037C234.965 136.037 235.487 136.556 235.487 137.199V137.231C235.487 137.872 234.969 138.376 234.325 138.376C233.681 138.376 233.163 137.839 233.163 137.199C233.163 136.559 233.685 136.037 234.325 136.037ZM234.325 155.464C234.965 155.464 235.487 155.983 235.487 156.627V156.659C235.487 157.299 234.969 157.803 234.325 157.803C233.681 157.803 233.163 157.267 233.163 156.627C233.163 155.983 233.685 155.464 234.325 155.464ZM234.325 174.888C234.965 174.888 235.487 175.407 235.487 176.05V176.082C235.487 176.722 234.969 177.227 234.325 177.227C233.681 177.227 233.163 176.69 233.163 176.05C233.163 175.41 233.685 174.888 234.325 174.888ZM234.325 194.312C234.965 194.312 235.487 194.83 235.487 195.474V195.506C235.487 196.146 234.969 196.65 234.325 196.65C233.681 196.65 233.163 196.114 233.163 195.474C233.163 194.834 233.685 194.312 234.325 194.312ZM234.325 213.739C234.965 213.739 235.487 214.258 235.487 214.901V214.933C235.487 215.573 234.969 216.078 234.325 216.078C233.685 216.078 233.163 215.541 233.163 214.901C233.163 214.261 233.685 213.739 234.325 213.739ZM234.325 233.163C234.965 233.163 235.487 233.681 235.487 234.325V234.357C235.487 234.997 234.969 235.501 234.325 235.501C233.685 235.501 233.163 234.965 233.163 234.325C233.163 233.685 233.685 233.163 234.325 233.163Z" fill="#80CFD4"/>
<path d="M233.163 1.24071C233.163 1.88078 233.681 2.40998 234.325 2.40998C234.965 2.40998 235.487 1.89865 235.487 1.25859V1.24071C235.487 0.600648 234.969 0.0785828 234.325 0.0785828C233.685 0.0785828 233.163 0.600648 233.163 1.24071Z" fill="#80CFD4"/>
<path d="M213.739 253.748C213.739 254.388 214.258 254.918 214.901 254.918C215.545 254.918 216.063 254.406 216.063 253.766V253.748C216.063 253.108 215.545 252.586 214.901 252.586C214.258 252.586 213.739 253.108 213.739 253.748Z" fill="#80CFD4"/>
<path d="M214.901 19.488C215.541 19.488 216.063 20.0065 216.063 20.6501V20.6823C216.063 21.3224 215.545 21.8266 214.901 21.8266C214.258 21.8266 213.739 21.2902 213.739 20.6501C213.739 20.01 214.258 19.488 214.901 19.488ZM214.901 38.9152C215.541 38.9152 216.063 39.4337 216.063 40.0774V40.1095C216.063 40.7496 215.545 41.2538 214.901 41.2538C214.261 41.2538 213.739 40.7174 213.739 40.0774C213.739 39.4337 214.258 38.9152 214.901 38.9152ZM214.901 58.3389C215.541 58.3389 216.063 58.8574 216.063 59.501V59.5332C216.063 60.1733 215.545 60.6775 214.901 60.6775C214.261 60.6775 213.739 60.1411 213.739 59.501C213.739 58.8574 214.258 58.3389 214.901 58.3389ZM214.901 77.7626C215.541 77.7626 216.063 78.2811 216.063 78.9247V78.9569C216.063 79.597 215.545 80.1011 214.901 80.1011C214.261 80.1011 213.739 79.5648 213.739 78.9247C213.739 78.2847 214.258 77.7626 214.901 77.7626ZM214.901 97.1898C215.541 97.1898 216.063 97.7083 216.063 98.352V98.3841C216.063 99.0242 215.545 99.5284 214.901 99.5284C214.258 99.5284 213.739 98.992 213.739 98.352C213.739 97.7083 214.258 97.1898 214.901 97.1898ZM214.901 116.614C215.541 116.614 216.063 117.132 216.063 117.776V117.808C216.063 118.448 215.545 118.952 214.901 118.952C214.258 118.952 213.739 118.416 213.739 117.776C213.739 117.132 214.258 116.614 214.901 116.614ZM214.901 136.037C215.541 136.037 216.063 136.556 216.063 137.199V137.231C216.063 137.872 215.545 138.376 214.901 138.376C214.258 138.376 213.739 137.839 213.739 137.199C213.739 136.559 214.258 136.037 214.901 136.037ZM214.901 155.464C215.541 155.464 216.063 155.983 216.063 156.627V156.659C216.063 157.299 215.545 157.803 214.901 157.803C214.261 157.803 213.739 157.267 213.739 156.627C213.739 155.983 214.258 155.464 214.901 155.464ZM214.901 174.888C215.541 174.888 216.063 175.407 216.063 176.05V176.082C216.063 176.722 215.545 177.227 214.901 177.227C214.261 177.227 213.739 176.69 213.739 176.05C213.739 175.41 214.258 174.888 214.901 174.888ZM214.898 194.312C215.538 194.312 216.06 194.83 216.06 195.474V195.506C216.06 196.146 215.541 196.65 214.898 196.65C214.258 196.65 213.736 196.114 213.736 195.474C213.739 194.834 214.258 194.312 214.898 194.312ZM214.898 213.739C215.538 213.739 216.06 214.258 216.06 214.901V214.933C216.06 215.573 215.541 216.078 214.898 216.078C214.254 216.078 213.736 215.541 213.736 214.901C213.736 214.261 214.258 213.739 214.898 213.739ZM214.898 233.163C215.538 233.163 216.06 233.681 216.06 234.325V234.357C216.06 234.997 215.541 235.501 214.898 235.501C214.254 235.501 213.736 234.965 213.736 234.325C213.736 233.685 214.258 233.163 214.898 233.163Z" fill="#80CFD4"/>
<path d="M213.739 1.24061C213.739 1.88067 214.257 2.40987 214.901 2.40987C215.545 2.40987 216.063 1.89855 216.063 1.25848V1.24061C216.063 0.600541 215.545 0.078476 214.901 0.078476C214.257 0.078476 213.739 0.600541 213.739 1.24061Z" fill="#80CFD4"/>
<path d="M194.312 253.748C194.312 254.388 194.83 254.918 195.474 254.918C196.114 254.918 196.636 254.406 196.636 253.766V253.748C196.636 253.108 196.118 252.586 195.474 252.586C194.834 252.586 194.312 253.108 194.312 253.748Z" fill="#80CFD4"/>
<path d="M195.474 19.488C196.114 19.488 196.636 20.0065 196.636 20.6501V20.6823C196.636 21.3224 196.118 21.8266 195.474 21.8266C194.834 21.8266 194.312 21.2902 194.312 20.6501C194.312 20.01 194.834 19.488 195.474 19.488ZM195.474 38.9152C196.114 38.9152 196.636 39.4337 196.636 40.0774V40.1095C196.636 40.7496 196.118 41.2538 195.474 41.2538C194.834 41.2538 194.312 40.7174 194.312 40.0774C194.312 39.4337 194.834 38.9152 195.474 38.9152ZM195.474 58.3389C196.114 58.3389 196.636 58.8574 196.636 59.501V59.5332C196.636 60.1733 196.118 60.6775 195.474 60.6775C194.83 60.6775 194.312 60.1411 194.312 59.501C194.312 58.861 194.834 58.3389 195.474 58.3389ZM195.474 77.7626C196.114 77.7626 196.636 78.2811 196.636 78.9247V78.9569C196.636 79.597 196.118 80.1011 195.474 80.1011C194.83 80.1011 194.312 79.5648 194.312 78.9247C194.312 78.2847 194.834 77.7626 195.474 77.7626ZM195.474 97.1898C196.114 97.1898 196.636 97.7083 196.636 98.352V98.3841C196.636 99.0242 196.118 99.5284 195.474 99.5284C194.83 99.5284 194.312 98.992 194.312 98.352C194.312 97.7083 194.834 97.1898 195.474 97.1898ZM195.474 116.614C196.114 116.614 196.636 117.132 196.636 117.776V117.808C196.636 118.448 196.118 118.952 195.474 118.952C194.834 118.952 194.312 118.416 194.312 117.776C194.312 117.136 194.834 116.614 195.474 116.614ZM195.474 136.037C196.114 136.037 196.636 136.556 196.636 137.199V137.231C196.636 137.872 196.118 138.376 195.474 138.376C194.834 138.376 194.312 137.839 194.312 137.199C194.312 136.559 194.834 136.037 195.474 136.037ZM195.474 155.464C196.114 155.464 196.636 155.983 196.636 156.627V156.659C196.636 157.299 196.118 157.803 195.474 157.803C194.834 157.803 194.312 157.267 194.312 156.627C194.312 155.983 194.834 155.464 195.474 155.464ZM195.474 174.888C196.114 174.888 196.636 175.407 196.636 176.05V176.082C196.636 176.722 196.118 177.227 195.474 177.227C194.83 177.227 194.312 176.69 194.312 176.05C194.312 175.41 194.834 174.888 195.474 174.888ZM195.474 194.312C196.114 194.312 196.636 194.83 196.636 195.474V195.506C196.636 196.146 196.118 196.65 195.474 196.65C194.834 196.65 194.312 196.114 194.312 195.474C194.312 194.834 194.834 194.312 195.474 194.312ZM195.474 213.739C196.114 213.739 196.636 214.258 196.636 214.901V214.933C196.636 215.573 196.118 216.078 195.474 216.078C194.83 216.078 194.312 215.541 194.312 214.901C194.312 214.261 194.834 213.739 195.474 213.739ZM195.474 233.163C196.114 233.163 196.636 233.681 196.636 234.325V234.357C196.636 234.997 196.118 235.501 195.474 235.501C194.83 235.501 194.312 234.965 194.312 234.325C194.312 233.685 194.834 233.163 195.474 233.163Z" fill="#80CFD4"/>
<path d="M194.312 1.24071C194.312 1.88078 194.83 2.40998 195.474 2.40998C196.114 2.40998 196.636 1.89865 196.636 1.25859V1.24071C196.636 0.600648 196.118 0.0785828 195.474 0.0785828C194.834 0.0785828 194.312 0.600648 194.312 1.24071Z" fill="#80CFD4"/>
<path d="M174.888 253.748C174.888 254.388 175.407 254.918 176.05 254.918C176.69 254.918 177.212 254.406 177.212 253.766V253.748C177.212 253.108 176.694 252.586 176.05 252.586C175.407 252.586 174.888 253.108 174.888 253.748Z" fill="#80CFD4"/>
<path d="M176.05 19.488C176.69 19.488 177.212 20.0065 177.212 20.6501V20.6823C177.212 21.3224 176.694 21.8266 176.05 21.8266C175.407 21.8266 174.888 21.2902 174.888 20.6501C174.888 20.01 175.41 19.488 176.05 19.488ZM176.05 38.9152C176.69 38.9152 177.212 39.4337 177.212 40.0774V40.1095C177.212 40.7496 176.694 41.2538 176.05 41.2538C175.407 41.2538 174.888 40.7174 174.888 40.0774C174.888 39.4337 175.41 38.9152 176.05 38.9152ZM176.05 58.3389C176.69 58.3389 177.212 58.8574 177.212 59.501V59.5332C177.212 60.1733 176.694 60.6775 176.05 60.6775C175.407 60.6775 174.888 60.1411 174.888 59.501C174.888 58.8574 175.41 58.3389 176.05 58.3389ZM176.05 77.7626C176.69 77.7626 177.212 78.2811 177.212 78.9247V78.9569C177.212 79.597 176.694 80.1011 176.05 80.1011C175.41 80.1011 174.888 79.5648 174.888 78.9247C174.888 78.2847 175.41 77.7626 176.05 77.7626ZM176.05 97.1898C176.69 97.1898 177.212 97.7083 177.212 98.352V98.3841C177.212 99.0242 176.694 99.5284 176.05 99.5284C175.41 99.5284 174.888 98.992 174.888 98.352C174.888 97.7083 175.41 97.1898 176.05 97.1898ZM176.05 116.614C176.69 116.614 177.212 117.132 177.212 117.776V117.808C177.212 118.448 176.694 118.952 176.05 118.952C175.41 118.952 174.888 118.416 174.888 117.776C174.888 117.132 175.41 116.614 176.05 116.614ZM176.05 136.037C176.69 136.037 177.212 136.556 177.212 137.199V137.231C177.212 137.872 176.694 138.376 176.05 138.376C175.407 138.376 174.888 137.839 174.888 137.199C174.888 136.559 175.407 136.037 176.05 136.037ZM176.05 155.464C176.69 155.464 177.212 155.983 177.212 156.627V156.659C177.212 157.299 176.694 157.803 176.05 157.803C175.407 157.803 174.888 157.267 174.888 156.627C174.888 155.983 175.407 155.464 176.05 155.464ZM176.05 174.888C176.69 174.888 177.212 175.407 177.212 176.05V176.082C177.212 176.722 176.694 177.227 176.05 177.227C175.407 177.227 174.888 176.69 174.888 176.05C174.888 175.407 175.407 174.888 176.05 174.888ZM176.05 194.312C176.69 194.312 177.212 194.83 177.212 195.474V195.506C177.212 196.146 176.694 196.65 176.05 196.65C175.407 196.65 174.888 196.114 174.888 195.474C174.888 194.834 175.407 194.312 176.05 194.312ZM176.05 213.739C176.69 213.739 177.212 214.258 177.212 214.901V214.933C177.212 215.573 176.694 216.078 176.05 216.078C175.41 216.078 174.888 215.541 174.888 214.901C174.888 214.261 175.407 213.739 176.05 213.739ZM176.05 233.163C176.69 233.163 177.212 233.681 177.212 234.325V234.357C177.212 234.997 176.694 235.501 176.05 235.501C175.41 235.501 174.888 234.965 174.888 234.325C174.888 233.681 175.407 233.163 176.05 233.163Z" fill="#80CFD4"/>
<path d="M174.888 1.24071C174.888 1.88078 175.407 2.40998 176.05 2.40998C176.69 2.40998 177.212 1.89865 177.212 1.25859V1.24071C177.212 0.600648 176.694 0.0785828 176.05 0.0785828C175.41 0.0785828 174.888 0.600648 174.888 1.24071Z" fill="#80CFD4"/>
<path d="M155.465 253.748C155.465 254.388 155.983 254.918 156.627 254.918C157.267 254.918 157.789 254.406 157.789 253.766V253.748C157.789 253.108 157.27 252.586 156.627 252.586C155.983 252.586 155.465 253.108 155.465 253.748Z" fill="#80CFD4"/>
<path d="M156.623 19.488C157.263 19.488 157.785 20.0065 157.785 20.6501V20.6823C157.785 21.3224 157.267 21.8266 156.623 21.8266C155.979 21.8266 155.461 21.2902 155.461 20.6501C155.465 20.01 155.983 19.488 156.623 19.488ZM156.623 38.9152C157.263 38.9152 157.785 39.4337 157.785 40.0774V40.1095C157.785 40.7496 157.267 41.2538 156.623 41.2538C155.983 41.2538 155.461 40.7174 155.461 40.0774C155.465 39.4337 155.983 38.9152 156.623 38.9152ZM156.623 58.3389C157.263 58.3389 157.785 58.8574 157.785 59.501V59.5332C157.785 60.1733 157.267 60.6775 156.623 60.6775C155.983 60.6775 155.461 60.1411 155.461 59.501C155.465 58.8574 155.983 58.3389 156.623 58.3389ZM156.623 77.7626C157.263 77.7626 157.785 78.2811 157.785 78.9247V78.9569C157.785 79.597 157.267 80.1011 156.623 80.1011C155.983 80.1011 155.461 79.5648 155.461 78.9247C155.465 78.2847 155.983 77.7626 156.623 77.7626ZM156.623 97.1898C157.263 97.1898 157.785 97.7083 157.785 98.352V98.3841C157.785 99.0242 157.267 99.5284 156.623 99.5284C155.979 99.5284 155.461 98.992 155.461 98.352C155.465 97.7083 155.983 97.1898 156.623 97.1898ZM156.623 116.614C157.263 116.614 157.785 117.132 157.785 117.776V117.808C157.785 118.448 157.267 118.952 156.623 118.952C155.979 118.952 155.461 118.416 155.461 117.776C155.465 117.132 155.983 116.614 156.623 116.614ZM156.623 136.037C157.263 136.037 157.785 136.556 157.785 137.199V137.231C157.785 137.872 157.267 138.376 156.623 138.376C155.979 138.376 155.461 137.839 155.461 137.199C155.465 136.559 155.983 136.037 156.623 136.037ZM156.623 155.464C157.263 155.464 157.785 155.983 157.785 156.627V156.659C157.785 157.299 157.267 157.803 156.623 157.803C155.979 157.803 155.461 157.267 155.461 156.627C155.465 155.983 155.983 155.464 156.623 155.464ZM156.623 174.888C157.263 174.888 157.785 175.407 157.785 176.05V176.082C157.785 176.722 157.267 177.227 156.623 177.227C155.983 177.227 155.461 176.69 155.461 176.05C155.461 175.41 155.983 174.888 156.623 174.888ZM156.623 194.312C157.263 194.312 157.785 194.83 157.785 195.474V195.506C157.785 196.146 157.267 196.65 156.623 196.65C155.983 196.65 155.461 196.114 155.461 195.474C155.461 194.834 155.983 194.312 156.623 194.312ZM156.623 213.739C157.263 213.739 157.785 214.258 157.785 214.901V214.933C157.785 215.573 157.267 216.078 156.623 216.078C155.979 216.078 155.461 215.541 155.461 214.901C155.461 214.261 155.983 213.739 156.623 213.739ZM156.623 233.163C157.263 233.163 157.785 233.681 157.785 234.325V234.357C157.785 234.997 157.267 235.501 156.623 235.501C155.979 235.501 155.461 234.965 155.461 234.325C155.461 233.685 155.983 233.163 156.623 233.163Z" fill="#80CFD4"/>
<path d="M155.464 1.24061C155.464 1.88067 155.983 2.40987 156.627 2.40987C157.27 2.40987 157.789 1.89855 157.789 1.25848V1.24061C157.789 0.600541 157.27 0.078476 156.627 0.078476C155.983 0.078476 155.464 0.600541 155.464 1.24061Z" fill="#80CFD4"/>
<path d="M136.037 253.748C136.037 254.388 136.556 254.918 137.199 254.918C137.839 254.918 138.361 254.406 138.361 253.766V253.748C138.361 253.108 137.843 252.586 137.199 252.586C136.559 252.586 136.037 253.108 136.037 253.748Z" fill="#80CFD4"/>
<path d="M137.199 19.488C137.839 19.488 138.361 20.0065 138.361 20.6501V20.6823C138.361 21.3224 137.843 21.8266 137.199 21.8266C136.559 21.8266 136.037 21.2902 136.037 20.6501C136.037 20.01 136.559 19.488 137.199 19.488ZM137.199 38.9152C137.839 38.9152 138.361 39.4337 138.361 40.0774V40.1095C138.361 40.7496 137.843 41.2538 137.199 41.2538C136.559 41.2538 136.037 40.7174 136.037 40.0774C136.037 39.4373 136.559 38.9152 137.199 38.9152ZM137.199 58.3389C137.839 58.3389 138.361 58.8574 138.361 59.501V59.5332C138.361 60.1733 137.843 60.6775 137.199 60.6775C136.556 60.6775 136.037 60.1411 136.037 59.501C136.037 58.8574 136.559 58.3389 137.199 58.3389ZM137.199 77.7626C137.839 77.7626 138.361 78.2811 138.361 78.9247V78.9569C138.361 79.597 137.843 80.1011 137.199 80.1011C136.556 80.1011 136.037 79.5648 136.037 78.9247C136.037 78.2847 136.559 77.7626 137.199 77.7626ZM137.199 97.1898C137.839 97.1898 138.361 97.7083 138.361 98.352V98.3841C138.361 99.0242 137.843 99.5284 137.199 99.5284C136.556 99.5284 136.037 98.992 136.037 98.352C136.037 97.7119 136.559 97.1898 137.199 97.1898ZM137.199 116.614C137.839 116.614 138.361 117.132 138.361 117.776V117.808C138.361 118.448 137.843 118.952 137.199 118.952C136.559 118.952 136.037 118.416 136.037 117.776C136.037 117.132 136.559 116.614 137.199 116.614ZM137.199 136.037C137.839 136.037 138.361 136.556 138.361 137.199V137.231C138.361 137.872 137.843 138.376 137.199 138.376C136.559 138.376 136.037 137.839 136.037 137.199C136.037 136.559 136.559 136.037 137.199 136.037ZM137.199 155.464C137.839 155.464 138.361 155.983 138.361 156.627V156.659C138.361 157.299 137.843 157.803 137.199 157.803C136.559 157.803 136.037 157.267 136.037 156.627C136.037 155.986 136.559 155.464 137.199 155.464ZM137.199 174.888C137.839 174.888 138.361 175.407 138.361 176.05V176.082C138.361 176.722 137.843 177.227 137.199 177.227C136.556 177.227 136.037 176.69 136.037 176.05C136.037 175.41 136.559 174.888 137.199 174.888ZM137.199 194.312C137.839 194.312 138.361 194.83 138.361 195.474V195.506C138.361 196.146 137.843 196.65 137.199 196.65C136.556 196.65 136.037 196.114 136.037 195.474C136.037 194.834 136.559 194.312 137.199 194.312ZM137.199 213.739C137.839 213.739 138.361 214.258 138.361 214.901V214.933C138.361 215.573 137.843 216.078 137.199 216.078C136.556 216.078 136.037 215.541 136.037 214.901C136.037 214.261 136.559 213.739 137.199 213.739ZM137.199 233.163C137.839 233.163 138.361 233.681 138.361 234.325V234.357C138.361 234.997 137.843 235.501 137.199 235.501C136.556 235.501 136.037 234.965 136.037 234.325C136.037 233.685 136.559 233.163 137.199 233.163Z" fill="#80CFD4"/>
<path d="M136.037 1.24071C136.037 1.88078 136.556 2.40998 137.199 2.40998C137.839 2.40998 138.361 1.89865 138.361 1.25859V1.24071C138.361 0.600648 137.843 0.0785828 137.199 0.0785828C136.559 0.0785828 136.037 0.600648 136.037 1.24071Z" fill="#80CFD4"/>
<path d="M116.614 253.748C116.614 254.388 117.132 254.918 117.776 254.918C118.416 254.918 118.938 254.406 118.938 253.766V253.748C118.938 253.108 118.419 252.586 117.776 252.586C117.132 252.586 116.614 253.108 116.614 253.748Z" fill="#80CFD4"/>
<path d="M117.776 19.488C118.416 19.488 118.938 20.0065 118.938 20.6501V20.6823C118.938 21.3224 118.419 21.8266 117.776 21.8266C117.136 21.8266 116.614 21.2902 116.614 20.6501C116.614 20.01 117.132 19.488 117.776 19.488ZM117.776 38.9152C118.416 38.9152 118.938 39.4337 118.938 40.0774V40.1095C118.938 40.7496 118.419 41.2538 117.776 41.2538C117.132 41.2538 116.614 40.7174 116.614 40.0774C116.614 39.4337 117.132 38.9152 117.776 38.9152ZM117.776 58.3389C118.416 58.3389 118.938 58.8574 118.938 59.501V59.5332C118.938 60.1733 118.419 60.6775 117.776 60.6775C117.132 60.6775 116.614 60.1411 116.614 59.501C116.614 58.8574 117.132 58.3389 117.776 58.3389ZM117.776 77.7626C118.416 77.7626 118.938 78.2811 118.938 78.9247V78.9569C118.938 79.597 118.419 80.1011 117.776 80.1011C117.136 80.1011 116.614 79.5648 116.614 78.9247C116.614 78.2847 117.132 77.7626 117.776 77.7626ZM117.776 97.1898C118.416 97.1898 118.938 97.7083 118.938 98.352V98.3841C118.938 99.0242 118.419 99.5284 117.776 99.5284C117.136 99.5284 116.614 98.992 116.614 98.352C116.614 97.7083 117.132 97.1898 117.776 97.1898ZM117.776 116.614C118.416 116.614 118.938 117.132 118.938 117.776V117.808C118.938 118.448 118.419 118.952 117.776 118.952C117.136 118.952 116.614 118.416 116.614 117.776C116.614 117.132 117.132 116.614 117.776 116.614ZM117.776 136.037C118.416 136.037 118.938 136.556 118.938 137.199V137.231C118.938 137.872 118.419 138.376 117.776 138.376C117.132 138.376 116.614 137.839 116.614 137.199C116.614 136.559 117.132 136.037 117.776 136.037ZM117.776 155.464C118.416 155.464 118.938 155.983 118.938 156.627V156.659C118.938 157.299 118.419 157.803 117.776 157.803C117.132 157.803 116.614 157.267 116.614 156.627C116.614 155.983 117.132 155.464 117.776 155.464ZM117.776 174.888C118.416 174.888 118.938 175.407 118.938 176.05V176.082C118.938 176.722 118.419 177.227 117.776 177.227C117.132 177.227 116.614 176.69 116.614 176.05C116.614 175.407 117.132 174.888 117.776 174.888ZM117.776 194.312C118.416 194.312 118.938 194.83 118.938 195.474V195.506C118.938 196.146 118.419 196.65 117.776 196.65C117.132 196.65 116.614 196.114 116.614 195.474C116.614 194.834 117.132 194.312 117.776 194.312ZM117.776 213.739C118.416 213.739 118.938 214.258 118.938 214.901V214.933C118.938 215.573 118.419 216.078 117.776 216.078C117.136 216.078 116.614 215.541 116.614 214.901C116.614 214.258 117.132 213.739 117.776 213.739ZM117.776 233.163C118.416 233.163 118.938 233.681 118.938 234.325V234.357C118.938 234.997 118.419 235.501 117.776 235.501C117.136 235.501 116.614 234.965 116.614 234.325C116.614 233.685 117.132 233.163 117.776 233.163Z" fill="#80CFD4"/>
<path d="M116.614 1.24071C116.614 1.88078 117.132 2.40998 117.776 2.40998C118.416 2.40998 118.938 1.89865 118.938 1.25859V1.24071C118.938 0.600648 118.419 0.0785828 117.776 0.0785828C117.132 0.0785828 116.614 0.600648 116.614 1.24071Z" fill="#80CFD4"/>
<path d="M97.1899 253.748C97.1899 254.388 97.7084 254.918 98.352 254.918C98.9957 254.918 99.5142 254.406 99.5142 253.766V253.748C99.5142 253.108 98.9957 252.586 98.352 252.586C97.7084 252.586 97.1899 253.108 97.1899 253.748Z" fill="#80CFD4"/>
<path d="M98.3485 19.488C98.9885 19.488 99.5106 20.0065 99.5106 20.6501V20.6823C99.5106 21.3224 98.9921 21.8266 98.3485 21.8266C97.7048 21.8266 97.1863 21.2902 97.1863 20.6501C97.1899 20.01 97.7084 19.488 98.3485 19.488ZM98.3485 38.9152C98.9885 38.9152 99.5106 39.4337 99.5106 40.0774V40.1095C99.5106 40.7496 98.9921 41.2538 98.3485 41.2538C97.7084 41.2538 97.1863 40.7174 97.1863 40.0774C97.1899 39.4337 97.7084 38.9152 98.3485 38.9152ZM98.3485 58.3389C98.9885 58.3389 99.5106 58.8574 99.5106 59.501V59.5332C99.5106 60.1733 98.9921 60.6775 98.3485 60.6775C97.7084 60.6775 97.1863 60.1411 97.1863 59.501C97.1899 58.8574 97.7084 58.3389 98.3485 58.3389ZM98.3485 77.7626C98.9885 77.7626 99.5106 78.2811 99.5106 78.9247V78.9569C99.5106 79.597 98.9921 80.1011 98.3485 80.1011C97.7084 80.1011 97.1863 79.5648 97.1863 78.9247C97.1899 78.2847 97.7084 77.7626 98.3485 77.7626ZM98.3485 97.1898C98.9885 97.1898 99.5106 97.7083 99.5106 98.352V98.3841C99.5106 99.0242 98.9921 99.5284 98.3485 99.5284C97.7048 99.5284 97.1863 98.992 97.1863 98.352C97.1899 97.7083 97.7084 97.1898 98.3485 97.1898ZM98.3485 116.614C98.9885 116.614 99.5106 117.132 99.5106 117.776V117.808C99.5106 118.448 98.9921 118.952 98.3485 118.952C97.7048 118.952 97.1863 118.416 97.1863 117.776C97.1899 117.132 97.7084 116.614 98.3485 116.614ZM98.3485 136.037C98.9885 136.037 99.5106 136.556 99.5106 137.199V137.231C99.5106 137.872 98.9921 138.376 98.3485 138.376C97.7048 138.376 97.1863 137.839 97.1863 137.199C97.1899 136.559 97.7084 136.037 98.3485 136.037ZM98.3485 155.464C98.9885 155.464 99.5106 155.983 99.5106 156.627V156.659C99.5106 157.299 98.9921 157.803 98.3485 157.803C97.7048 157.803 97.1863 157.267 97.1863 156.627C97.1899 155.983 97.7084 155.464 98.3485 155.464ZM98.3485 174.888C98.9885 174.888 99.5106 175.407 99.5106 176.05V176.082C99.5106 176.722 98.9921 177.227 98.3485 177.227C97.7084 177.227 97.1863 176.69 97.1863 176.05C97.1863 175.41 97.7084 174.888 98.3485 174.888ZM98.3485 194.312C98.9885 194.312 99.5106 194.83 99.5106 195.474V195.506C99.5106 196.146 98.9921 196.65 98.3485 196.65C97.7084 196.65 97.1863 196.114 97.1863 195.474C97.1863 194.834 97.7084 194.312 98.3485 194.312ZM98.3485 213.739C98.9885 213.739 99.5106 214.258 99.5106 214.901V214.933C99.5106 215.573 98.9921 216.078 98.3485 216.078C97.7084 216.078 97.1863 215.541 97.1863 214.901C97.1899 214.258 97.7084 213.739 98.3485 213.739ZM98.3485 233.163C98.9885 233.163 99.5106 233.681 99.5106 234.325V234.357C99.5106 234.997 98.9921 235.501 98.3485 235.501C97.7084 235.501 97.1863 234.965 97.1863 234.325C97.1863 233.685 97.7084 233.163 98.3485 233.163Z" fill="#80CFD4"/>
<path d="M97.1897 1.24061C97.1897 1.88067 97.7082 2.40987 98.3518 2.40987C98.9955 2.40987 99.514 1.89855 99.514 1.25848V1.24061C99.514 0.600541 98.9955 0.078476 98.3518 0.078476C97.7082 0.078476 97.1897 0.600541 97.1897 1.24061Z" fill="#80CFD4"/>
<path d="M77.7627 253.748C77.7627 254.388 78.2812 254.918 78.9248 254.918C79.5649 254.918 80.0869 254.406 80.0869 253.766V253.748C80.0869 253.108 79.5684 252.586 78.9248 252.586C78.2847 252.586 77.7627 253.108 77.7627 253.748Z" fill="#80CFD4"/>
<path d="M78.9248 19.488C79.5649 19.488 80.0869 20.0065 80.0869 20.6501V20.6823C80.0869 21.3224 79.5684 21.8266 78.9248 21.8266C78.2847 21.8266 77.7627 21.2902 77.7627 20.6501C77.7627 20.01 78.2847 19.488 78.9248 19.488ZM78.9248 38.9152C79.5649 38.9152 80.0869 39.4337 80.0869 40.0774V40.1095C80.0869 40.7496 79.5684 41.2538 78.9248 41.2538C78.2847 41.2538 77.7627 40.7174 77.7627 40.0774C77.7627 39.4337 78.2847 38.9152 78.9248 38.9152ZM78.9248 58.3389C79.5649 58.3389 80.0869 58.8574 80.0869 59.501V59.5332C80.0869 60.1733 79.5684 60.6775 78.9248 60.6775C78.2812 60.6775 77.7627 60.1411 77.7627 59.501C77.7627 58.8574 78.2847 58.3389 78.9248 58.3389ZM78.9248 77.7626C79.5649 77.7626 80.0869 78.2811 80.0869 78.9247V78.9569C80.0869 79.597 79.5684 80.1011 78.9248 80.1011C78.2812 80.1011 77.7627 79.5648 77.7627 78.9247C77.7627 78.2847 78.2847 77.7626 78.9248 77.7626ZM78.9248 97.1898C79.5649 97.1898 80.0869 97.7083 80.0869 98.352V98.3841C80.0869 99.0242 79.5684 99.5284 78.9248 99.5284C78.2812 99.5284 77.7627 98.992 77.7627 98.352C77.7627 97.7083 78.2847 97.1898 78.9248 97.1898ZM78.9248 116.614C79.5649 116.614 80.0869 117.132 80.0869 117.776V117.808C80.0869 118.448 79.5684 118.952 78.9248 118.952C78.2847 118.952 77.7627 118.416 77.7627 117.776C77.7627 117.132 78.2847 116.614 78.9248 116.614ZM78.9248 136.037C79.5649 136.037 80.0869 136.556 80.0869 137.199V137.231C80.0869 137.872 79.5684 138.376 78.9248 138.376C78.2847 138.376 77.7627 137.839 77.7627 137.199C77.7627 136.559 78.2847 136.037 78.9248 136.037ZM78.9248 155.464C79.5649 155.464 80.0869 155.983 80.0869 156.627V156.659C80.0869 157.299 79.5684 157.803 78.9248 157.803C78.2847 157.803 77.7627 157.267 77.7627 156.627C77.7627 155.983 78.2847 155.464 78.9248 155.464ZM78.9248 174.888C79.5649 174.888 80.0869 175.407 80.0869 176.05V176.082C80.0869 176.722 79.5684 177.227 78.9248 177.227C78.2812 177.227 77.7627 176.69 77.7627 176.05C77.7627 175.41 78.2847 174.888 78.9248 174.888ZM78.9248 194.312C79.5649 194.312 80.0869 194.83 80.0869 195.474V195.506C80.0869 196.146 79.5684 196.65 78.9248 196.65C78.2812 196.65 77.7627 196.114 77.7627 195.474C77.7627 194.834 78.2847 194.312 78.9248 194.312ZM78.9248 213.739C79.5649 213.739 80.0869 214.258 80.0869 214.901V214.933C80.0869 215.573 79.5684 216.078 78.9248 216.078C78.2812 216.078 77.7627 215.541 77.7627 214.901C77.7627 214.261 78.2847 213.739 78.9248 213.739ZM78.9248 233.163C79.5649 233.163 80.0869 233.681 80.0869 234.325V234.357C80.0869 234.997 79.5684 235.501 78.9248 235.501C78.2812 235.501 77.7627 234.965 77.7627 234.325C77.7627 233.685 78.2847 233.163 78.9248 233.163Z" fill="#80CFD4"/>
<path d="M77.7627 1.24071C77.7627 1.88078 78.2812 2.40998 78.9248 2.40998C79.5649 2.40998 80.087 1.89865 80.087 1.25859V1.24071C80.087 0.600648 79.5685 0.0785828 78.9248 0.0785828C78.2848 0.0785828 77.7627 0.600648 77.7627 1.24071Z" fill="#80CFD4"/>
<path d="M58.3391 253.748C58.3391 254.388 58.8575 254.918 59.5012 254.918C60.1412 254.918 60.6633 254.406 60.6633 253.766V253.748C60.6633 253.108 60.1448 252.586 59.5012 252.586C58.8575 252.586 58.3391 253.108 58.3391 253.748Z" fill="#80CFD4"/>
<path d="M59.5012 19.488C60.1412 19.488 60.6633 20.0065 60.6633 20.6501V20.6823C60.6633 21.3224 60.1448 21.8266 59.5012 21.8266C58.8575 21.8266 58.3391 21.2902 58.3391 20.6501C58.3391 20.01 58.8575 19.488 59.5012 19.488ZM59.5012 38.9152C60.1412 38.9152 60.6633 39.4337 60.6633 40.0774V40.1095C60.6633 40.7496 60.1448 41.2538 59.5012 41.2538C58.8575 41.2538 58.3391 40.7174 58.3391 40.0774C58.3391 39.4337 58.8575 38.9152 59.5012 38.9152ZM59.5012 58.3389C60.1412 58.3389 60.6633 58.8574 60.6633 59.501V59.5332C60.6633 60.1733 60.1448 60.6775 59.5012 60.6775C58.8575 60.6775 58.3391 60.1411 58.3391 59.501C58.3391 58.8574 58.8575 58.3389 59.5012 58.3389ZM59.5012 77.7626C60.1412 77.7626 60.6633 78.2811 60.6633 78.9247V78.9569C60.6633 79.597 60.1448 80.1011 59.5012 80.1011C58.8611 80.1011 58.3391 79.5648 58.3391 78.9247C58.3391 78.2847 58.8575 77.7626 59.5012 77.7626ZM59.5012 97.1898C60.1412 97.1898 60.6633 97.7083 60.6633 98.352V98.3841C60.6633 99.0242 60.1448 99.5284 59.5012 99.5284C58.8611 99.5284 58.3391 98.992 58.3391 98.352C58.3391 97.7083 58.8575 97.1898 59.5012 97.1898ZM59.5012 116.614C60.1412 116.614 60.6633 117.132 60.6633 117.776V117.808C60.6633 118.448 60.1448 118.952 59.5012 118.952C58.8611 118.952 58.3391 118.416 58.3391 117.776C58.3391 117.132 58.8575 116.614 59.5012 116.614ZM59.5012 136.037C60.1412 136.037 60.6633 136.556 60.6633 137.199V137.231C60.6633 137.872 60.1448 138.376 59.5012 138.376C58.8575 138.376 58.3391 137.839 58.3391 137.199C58.3391 136.559 58.8575 136.037 59.5012 136.037ZM59.5012 155.464C60.1412 155.464 60.6633 155.983 60.6633 156.627V156.659C60.6633 157.299 60.1448 157.803 59.5012 157.803C58.8575 157.803 58.3391 157.267 58.3391 156.627C58.3391 155.983 58.8575 155.464 59.5012 155.464ZM59.5012 174.888C60.1412 174.888 60.6633 175.407 60.6633 176.05V176.082C60.6633 176.722 60.1448 177.227 59.5012 177.227C58.8575 177.227 58.3391 176.69 58.3391 176.05C58.3391 175.41 58.8575 174.888 59.5012 174.888ZM59.5012 194.312C60.1412 194.312 60.6633 194.83 60.6633 195.474V195.506C60.6633 196.146 60.1448 196.65 59.5012 196.65C58.8575 196.65 58.3391 196.114 58.3391 195.474C58.3391 194.834 58.8575 194.312 59.5012 194.312ZM59.5012 213.739C60.1412 213.739 60.6633 214.258 60.6633 214.901V214.933C60.6633 215.573 60.1448 216.078 59.5012 216.078C58.8611 216.078 58.3391 215.541 58.3391 214.901C58.3391 214.261 58.8575 213.739 59.5012 213.739ZM59.5012 233.163C60.1412 233.163 60.6633 233.681 60.6633 234.325V234.357C60.6633 234.997 60.1448 235.501 59.5012 235.501C58.8611 235.501 58.3391 234.965 58.3391 234.325C58.3391 233.685 58.8575 233.163 59.5012 233.163Z" fill="#80CFD4"/>
<path d="M58.339 1.24071C58.339 1.88078 58.8575 2.40998 59.5012 2.40998C60.1412 2.40998 60.6633 1.89865 60.6633 1.25859V1.24071C60.6633 0.600648 60.1448 0.0785828 59.5012 0.0785828C58.8575 0.0785828 58.339 0.600648 58.339 1.24071Z" fill="#80CFD4"/>
<path d="M38.9153 253.748C38.9153 254.388 39.4337 254.918 40.0774 254.918C40.721 254.918 41.2395 254.406 41.2395 253.766V253.748C41.2395 253.108 40.721 252.586 40.0774 252.586C39.4337 252.586 38.9153 253.108 38.9153 253.748Z" fill="#80CFD4"/>
<path d="M40.0738 19.488C40.7139 19.488 41.2359 20.0065 41.2359 20.6501V20.6823C41.2359 21.3224 40.7175 21.8266 40.0738 21.8266C39.4302 21.8266 38.9117 21.2902 38.9117 20.6501C38.9153 20.01 39.4337 19.488 40.0738 19.488ZM40.0738 38.9152C40.7139 38.9152 41.2359 39.4337 41.2359 40.0774V40.1095C41.2359 40.7496 40.7175 41.2538 40.0738 41.2538C39.4337 41.2538 38.9117 40.7174 38.9117 40.0774C38.9153 39.4337 39.4337 38.9152 40.0738 38.9152ZM40.0738 58.3389C40.7139 58.3389 41.2359 58.8574 41.2359 59.501V59.5332C41.2359 60.1733 40.7175 60.6775 40.0738 60.6775C39.4337 60.6775 38.9117 60.1411 38.9117 59.501C38.9153 58.8574 39.4337 58.3389 40.0738 58.3389ZM40.0738 77.7626C40.7139 77.7626 41.2359 78.2811 41.2359 78.9247V78.9569C41.2359 79.597 40.7175 80.1011 40.0738 80.1011C39.4337 80.1011 38.9117 79.5648 38.9117 78.9247C38.9153 78.2847 39.4337 77.7626 40.0738 77.7626ZM40.0738 97.1898C40.7139 97.1898 41.2359 97.7083 41.2359 98.352V98.3841C41.2359 99.0242 40.7175 99.5284 40.0738 99.5284C39.4302 99.5284 38.9117 98.992 38.9117 98.352C38.9153 97.7083 39.4337 97.1898 40.0738 97.1898ZM40.0738 116.614C40.7139 116.614 41.2359 117.132 41.2359 117.776V117.808C41.2359 118.448 40.7175 118.952 40.0738 118.952C39.4302 118.952 38.9117 118.416 38.9117 117.776C38.9153 117.132 39.4337 116.614 40.0738 116.614ZM40.0738 136.037C40.7139 136.037 41.2359 136.556 41.2359 137.199V137.231C41.2359 137.872 40.7175 138.376 40.0738 138.376C39.4302 138.376 38.9117 137.839 38.9117 137.199C38.9153 136.559 39.4337 136.037 40.0738 136.037ZM40.0738 155.464C40.7139 155.464 41.2359 155.983 41.2359 156.627V156.659C41.2359 157.299 40.7175 157.803 40.0738 157.803C39.4302 157.803 38.9117 157.267 38.9117 156.627C38.9153 155.983 39.4337 155.464 40.0738 155.464ZM40.0738 174.888C40.7139 174.888 41.2359 175.407 41.2359 176.05V176.082C41.2359 176.722 40.7175 177.227 40.0738 177.227C39.4337 177.227 38.9117 176.69 38.9117 176.05C38.9117 175.41 39.4337 174.888 40.0738 174.888ZM40.0738 194.312C40.7139 194.312 41.2359 194.83 41.2359 195.474V195.506C41.2359 196.146 40.7175 196.65 40.0738 196.65C39.4337 196.65 38.9117 196.114 38.9117 195.474C38.9117 194.834 39.4337 194.312 40.0738 194.312ZM40.0738 213.739C40.7139 213.739 41.2359 214.258 41.2359 214.901V214.933C41.2359 215.573 40.7175 216.078 40.0738 216.078C39.4337 216.078 38.9117 215.541 38.9117 214.901C38.9117 214.261 39.4337 213.739 40.0738 213.739ZM40.0738 233.163C40.7139 233.163 41.2359 233.681 41.2359 234.325V234.357C41.2359 234.997 40.7175 235.501 40.0738 235.501C39.4302 235.501 38.9117 234.965 38.9117 234.325C38.9117 233.685 39.4337 233.163 40.0738 233.163Z" fill="#80CFD4"/>
<path d="M38.9151 1.24061C38.9151 1.88067 39.4336 2.40987 40.0773 2.40987C40.7209 2.40987 41.2394 1.89855 41.2394 1.25848V1.24061C41.2394 0.600541 40.7209 0.078476 40.0773 0.078476C39.4336 0.078476 38.9151 0.600541 38.9151 1.24061Z" fill="#80CFD4"/>
<path d="M19.488 253.748C19.488 254.388 20.0065 254.918 20.6502 254.918C21.2902 254.918 21.8123 254.406 21.8123 253.766V253.748C21.8123 253.108 21.2938 252.586 20.6502 252.586C20.0101 252.586 19.488 253.108 19.488 253.748Z" fill="#80CFD4"/>
<path d="M20.6502 19.488C21.2902 19.488 21.8123 20.0065 21.8123 20.6501V20.6823C21.8123 21.3224 21.2938 21.8266 20.6502 21.8266C20.0101 21.8266 19.488 21.2902 19.488 20.6501C19.488 20.01 20.0101 19.488 20.6502 19.488ZM20.6502 38.9152C21.2902 38.9152 21.8123 39.4337 21.8123 40.0774V40.1095C21.8123 40.7496 21.2938 41.2538 20.6502 41.2538C20.0101 41.2538 19.488 40.7174 19.488 40.0774C19.488 39.4337 20.0101 38.9152 20.6502 38.9152ZM20.6502 58.3389C21.2902 58.3389 21.8123 58.8574 21.8123 59.501V59.5332C21.8123 60.1733 21.2938 60.6775 20.6502 60.6775C20.0065 60.6775 19.488 60.1411 19.488 59.501C19.488 58.8574 20.0101 58.3389 20.6502 58.3389ZM20.6502 77.7626C21.2902 77.7626 21.8123 78.2811 21.8123 78.9247V78.9569C21.8123 79.597 21.2938 80.1011 20.6502 80.1011C20.0065 80.1011 19.488 79.5648 19.488 78.9247C19.488 78.2847 20.0101 77.7626 20.6502 77.7626ZM20.6502 97.1898C21.2902 97.1898 21.8123 97.7083 21.8123 98.352V98.3841C21.8123 99.0242 21.2938 99.5284 20.6502 99.5284C20.0065 99.5284 19.488 98.992 19.488 98.352C19.488 97.7083 20.0101 97.1898 20.6502 97.1898ZM20.6502 116.614C21.2902 116.614 21.8123 117.132 21.8123 117.776V117.808C21.8123 118.448 21.2938 118.952 20.6502 118.952C20.0065 118.952 19.488 118.416 19.488 117.776C19.488 117.132 20.0101 116.614 20.6502 116.614ZM20.6502 136.037C21.2902 136.037 21.8123 136.556 21.8123 137.199V137.231C21.8123 137.872 21.2938 138.376 20.6502 138.376C20.0101 138.376 19.488 137.839 19.488 137.199C19.488 136.559 20.0101 136.037 20.6502 136.037ZM20.6502 155.464C21.2902 155.464 21.8123 155.983 21.8123 156.627V156.659C21.8123 157.299 21.2938 157.803 20.6502 157.803C20.0101 157.803 19.488 157.267 19.488 156.627C19.488 155.983 20.0101 155.464 20.6502 155.464ZM20.6502 174.888C21.2902 174.888 21.8123 175.407 21.8123 176.05V176.082C21.8123 176.722 21.2938 177.227 20.6502 177.227C20.0065 177.227 19.488 176.69 19.488 176.05C19.488 175.407 20.0101 174.888 20.6502 174.888ZM20.6502 194.312C21.2902 194.312 21.8123 194.83 21.8123 195.474V195.506C21.8123 196.146 21.2938 196.65 20.6502 196.65C20.0065 196.65 19.488 196.114 19.488 195.474C19.488 194.834 20.0101 194.312 20.6502 194.312ZM20.6502 213.739C21.2902 213.739 21.8123 214.258 21.8123 214.901V214.933C21.8123 215.573 21.2938 216.078 20.6502 216.078C20.0065 216.078 19.488 215.541 19.488 214.901C19.488 214.258 20.0101 213.739 20.6502 213.739ZM20.6502 233.163C21.2902 233.163 21.8123 233.681 21.8123 234.325V234.357C21.8123 234.997 21.2938 235.501 20.6502 235.501C20.0065 235.501 19.488 234.965 19.488 234.325C19.488 233.681 20.0101 233.163 20.6502 233.163Z" fill="#80CFD4"/>
<path d="M19.488 1.24071C19.488 1.88078 20.0065 2.40998 20.6502 2.40998C21.2902 2.40998 21.8123 1.89865 21.8123 1.25859V1.24071C21.8123 0.600648 21.2938 0.0785828 20.6502 0.0785828C20.0101 0.0785828 19.488 0.600648 19.488 1.24071Z" fill="#80CFD4"/>
<path d="M0.0643616 253.748C0.0643616 254.388 0.582851 254.918 1.22649 254.918C1.86656 254.918 2.38862 254.406 2.38862 253.766V253.748C2.38862 253.108 1.87013 252.586 1.22649 252.586C0.582851 252.586 0.0643616 253.108 0.0643616 253.748Z" fill="#80CFD4"/>
<path d="M1.22649 19.488C1.86656 19.488 2.38862 20.0065 2.38862 20.6501V20.6823C2.38862 21.3224 1.87013 21.8266 1.22649 21.8266C0.582851 21.8266 0.0643616 21.2902 0.0643616 20.6501C0.0643616 20.0101 0.582851 19.488 1.22649 19.488ZM1.22649 38.9152C1.86656 38.9152 2.38862 39.4337 2.38862 40.0774V40.1095C2.38862 40.7496 1.87013 41.2538 1.22649 41.2538C0.582851 41.2538 0.0643616 40.7174 0.0643616 40.0774C0.0643616 39.4337 0.582851 38.9152 1.22649 38.9152ZM1.22649 58.3389C1.86656 58.3389 2.38862 58.8574 2.38862 59.5011V59.5332C2.38862 60.1733 1.87013 60.6775 1.22649 60.6775C0.582851 60.6775 0.0643616 60.1411 0.0643616 59.5011C0.0643616 58.8574 0.582851 58.3389 1.22649 58.3389ZM1.22649 77.7626C1.86656 77.7626 2.38862 78.2811 2.38862 78.9247V78.9569C2.38862 79.597 1.87013 80.1012 1.22649 80.1012C0.586426 80.1012 0.0643616 79.5648 0.0643616 78.9247C0.0643616 78.2847 0.582851 77.7626 1.22649 77.7626ZM1.22649 97.1898C1.86656 97.1898 2.38862 97.7083 2.38862 98.352V98.3842C2.38862 99.0242 1.87013 99.5284 1.22649 99.5284C0.586426 99.5284 0.0643616 98.992 0.0643616 98.352C0.0643616 97.7083 0.582851 97.1898 1.22649 97.1898ZM1.22649 116.614C1.86656 116.614 2.38862 117.132 2.38862 117.776V117.808C2.38862 118.448 1.87013 118.952 1.22649 118.952C0.586426 118.952 0.0643616 118.416 0.0643616 117.776C0.0643616 117.132 0.582851 116.614 1.22649 116.614ZM1.22649 136.037C1.86656 136.037 2.38862 136.556 2.38862 137.199V137.232C2.38862 137.872 1.87013 138.376 1.22649 138.376C0.582851 138.376 0.0643616 137.839 0.0643616 137.199C0.0643616 136.559 0.582851 136.037 1.22649 136.037ZM1.22649 155.464C1.86656 155.464 2.38862 155.983 2.38862 156.627V156.659C2.38862 157.299 1.87013 157.803 1.22649 157.803C0.582851 157.803 0.0643616 157.267 0.0643616 156.627C0.0643616 155.983 0.582851 155.464 1.22649 155.464ZM1.22649 174.888C1.86656 174.888 2.38862 175.407 2.38862 176.05V176.082C2.38862 176.723 1.87013 177.227 1.22649 177.227C0.582851 177.227 0.0643616 176.69 0.0643616 176.05C0.0643616 175.41 0.582851 174.888 1.22649 174.888ZM1.22649 194.312C1.86656 194.312 2.38862 194.83 2.38862 195.474V195.506C2.38862 196.146 1.87013 196.65 1.22649 196.65C0.582851 196.65 0.0643616 196.114 0.0643616 195.474C0.0643616 194.834 0.582851 194.312 1.22649 194.312ZM1.22649 213.739C1.86656 213.739 2.38862 214.258 2.38862 214.901V214.933C2.38862 215.573 1.87013 216.078 1.22649 216.078C0.586426 216.078 0.0643616 215.541 0.0643616 214.901C0.0643616 214.261 0.582851 213.739 1.22649 213.739ZM1.22649 233.163C1.86656 233.163 2.38862 233.681 2.38862 234.325V234.357C2.38862 234.997 1.87013 235.501 1.22649 235.501C0.586426 235.501 0.0643616 234.965 0.0643616 234.325C0.0643616 233.685 0.582851 233.163 1.22649 233.163Z" fill="#80CFD4"/>
<path d="M0.0643311 1.24073C0.0643311 1.88079 0.58282 2.41 1.22646 2.41C1.86653 2.41 2.38859 1.89867 2.38859 1.2586V1.24073C2.38859 0.600663 1.8701 0.078598 1.22646 0.078598C0.58282 0.078598 0.0643311 0.600663 0.0643311 1.24073Z" fill="#80CFD4"/>
<path d="M252.586 253.831C252.586 254.471 253.105 255 253.749 255C254.389 255 254.911 254.489 254.911 253.849V253.831C254.911 253.191 254.392 252.669 253.749 252.669C253.109 252.669 252.586 253.187 252.586 253.831Z" fill="#80CFD4"/>
<path d="M233.163 253.831C233.163 254.471 233.681 255 234.325 255C234.965 255 235.487 254.489 235.487 253.849V253.831C235.487 253.191 234.969 252.669 234.325 252.669C233.685 252.669 233.163 253.187 233.163 253.831Z" fill="#80CFD4"/>
<path d="M213.739 253.831C213.739 254.471 214.258 255 214.901 255C215.545 255 216.063 254.489 216.063 253.849V253.831C216.063 253.191 215.545 252.669 214.901 252.669C214.258 252.669 213.739 253.187 213.739 253.831Z" fill="#80CFD4"/>
<path d="M194.312 253.831C194.312 254.471 194.83 255 195.474 255C196.114 255 196.636 254.489 196.636 253.849V253.831C196.636 253.191 196.118 252.669 195.474 252.669C194.834 252.669 194.312 253.187 194.312 253.831Z" fill="#80CFD4"/>
<path d="M174.888 253.831C174.888 254.471 175.407 255 176.05 255C176.69 255 177.212 254.489 177.212 253.849V253.831C177.212 253.191 176.694 252.669 176.05 252.669C175.407 252.669 174.888 253.187 174.888 253.831Z" fill="#80CFD4"/>
<path d="M155.465 253.831C155.465 254.471 155.983 255 156.627 255C157.27 255 157.789 254.489 157.789 253.849V253.831C157.789 253.191 157.27 252.669 156.627 252.669C155.983 252.669 155.465 253.187 155.465 253.831Z" fill="#80CFD4"/>
<path d="M136.037 253.831C136.037 254.471 136.556 255 137.199 255C137.839 255 138.361 254.489 138.361 253.849V253.831C138.361 253.191 137.843 252.669 137.199 252.669C136.559 252.669 136.037 253.187 136.037 253.831Z" fill="#80CFD4"/>
<path d="M116.614 253.831C116.614 254.471 117.132 255 117.776 255C118.416 255 118.938 254.489 118.938 253.849V253.831C118.938 253.191 118.419 252.669 117.776 252.669C117.132 252.669 116.614 253.187 116.614 253.831Z" fill="#80CFD4"/>
<path d="M97.1899 253.831C97.1899 254.471 97.7084 255 98.352 255C98.9957 255 99.5142 254.489 99.5142 253.849V253.831C99.5142 253.191 98.9957 252.669 98.352 252.669C97.7084 252.669 97.1899 253.187 97.1899 253.831Z" fill="#80CFD4"/>
<path d="M77.7627 253.831C77.7627 254.471 78.2812 255 78.9248 255C79.5649 255 80.087 254.489 80.087 253.849V253.831C80.087 253.191 79.5685 252.669 78.9248 252.669C78.2848 252.669 77.7627 253.187 77.7627 253.831Z" fill="#80CFD4"/>
<path d="M58.339 253.831C58.339 254.471 58.8575 255 59.5012 255C60.1412 255 60.6633 254.489 60.6633 253.849V253.831C60.6633 253.191 60.1448 252.669 59.5012 252.669C58.8575 252.669 58.339 253.187 58.339 253.831Z" fill="#80CFD4"/>
<path d="M38.9153 253.831C38.9153 254.471 39.4338 255 40.0775 255C40.7211 255 41.2396 254.489 41.2396 253.849V253.831C41.2396 253.191 40.7211 252.669 40.0775 252.669C39.4338 252.669 38.9153 253.187 38.9153 253.831Z" fill="#80CFD4"/>
<path d="M19.488 253.831C19.488 254.471 20.0065 255 20.6502 255C21.2902 255 21.8123 254.489 21.8123 253.849V253.831C21.8123 253.191 21.2938 252.669 20.6502 252.669C20.0101 252.669 19.488 253.187 19.488 253.831Z" fill="#80CFD4"/>
<path d="M0.0643311 253.831C0.0643311 254.471 0.58282 255 1.22646 255C1.86653 255 2.38859 254.489 2.38859 253.849V253.831C2.38859 253.191 1.8701 252.669 1.22646 252.669C0.58282 252.669 0.0643311 253.187 0.0643311 253.831Z" fill="#80CFD4"/>
<path d="M252.651 1.16213C252.651 1.8022 253.169 2.33142 253.813 2.33142C254.453 2.33142 254.975 1.82007 254.975 1.18001V1.16213C254.975 0.522065 254.457 0 253.813 0C253.173 0 252.651 0.518489 252.651 1.16213Z" fill="#80CFD4"/>
<path d="M252.651 253.748C252.651 254.388 253.169 254.918 253.813 254.918C254.453 254.918 254.975 254.406 254.975 253.766V253.748C254.975 253.108 254.457 252.586 253.813 252.586C253.173 252.586 252.651 253.108 252.651 253.748Z" fill="#80CFD4"/>
<path d="M253.813 19.488C254.453 19.488 254.975 20.0065 254.975 20.6501V20.6823C254.975 21.3224 254.457 21.8266 253.813 21.8266C253.173 21.8266 252.651 21.2902 252.651 20.6501C252.651 20.0101 253.173 19.488 253.813 19.488ZM253.813 38.9152C254.453 38.9152 254.975 39.4337 254.975 40.0774V40.1095C254.975 40.7496 254.457 41.2538 253.813 41.2538C253.169 41.2538 252.651 40.7174 252.651 40.0774C252.651 39.4337 253.173 38.9152 253.813 38.9152ZM253.813 58.3389C254.453 58.3389 254.975 58.8574 254.975 59.5011V59.5332C254.975 60.1733 254.457 60.6775 253.813 60.6775C253.169 60.6775 252.651 60.1411 252.651 59.5011C252.651 58.8574 253.173 58.3389 253.813 58.3389ZM253.813 77.7626C254.453 77.7626 254.975 78.2811 254.975 78.9247V78.9569C254.975 79.597 254.457 80.1012 253.813 80.1012C253.169 80.1012 252.651 79.5648 252.651 78.9247C252.651 78.2847 253.173 77.7626 253.813 77.7626ZM253.813 97.1898C254.453 97.1898 254.975 97.7083 254.975 98.352V98.3842C254.975 99.0242 254.457 99.5284 253.813 99.5284C253.169 99.5284 252.651 98.992 252.651 98.352C252.651 97.7083 253.173 97.1898 253.813 97.1898ZM253.813 116.614C254.453 116.614 254.975 117.132 254.975 117.776V117.808C254.975 118.448 254.457 118.952 253.813 118.952C253.173 118.952 252.651 118.416 252.651 117.776C252.651 117.132 253.173 116.614 253.813 116.614ZM253.813 136.037C254.453 136.037 254.975 136.556 254.975 137.199V137.232C254.975 137.872 254.457 138.376 253.813 138.376C253.173 138.376 252.651 137.839 252.651 137.199C252.651 136.559 253.173 136.037 253.813 136.037ZM253.813 155.464C254.453 155.464 254.975 155.983 254.975 156.627V156.659C254.975 157.299 254.457 157.803 253.813 157.803C253.173 157.803 252.651 157.267 252.651 156.627C252.651 155.983 253.173 155.464 253.813 155.464ZM253.813 174.888C254.453 174.888 254.975 175.407 254.975 176.05V176.082C254.975 176.723 254.457 177.227 253.813 177.227C253.169 177.227 252.651 176.69 252.651 176.05C252.651 175.41 253.173 174.888 253.813 174.888ZM253.813 194.312C254.453 194.312 254.975 194.83 254.975 195.474V195.506C254.975 196.146 254.457 196.65 253.813 196.65C253.169 196.65 252.651 196.114 252.651 195.474C252.651 194.834 253.173 194.312 253.813 194.312ZM253.813 213.739C254.453 213.739 254.975 214.258 254.975 214.901V214.933C254.975 215.573 254.457 216.078 253.813 216.078C253.169 216.078 252.651 215.541 252.651 214.901C252.651 214.261 253.173 213.739 253.813 213.739ZM253.813 233.163C254.453 233.163 254.975 233.681 254.975 234.325V234.357C254.975 234.997 254.457 235.501 253.813 235.501C253.173 235.501 252.651 234.965 252.651 234.325C252.651 233.685 253.173 233.163 253.813 233.163Z" fill="#80CFD4"/>
<path d="M252.651 1.24073C252.651 1.88079 253.169 2.41 253.813 2.41C254.453 2.41 254.975 1.89867 254.975 1.2586V1.24073C254.975 0.600663 254.457 0.078598 253.813 0.078598C253.173 0.078598 252.651 0.600663 252.651 1.24073Z" fill="#80CFD4"/>
<path d="M252.651 253.831C252.651 254.471 253.169 255 253.813 255C254.453 255 254.975 254.489 254.975 253.849V253.831C254.975 253.191 254.457 252.669 253.813 252.669C253.173 252.669 252.651 253.187 252.651 253.831Z" fill="#80CFD4"/>
</g>
</svg>
