<svg width="179" height="180" viewBox="0 0 179 180" fill="none" xmlns="http://www.w3.org/2000/svg">
<g opacity="0.2">
<path d="M0 0.81585C0 1.2652 0.363995 1.63673 0.81585 1.63673C1.2652 1.63673 1.6317 1.27774 1.6317 0.828398V0.81585C1.6317 0.366505 1.26771 0 0.81585 0C0.363995 0 0 0.363995 0 0.81585Z" fill="#80CFD4"/>
<path d="M0 178.139C0 178.588 0.363995 178.96 0.81585 178.96C1.2652 178.96 1.6317 178.601 1.6317 178.151V178.139C1.6317 177.69 1.26771 177.323 0.81585 177.323C0.363995 177.323 0 177.69 0 178.139Z" fill="#80CFD4"/>
<path d="M0.81585 13.6812C1.2652 13.6812 1.6317 14.0452 1.6317 14.4971V14.5197C1.6317 14.969 1.26771 15.323 0.81585 15.323C0.363995 15.323 0 14.9464 0 14.4971C0 14.0477 0.363995 13.6812 0.81585 13.6812ZM0.81585 27.3197C1.2652 27.3197 1.6317 27.6837 1.6317 28.1356V28.1582C1.6317 28.6075 1.26771 28.9615 0.81585 28.9615C0.363995 28.9615 0 28.5849 0 28.1356C0 27.6837 0.363995 27.3197 0.81585 27.3197ZM0.81585 40.9557C1.2652 40.9557 1.6317 41.3197 1.6317 41.7716V41.7942C1.6317 42.2435 1.26771 42.5975 0.81585 42.5975C0.363995 42.5975 0 42.2209 0 41.7716C0 41.3197 0.363995 40.9557 0.81585 40.9557ZM0.81585 54.5917C1.2652 54.5917 1.6317 54.9557 1.6317 55.4076V55.4302C1.6317 55.8795 1.26771 56.2335 0.81585 56.2335C0.363995 56.2335 0 55.8569 0 55.4076C0 54.9582 0.363995 54.5917 0.81585 54.5917ZM0.81585 68.2302C1.2652 68.2302 1.6317 68.5942 1.6317 69.0461V69.0687C1.6317 69.518 1.26771 69.872 0.81585 69.872C0.366505 69.872 0 69.4954 0 69.0461C0 68.5942 0.363995 68.2302 0.81585 68.2302ZM0.81585 81.8662C1.2652 81.8662 1.6317 82.2302 1.6317 82.6821V82.7047C1.6317 83.154 1.26771 83.508 0.81585 83.508C0.366505 83.508 0 83.1314 0 82.6821C0 82.2302 0.363995 81.8662 0.81585 81.8662ZM0.81585 95.5022C1.2652 95.5022 1.6317 95.8662 1.6317 96.318V96.3407C1.6317 96.79 1.26771 97.1439 0.81585 97.1439C0.366505 97.1439 0 96.7674 0 96.318C0 95.8687 0.363995 95.5022 0.81585 95.5022ZM0.81585 109.141C1.2652 109.141 1.6317 109.505 1.6317 109.957V109.979C1.6317 110.428 1.26771 110.782 0.81585 110.782C0.363995 110.782 0 110.406 0 109.957C0 109.505 0.363995 109.141 0.81585 109.141ZM0.81585 122.777C1.2652 122.777 1.6317 123.141 1.6317 123.593V123.615C1.6317 124.064 1.26771 124.418 0.81585 124.418C0.363995 124.418 0 124.042 0 123.593C0 123.143 0.363995 122.777 0.81585 122.777ZM0.81585 136.413C1.2652 136.413 1.6317 136.777 1.6317 137.229V137.251C1.6317 137.7 1.26771 138.054 0.81585 138.054C0.363995 138.054 0 137.678 0 137.229C0 136.779 0.363995 136.413 0.81585 136.413ZM0.81585 150.051C1.2652 150.051 1.6317 150.415 1.6317 150.867V150.89C1.6317 151.339 1.26771 151.693 0.81585 151.693C0.366505 151.693 0 151.316 0 150.867C0 150.418 0.363995 150.051 0.81585 150.051ZM0.81585 163.687C1.2652 163.687 1.6317 164.051 1.6317 164.503V164.526C1.6317 164.975 1.26771 165.329 0.81585 165.329C0.366505 165.329 0 164.952 0 164.503C0 164.054 0.363995 163.687 0.81585 163.687Z" fill="#80CFD4"/>
<path d="M0 0.871041C0 1.32039 0.363995 1.6919 0.81585 1.6919C1.2652 1.6919 1.6317 1.33293 1.6317 0.88359V0.871041C1.6317 0.421696 1.26771 0.055191 0.81585 0.055191C0.363995 0.055191 0 0.421696 0 0.871041Z" fill="#80CFD4"/>
<path d="M0 178.197C0 178.646 0.363995 179.018 0.81585 179.018C1.2652 179.018 1.6317 178.659 1.6317 178.209V178.197C1.6317 177.747 1.26771 177.381 0.81585 177.381C0.363995 177.381 0 177.745 0 178.197Z" fill="#80CFD4"/>
<path d="M177.326 0.815774C177.326 1.26512 177.69 1.63665 178.142 1.63665C178.591 1.63665 178.957 1.27767 178.957 0.828322V0.815774C178.957 0.366429 178.593 -7.62939e-05 178.142 -7.62939e-05C177.69 -7.62939e-05 177.326 0.363918 177.326 0.815774Z" fill="#80CFD4"/>
<path d="M163.687 0.815774C163.687 1.26512 164.051 1.63665 164.503 1.63665C164.952 1.63665 165.319 1.27767 165.319 0.828322V0.815774C165.319 0.366429 164.955 -7.62939e-05 164.503 -7.62939e-05C164.054 -7.62939e-05 163.687 0.363918 163.687 0.815774Z" fill="#80CFD4"/>
<path d="M150.051 0.815774C150.051 1.26512 150.415 1.63665 150.867 1.63665C151.319 1.63665 151.683 1.27767 151.683 0.828322V0.815774C151.683 0.366429 151.319 -7.62939e-05 150.867 -7.62939e-05C150.415 -7.62939e-05 150.051 0.363918 150.051 0.815774Z" fill="#80CFD4"/>
<path d="M136.413 0.815774C136.413 1.26512 136.777 1.63665 137.228 1.63665C137.678 1.63665 138.044 1.27767 138.044 0.828322V0.815774C138.044 0.366429 137.68 -7.62939e-05 137.228 -7.62939e-05C136.779 -7.62939e-05 136.413 0.363918 136.413 0.815774Z" fill="#80CFD4"/>
<path d="M122.777 0.815774C122.777 1.26512 123.141 1.63665 123.592 1.63665C124.042 1.63665 124.408 1.27767 124.408 0.828322V0.815774C124.408 0.366429 124.044 -7.62939e-05 123.592 -7.62939e-05C123.143 -7.62939e-05 122.777 0.363918 122.777 0.815774Z" fill="#80CFD4"/>
<path d="M109.141 0.815774C109.141 1.26512 109.505 1.63665 109.957 1.63665C110.408 1.63665 110.772 1.27767 110.772 0.828322V0.815774C110.772 0.366429 110.408 -7.62939e-05 109.957 -7.62939e-05C109.505 -7.62939e-05 109.141 0.363918 109.141 0.815774Z" fill="#80CFD4"/>
<path d="M95.5021 0.815774C95.5021 1.26512 95.8661 1.63665 96.318 1.63665C96.7673 1.63665 97.1338 1.27767 97.1338 0.828322V0.815774C97.1338 0.366429 96.7698 -7.62939e-05 96.318 -7.62939e-05C95.8686 -7.62939e-05 95.5021 0.363918 95.5021 0.815774Z" fill="#80CFD4"/>
<path d="M81.8662 0.815774C81.8662 1.26512 82.2302 1.63665 82.682 1.63665C83.1314 1.63665 83.4979 1.27767 83.4979 0.828322V0.815774C83.4979 0.366429 83.1339 -7.62939e-05 82.682 -7.62939e-05C82.2302 -7.62939e-05 81.8662 0.363918 81.8662 0.815774Z" fill="#80CFD4"/>
<path d="M68.2301 0.815774C68.2301 1.26512 68.5941 1.63665 69.046 1.63665C69.4953 1.63665 69.8618 1.27767 69.8618 0.828322V0.815774C69.8618 0.366429 69.4979 -7.62939e-05 69.046 -7.62939e-05C68.5941 -7.62939e-05 68.2301 0.363918 68.2301 0.815774Z" fill="#80CFD4"/>
<path d="M54.5917 0.815774C54.5917 1.26512 54.9557 1.63665 55.4075 1.63665C55.8569 1.63665 56.2234 1.27767 56.2234 0.828322V0.815774C56.2234 0.366429 55.8594 -7.62939e-05 55.4075 -7.62939e-05C54.9582 -7.62939e-05 54.5917 0.363918 54.5917 0.815774Z" fill="#80CFD4"/>
<path d="M40.9557 0.815774C40.9557 1.26512 41.3197 1.63665 41.7715 1.63665C42.2209 1.63665 42.5874 1.27767 42.5874 0.828322V0.815774C42.5874 0.366429 42.2234 -7.62939e-05 41.7715 -7.62939e-05C41.3197 -7.62939e-05 40.9557 0.363918 40.9557 0.815774Z" fill="#80CFD4"/>
<path d="M27.3197 0.815774C27.3197 1.26512 27.6837 1.63665 28.1355 1.63665C28.5874 1.63665 28.9514 1.27767 28.9514 0.828322V0.815774C28.9514 0.366429 28.5874 -7.62939e-05 28.1355 -7.62939e-05C27.6837 -7.62939e-05 27.3197 0.363918 27.3197 0.815774Z" fill="#80CFD4"/>
<path d="M13.6812 0.815774C13.6812 1.26512 14.0452 1.63665 14.497 1.63665C14.9464 1.63665 15.3129 1.27767 15.3129 0.828322V0.815774C15.3129 0.366429 14.9489 -7.62939e-05 14.497 -7.62939e-05C14.0477 -7.62939e-05 13.6812 0.363918 13.6812 0.815774Z" fill="#80CFD4"/>
<path d="M0.0451584 0.81585C0.0451584 1.2652 0.409153 1.63673 0.861009 1.63673C1.31035 1.63673 1.67686 1.27774 1.67686 0.828398V0.81585C1.67686 0.366505 1.31286 0 0.861009 0C0.409153 0 0.0451584 0.363995 0.0451584 0.81585Z" fill="#80CFD4"/>
<path d="M177.323 178.139C177.323 178.588 177.687 178.96 178.139 178.96C178.588 178.96 178.955 178.601 178.955 178.151V178.139C178.955 177.69 178.591 177.323 178.139 177.323C177.69 177.323 177.323 177.69 177.323 178.139Z" fill="#80CFD4"/>
<path d="M178.139 13.6812C178.588 13.6812 178.955 14.0452 178.955 14.497V14.5196C178.955 14.969 178.591 15.3229 178.139 15.3229C177.69 15.3229 177.323 14.9464 177.323 14.497C177.326 14.0477 177.69 13.6812 178.139 13.6812ZM178.139 27.3197C178.588 27.3197 178.955 27.6837 178.955 28.1355V28.1581C178.955 28.6075 178.591 28.9614 178.139 28.9614C177.69 28.9614 177.323 28.5849 177.323 28.1355C177.326 27.6837 177.69 27.3197 178.139 27.3197ZM178.139 40.9557C178.588 40.9557 178.955 41.3197 178.955 41.7715V41.7941C178.955 42.2434 178.591 42.5974 178.139 42.5974C177.687 42.5974 177.323 42.2209 177.323 41.7715C177.326 41.3197 177.69 40.9557 178.139 40.9557ZM178.139 54.5917C178.588 54.5917 178.955 54.9557 178.955 55.4075V55.4301C178.955 55.8794 178.591 56.2334 178.139 56.2334C177.687 56.2334 177.323 55.8569 177.323 55.4075C177.326 54.9582 177.69 54.5917 178.139 54.5917ZM178.139 68.2302C178.588 68.2302 178.955 68.5941 178.955 69.046V69.0686C178.955 69.5179 178.591 69.8719 178.139 69.8719C177.687 69.8719 177.323 69.4953 177.323 69.046C177.326 68.5941 177.69 68.2302 178.139 68.2302ZM178.139 81.8661C178.588 81.8661 178.955 82.2301 178.955 82.682V82.7046C178.955 83.1539 178.591 83.5079 178.139 83.5079C177.69 83.5079 177.323 83.1313 177.323 82.682C177.326 82.2301 177.69 81.8661 178.139 81.8661ZM178.139 95.5021C178.588 95.5021 178.955 95.8661 178.955 96.318V96.3406C178.955 96.7899 178.591 97.1439 178.139 97.1439C177.69 97.1439 177.323 96.7673 177.323 96.318C177.326 95.8686 177.69 95.5021 178.139 95.5021ZM178.139 109.141C178.588 109.141 178.955 109.505 178.955 109.956V109.979C178.955 110.428 178.591 110.782 178.139 110.782C177.69 110.782 177.323 110.406 177.323 109.956C177.326 109.505 177.69 109.141 178.139 109.141ZM178.139 122.777C178.588 122.777 178.955 123.141 178.955 123.592V123.615C178.955 124.064 178.591 124.418 178.139 124.418C177.687 124.418 177.323 124.042 177.323 123.592C177.323 123.143 177.69 122.777 178.139 122.777ZM178.139 136.413C178.588 136.413 178.955 136.777 178.955 137.228V137.251C178.955 137.7 178.591 138.054 178.139 138.054C177.687 138.054 177.323 137.678 177.323 137.228C177.323 136.779 177.69 136.413 178.139 136.413ZM178.139 150.051C178.588 150.051 178.955 150.415 178.955 150.867V150.89C178.955 151.339 178.591 151.693 178.139 151.693C177.687 151.693 177.323 151.316 177.323 150.867C177.323 150.418 177.69 150.051 178.139 150.051ZM178.139 163.687C178.588 163.687 178.955 164.051 178.955 164.503V164.526C178.955 164.975 178.591 165.329 178.139 165.329C177.687 165.329 177.323 164.952 177.323 164.503C177.323 164.054 177.69 163.687 178.139 163.687Z" fill="#80CFD4"/>
<path d="M177.326 0.871033C177.326 1.32038 177.69 1.69189 178.141 1.69189C178.591 1.69189 178.957 1.33293 178.957 0.883582V0.871033C178.957 0.421688 178.593 0.0551834 178.141 0.0551834C177.69 0.0551834 177.326 0.421688 177.326 0.871033Z" fill="#80CFD4"/>
<path d="M163.687 178.139C163.687 178.588 164.051 178.96 164.503 178.96C164.952 178.96 165.319 178.601 165.319 178.151V178.139C165.319 177.69 164.955 177.323 164.503 177.323C164.054 177.323 163.687 177.69 163.687 178.139Z" fill="#80CFD4"/>
<path d="M164.503 13.6812C164.952 13.6812 165.319 14.0452 165.319 14.497V14.5196C165.319 14.969 164.955 15.3229 164.503 15.3229C164.051 15.3229 163.687 14.9464 163.687 14.497C163.687 14.0477 164.054 13.6812 164.503 13.6812ZM164.503 27.3197C164.952 27.3197 165.319 27.6837 165.319 28.1355V28.1581C165.319 28.6075 164.955 28.9614 164.503 28.9614C164.051 28.9614 163.687 28.5849 163.687 28.1355C163.687 27.6837 164.054 27.3197 164.503 27.3197ZM164.503 40.9557C164.952 40.9557 165.319 41.3197 165.319 41.7715V41.7941C165.319 42.2434 164.955 42.5974 164.503 42.5974C164.051 42.5974 163.687 42.2209 163.687 41.7715C163.687 41.3197 164.054 40.9557 164.503 40.9557ZM164.503 54.5917C164.952 54.5917 165.319 54.9557 165.319 55.4075V55.4301C165.319 55.8794 164.955 56.2334 164.503 56.2334C164.054 56.2334 163.687 55.8569 163.687 55.4075C163.687 54.9582 164.054 54.5917 164.503 54.5917ZM164.503 68.2302C164.952 68.2302 165.319 68.5941 165.319 69.046V69.0686C165.319 69.5179 164.955 69.8719 164.503 69.8719C164.054 69.8719 163.687 69.4953 163.687 69.046C163.687 68.5941 164.054 68.2302 164.503 68.2302ZM164.503 81.8661C164.952 81.8661 165.319 82.2301 165.319 82.682V82.7046C165.319 83.1539 164.955 83.5079 164.503 83.5079C164.054 83.5079 163.687 83.1313 163.687 82.682C163.687 82.2301 164.054 81.8661 164.503 81.8661ZM164.503 95.5021C164.952 95.5021 165.319 95.8661 165.319 96.318V96.3406C165.319 96.7899 164.955 97.1439 164.503 97.1439C164.051 97.1439 163.687 96.7673 163.687 96.318C163.687 95.8686 164.054 95.5021 164.503 95.5021ZM164.503 109.141C164.952 109.141 165.319 109.505 165.319 109.956V109.979C165.319 110.428 164.955 110.782 164.503 110.782C164.051 110.782 163.687 110.406 163.687 109.956C163.687 109.505 164.054 109.141 164.503 109.141ZM164.503 122.777C164.952 122.777 165.319 123.141 165.319 123.592V123.615C165.319 124.064 164.955 124.418 164.503 124.418C164.051 124.418 163.687 124.042 163.687 123.592C163.687 123.143 164.054 122.777 164.503 122.777ZM164.503 136.413C164.952 136.413 165.319 136.777 165.319 137.228V137.251C165.319 137.7 164.955 138.054 164.503 138.054C164.051 138.054 163.687 137.678 163.687 137.228C163.687 136.779 164.054 136.413 164.503 136.413ZM164.503 150.051C164.952 150.051 165.319 150.415 165.319 150.867V150.89C165.319 151.339 164.955 151.693 164.503 151.693C164.054 151.693 163.687 151.316 163.687 150.867C163.687 150.418 164.054 150.051 164.503 150.051ZM164.503 163.687C164.952 163.687 165.319 164.051 165.319 164.503V164.526C165.319 164.975 164.955 165.329 164.503 165.329C164.054 165.329 163.687 164.952 163.687 164.503C163.687 164.054 164.054 163.687 164.503 163.687Z" fill="#80CFD4"/>
<path d="M163.687 0.87098C163.687 1.32033 164.051 1.69184 164.503 1.69184C164.952 1.69184 165.319 1.33287 165.319 0.883528V0.87098C165.319 0.421635 164.955 0.05513 164.503 0.05513C164.054 0.05513 163.687 0.421635 163.687 0.87098Z" fill="#80CFD4"/>
<path d="M150.051 178.139C150.051 178.588 150.415 178.96 150.867 178.96C151.319 178.96 151.683 178.601 151.683 178.151V178.139C151.683 177.69 151.319 177.323 150.867 177.323C150.415 177.323 150.051 177.69 150.051 178.139Z" fill="#80CFD4"/>
<path d="M150.867 13.6812C151.316 13.6812 151.683 14.0452 151.683 14.497V14.5196C151.683 14.969 151.319 15.3229 150.867 15.3229C150.415 15.3229 150.051 14.9464 150.051 14.497C150.051 14.0477 150.415 13.6812 150.867 13.6812ZM150.867 27.3197C151.316 27.3197 151.683 27.6837 151.683 28.1355V28.1581C151.683 28.6075 151.319 28.9614 150.867 28.9614C150.418 28.9614 150.051 28.5849 150.051 28.1355C150.051 27.6837 150.415 27.3197 150.867 27.3197ZM150.867 40.9557C151.316 40.9557 151.683 41.3197 151.683 41.7715V41.7941C151.683 42.2434 151.319 42.5974 150.867 42.5974C150.418 42.5974 150.051 42.2209 150.051 41.7715C150.051 41.3197 150.415 40.9557 150.867 40.9557ZM150.867 54.5917C151.316 54.5917 151.683 54.9557 151.683 55.4075V55.4301C151.683 55.8794 151.319 56.2334 150.867 56.2334C150.418 56.2334 150.051 55.8569 150.051 55.4075C150.051 54.9582 150.415 54.5917 150.867 54.5917ZM150.867 68.2302C151.316 68.2302 151.683 68.5941 151.683 69.046V69.0686C151.683 69.5179 151.319 69.8719 150.867 69.8719C150.415 69.8719 150.051 69.4953 150.051 69.046C150.051 68.5941 150.415 68.2302 150.867 68.2302ZM150.867 81.8661C151.316 81.8661 151.683 82.2301 151.683 82.682V82.7046C151.683 83.1539 151.319 83.5079 150.867 83.5079C150.415 83.5079 150.051 83.1313 150.051 82.682C150.051 82.2301 150.415 81.8661 150.867 81.8661ZM150.867 95.5021C151.316 95.5021 151.683 95.8661 151.683 96.318V96.3406C151.683 96.7899 151.319 97.1439 150.867 97.1439C150.415 97.1439 150.051 96.7673 150.051 96.318C150.051 95.8686 150.415 95.5021 150.867 95.5021ZM150.867 109.141C151.316 109.141 151.683 109.505 151.683 109.956V109.979C151.683 110.428 151.319 110.782 150.867 110.782C150.418 110.782 150.051 110.406 150.051 109.956C150.051 109.505 150.415 109.141 150.867 109.141ZM150.867 122.777C151.316 122.777 151.683 123.141 151.683 123.592V123.615C151.683 124.064 151.319 124.418 150.867 124.418C150.418 124.418 150.051 124.042 150.051 123.592C150.051 123.143 150.415 122.777 150.867 122.777ZM150.864 136.413C151.314 136.413 151.68 136.777 151.68 137.228V137.251C151.68 137.7 151.316 138.054 150.864 138.054C150.415 138.054 150.049 137.678 150.049 137.228C150.051 136.779 150.415 136.413 150.864 136.413ZM150.864 150.051C151.314 150.051 151.68 150.415 151.68 150.867V150.89C151.68 151.339 151.316 151.693 150.864 151.693C150.413 151.693 150.049 151.316 150.049 150.867C150.049 150.418 150.415 150.051 150.864 150.051ZM150.864 163.687C151.314 163.687 151.68 164.051 151.68 164.503V164.526C151.68 164.975 151.316 165.329 150.864 165.329C150.413 165.329 150.049 164.952 150.049 164.503C150.049 164.054 150.415 163.687 150.864 163.687Z" fill="#80CFD4"/>
<path d="M150.051 0.871018C150.051 1.32036 150.415 1.69188 150.867 1.69188C151.319 1.69188 151.683 1.33291 151.683 0.883567V0.871018C151.683 0.421673 151.319 0.0551682 150.867 0.0551682C150.415 0.0551682 150.051 0.421673 150.051 0.871018Z" fill="#80CFD4"/>
<path d="M136.413 178.139C136.413 178.588 136.777 178.96 137.228 178.96C137.678 178.96 138.044 178.601 138.044 178.151V178.139C138.044 177.69 137.68 177.323 137.228 177.323C136.779 177.323 136.413 177.69 136.413 178.139Z" fill="#80CFD4"/>
<path d="M137.228 13.6812C137.678 13.6812 138.044 14.0452 138.044 14.497V14.5196C138.044 14.969 137.68 15.3229 137.228 15.3229C136.779 15.3229 136.413 14.9464 136.413 14.497C136.413 14.0477 136.779 13.6812 137.228 13.6812ZM137.228 27.3197C137.678 27.3197 138.044 27.6837 138.044 28.1355V28.1581C138.044 28.6075 137.68 28.9614 137.228 28.9614C136.779 28.9614 136.413 28.5849 136.413 28.1355C136.413 27.6837 136.779 27.3197 137.228 27.3197ZM137.228 40.9557C137.678 40.9557 138.044 41.3197 138.044 41.7715V41.7941C138.044 42.2434 137.68 42.5974 137.228 42.5974C136.777 42.5974 136.413 42.2209 136.413 41.7715C136.413 41.3222 136.779 40.9557 137.228 40.9557ZM137.228 54.5917C137.678 54.5917 138.044 54.9557 138.044 55.4075V55.4301C138.044 55.8794 137.68 56.2334 137.228 56.2334C136.777 56.2334 136.413 55.8569 136.413 55.4075C136.413 54.9582 136.779 54.5917 137.228 54.5917ZM137.228 68.2302C137.678 68.2302 138.044 68.5941 138.044 69.046V69.0686C138.044 69.5179 137.68 69.8719 137.228 69.8719C136.777 69.8719 136.413 69.4953 136.413 69.046C136.413 68.5941 136.779 68.2302 137.228 68.2302ZM137.228 81.8661C137.678 81.8661 138.044 82.2301 138.044 82.682V82.7046C138.044 83.1539 137.68 83.5079 137.228 83.5079C136.779 83.5079 136.413 83.1313 136.413 82.682C136.413 82.2327 136.779 81.8661 137.228 81.8661ZM137.228 95.5021C137.678 95.5021 138.044 95.8661 138.044 96.318V96.3406C138.044 96.7899 137.68 97.1439 137.228 97.1439C136.779 97.1439 136.413 96.7673 136.413 96.318C136.413 95.8686 136.779 95.5021 137.228 95.5021ZM137.228 109.141C137.678 109.141 138.044 109.505 138.044 109.956V109.979C138.044 110.428 137.68 110.782 137.228 110.782C136.779 110.782 136.413 110.406 136.413 109.956C136.413 109.505 136.779 109.141 137.228 109.141ZM137.228 122.777C137.678 122.777 138.044 123.141 138.044 123.592V123.615C138.044 124.064 137.68 124.418 137.228 124.418C136.777 124.418 136.413 124.042 136.413 123.592C136.413 123.143 136.779 122.777 137.228 122.777ZM137.228 136.413C137.678 136.413 138.044 136.777 138.044 137.228V137.251C138.044 137.7 137.68 138.054 137.228 138.054C136.779 138.054 136.413 137.678 136.413 137.228C136.413 136.779 136.779 136.413 137.228 136.413ZM137.228 150.051C137.678 150.051 138.044 150.415 138.044 150.867V150.89C138.044 151.339 137.68 151.693 137.228 151.693C136.777 151.693 136.413 151.316 136.413 150.867C136.413 150.418 136.779 150.051 137.228 150.051ZM137.228 163.687C137.678 163.687 138.044 164.051 138.044 164.503V164.526C138.044 164.975 137.68 165.329 137.228 165.329C136.777 165.329 136.413 164.952 136.413 164.503C136.413 164.054 136.779 163.687 137.228 163.687Z" fill="#80CFD4"/>
<path d="M136.413 0.87098C136.413 1.32033 136.777 1.69184 137.228 1.69184C137.678 1.69184 138.044 1.33287 138.044 0.883528V0.87098C138.044 0.421635 137.68 0.05513 137.228 0.05513C136.779 0.05513 136.413 0.421635 136.413 0.87098Z" fill="#80CFD4"/>
<path d="M122.777 178.139C122.777 178.588 123.141 178.96 123.592 178.96C124.042 178.96 124.408 178.601 124.408 178.151V178.139C124.408 177.69 124.044 177.323 123.592 177.323C123.141 177.323 122.777 177.69 122.777 178.139Z" fill="#80CFD4"/>
<path d="M123.592 13.6812C124.042 13.6812 124.408 14.0452 124.408 14.497V14.5196C124.408 14.969 124.044 15.3229 123.592 15.3229C123.141 15.3229 122.777 14.9464 122.777 14.497C122.777 14.0477 123.143 13.6812 123.592 13.6812ZM123.592 27.3197C124.042 27.3197 124.408 27.6837 124.408 28.1355V28.1581C124.408 28.6075 124.044 28.9614 123.592 28.9614C123.141 28.9614 122.777 28.5849 122.777 28.1355C122.777 27.6837 123.143 27.3197 123.592 27.3197ZM123.592 40.9557C124.042 40.9557 124.408 41.3197 124.408 41.7715V41.7941C124.408 42.2434 124.044 42.5974 123.592 42.5974C123.141 42.5974 122.777 42.2209 122.777 41.7715C122.777 41.3197 123.143 40.9557 123.592 40.9557ZM123.592 54.5917C124.042 54.5917 124.408 54.9557 124.408 55.4075V55.4301C124.408 55.8794 124.044 56.2334 123.592 56.2334C123.143 56.2334 122.777 55.8569 122.777 55.4075C122.777 54.9582 123.143 54.5917 123.592 54.5917ZM123.592 68.2302C124.042 68.2302 124.408 68.5941 124.408 69.046V69.0686C124.408 69.5179 124.044 69.8719 123.592 69.8719C123.143 69.8719 122.777 69.4953 122.777 69.046C122.777 68.5941 123.143 68.2302 123.592 68.2302ZM123.592 81.8661C124.042 81.8661 124.408 82.2301 124.408 82.682V82.7046C124.408 83.1539 124.044 83.5079 123.592 83.5079C123.143 83.5079 122.777 83.1313 122.777 82.682C122.777 82.2301 123.143 81.8661 123.592 81.8661ZM123.592 95.5021C124.042 95.5021 124.408 95.8661 124.408 96.318V96.3406C124.408 96.7899 124.044 97.1439 123.592 97.1439C123.141 97.1439 122.777 96.7673 122.777 96.318C122.777 95.8686 123.141 95.5021 123.592 95.5021ZM123.592 109.141C124.042 109.141 124.408 109.505 124.408 109.956V109.979C124.408 110.428 124.044 110.782 123.592 110.782C123.141 110.782 122.777 110.406 122.777 109.956C122.777 109.505 123.141 109.141 123.592 109.141ZM123.592 122.777C124.042 122.777 124.408 123.141 124.408 123.592V123.615C124.408 124.064 124.044 124.418 123.592 124.418C123.141 124.418 122.777 124.042 122.777 123.592C122.777 123.141 123.141 122.777 123.592 122.777ZM123.592 136.413C124.042 136.413 124.408 136.777 124.408 137.228V137.251C124.408 137.7 124.044 138.054 123.592 138.054C123.141 138.054 122.777 137.678 122.777 137.228C122.777 136.779 123.141 136.413 123.592 136.413ZM123.592 150.051C124.042 150.051 124.408 150.415 124.408 150.867V150.89C124.408 151.339 124.044 151.693 123.592 151.693C123.143 151.693 122.777 151.316 122.777 150.867C122.777 150.418 123.141 150.051 123.592 150.051ZM123.592 163.687C124.042 163.687 124.408 164.051 124.408 164.503V164.526C124.408 164.975 124.044 165.329 123.592 165.329C123.143 165.329 122.777 164.952 122.777 164.503C122.777 164.051 123.141 163.687 123.592 163.687Z" fill="#80CFD4"/>
<path d="M122.777 0.87098C122.777 1.32033 123.141 1.69184 123.592 1.69184C124.042 1.69184 124.408 1.33287 124.408 0.883528V0.87098C124.408 0.421635 124.044 0.05513 123.592 0.05513C123.143 0.05513 122.777 0.421635 122.777 0.87098Z" fill="#80CFD4"/>
<path d="M109.141 178.139C109.141 178.588 109.505 178.96 109.957 178.96C110.406 178.96 110.772 178.601 110.772 178.151V178.139C110.772 177.69 110.408 177.323 109.957 177.323C109.505 177.323 109.141 177.69 109.141 178.139Z" fill="#80CFD4"/>
<path d="M109.954 13.6812C110.403 13.6812 110.77 14.0452 110.77 14.497V14.5196C110.77 14.969 110.406 15.3229 109.954 15.3229C109.502 15.3229 109.138 14.9464 109.138 14.497C109.141 14.0477 109.505 13.6812 109.954 13.6812ZM109.954 27.3197C110.403 27.3197 110.77 27.6837 110.77 28.1355V28.1581C110.77 28.6075 110.406 28.9614 109.954 28.9614C109.505 28.9614 109.138 28.5849 109.138 28.1355C109.141 27.6837 109.505 27.3197 109.954 27.3197ZM109.954 40.9557C110.403 40.9557 110.77 41.3197 110.77 41.7715V41.7941C110.77 42.2434 110.406 42.5974 109.954 42.5974C109.505 42.5974 109.138 42.2209 109.138 41.7715C109.141 41.3197 109.505 40.9557 109.954 40.9557ZM109.954 54.5917C110.403 54.5917 110.77 54.9557 110.77 55.4075V55.4301C110.77 55.8794 110.406 56.2334 109.954 56.2334C109.505 56.2334 109.138 55.8569 109.138 55.4075C109.141 54.9582 109.505 54.5917 109.954 54.5917ZM109.954 68.2302C110.403 68.2302 110.77 68.5941 110.77 69.046V69.0686C110.77 69.5179 110.406 69.8719 109.954 69.8719C109.502 69.8719 109.138 69.4953 109.138 69.046C109.141 68.5941 109.505 68.2302 109.954 68.2302ZM109.954 81.8661C110.403 81.8661 110.77 82.2301 110.77 82.682V82.7046C110.77 83.1539 110.406 83.5079 109.954 83.5079C109.502 83.5079 109.138 83.1313 109.138 82.682C109.141 82.2301 109.505 81.8661 109.954 81.8661ZM109.954 95.5021C110.403 95.5021 110.77 95.8661 110.77 96.318V96.3406C110.77 96.7899 110.406 97.1439 109.954 97.1439C109.502 97.1439 109.138 96.7673 109.138 96.318C109.141 95.8686 109.505 95.5021 109.954 95.5021ZM109.954 109.141C110.403 109.141 110.77 109.505 110.77 109.956V109.979C110.77 110.428 110.406 110.782 109.954 110.782C109.502 110.782 109.138 110.406 109.138 109.956C109.141 109.505 109.505 109.141 109.954 109.141ZM109.954 122.777C110.403 122.777 110.77 123.141 110.77 123.592V123.615C110.77 124.064 110.406 124.418 109.954 124.418C109.505 124.418 109.138 124.042 109.138 123.592C109.138 123.143 109.505 122.777 109.954 122.777ZM109.954 136.413C110.403 136.413 110.77 136.777 110.77 137.228V137.251C110.77 137.7 110.406 138.054 109.954 138.054C109.505 138.054 109.138 137.678 109.138 137.228C109.138 136.779 109.505 136.413 109.954 136.413ZM109.954 150.051C110.403 150.051 110.77 150.415 110.77 150.867V150.89C110.77 151.339 110.406 151.693 109.954 151.693C109.502 151.693 109.138 151.316 109.138 150.867C109.138 150.418 109.505 150.051 109.954 150.051ZM109.954 163.687C110.403 163.687 110.77 164.051 110.77 164.503V164.526C110.77 164.975 110.406 165.329 109.954 165.329C109.502 165.329 109.138 164.952 109.138 164.503C109.138 164.054 109.505 163.687 109.954 163.687Z" fill="#80CFD4"/>
<path d="M109.141 0.871033C109.141 1.32038 109.505 1.69189 109.956 1.69189C110.408 1.69189 110.772 1.33293 110.772 0.883582V0.871033C110.772 0.421688 110.408 0.0551834 109.956 0.0551834C109.505 0.0551834 109.141 0.421688 109.141 0.871033Z" fill="#80CFD4"/>
<path d="M95.5021 178.139C95.5021 178.588 95.8661 178.96 96.318 178.96C96.7673 178.96 97.1338 178.601 97.1338 178.151V178.139C97.1338 177.69 96.7698 177.323 96.318 177.323C95.8686 177.323 95.5021 177.69 95.5021 178.139Z" fill="#80CFD4"/>
<path d="M96.318 13.6812C96.7673 13.6812 97.1338 14.0452 97.1338 14.497V14.5196C97.1338 14.969 96.7698 15.3229 96.318 15.3229C95.8686 15.3229 95.5021 14.9464 95.5021 14.497C95.5021 14.0477 95.8686 13.6812 96.318 13.6812ZM96.318 27.3197C96.7673 27.3197 97.1338 27.6837 97.1338 28.1355V28.1581C97.1338 28.6075 96.7698 28.9614 96.318 28.9614C95.8686 28.9614 95.5021 28.5849 95.5021 28.1355C95.5021 27.6862 95.8686 27.3197 96.318 27.3197ZM96.318 40.9557C96.7673 40.9557 97.1338 41.3197 97.1338 41.7715V41.7941C97.1338 42.2434 96.7698 42.5974 96.318 42.5974C95.8661 42.5974 95.5021 42.2209 95.5021 41.7715C95.5021 41.3197 95.8686 40.9557 96.318 40.9557ZM96.318 54.5917C96.7673 54.5917 97.1338 54.9557 97.1338 55.4075V55.4301C97.1338 55.8794 96.7698 56.2334 96.318 56.2334C95.8661 56.2334 95.5021 55.8569 95.5021 55.4075C95.5021 54.9582 95.8686 54.5917 96.318 54.5917ZM96.318 68.2302C96.7673 68.2302 97.1338 68.5941 97.1338 69.046V69.0686C97.1338 69.5179 96.7698 69.8719 96.318 69.8719C95.8661 69.8719 95.5021 69.4953 95.5021 69.046C95.5021 68.5967 95.8686 68.2302 96.318 68.2302ZM96.318 81.8661C96.7673 81.8661 97.1338 82.2301 97.1338 82.682V82.7046C97.1338 83.1539 96.7698 83.5079 96.318 83.5079C95.8686 83.5079 95.5021 83.1313 95.5021 82.682C95.5021 82.2301 95.8686 81.8661 96.318 81.8661ZM96.318 95.5021C96.7673 95.5021 97.1338 95.8661 97.1338 96.318V96.3406C97.1338 96.7899 96.7698 97.1439 96.318 97.1439C95.8686 97.1439 95.5021 96.7673 95.5021 96.318C95.5021 95.8686 95.8686 95.5021 96.318 95.5021ZM96.318 109.141C96.7673 109.141 97.1338 109.505 97.1338 109.956V109.979C97.1338 110.428 96.7698 110.782 96.318 110.782C95.8686 110.782 95.5021 110.406 95.5021 109.956C95.5021 109.507 95.8686 109.141 96.318 109.141ZM96.318 122.777C96.7673 122.777 97.1338 123.141 97.1338 123.592V123.615C97.1338 124.064 96.7698 124.418 96.318 124.418C95.8661 124.418 95.5021 124.042 95.5021 123.592C95.5021 123.143 95.8686 122.777 96.318 122.777ZM96.318 136.413C96.7673 136.413 97.1338 136.777 97.1338 137.228V137.251C97.1338 137.7 96.7698 138.054 96.318 138.054C95.8661 138.054 95.5021 137.678 95.5021 137.228C95.5021 136.779 95.8686 136.413 96.318 136.413ZM96.318 150.051C96.7673 150.051 97.1338 150.415 97.1338 150.867V150.89C97.1338 151.339 96.7698 151.693 96.318 151.693C95.8661 151.693 95.5021 151.316 95.5021 150.867C95.5021 150.418 95.8686 150.051 96.318 150.051ZM96.318 163.687C96.7673 163.687 97.1338 164.051 97.1338 164.503V164.526C97.1338 164.975 96.7698 165.329 96.318 165.329C95.8661 165.329 95.5021 164.952 95.5021 164.503C95.5021 164.054 95.8686 163.687 96.318 163.687Z" fill="#80CFD4"/>
<path d="M95.5021 0.87098C95.5021 1.32033 95.8661 1.69184 96.318 1.69184C96.7673 1.69184 97.1338 1.33287 97.1338 0.883528V0.87098C97.1338 0.421635 96.7698 0.05513 96.318 0.05513C95.8686 0.05513 95.5021 0.421635 95.5021 0.87098Z" fill="#80CFD4"/>
<path d="M81.8662 178.139C81.8662 178.588 82.2302 178.96 82.682 178.96C83.1314 178.96 83.4979 178.601 83.4979 178.151V178.139C83.4979 177.69 83.1339 177.323 82.682 177.323C82.2302 177.323 81.8662 177.69 81.8662 178.139Z" fill="#80CFD4"/>
<path d="M82.682 13.6812C83.1314 13.6812 83.4979 14.0452 83.4979 14.497V14.5196C83.4979 14.969 83.1339 15.3229 82.682 15.3229C82.2327 15.3229 81.8662 14.9464 81.8662 14.497C81.8662 14.0477 82.2302 13.6812 82.682 13.6812ZM82.682 27.3197C83.1314 27.3197 83.4979 27.6837 83.4979 28.1355V28.1581C83.4979 28.6075 83.1339 28.9614 82.682 28.9614C82.2302 28.9614 81.8662 28.5849 81.8662 28.1355C81.8662 27.6837 82.2302 27.3197 82.682 27.3197ZM82.682 40.9557C83.1314 40.9557 83.4979 41.3197 83.4979 41.7715V41.7941C83.4979 42.2434 83.1339 42.5974 82.682 42.5974C82.2302 42.5974 81.8662 42.2209 81.8662 41.7715C81.8662 41.3197 82.2302 40.9557 82.682 40.9557ZM82.682 54.5917C83.1314 54.5917 83.4979 54.9557 83.4979 55.4075V55.4301C83.4979 55.8794 83.1339 56.2334 82.682 56.2334C82.2327 56.2334 81.8662 55.8569 81.8662 55.4075C81.8662 54.9582 82.2302 54.5917 82.682 54.5917ZM82.682 68.2302C83.1314 68.2302 83.4979 68.5941 83.4979 69.046V69.0686C83.4979 69.5179 83.1339 69.8719 82.682 69.8719C82.2327 69.8719 81.8662 69.4953 81.8662 69.046C81.8662 68.5941 82.2302 68.2302 82.682 68.2302ZM82.682 81.8661C83.1314 81.8661 83.4979 82.2301 83.4979 82.682V82.7046C83.4979 83.1539 83.1339 83.5079 82.682 83.5079C82.2327 83.5079 81.8662 83.1313 81.8662 82.682C81.8662 82.2301 82.2302 81.8661 82.682 81.8661ZM82.682 95.5021C83.1314 95.5021 83.4979 95.8661 83.4979 96.318V96.3406C83.4979 96.7899 83.1339 97.1439 82.682 97.1439C82.2302 97.1439 81.8662 96.7673 81.8662 96.318C81.8662 95.8686 82.2302 95.5021 82.682 95.5021ZM82.682 109.141C83.1314 109.141 83.4979 109.505 83.4979 109.956V109.979C83.4979 110.428 83.1339 110.782 82.682 110.782C82.2302 110.782 81.8662 110.406 81.8662 109.956C81.8662 109.505 82.2302 109.141 82.682 109.141ZM82.682 122.777C83.1314 122.777 83.4979 123.141 83.4979 123.592V123.615C83.4979 124.064 83.1339 124.418 82.682 124.418C82.2302 124.418 81.8662 124.042 81.8662 123.592C81.8662 123.141 82.2302 122.777 82.682 122.777ZM82.682 136.413C83.1314 136.413 83.4979 136.777 83.4979 137.228V137.251C83.4979 137.7 83.1339 138.054 82.682 138.054C82.2302 138.054 81.8662 137.678 81.8662 137.228C81.8662 136.779 82.2302 136.413 82.682 136.413ZM82.682 150.051C83.1314 150.051 83.4979 150.415 83.4979 150.867V150.89C83.4979 151.339 83.1339 151.693 82.682 151.693C82.2327 151.693 81.8662 151.316 81.8662 150.867C81.8662 150.415 82.2302 150.051 82.682 150.051ZM82.682 163.687C83.1314 163.687 83.4979 164.051 83.4979 164.503V164.526C83.4979 164.975 83.1339 165.329 82.682 165.329C82.2327 165.329 81.8662 164.952 81.8662 164.503C81.8662 164.054 82.2302 163.687 82.682 163.687Z" fill="#80CFD4"/>
<path d="M81.8662 0.87098C81.8662 1.32033 82.2302 1.69184 82.682 1.69184C83.1314 1.69184 83.4979 1.33287 83.4979 0.883528V0.87098C83.4979 0.421635 83.1339 0.05513 82.682 0.05513C82.2302 0.05513 81.8662 0.421635 81.8662 0.87098Z" fill="#80CFD4"/>
<path d="M68.2301 178.139C68.2301 178.588 68.5941 178.96 69.046 178.96C69.4979 178.96 69.8618 178.601 69.8618 178.151V178.139C69.8618 177.69 69.4979 177.323 69.046 177.323C68.5941 177.323 68.2301 177.69 68.2301 178.139Z" fill="#80CFD4"/>
<path d="M69.0435 13.6812C69.4928 13.6812 69.8593 14.0452 69.8593 14.497V14.5196C69.8593 14.969 69.4953 15.3229 69.0435 15.3229C68.5916 15.3229 68.2276 14.9464 68.2276 14.497C68.2301 14.0477 68.5941 13.6812 69.0435 13.6812ZM69.0435 27.3197C69.4928 27.3197 69.8593 27.6837 69.8593 28.1355V28.1581C69.8593 28.6075 69.4953 28.9614 69.0435 28.9614C68.5941 28.9614 68.2276 28.5849 68.2276 28.1355C68.2301 27.6837 68.5941 27.3197 69.0435 27.3197ZM69.0435 40.9557C69.4928 40.9557 69.8593 41.3197 69.8593 41.7715V41.7941C69.8593 42.2434 69.4953 42.5974 69.0435 42.5974C68.5941 42.5974 68.2276 42.2209 68.2276 41.7715C68.2301 41.3197 68.5941 40.9557 69.0435 40.9557ZM69.0435 54.5917C69.4928 54.5917 69.8593 54.9557 69.8593 55.4075V55.4301C69.8593 55.8794 69.4953 56.2334 69.0435 56.2334C68.5941 56.2334 68.2276 55.8569 68.2276 55.4075C68.2301 54.9582 68.5941 54.5917 69.0435 54.5917ZM69.0435 68.2302C69.4928 68.2302 69.8593 68.5941 69.8593 69.046V69.0686C69.8593 69.5179 69.4953 69.8719 69.0435 69.8719C68.5916 69.8719 68.2276 69.4953 68.2276 69.046C68.2301 68.5941 68.5941 68.2302 69.0435 68.2302ZM69.0435 81.8661C69.4928 81.8661 69.8593 82.2301 69.8593 82.682V82.7046C69.8593 83.1539 69.4953 83.5079 69.0435 83.5079C68.5916 83.5079 68.2276 83.1313 68.2276 82.682C68.2301 82.2301 68.5941 81.8661 69.0435 81.8661ZM69.0435 95.5021C69.4928 95.5021 69.8593 95.8661 69.8593 96.318V96.3406C69.8593 96.7899 69.4953 97.1439 69.0435 97.1439C68.5916 97.1439 68.2276 96.7673 68.2276 96.318C68.2301 95.8686 68.5941 95.5021 69.0435 95.5021ZM69.0435 109.141C69.4928 109.141 69.8593 109.505 69.8593 109.956V109.979C69.8593 110.428 69.4953 110.782 69.0435 110.782C68.5916 110.782 68.2276 110.406 68.2276 109.956C68.2301 109.505 68.5941 109.141 69.0435 109.141ZM69.0435 122.777C69.4928 122.777 69.8593 123.141 69.8593 123.592V123.615C69.8593 124.064 69.4953 124.418 69.0435 124.418C68.5941 124.418 68.2276 124.042 68.2276 123.592C68.2276 123.143 68.5941 122.777 69.0435 122.777ZM69.0435 136.413C69.4928 136.413 69.8593 136.777 69.8593 137.228V137.251C69.8593 137.7 69.4953 138.054 69.0435 138.054C68.5941 138.054 68.2276 137.678 68.2276 137.228C68.2276 136.779 68.5941 136.413 69.0435 136.413ZM69.0435 150.051C69.4928 150.051 69.8593 150.415 69.8593 150.867V150.89C69.8593 151.339 69.4953 151.693 69.0435 151.693C68.5941 151.693 68.2276 151.316 68.2276 150.867C68.2301 150.415 68.5941 150.051 69.0435 150.051ZM69.0435 163.687C69.4928 163.687 69.8593 164.051 69.8593 164.503V164.526C69.8593 164.975 69.4953 165.329 69.0435 165.329C68.5941 165.329 68.2276 164.952 68.2276 164.503C68.2276 164.054 68.5941 163.687 69.0435 163.687Z" fill="#80CFD4"/>
<path d="M68.2301 0.871033C68.2301 1.32038 68.5941 1.69189 69.0459 1.69189C69.4978 1.69189 69.8618 1.33293 69.8618 0.883582V0.871033C69.8618 0.421688 69.4978 0.0551834 69.0459 0.0551834C68.5941 0.0551834 68.2301 0.421688 68.2301 0.871033Z" fill="#80CFD4"/>
<path d="M54.5917 178.139C54.5917 178.588 54.9557 178.96 55.4075 178.96C55.8569 178.96 56.2234 178.601 56.2234 178.151V178.139C56.2234 177.69 55.8594 177.323 55.4075 177.323C54.9582 177.323 54.5917 177.69 54.5917 178.139Z" fill="#80CFD4"/>
<path d="M55.4075 13.6812C55.8569 13.6812 56.2234 14.0452 56.2234 14.497V14.5196C56.2234 14.969 55.8594 15.3229 55.4075 15.3229C54.9582 15.3229 54.5917 14.9464 54.5917 14.497C54.5917 14.0477 54.9582 13.6812 55.4075 13.6812ZM55.4075 27.3197C55.8569 27.3197 56.2234 27.6837 56.2234 28.1355V28.1581C56.2234 28.6075 55.8594 28.9614 55.4075 28.9614C54.9582 28.9614 54.5917 28.5849 54.5917 28.1355C54.5917 27.6837 54.9582 27.3197 55.4075 27.3197ZM55.4075 40.9557C55.8569 40.9557 56.2234 41.3197 56.2234 41.7715V41.7941C56.2234 42.2434 55.8594 42.5974 55.4075 42.5974C54.9557 42.5974 54.5917 42.2209 54.5917 41.7715C54.5917 41.3197 54.9582 40.9557 55.4075 40.9557ZM55.4075 54.5917C55.8569 54.5917 56.2234 54.9557 56.2234 55.4075V55.4301C56.2234 55.8794 55.8594 56.2334 55.4075 56.2334C54.9557 56.2334 54.5917 55.8569 54.5917 55.4075C54.5917 54.9582 54.9582 54.5917 55.4075 54.5917ZM55.4075 68.2302C55.8569 68.2302 56.2234 68.5941 56.2234 69.046V69.0686C56.2234 69.5179 55.8594 69.8719 55.4075 69.8719C54.9557 69.8719 54.5917 69.4953 54.5917 69.046C54.5917 68.5941 54.9582 68.2302 55.4075 68.2302ZM55.4075 81.8661C55.8569 81.8661 56.2234 82.2301 56.2234 82.682V82.7046C56.2234 83.1539 55.8594 83.5079 55.4075 83.5079C54.9582 83.5079 54.5917 83.1313 54.5917 82.682C54.5917 82.2301 54.9582 81.8661 55.4075 81.8661ZM55.4075 95.5021C55.8569 95.5021 56.2234 95.8661 56.2234 96.318V96.3406C56.2234 96.7899 55.8594 97.1439 55.4075 97.1439C54.9582 97.1439 54.5917 96.7673 54.5917 96.318C54.5917 95.8686 54.9582 95.5021 55.4075 95.5021ZM55.4075 109.141C55.8569 109.141 56.2234 109.505 56.2234 109.956V109.979C56.2234 110.428 55.8594 110.782 55.4075 110.782C54.9582 110.782 54.5917 110.406 54.5917 109.956C54.5917 109.505 54.9582 109.141 55.4075 109.141ZM55.4075 122.777C55.8569 122.777 56.2234 123.141 56.2234 123.592V123.615C56.2234 124.064 55.8594 124.418 55.4075 124.418C54.9557 124.418 54.5917 124.042 54.5917 123.592C54.5917 123.143 54.9582 122.777 55.4075 122.777ZM55.4075 136.413C55.8569 136.413 56.2234 136.777 56.2234 137.228V137.251C56.2234 137.7 55.8594 138.054 55.4075 138.054C54.9557 138.054 54.5917 137.678 54.5917 137.228C54.5917 136.779 54.9582 136.413 55.4075 136.413ZM55.4075 150.051C55.8569 150.051 56.2234 150.415 56.2234 150.867V150.89C56.2234 151.339 55.8594 151.693 55.4075 151.693C54.9557 151.693 54.5917 151.316 54.5917 150.867C54.5917 150.418 54.9582 150.051 55.4075 150.051ZM55.4075 163.687C55.8569 163.687 56.2234 164.051 56.2234 164.503V164.526C56.2234 164.975 55.8594 165.329 55.4075 165.329C54.9557 165.329 54.5917 164.952 54.5917 164.503C54.5917 164.054 54.9582 163.687 55.4075 163.687Z" fill="#80CFD4"/>
<path d="M54.5917 0.87098C54.5917 1.32033 54.9557 1.69184 55.4075 1.69184C55.8569 1.69184 56.2234 1.33287 56.2234 0.883528V0.87098C56.2234 0.421635 55.8594 0.05513 55.4075 0.05513C54.9582 0.05513 54.5917 0.421635 54.5917 0.87098Z" fill="#80CFD4"/>
<path d="M40.9557 178.139C40.9557 178.588 41.3197 178.96 41.7715 178.96C42.2209 178.96 42.5874 178.601 42.5874 178.151V178.139C42.5874 177.69 42.2234 177.323 41.7715 177.323C41.3197 177.323 40.9557 177.69 40.9557 178.139Z" fill="#80CFD4"/>
<path d="M41.7715 13.6812C42.2209 13.6812 42.5874 14.0452 42.5874 14.497V14.5196C42.5874 14.969 42.2234 15.3229 41.7715 15.3229C41.3197 15.3229 40.9557 14.9464 40.9557 14.497C40.9557 14.0477 41.3197 13.6812 41.7715 13.6812ZM41.7715 27.3197C42.2209 27.3197 42.5874 27.6837 42.5874 28.1355V28.1581C42.5874 28.6075 42.2234 28.9614 41.7715 28.9614C41.3197 28.9614 40.9557 28.5849 40.9557 28.1355C40.9557 27.6837 41.3197 27.3197 41.7715 27.3197ZM41.7715 40.9557C42.2209 40.9557 42.5874 41.3197 42.5874 41.7715V41.7941C42.5874 42.2434 42.2234 42.5974 41.7715 42.5974C41.3197 42.5974 40.9557 42.2209 40.9557 41.7715C40.9557 41.3197 41.3197 40.9557 41.7715 40.9557ZM41.7715 54.5917C42.2209 54.5917 42.5874 54.9557 42.5874 55.4075V55.4301C42.5874 55.8794 42.2234 56.2334 41.7715 56.2334C41.3222 56.2334 40.9557 55.8569 40.9557 55.4075C40.9557 54.9582 41.3197 54.5917 41.7715 54.5917ZM41.7715 68.2302C42.2209 68.2302 42.5874 68.5941 42.5874 69.046V69.0686C42.5874 69.5179 42.2234 69.8719 41.7715 69.8719C41.3222 69.8719 40.9557 69.4953 40.9557 69.046C40.9557 68.5941 41.3197 68.2302 41.7715 68.2302ZM41.7715 81.8661C42.2209 81.8661 42.5874 82.2301 42.5874 82.682V82.7046C42.5874 83.1539 42.2234 83.5079 41.7715 83.5079C41.3222 83.5079 40.9557 83.1313 40.9557 82.682C40.9557 82.2301 41.3197 81.8661 41.7715 81.8661ZM41.7715 95.5021C42.2209 95.5021 42.5874 95.8661 42.5874 96.318V96.3406C42.5874 96.7899 42.2234 97.1439 41.7715 97.1439C41.3197 97.1439 40.9557 96.7673 40.9557 96.318C40.9557 95.8686 41.3197 95.5021 41.7715 95.5021ZM41.7715 109.141C42.2209 109.141 42.5874 109.505 42.5874 109.956V109.979C42.5874 110.428 42.2234 110.782 41.7715 110.782C41.3197 110.782 40.9557 110.406 40.9557 109.956C40.9557 109.505 41.3197 109.141 41.7715 109.141ZM41.7715 122.777C42.2209 122.777 42.5874 123.141 42.5874 123.592V123.615C42.5874 124.064 42.2234 124.418 41.7715 124.418C41.3197 124.418 40.9557 124.042 40.9557 123.592C40.9557 123.143 41.3197 122.777 41.7715 122.777ZM41.7715 136.413C42.2209 136.413 42.5874 136.777 42.5874 137.228V137.251C42.5874 137.7 42.2234 138.054 41.7715 138.054C41.3197 138.054 40.9557 137.678 40.9557 137.228C40.9557 136.779 41.3197 136.413 41.7715 136.413ZM41.7715 150.051C42.2209 150.051 42.5874 150.415 42.5874 150.867V150.89C42.5874 151.339 42.2234 151.693 41.7715 151.693C41.3222 151.693 40.9557 151.316 40.9557 150.867C40.9557 150.418 41.3197 150.051 41.7715 150.051ZM41.7715 163.687C42.2209 163.687 42.5874 164.051 42.5874 164.503V164.526C42.5874 164.975 42.2234 165.329 41.7715 165.329C41.3222 165.329 40.9557 164.952 40.9557 164.503C40.9557 164.054 41.3197 163.687 41.7715 163.687Z" fill="#80CFD4"/>
<path d="M40.9557 0.87098C40.9557 1.32033 41.3197 1.69184 41.7715 1.69184C42.2209 1.69184 42.5874 1.33287 42.5874 0.883528V0.87098C42.5874 0.421635 42.2234 0.05513 41.7715 0.05513C41.3197 0.05513 40.9557 0.421635 40.9557 0.87098Z" fill="#80CFD4"/>
<path d="M27.3197 178.139C27.3197 178.588 27.6837 178.96 28.1355 178.96C28.5874 178.96 28.9514 178.601 28.9514 178.151V178.139C28.9514 177.69 28.5874 177.323 28.1355 177.323C27.6837 177.323 27.3197 177.69 27.3197 178.139Z" fill="#80CFD4"/>
<path d="M28.133 13.6812C28.5824 13.6812 28.9489 14.0452 28.9489 14.497V14.5196C28.9489 14.969 28.5849 15.3229 28.133 15.3229C27.6812 15.3229 27.3172 14.9464 27.3172 14.497C27.3197 14.0477 27.6837 13.6812 28.133 13.6812ZM28.133 27.3197C28.5824 27.3197 28.9489 27.6837 28.9489 28.1355V28.1581C28.9489 28.6075 28.5849 28.9614 28.133 28.9614C27.6837 28.9614 27.3172 28.5849 27.3172 28.1355C27.3197 27.6837 27.6837 27.3197 28.133 27.3197ZM28.133 40.9557C28.5824 40.9557 28.9489 41.3197 28.9489 41.7715V41.7941C28.9489 42.2434 28.5849 42.5974 28.133 42.5974C27.6837 42.5974 27.3172 42.2209 27.3172 41.7715C27.3197 41.3197 27.6837 40.9557 28.133 40.9557ZM28.133 54.5917C28.5824 54.5917 28.9489 54.9557 28.9489 55.4075V55.4301C28.9489 55.8794 28.5849 56.2334 28.133 56.2334C27.6837 56.2334 27.3172 55.8569 27.3172 55.4075C27.3197 54.9582 27.6837 54.5917 28.133 54.5917ZM28.133 68.2302C28.5824 68.2302 28.9489 68.5941 28.9489 69.046V69.0686C28.9489 69.5179 28.5849 69.8719 28.133 69.8719C27.6812 69.8719 27.3172 69.4953 27.3172 69.046C27.3197 68.5941 27.6837 68.2302 28.133 68.2302ZM28.133 81.8661C28.5824 81.8661 28.9489 82.2301 28.9489 82.682V82.7046C28.9489 83.1539 28.5849 83.5079 28.133 83.5079C27.6812 83.5079 27.3172 83.1313 27.3172 82.682C27.3197 82.2301 27.6837 81.8661 28.133 81.8661ZM28.133 95.5021C28.5824 95.5021 28.9489 95.8661 28.9489 96.318V96.3406C28.9489 96.7899 28.5849 97.1439 28.133 97.1439C27.6812 97.1439 27.3172 96.7673 27.3172 96.318C27.3197 95.8686 27.6837 95.5021 28.133 95.5021ZM28.133 109.141C28.5824 109.141 28.9489 109.505 28.9489 109.956V109.979C28.9489 110.428 28.5849 110.782 28.133 110.782C27.6812 110.782 27.3172 110.406 27.3172 109.956C27.3197 109.505 27.6837 109.141 28.133 109.141ZM28.133 122.777C28.5824 122.777 28.9489 123.141 28.9489 123.592V123.615C28.9489 124.064 28.5849 124.418 28.133 124.418C27.6837 124.418 27.3172 124.042 27.3172 123.592C27.3172 123.143 27.6837 122.777 28.133 122.777ZM28.133 136.413C28.5824 136.413 28.9489 136.777 28.9489 137.228V137.251C28.9489 137.7 28.5849 138.054 28.133 138.054C27.6837 138.054 27.3172 137.678 27.3172 137.228C27.3172 136.779 27.6837 136.413 28.133 136.413ZM28.133 150.051C28.5824 150.051 28.9489 150.415 28.9489 150.867V150.89C28.9489 151.339 28.5849 151.693 28.133 151.693C27.6837 151.693 27.3172 151.316 27.3172 150.867C27.3172 150.418 27.6837 150.051 28.133 150.051ZM28.133 163.687C28.5824 163.687 28.9489 164.051 28.9489 164.503V164.526C28.9489 164.975 28.5849 165.329 28.133 165.329C27.6812 165.329 27.3172 164.952 27.3172 164.503C27.3172 164.054 27.6837 163.687 28.133 163.687Z" fill="#80CFD4"/>
<path d="M27.3196 0.871033C27.3196 1.32038 27.6836 1.69189 28.1355 1.69189C28.5873 1.69189 28.9513 1.33293 28.9513 0.883582V0.871033C28.9513 0.421688 28.5873 0.0551834 28.1355 0.0551834C27.6836 0.0551834 27.3196 0.421688 27.3196 0.871033Z" fill="#80CFD4"/>
<path d="M13.6812 178.139C13.6812 178.588 14.0452 178.96 14.497 178.96C14.9464 178.96 15.3129 178.601 15.3129 178.151V178.139C15.3129 177.69 14.9489 177.323 14.497 177.323C14.0477 177.323 13.6812 177.69 13.6812 178.139Z" fill="#80CFD4"/>
<path d="M14.497 13.6812C14.9464 13.6812 15.3129 14.0452 15.3129 14.497V14.5196C15.3129 14.969 14.9489 15.3229 14.497 15.3229C14.0477 15.3229 13.6812 14.9464 13.6812 14.497C13.6812 14.0477 14.0477 13.6812 14.497 13.6812ZM14.497 27.3197C14.9464 27.3197 15.3129 27.6837 15.3129 28.1355V28.1581C15.3129 28.6075 14.9489 28.9614 14.497 28.9614C14.0477 28.9614 13.6812 28.5849 13.6812 28.1355C13.6812 27.6837 14.0477 27.3197 14.497 27.3197ZM14.497 40.9557C14.9464 40.9557 15.3129 41.3197 15.3129 41.7715V41.7941C15.3129 42.2434 14.9489 42.5974 14.497 42.5974C14.0452 42.5974 13.6812 42.2209 13.6812 41.7715C13.6812 41.3197 14.0477 40.9557 14.497 40.9557ZM14.497 54.5917C14.9464 54.5917 15.3129 54.9557 15.3129 55.4075V55.4301C15.3129 55.8794 14.9489 56.2334 14.497 56.2334C14.0452 56.2334 13.6812 55.8569 13.6812 55.4075C13.6812 54.9582 14.0477 54.5917 14.497 54.5917ZM14.497 68.2302C14.9464 68.2302 15.3129 68.5941 15.3129 69.046V69.0686C15.3129 69.5179 14.9489 69.8719 14.497 69.8719C14.0452 69.8719 13.6812 69.4953 13.6812 69.046C13.6812 68.5941 14.0477 68.2302 14.497 68.2302ZM14.497 81.8661C14.9464 81.8661 15.3129 82.2301 15.3129 82.682V82.7046C15.3129 83.1539 14.9489 83.5079 14.497 83.5079C14.0452 83.5079 13.6812 83.1313 13.6812 82.682C13.6812 82.2301 14.0477 81.8661 14.497 81.8661ZM14.497 95.5021C14.9464 95.5021 15.3129 95.8661 15.3129 96.318V96.3406C15.3129 96.7899 14.9489 97.1439 14.497 97.1439C14.0477 97.1439 13.6812 96.7673 13.6812 96.318C13.6812 95.8686 14.0477 95.5021 14.497 95.5021ZM14.497 109.141C14.9464 109.141 15.3129 109.505 15.3129 109.956V109.979C15.3129 110.428 14.9489 110.782 14.497 110.782C14.0477 110.782 13.6812 110.406 13.6812 109.956C13.6812 109.505 14.0477 109.141 14.497 109.141ZM14.497 122.777C14.9464 122.777 15.3129 123.141 15.3129 123.592V123.615C15.3129 124.064 14.9489 124.418 14.497 124.418C14.0452 124.418 13.6812 124.042 13.6812 123.592C13.6812 123.141 14.0477 122.777 14.497 122.777ZM14.497 136.413C14.9464 136.413 15.3129 136.777 15.3129 137.228V137.251C15.3129 137.7 14.9489 138.054 14.497 138.054C14.0452 138.054 13.6812 137.678 13.6812 137.228C13.6812 136.779 14.0477 136.413 14.497 136.413ZM14.497 150.051C14.9464 150.051 15.3129 150.415 15.3129 150.867V150.89C15.3129 151.339 14.9489 151.693 14.497 151.693C14.0452 151.693 13.6812 151.316 13.6812 150.867C13.6812 150.415 14.0477 150.051 14.497 150.051ZM14.497 163.687C14.9464 163.687 15.3129 164.051 15.3129 164.503V164.526C15.3129 164.975 14.9489 165.329 14.497 165.329C14.0452 165.329 13.6812 164.952 13.6812 164.503C13.6812 164.051 14.0477 163.687 14.497 163.687Z" fill="#80CFD4"/>
<path d="M13.6812 0.87098C13.6812 1.32033 14.0452 1.69184 14.497 1.69184C14.9464 1.69184 15.3129 1.33287 15.3129 0.883528V0.87098C15.3129 0.421635 14.9489 0.05513 14.497 0.05513C14.0477 0.05513 13.6812 0.421635 13.6812 0.87098Z" fill="#80CFD4"/>
<path d="M0.0451584 178.139C0.0451584 178.588 0.409153 178.96 0.861009 178.96C1.31035 178.96 1.67686 178.601 1.67686 178.151V178.139C1.67686 177.69 1.31286 177.323 0.861009 177.323C0.409153 177.323 0.0451584 177.69 0.0451584 178.139Z" fill="#80CFD4"/>
<path d="M0.861009 13.6812C1.31035 13.6812 1.67686 14.0452 1.67686 14.4971V14.5197C1.67686 14.969 1.31286 15.323 0.861009 15.323C0.409153 15.323 0.0451584 14.9464 0.0451584 14.4971C0.0451584 14.0477 0.409153 13.6812 0.861009 13.6812ZM0.861009 27.3197C1.31035 27.3197 1.67686 27.6837 1.67686 28.1356V28.1582C1.67686 28.6075 1.31286 28.9615 0.861009 28.9615C0.409153 28.9615 0.0451584 28.5849 0.0451584 28.1356C0.0451584 27.6837 0.409153 27.3197 0.861009 27.3197ZM0.861009 40.9557C1.31035 40.9557 1.67686 41.3197 1.67686 41.7716V41.7942C1.67686 42.2435 1.31286 42.5975 0.861009 42.5975C0.409153 42.5975 0.0451584 42.2209 0.0451584 41.7716C0.0451584 41.3197 0.409153 40.9557 0.861009 40.9557ZM0.861009 54.5917C1.31035 54.5917 1.67686 54.9557 1.67686 55.4076V55.4302C1.67686 55.8795 1.31286 56.2335 0.861009 56.2335C0.411663 56.2335 0.0451584 55.8569 0.0451584 55.4076C0.0451584 54.9582 0.409153 54.5917 0.861009 54.5917ZM0.861009 68.2302C1.31035 68.2302 1.67686 68.5942 1.67686 69.0461V69.0687C1.67686 69.518 1.31286 69.872 0.861009 69.872C0.411663 69.872 0.0451584 69.4954 0.0451584 69.0461C0.0451584 68.5942 0.409153 68.2302 0.861009 68.2302ZM0.861009 81.8662C1.31035 81.8662 1.67686 82.2302 1.67686 82.6821V82.7047C1.67686 83.154 1.31286 83.508 0.861009 83.508C0.411663 83.508 0.0451584 83.1314 0.0451584 82.6821C0.0451584 82.2302 0.409153 81.8662 0.861009 81.8662ZM0.861009 95.5022C1.31035 95.5022 1.67686 95.8662 1.67686 96.318V96.3407C1.67686 96.79 1.31286 97.1439 0.861009 97.1439C0.409153 97.1439 0.0451584 96.7674 0.0451584 96.318C0.0451584 95.8687 0.409153 95.5022 0.861009 95.5022ZM0.861009 109.141C1.31035 109.141 1.67686 109.505 1.67686 109.957V109.979C1.67686 110.428 1.31286 110.782 0.861009 110.782C0.409153 110.782 0.0451584 110.406 0.0451584 109.957C0.0451584 109.505 0.409153 109.141 0.861009 109.141ZM0.861009 122.777C1.31035 122.777 1.67686 123.141 1.67686 123.593V123.615C1.67686 124.064 1.31286 124.418 0.861009 124.418C0.409153 124.418 0.0451584 124.042 0.0451584 123.593C0.0451584 123.143 0.409153 122.777 0.861009 122.777ZM0.861009 136.413C1.31035 136.413 1.67686 136.777 1.67686 137.229V137.251C1.67686 137.7 1.31286 138.054 0.861009 138.054C0.409153 138.054 0.0451584 137.678 0.0451584 137.229C0.0451584 136.779 0.409153 136.413 0.861009 136.413ZM0.861009 150.051C1.31035 150.051 1.67686 150.415 1.67686 150.867V150.89C1.67686 151.339 1.31286 151.693 0.861009 151.693C0.411663 151.693 0.0451584 151.316 0.0451584 150.867C0.0451584 150.418 0.409153 150.051 0.861009 150.051ZM0.861009 163.687C1.31035 163.687 1.67686 164.051 1.67686 164.503V164.526C1.67686 164.975 1.31286 165.329 0.861009 165.329C0.411663 165.329 0.0451584 164.952 0.0451584 164.503C0.0451584 164.054 0.409153 163.687 0.861009 163.687Z" fill="#80CFD4"/>
<path d="M0.0451584 0.871041C0.0451584 1.32039 0.409153 1.6919 0.861009 1.6919C1.31035 1.6919 1.67686 1.33293 1.67686 0.88359V0.871041C1.67686 0.421696 1.31286 0.055191 0.861009 0.055191C0.409153 0.055191 0.0451584 0.421696 0.0451584 0.871041Z" fill="#80CFD4"/>
<path d="M177.323 178.197C177.323 178.646 177.687 179.018 178.139 179.018C178.588 179.018 178.955 178.659 178.955 178.209V178.197C178.955 177.747 178.591 177.381 178.139 177.381C177.69 177.381 177.323 177.745 177.323 178.197Z" fill="#80CFD4"/>
<path d="M163.687 178.197C163.687 178.646 164.051 179.018 164.503 179.018C164.952 179.018 165.319 178.659 165.319 178.209V178.197C165.319 177.747 164.955 177.381 164.503 177.381C164.054 177.381 163.687 177.745 163.687 178.197Z" fill="#80CFD4"/>
<path d="M150.051 178.197C150.051 178.646 150.415 179.018 150.867 179.018C151.319 179.018 151.683 178.659 151.683 178.209V178.197C151.683 177.747 151.319 177.381 150.867 177.381C150.415 177.381 150.051 177.745 150.051 178.197Z" fill="#80CFD4"/>
<path d="M136.413 178.197C136.413 178.646 136.777 179.018 137.228 179.018C137.678 179.018 138.044 178.659 138.044 178.209V178.197C138.044 177.747 137.68 177.381 137.228 177.381C136.779 177.381 136.413 177.745 136.413 178.197Z" fill="#80CFD4"/>
<path d="M122.777 178.197C122.777 178.646 123.141 179.018 123.592 179.018C124.042 179.018 124.408 178.659 124.408 178.209V178.197C124.408 177.747 124.044 177.381 123.592 177.381C123.141 177.381 122.777 177.745 122.777 178.197Z" fill="#80CFD4"/>
<path d="M109.141 178.197C109.141 178.646 109.505 179.018 109.957 179.018C110.408 179.018 110.772 178.659 110.772 178.209V178.197C110.772 177.747 110.408 177.381 109.957 177.381C109.505 177.381 109.141 177.745 109.141 178.197Z" fill="#80CFD4"/>
<path d="M95.5021 178.197C95.5021 178.646 95.8661 179.018 96.318 179.018C96.7673 179.018 97.1338 178.659 97.1338 178.209V178.197C97.1338 177.747 96.7698 177.381 96.318 177.381C95.8686 177.381 95.5021 177.745 95.5021 178.197Z" fill="#80CFD4"/>
<path d="M81.8662 178.197C81.8662 178.646 82.2302 179.018 82.682 179.018C83.1314 179.018 83.4979 178.659 83.4979 178.209V178.197C83.4979 177.747 83.1339 177.381 82.682 177.381C82.2302 177.381 81.8662 177.745 81.8662 178.197Z" fill="#80CFD4"/>
<path d="M68.2301 178.197C68.2301 178.646 68.5941 179.018 69.046 179.018C69.4979 179.018 69.8618 178.659 69.8618 178.209V178.197C69.8618 177.747 69.4979 177.381 69.046 177.381C68.5941 177.381 68.2301 177.745 68.2301 178.197Z" fill="#80CFD4"/>
<path d="M54.5917 178.197C54.5917 178.646 54.9557 179.018 55.4075 179.018C55.8569 179.018 56.2234 178.659 56.2234 178.209V178.197C56.2234 177.747 55.8594 177.381 55.4075 177.381C54.9582 177.381 54.5917 177.745 54.5917 178.197Z" fill="#80CFD4"/>
<path d="M40.9557 178.197C40.9557 178.646 41.3197 179.018 41.7715 179.018C42.2209 179.018 42.5874 178.659 42.5874 178.209V178.197C42.5874 177.747 42.2234 177.381 41.7715 177.381C41.3197 177.381 40.9557 177.745 40.9557 178.197Z" fill="#80CFD4"/>
<path d="M27.3197 178.197C27.3197 178.646 27.6837 179.018 28.1355 179.018C28.5874 179.018 28.9514 178.659 28.9514 178.209V178.197C28.9514 177.747 28.5874 177.381 28.1355 177.381C27.6837 177.381 27.3197 177.745 27.3197 178.197Z" fill="#80CFD4"/>
<path d="M13.6812 178.197C13.6812 178.646 14.0452 179.018 14.497 179.018C14.9464 179.018 15.3129 178.659 15.3129 178.209V178.197C15.3129 177.747 14.9489 177.381 14.497 177.381C14.0477 177.381 13.6812 177.745 13.6812 178.197Z" fill="#80CFD4"/>
<path d="M0.0451584 178.197C0.0451584 178.646 0.409153 179.018 0.861009 179.018C1.31035 179.018 1.67686 178.659 1.67686 178.209V178.197C1.67686 177.747 1.31286 177.381 0.861009 177.381C0.409153 177.381 0.0451584 177.745 0.0451584 178.197Z" fill="#80CFD4"/>
<path d="M177.368 0.81585C177.368 1.2652 177.732 1.63673 178.184 1.63673C178.633 1.63673 179 1.27774 179 0.828398V0.81585C179 0.366505 178.636 0 178.184 0C177.735 0 177.368 0.363995 177.368 0.81585Z" fill="#80CFD4"/>
<path d="M177.368 178.139C177.368 178.588 177.732 178.96 178.184 178.96C178.633 178.96 179 178.601 179 178.151V178.139C179 177.69 178.636 177.323 178.184 177.323C177.735 177.323 177.368 177.69 177.368 178.139Z" fill="#80CFD4"/>
<path d="M178.184 13.6812C178.633 13.6812 179 14.0452 179 14.4971V14.5197C179 14.969 178.636 15.323 178.184 15.323C177.735 15.323 177.368 14.9464 177.368 14.4971C177.368 14.0477 177.735 13.6812 178.184 13.6812ZM178.184 27.3197C178.633 27.3197 179 27.6837 179 28.1356V28.1582C179 28.6075 178.636 28.9615 178.184 28.9615C177.732 28.9615 177.368 28.5849 177.368 28.1356C177.368 27.6837 177.735 27.3197 178.184 27.3197ZM178.184 40.9557C178.633 40.9557 179 41.3197 179 41.7716V41.7942C179 42.2435 178.636 42.5975 178.184 42.5975C177.732 42.5975 177.368 42.2209 177.368 41.7716C177.368 41.3197 177.735 40.9557 178.184 40.9557ZM178.184 54.5917C178.633 54.5917 179 54.9557 179 55.4076V55.4302C179 55.8795 178.636 56.2335 178.184 56.2335C177.732 56.2335 177.368 55.8569 177.368 55.4076C177.368 54.9582 177.735 54.5917 178.184 54.5917ZM178.184 68.2302C178.633 68.2302 179 68.5942 179 69.0461V69.0687C179 69.518 178.636 69.872 178.184 69.872C177.732 69.872 177.368 69.4954 177.368 69.0461C177.368 68.5942 177.735 68.2302 178.184 68.2302ZM178.184 81.8662C178.633 81.8662 179 82.2302 179 82.6821V82.7047C179 83.154 178.636 83.508 178.184 83.508C177.735 83.508 177.368 83.1314 177.368 82.6821C177.368 82.2302 177.735 81.8662 178.184 81.8662ZM178.184 95.5022C178.633 95.5022 179 95.8662 179 96.318V96.3407C179 96.79 178.636 97.1439 178.184 97.1439C177.735 97.1439 177.368 96.7674 177.368 96.318C177.368 95.8687 177.735 95.5022 178.184 95.5022ZM178.184 109.141C178.633 109.141 179 109.505 179 109.957V109.979C179 110.428 178.636 110.782 178.184 110.782C177.735 110.782 177.368 110.406 177.368 109.957C177.368 109.505 177.735 109.141 178.184 109.141ZM178.184 122.777C178.633 122.777 179 123.141 179 123.593V123.615C179 124.064 178.636 124.418 178.184 124.418C177.732 124.418 177.368 124.042 177.368 123.593C177.368 123.143 177.735 122.777 178.184 122.777ZM178.184 136.413C178.633 136.413 179 136.777 179 137.229V137.251C179 137.7 178.636 138.054 178.184 138.054C177.732 138.054 177.368 137.678 177.368 137.229C177.368 136.779 177.735 136.413 178.184 136.413ZM178.184 150.051C178.633 150.051 179 150.415 179 150.867V150.89C179 151.339 178.636 151.693 178.184 151.693C177.732 151.693 177.368 151.316 177.368 150.867C177.368 150.418 177.735 150.051 178.184 150.051ZM178.184 163.687C178.633 163.687 179 164.051 179 164.503V164.526C179 164.975 178.636 165.329 178.184 165.329C177.735 165.329 177.368 164.952 177.368 164.503C177.368 164.054 177.735 163.687 178.184 163.687Z" fill="#80CFD4"/>
<path d="M177.368 0.871041C177.368 1.32039 177.732 1.6919 178.184 1.6919C178.633 1.6919 179 1.33293 179 0.88359V0.871041C179 0.421696 178.636 0.055191 178.184 0.055191C177.735 0.055191 177.368 0.421696 177.368 0.871041Z" fill="#80CFD4"/>
<path d="M177.368 178.197C177.368 178.646 177.732 179.018 178.184 179.018C178.633 179.018 179 178.659 179 178.209V178.197C179 177.747 178.636 177.381 178.184 177.381C177.735 177.381 177.368 177.745 177.368 178.197Z" fill="#80CFD4"/>
</g>
</svg>
